<svg xmlns="http://www.w3.org/2000/svg" width="66.435" height="76.702" viewBox="0 0 17.578 20.294"><g stroke-width=".265"><path fill="#ffc52e" d="m16.616 14.666-7.828 4.52-7.826-4.52V5.63l7.826-4.52 7.828 4.52zM8.788.001 0 5.074v10.149l8.788 5.072 8.79-5.072V5.074z"/><path fill="#66499e" d="M16.616 5.628 8.79 1.11.962 5.628v9.038l7.827 4.518 7.827-4.518z"/><path fill="#ffc52e" d="M14.108 8.405v4.814l-5.32 3.068-2.235-1.29c.513-.561.883-1.251.883-1.251l-2.14-2.14s-1.385.74-1.826 1.588V7.077l5.318-3.071 1.708.987c-.404.175-.83.455-1.274.872-1.968 1.857-3.03 4.664-3.03 4.664l2.321 2.323s2.807-1.061 4.664-3.03c.468-.496.762-.971.931-1.417"/><path fill="#fff" d="M13.867 8.368c-.16.399-.432.83-.864 1.288-1.56 1.654-3.844 2.669-4.432 2.913l-2.098-2.097c.245-.59 1.259-2.872 2.914-4.432.385-.363.749-.614 1.094-.779q.308-.149.591-.215c1.22-.288 2.063.45 2.27.657.124.123.439.476.608 1.005.143.442.182 1.007-.083 1.66m0 4.712-5.079 2.932-1.86-1.075c.395-.484.668-.978.72-1.078a.24.24 0 0 0-.04-.283l-2.14-2.14a.24.24 0 0 0-.283-.043c-.13.068-.906.496-1.475 1.082v-5.26l5.078-2.93 1.203.693a5.2 5.2 0 0 0-.935.712c-1.985 1.874-3.045 4.637-3.09 4.755a.24.24 0 0 0 .054.253l2.324 2.324a.24.24 0 0 0 .254.054c.117-.044 2.881-1.102 4.756-3.09q.298-.318.513-.624zm-8.413 2.377c-.834.123-1.257-.304-1.395-.443l-.031-.03c-.14-.14-.566-.562-.44-1.394q-.001-.012.004-.024c.025-.144.1-.292.2-.439.35-.499 1.048-.979 1.464-1.223l1.882 1.884c-.144.245-.371.59-.636.902-.108.13-.222.253-.34.36-.23.213-.475.373-.708.407M13.681 5.36c-.168-.167-1.421-1.334-3.171-.639l-1.601-.924a.24.24 0 0 0-.24 0L3.35 6.869a.24.24 0 0 0-.118.209v6.06a1.3 1.3 0 0 0-.12.381c-.106.712.088 1.319.58 1.806l.027.027q.604.608 1.44.608.177 0 .366-.028c.384-.058.753-.316 1.071-.631l2.075 1.196a.236.236 0 0 0 .24 0l5.319-3.07a.24.24 0 0 0 .12-.208V8.463c.636-1.713-.502-2.935-.668-3.102"/></g></svg>