<?xml version="1.0" encoding="UTF-8"?>
<svg width="1757.8mm" height="2029.4mm" version="1.1" viewBox="0 0 17.578 20.294" xmlns="http://www.w3.org/2000/svg">
 <g transform="translate(-2.6458 -62.706)">
  <g transform="matrix(.26458 0 0 .26458 -74.244 -103.99)">
   <path d="m353.41 685.45-29.585 17.081-29.582-17.081v-34.156l29.582-17.083 29.585 17.083zm-29.585-55.429-33.218 19.176v38.357l33.218 19.169 33.22-19.169v-38.357z" fill="#bb6228"/>
   <path d="m294.24 651.3 29.582-17.078 29.582 17.078v34.157l-29.582 17.077-29.582-17.077z" fill="#66499e"/>
   <path d="m317.17 672.35 5.052 18.31-18.498-10.675v-23.211l18.498-10.686-5.052 18.326-1.097 3.961z" fill="#bc6228"/>
   <path d="m343.93 656.77v23.211l-18.499 10.675 5.046-18.31 1.096-3.974-1.089-3.961-5.053-18.327z" fill="#bc6228"/>
   <path d="m331.57 668.38-1.096 3.975-6.646 24.118-0.963-3.487-5.69-20.631-1.096-3.975 1.096-3.961 5.69-20.644 0.963-3.483 6.653 24.127z" fill="#66499e"/>
   <path d="m323.83 640.29-0.961 3.483-6.785 24.605 6.785 24.608 0.961 3.482 7.745-28.09z" fill="#66499e"/>
   <path d="m343.02 679.46-16.126 9.313 4.44-16.103c0.725-1.268 1.149-2.73 1.149-4.293v-4e-3c0-1.564-0.424-3.027-1.152-4.298l-4.437-16.086 16.126 9.306zm-19.189 13.586-0.156-0.564-0.665-2.417-3.999-14.503c1.376 0.929 3.036 1.468 4.82 1.468 1.783 0 3.441-0.539 4.819-1.468l-3.999 14.503-0.664 2.417zm-19.199-13.586v-22.165l16.136-9.306-4.437 16.086c-0.729 1.271-1.152 2.739-1.152 4.302s0.423 3.025 1.146 4.293l4.443 16.103zm25.974-10.171c-0.443 3.337-3.315 5.929-6.775 5.929-3.461 0-6.332-2.592-6.776-5.929zm-13.551-1.816c0.444-3.345 3.315-5.929 6.776-5.929 3.46 0 6.332 2.584 6.775 5.929zm6.776-23.767 0.156 0.565 0.664 2.423 3.999 14.505c-1.378-0.929-3.036-1.475-4.819-1.475-1.784 0-3.444 0.546-4.82 1.475l3.999-14.505 0.665-2.423zm20.555 12.282-18.183-10.5-1.502-5.442c-0.099-0.392-0.46-0.666-0.87-0.666-0.411 0-0.771 0.274-0.88 0.675l-1.498 5.433-18.178 10.5c-0.28 0.159-0.456 0.459-0.456 0.787v23.211c0 0.326 0.176 0.626 0.456 0.787l18.178 10.492 1.498 5.442c0.109 0.399 0.469 0.667 0.88 0.667 0.41 0 0.771-0.268 0.87-0.667l1.502-5.442 18.183-10.492c0.281-0.161 0.457-0.461 0.457-0.787v-23.211c0-0.328-0.176-0.628-0.457-0.787" fill="#fff"/>
  </g>
 </g>
</svg>
