<svg xmlns="http://www.w3.org/2000/svg" width="664.37" height="767.02" viewBox="0 0 17.58 20.29"><path fill="#a51e36" d="m16.61 14.66-7.83 4.52-7.82-4.52V5.62l7.82-4.51 7.83 4.51zM8.78 0 0 5.07v10.15l8.78 5.07 8.8-5.07V5.07z"/><path fill="#66499e" d="M16.6 5.63 8.79 1.1.96 5.63v9.03l7.82 4.52 7.83-4.52z"/><path fill="#a51e36" d="M14.1 8.4v4.82l-5.32 3.06L6.55 15c.51-.56.88-1.25.88-1.25L5.3 11.6s-1.38.74-1.82 1.6V7.06L8.78 4 10.5 5q-.6.25-1.27.87c-1.97 1.86-3.03 4.67-3.03 4.67l2.32 2.32s2.8-1.06 4.66-3.03q.69-.75.93-1.42"/><path fill="#fff" d="M13.86 8.36q-.23.6-.86 1.3a14 14 0 0 1-4.44 2.9l-2.1-2.1c.25-.58 1.26-2.86 2.92-4.42q.57-.55 1.1-.78.3-.15.59-.22a2.45 2.45 0 0 1 2.79 3.32m0 4.72L8.78 16l-1.86-1.08c.4-.48.67-.97.72-1.07q.08-.16-.04-.29l-2.14-2.14a.24.24 0 0 0-.28-.04c-.13.07-.9.5-1.48 1.08V7.21l5.08-2.93 1.2.7q-.44.25-.93.7a14 14 0 0 0-3.1 4.76.24.24 0 0 0 .06.26l2.33 2.32a.2.2 0 0 0 .25.05c.12-.04 2.88-1.1 4.76-3.09q.3-.31.51-.62zm-8.41 2.37c-.84.13-1.26-.3-1.4-.44l-.03-.03c-.14-.14-.57-.56-.44-1.4v-.02q.05-.21.2-.44c.35-.5 1.05-.98 1.47-1.22l1.88 1.89a7 7 0 0 1-.98 1.26q-.35.33-.7.4m8.22-10.1a3 3 0 0 0-3.17-.63l-1.6-.93a.2.2 0 0 0-.24 0L3.34 6.87a.2.2 0 0 0-.12.2v6.06q-.09.2-.12.39a2 2 0 0 0 .58 1.8l.03.03q.6.6 1.44.6.18 0 .37-.02c.38-.06.75-.32 1.07-.63l2.07 1.2.12.03q.06 0 .12-.04l5.32-3.07a.2.2 0 0 0 .12-.2V8.46a3 3 0 0 0-.67-3.1"/><path fill="#a51e36" d="m16.61 14.66-7.83 4.52-7.82-4.52V5.62l7.82-4.51 7.83 4.51zM8.78 0 0 5.07v10.15l8.78 5.07 8.8-5.07V5.07z"/><path fill="#66499e" d="M16.6 5.63 8.79 1.1.96 5.63v9.03l7.82 4.52 7.83-4.52z"/><path fill="#a51e36" d="M14.1 8.4v4.82l-5.32 3.06L6.55 15c.51-.56.88-1.25.88-1.25L5.3 11.6s-1.38.74-1.82 1.6V7.06L8.78 4 10.5 5q-.6.25-1.27.87c-1.97 1.86-3.03 4.67-3.03 4.67l2.32 2.32s2.8-1.06 4.66-3.03q.69-.75.93-1.42"/><path fill="#fff" d="M13.86 8.36q-.23.6-.86 1.3a14 14 0 0 1-4.44 2.9l-2.1-2.1c.25-.58 1.26-2.86 2.92-4.42q.57-.55 1.1-.78.3-.15.59-.22a2.45 2.45 0 0 1 2.79 3.32m0 4.72L8.78 16l-1.86-1.08c.4-.48.67-.97.72-1.07q.08-.16-.04-.29l-2.14-2.14a.24.24 0 0 0-.28-.04c-.13.07-.9.5-1.48 1.08V7.21l5.08-2.93 1.2.7q-.44.25-.93.7a14 14 0 0 0-3.1 4.76.24.24 0 0 0 .06.26l2.33 2.32a.2.2 0 0 0 .25.05c.12-.04 2.88-1.1 4.76-3.09q.3-.31.51-.62zm-8.41 2.37c-.84.13-1.26-.3-1.4-.44l-.03-.03c-.14-.14-.57-.56-.44-1.4v-.02q.05-.21.2-.44c.35-.5 1.05-.98 1.47-1.22l1.88 1.89a7 7 0 0 1-.98 1.26q-.35.33-.7.4m8.22-10.1a3 3 0 0 0-3.17-.63l-1.6-.93a.2.2 0 0 0-.24 0L3.34 6.87a.2.2 0 0 0-.12.2v6.06q-.09.2-.12.39a2 2 0 0 0 .58 1.8l.03.03q.6.6 1.44.6.18 0 .37-.02c.38-.06.75-.32 1.07-.63l2.07 1.2.12.03q.06 0 .12-.04l5.32-3.07a.2.2 0 0 0 .12-.2V8.46a3 3 0 0 0-.67-3.1"/></svg>