<svg width="17.5776mm" height="20.2941mm" version="1.1" viewBox="0 0 17.5776 20.2941" xmlns="http://www.w3.org/2000/svg"><g transform="translate(-94.594 -80.3049)"><g transform="translate(-28.7032 -67.2122)" stroke-width=".264583"><path d="m139.913 162.183-7.82796 4.51935-7.82664-4.51935v-9.03711l7.82664-4.51988 7.82796 4.51988zm-7.82796-14.6656-8.78787 5.07365v10.1486l8.78787 5.0718 8.78972-5.0718v-10.1486z" fill="#ffc52e"/><path d="m124.244 153.145 7.8269-4.51855 7.82664 4.51855v9.03737l-7.82664 4.51829-7.8269-4.51829z" fill="#66499e"/><path d="m137.39 158.106v2.62916l-5.31865 3.06864-1.26339-0.72866-0.20823-0.12039-0.28813-0.16642-3.55838-2.05317v-6.14124l0.95171-0.54874 0.24394-0.14103 0.19236-0.11033 0.12144-0.0717c0.0185 0 0.0378-2e-3 0.0561-3e-3 0.0982-0.0138 0.18627-0.0532 0.25982-0.11642 0.0302-0.0225 0.0572-0.0516 0.0815-0.0847 0.01-0.0132 0.0201-0.027 0.0288-0.0421l0.30983-0.17939 0.24236-0.13891 2.83025-1.63539 3.24617 1.87405 0.36618 0.21272c-0.0579 0.0352-0.11668 0.0675-0.17753 0.10187-0.60934 0.33469-1.19566 0.50482-1.74202 0.50482-0.30533 0-0.6006-0.0542-0.88053-0.15954-0.75433-0.28708-1.34964-0.51356-1.87325-0.51356-0.7837 0-1.37107 0.49001-2.09656 1.74519l-0.0254 0.0402 1.15147 4.77546 0.15107-0.23389c0.65802-1.01071 1.26339-1.44356 2.02327-1.44356 0.5678 0 1.23666 0.23733 1.98914 0.52255 0.24712 0.0947 0.51408 0.14287 0.78872 0.14287 0.85619 0 1.68381-0.46672 2.22647-0.85883 0.0593-0.0402 0.11721-0.0831 0.17145-0.12674" fill="#ffc52e"/><path d="m137.39 154.594v0.56965l-0.15928-0.66172z" fill="#2b9a47"/><g fill="#66499e"><path d="m128.66 153.519c-0.0246 0.0331-0.0516 0.0619-0.0815 0.0847-0.0736 0.0632-0.16193 0.10265-0.25982 0.11641-0.0183 1e-3 -0.0376 3e-3 -0.0561 3e-3 -0.0437 3e-3 -0.0865 0-0.12859-0.0111-0.068-0.0143-0.13071-0.0415-0.18812-0.0833-4e-3 -2e-3 -7e-3 -5e-3 -0.0106-7e-3 -0.22887-0.17357-0.27464-0.49901-0.1016-0.72602 0.1016-0.13388 0.25585-0.20505 0.41407-0.20505 0.10874 0 0.21722 0.0333 0.30956 0.10319 0.12092 0.0915 0.19182 0.22357 0.20426 0.36301 0.0116 0.10847-0.0124 0.22225-0.0728 0.32014-9e-3 0.0148-0.0193 0.0288-0.0288 0.0421m0.32279-0.48948c-0.0384-0.16457-0.13388-0.3175-0.27913-0.42783-0.33602-0.25215-0.81042-0.18494-1.06363 0.14949-0.23363 0.31062-0.19262 0.74348 0.0831 1.00594 0.0209 0.0188 0.0426 0.0394 0.0659 0.0558 0.0513 0.0378 0.10425 0.0675 0.15981 0.0921 0.0749 0.0315 0.15293 0.0497 0.23257 0.0587 0.0492 3e-3 0.0998 2e-3 0.14975-3e-3 0.0315-5e-3 0.0622-9e-3 0.0923-0.0177 0.0802-0.0182 0.15584-0.0505 0.22596-0.0944 0.0762-0.0482 0.14446-0.11007 0.2024-0.18468 2e-3 -3e-3 2e-3 -6e-3 4e-3 -7e-3 0.082-0.11033 0.12965-0.23284 0.14288-0.35984 0.0111-0.0902 5e-3 -0.18124-0.0159-0.26802"/><path d="m128.689 153.476c-9e-3 0.0151-0.0193 0.0288-0.0288 0.0421-0.0246 0.0331-0.0519 0.0622-0.0815 0.0847-0.0736 0.0632-0.16193 0.10265-0.25982 0.11641-0.0185 1e-3 -0.0376 3e-3 -0.0561 3e-3 -0.0437 3e-3 -0.0865 0-0.12886-0.0111-0.0677-0.0143-0.1307-0.0415-0.18811-0.0833-3e-3 -2e-3 -7e-3 -5e-3 -0.0101-7e-3 -0.22913-0.1733-0.27517-0.49901-0.10186-0.72602 0.10186-0.13388 0.25558-0.20505 0.41407-0.20505 0.10848 0 0.21696 0.0333 0.30956 0.10319 0.12092 0.0918 0.19182 0.22383 0.204 0.363 0.0116 0.10848-0.0122 0.22225-0.0725 0.32015"/><path d="m137.63 157.755c-0.0725 0.0632-0.15214 0.12859-0.24051 0.19897-0.0746 0.0611-0.15636 0.12144-0.2405 0.18256-0.74692 0.53763-1.85711 1.09881-2.9038 0.70035-1.86532-0.70829-2.8882-0.98028-4.15476 0.96679l-1.07394-4.45691c1.2483-2.15662 2.01163-1.8669 3.82455-1.17819 0.96652 0.36751 1.9431 0.0762 2.72204-0.35269 0.0812-0.0447 0.16086-0.0902 0.23918-0.13732 0.0778-0.0489 0.15399-0.0982 0.22701-0.14816 0.33787-0.22675 0.61701-0.46276 0.81254-0.64082l0.31009 1.28852 0.0783 0.32385 0.15928 0.66172 0.24051 0.9988 0.31406 1.30308c-0.0693 0.0672-0.17621 0.16986-0.31406 0.28945m0-2.62017-0.18997-0.79057-0.46276-1.92273s-0.47466 0.51567-1.18374 0.9734c-0.0746 0.049-0.1524 0.0963-0.23363 0.14288-0.0802 0.0468-0.16166 0.0918-0.24606 0.13546-0.70723 0.36328-1.55893 0.58553-2.38601 0.27147-1.87273-0.71094-2.75776-0.957-3.99521 1.07473-0.059 0.0918-0.11377 0.18812-0.17172 0.28999l1.2327 5.11677c0.0577-0.10186 0.11509-0.20002 0.17277-0.2921 1.2364-2.02803 2.12196-1.78382 3.99388-1.07315 1.08189 0.41249 2.20134-0.0952 2.98874-0.63103 0.0841-0.0579 0.1643-0.11456 0.2405-0.17251 0.0865-0.063 0.16643-0.12594 0.24051-0.18732 0.36142-0.29448 0.57811-0.53208 0.57811-0.53208z"/></g><path d="m137.63 157.755c-0.0725 0.0632-0.15214 0.12859-0.24051 0.19897-0.0746 0.0611-0.15636 0.12144-0.2405 0.18256-0.74692 0.53763-1.85711 1.09881-2.9038 0.70035-1.86532-0.70829-2.8882-0.98028-4.15476 0.96679l-1.07394-4.45691c1.2483-2.15662 2.01163-1.8669 3.82455-1.17819 0.96652 0.36751 1.9431 0.0762 2.72204-0.35269 0.0812-0.0447 0.16086-0.0902 0.23918-0.13732 0.0778-0.0489 0.15399-0.0982 0.22701-0.14816 0.33787-0.22675 0.61701-0.46276 0.81254-0.64082l0.31009 1.28852 0.0783 0.32385 0.15928 0.66172 0.24051 0.9988 0.31406 1.30308c-0.0693 0.0672-0.17621 0.16986-0.31406 0.28945m-0.48101 2.84083-5.07815 2.93238-1.26153-0.72946-0.56277-2.33018c1.25148-2.16191 2.01427-1.87061 3.8272-1.1819 0.30903 0.11668 0.61939 0.16828 0.92233 0.16828 0.79904-3e-3 1.55734-0.34846 2.15292-0.73263zm-10.1571 0v-5.86449l0.97869-0.56462c0.0868 0.0254 0.17807 0.0386 0.26961 0.0386l1.99284 8.26109zm0.84137-7.70096c0.10134-0.13388 0.25533-0.20505 0.41408-0.20505 0.10848 0 0.21695 0.0333 0.30956 0.10318 0.12091 0.0918 0.19182 0.22384 0.20399 0.36301 0.0116 0.10848-0.0122 0.22225-0.0725 0.32068-9e-3 0.0146-0.0193 0.0286-0.0288 0.0426-0.0243 0.032-0.0516 0.0611-0.0825 0.0849-0.0725 0.0619-0.16061 0.10133-0.25877 0.11509-0.0185 1e-3 -0.0378 3e-3 -0.0561 3e-3 -0.0436 3e-3 -0.0862 0-0.12885-0.0111-0.0677-0.0143-0.1307-0.0413-0.18812-0.0833-3e-3 -2e-3 -7e-3 -5e-3 -0.0106-7e-3 -0.2286-0.17331-0.27437-0.49901-0.10134-0.72602m4.23757-1.09405 2.99191 1.7264c-0.62759 0.2966-1.35335 0.45562-2.04999 0.19209-1.86743-0.70882-2.89031-0.98187-4.16084 0.97552l-0.14526-0.60404c0.13044-0.0648 0.24607-0.16219 0.33708-0.28364 0.0828-0.11033 0.13891-0.23283 0.17145-0.35798zm6.3717 5.68139-1.2327-5.11783c-0.0209-0.0849-0.0868-0.15293-0.17304-0.17489-0.0849-0.0238-0.177 3e-3 -0.23759 0.0693-8e-3 0.0106-0.51435 0.55139-1.24169 0.9988l-3.36577-1.94283c-0.0743-0.0431-0.16642-0.0431-0.24077 0l-2.7559 1.59014c-0.0579-0.19156-0.177-0.36618-0.34739-0.49503-0.43948-0.33232-1.06733-0.24421-1.39965 0.195-0.29157 0.39026-0.2577 0.92551 0.0611 1.27423l-0.87657 0.50668c-0.0749 0.0418-0.12065 0.12144-0.12065 0.20822v6.14125c0 0.086 0.0458 0.16563 0.12065 0.20822l3.83726 2.2143c5e-3 4e-3 0.0103 7e-3 0.0156 0.0106l1.46552 0.84429c0.0368 0.0222 0.0781 0.0323 0.11986 0.0323 0.0413 0 0.0833-0.0101 0.12091-0.0323l5.31786-3.06917c0.0744-0.0426 0.12039-0.12223 0.12039-0.20822v-2.35453c0.44238-0.34396 0.72602-0.64373 0.75644-0.67998 0.0542-0.0595 0.0746-0.14076 0.0561-0.21855" fill="#fff"/><path d="m137.944 157.466c-0.0693 0.0672-0.17595 0.16986-0.31406 0.28945-0.0725 0.0632-0.15214 0.12859-0.24051 0.19897-0.0746 0.0611-0.1561 0.12144-0.2405 0.18256-0.74666 0.53737-1.85711 1.09855-2.90354 0.70036-1.86531-0.70829-2.88846-0.98029-4.15528 0.96678l-1.07342-4.4569c1.24831-2.15662 2.01137-1.8669 3.82456-1.17819 0.96625 0.3675 1.9431 0.0762 2.72176-0.35269 0.0815-0.0447 0.16087-0.0902 0.23866-0.13732 0.0783-0.0489 0.15399-0.0984 0.22781-0.14817 0.33681-0.22675 0.617-0.46275 0.81227-0.64082l0.31035 1.28852 0.0783 0.32385 0.15901 0.66173 0.24051 0.9988z" fill="#66499e"/></g></g></svg>
