<svg xmlns="http://www.w3.org/2000/svg" width="664.37" height="767.02" viewBox="0 0 17.58 20.29"><path fill="#00a94f" d="M16.62 14.66 8.8 19.18.97 14.66V5.62L8.79 1.1l7.83 4.52zM8.8-.01.01 5.07v10.15l8.78 5.07 8.8-5.07V5.07z"/><path fill="#66499e" d="M.95 5.62 8.78 1.1l7.83 4.52v9.04l-7.83 4.52-7.83-4.52z"/><path fill="#00a94f" d="M14.1 10.58v2.63l-5.32 3.07-1.26-.73-.21-.12-.29-.16-3.56-2.06V7.07l.95-.55.25-.14.19-.1.12-.08h.06a.5.5 0 0 0 .26-.12L5.37 6q0-.02.03-.05l.3-.18.25-.13L8.78 4l3.25 1.87.36.22-.18.1q-.91.5-1.74.5-.46 0-.88-.16a6 6 0 0 0-1.87-.5c-.78 0-1.37.48-2.1 1.74l-.02.04 1.15 4.77.15-.23c.66-1.01 1.26-1.45 2.02-1.45.57 0 1.24.24 2 .53q.36.15.78.14a4 4 0 0 0 2.4-.99"/><path fill="#2b9a47" d="M14.1 7.07v.57l-.16-.66z"/><g fill="#66499e"><path d="m5.37 6-.08.08a.5.5 0 0 1-.26.12h-.06l-.13-.01a1 1 0 0 1-.18-.08l-.02-.01a.52.52 0 1 1 .76-.15zm.32-.5a.76.76 0 1 0-1.26.73l.07.06.16.1.23.05h.15l.1-.02a.7.7 0 0 0 .42-.28.75.75 0 0 0 .13-.63"/><path d="M5.4 5.95 5.37 6l-.08.08a.5.5 0 0 1-.26.12h-.06l-.13-.01a1 1 0 0 1-.18-.08l-.01-.01a.52.52 0 1 1 .75-.15M14.34 10.23l-.48.38c-.75.54-1.86 1.1-2.9.7-1.87-.7-2.9-.98-4.16.97L5.73 7.82c1.24-2.15 2-1.86 3.82-1.17.97.36 1.94.07 2.72-.36a7 7 0 0 0 1.28-.92l.31 1.29.08.32.16.66.24 1 .31 1.3zm0-2.63-.2-.79-.45-1.92s-.48.51-1.19.97l-.48.28c-.7.36-1.56.59-2.38.27-1.88-.7-2.76-.96-4 1.08l-.17.29L6.7 12.9l.18-.29c1.23-2.03 2.12-1.78 3.99-1.07 1.08.41 2.2-.1 2.99-.63a6 6 0 0 0 1.06-.9z"/></g><path fill="#fff" d="m14.34 10.23-.48.38c-.75.54-1.86 1.1-2.9.7-1.87-.7-2.9-.98-4.16.97L5.73 7.82c1.24-2.15 2-1.86 3.82-1.17.97.36 1.94.07 2.72-.36a7 7 0 0 0 1.28-.92l.31 1.29.08.32.16.66.24 1 .31 1.3zm-.48 2.83-5.08 2.94-1.26-.73-.56-2.33c1.25-2.17 2.01-1.88 3.82-1.19q.46.17.93.17c.8 0 1.55-.35 2.15-.73zm-10.16 0V7.21l.98-.57q.14.04.27.04l2 8.26zm.84-7.7a.52.52 0 0 1 .93.26q.02.18-.07.32L5.37 6l-.08.08a.5.5 0 0 1-.26.12h-.06l-.13-.01a1 1 0 0 1-.19-.09.5.5 0 0 1-.1-.73m4.23-1.1 3 1.73c-.64.3-1.36.46-2.06.2-1.87-.71-2.89-.99-4.16.97l-.14-.6a1 1 0 0 0 .33-.29q.13-.16.17-.35zm6.37 5.69-1.23-5.12a.2.2 0 0 0-.17-.17.2.2 0 0 0-.24.07c-.01 0-.52.55-1.24 1L8.9 3.78a.2.2 0 0 0-.24 0L5.9 5.4a1 1 0 0 0-1.75-.3 1 1 0 0 0 .07 1.27l-.88.5a.2.2 0 0 0-.12.21v6.14q0 .14.12.21l3.84 2.21.01.02 1.47.84.12.03q.06 0 .12-.03l5.32-3.07a.2.2 0 0 0 .12-.2v-2.36c.44-.35.73-.65.76-.68a.2.2 0 0 0 .05-.22"/><path fill="#66499e" d="M14.65 9.94a7 7 0 0 1-.8.67c-.74.54-1.85 1.1-2.9.7-1.86-.7-2.88-.98-4.15.97L5.73 7.82c1.24-2.15 2-1.86 3.82-1.17.97.36 1.94.07 2.72-.36a7 7 0 0 0 1.28-.92l.31 1.29.08.32.16.66.24 1z"/></svg>