<svg width="17.5784mm" height="20.2941mm" version="1.1" viewBox="0 0 17.5784 20.2941" xmlns="http://www.w3.org/2000/svg"><g transform="translate(-62.7062 -71.4375)"><g transform="translate(-27.4781 -76.0796)" stroke-width=".264583"><path d="m106.801 162.183-7.8277 4.51935-7.8269-4.51935v-9.03711l7.8269-4.51988 7.8277 4.51988zm-7.8277-14.6656-8.78893 5.07365v10.1486l8.78893 5.0718 8.78946-5.0718v-10.1486z" fill="#ffc52e"/><path d="m91.1464 153.145 7.8269-4.51855 7.82691 4.51855v9.03737l-7.82691 4.51829-7.8269-4.51829z" fill="#66499e"/><path d="m97.2135 158.715 1.33668 4.84452-4.89426-2.82443v-6.14124l4.89426-2.82734-1.33668 4.84876-0.290248 1.04801z" fill="#ffc52e"/><path d="m104.292 154.594v6.14124l-4.89453 2.82443 1.33509-4.84452 0.28998-1.05145-0.28813-1.04802-1.33694-4.84902z" fill="#ffc52e"/><path d="m101.022 157.664-0.28998 1.05172-1.75842 6.38122-0.254794-0.9226-1.50548-5.45862-0.289983-1.05172 0.289983-1.04801 1.50548-5.46206 0.254794-0.92155 1.76027 6.38361z" fill="#66499e"/><path d="m98.9736 150.232-0.254265 0.92154-1.7952 6.51008 1.7952 6.51086 0.254265 0.92128 2.04919-7.43214z" fill="#66499e"/><path d="m104.051 160.596-4.26667 2.46406 1.17475-4.26058c0.19182-0.33549 0.30401-0.72231 0.30401-1.13586v-1e-3c0-0.4138-0.11219-0.80089-0.3048-1.13717l-1.17396-4.25609 4.26667 2.46221zm-5.07709 3.59463-0.04127-0.14923-0.175947-0.63949-1.05807-3.83726c0.364066 0.2458 0.803275 0.38841 1.27529 0.38841 0.471753 0 0.910432-0.14261 1.27504-0.38841l-1.05808 3.83726-0.175684 0.63949zm-5.07974-3.59463v-5.86449l4.26932-2.46221-1.17396 4.25609c-0.192882 0.33628-0.3048 0.72469-0.3048 1.13823 0 0.41355 0.111918 0.80037 0.303212 1.13586l1.17554 4.26058zm6.87228-2.69108c-0.11721 0.88292-0.877091 1.56872-1.79255 1.56872-0.915722 0-1.67534-0.6858-1.79282-1.56872zm-3.58537-0.48048c0.117475-0.88503 0.877094-1.56871 1.79282-1.56871 0.915459 0 1.67534 0.68368 1.79255 1.56871zm1.79282-6.28835 0.04127 0.14949 0.175684 0.64108 1.05808 3.83778c-0.364603-0.24579-0.803282-0.39026-1.27504-0.39026-0.472016 0-0.911225 0.14447-1.27529 0.39026l1.05807-3.83778 0.175947-0.64108zm5.43851 3.24961-4.81092-2.77812-0.397404-1.43987c-0.02619-0.10371-0.121708-0.17621-0.230188-0.17621-0.108743 0-0.203993 0.0725-0.232833 0.17859l-0.396346 1.43749-4.8096 2.77812c-0.07408 0.0421-0.12065 0.12144-0.12065 0.20823v6.14124c0 0.0863 0.04657 0.16563 0.12065 0.20823l4.8096 2.77601 0.396346 1.43986c0.02884 0.10557 0.12409 0.17648 0.232833 0.17648 0.10848 0 0.203994-0.0709 0.230188-0.17648l0.397404-1.43986 4.81092-2.77601c0.0744-0.0426 0.12092-0.12198 0.12092-0.20823v-6.14124c0-0.0868-0.0466-0.16616-0.12092-0.20823" fill="#fff"/></g></g></svg>
