<svg xmlns="http://www.w3.org/2000/svg" width="6643.65" height="7670.17" viewBox="0 0 17.58 20.29"><path fill="#bb6228" d="m16.62 14.66-7.83 4.52-7.83-4.52V5.62L8.8 1.1l7.83 4.52zM8.79 0 0 5.07v10.15l8.79 5.07 8.79-5.07V5.07z"/><path fill="#66499e" d="M16.61 5.63 8.8 1.1.96 5.63v9.03l7.83 4.52 7.82-4.52z"/><path fill="#bb6228" d="M14.1 8.4v4.81L8.8 16.28 6.55 15c.52-.56.89-1.25.89-1.25L5.3 11.6s-1.39.74-1.83 1.6V7.06L8.79 4l1.7.99q-.6.25-1.27.87C7.25 7.72 6.2 10.53 6.2 10.53l2.32 2.32s2.8-1.06 4.67-3.03q.68-.75.93-1.42"/><path fill="#fff" d="M13.86 8.36q-.22.6-.86 1.3a14 14 0 0 1-4.43 2.9l-2.1-2.1c.25-.58 1.26-2.86 2.91-4.42q.58-.55 1.1-.78.3-.15.59-.22a2.45 2.45 0 0 1 2.8 3.32m0 4.72L8.78 16l-1.87-1.08c.4-.48.67-.97.73-1.07q.07-.16-.04-.29l-2.14-2.14a.24.24 0 0 0-.29-.04c-.13.07-.9.5-1.47 1.08V7.21l5.08-2.93 1.2.7q-.45.25-.94.7a14 14 0 0 0-3.09 4.76.2.2 0 0 0 .06.25l2.32 2.33a.24.24 0 0 0 .26.05c.11-.04 2.88-1.1 4.75-3.09q.3-.32.51-.62zm-8.42 2.37c-.83.13-1.26-.3-1.4-.44l-.02-.03c-.14-.14-.57-.56-.45-1.4v-.02q.04-.21.21-.44c.35-.5 1.05-.98 1.46-1.22l1.89 1.88a7 7 0 0 1-.98 1.27q-.36.33-.7.4m8.22-10.1a3 3 0 0 0-3.17-.63l-1.6-.93a.2.2 0 0 0-.24 0L3.35 6.87a.2.2 0 0 0-.12.2v6.06q-.09.2-.12.39a2 2 0 0 0 .58 1.8l.02.03q.6.6 1.44.6.19 0 .37-.02c.39-.06.75-.32 1.07-.63l2.08 1.2.12.02q.06 0 .12-.03l5.32-3.07a.2.2 0 0 0 .12-.2V8.45a3 3 0 0 0-.67-3.1"/></svg>