<svg xmlns="http://www.w3.org/2000/svg" width="66.44" height="76.7" viewBox="0 0 17.58 20.29"><g stroke-width=".26"><path fill="#ffc52e" d="m16.62 14.67-7.83 4.52-7.83-4.52V5.63L8.8 1.1l7.83 4.52zM8.79 0 0 5.07v10.15l8.79 5.07 8.79-5.07V5.07z"/><path fill="#66499e" d="M.96 5.63 8.8 1.1l7.83 4.52v9.04l-7.83 4.51-7.83-4.51z"/><path fill="#ffc52e" d="m7.03 11.2 1.34 4.84-4.9-2.82V7.08l4.9-2.83L7.03 9.1l-.3 1.05zM14.1 7.08v6.14l-4.89 2.82 1.34-4.84.29-1.05-.29-1.05-1.34-4.85z"/><path fill="#66499e" d="m10.84 10.15-.3 1.05-1.75 6.38-.26-.92-1.5-5.46-.3-1.05.3-1.05 1.5-5.46.26-.92 1.76 6.38z"/><path fill="#66499e" d="m8.79 2.71-.25.93-1.8 6.5 1.8 6.52.25.92 2.05-7.43z"/><path fill="#fff" d="M13.87 13.08 9.6 15.54l1.17-4.26q.3-.5.3-1.13T10.78 9L9.6 4.75l4.27 2.46zm-5.08 3.6-.04-.16-.18-.64-1.06-3.83a2.3 2.3 0 0 0 2.55 0l-1.05 3.83-.18.64zm-5.08-3.6V7.2l4.27-2.46L6.8 9.01a2.3 2.3 0 0 0 0 2.27l1.17 4.26zm6.87-2.7a1.81 1.81 0 0 1-3.58 0zM7 9.92a1.81 1.81 0 0 1 3.58 0zm1.79-6.3.04.16.18.64 1.05 3.84a2.3 2.3 0 0 0-2.55 0L8.57 4.4l.18-.64zm5.44 3.26L9.42 4.09l-.4-1.44a.24.24 0 0 0-.23-.18q-.17.02-.23.18l-.4 1.44-4.8 2.78a.2.2 0 0 0-.13.2v6.15q0 .13.12.2l4.81 2.78.4 1.44q.05.17.23.18t.23-.18l.4-1.44 4.8-2.77a.2.2 0 0 0 .13-.21V7.08a.2.2 0 0 0-.12-.21"/></g></svg>