<svg xmlns="http://www.w3.org/2000/svg" width="66.44" height="76.7" viewBox="0 0 1.76 2.03"><path fill="#e22626" d="m1.67 1.47-.78.45-.79-.45v-.9L.9.1l.78.45zM.89 0 0 .5v1.02l.88.5.88-.5V.51z"/><path fill="#66499e" d="M.1.56.9.11l.78.45v.9l-.78.46-.79-.45z"/><path fill="#e22626" d="m.71 1.12.14.48-.5-.28V.71l.5-.29L.7.91.68 1zM1.42.7v.62l-.49.28.13-.48.03-.1L1.06.9.93.42z"/><path fill="#66499e" d="m1.1 1.01-.04.1-.17.65-.03-.1-.15-.54-.03-.1L.71.9.86.36.9.27l.17.64z"/><path fill="#66499e" d="m.89.27-.03.1L.68 1l.18.66.03.09.2-.75z"/><path fill="#fff" d="m1.4 1.3-.43.25.12-.42.03-.12L1.09.9.97.47l.43.25zm-.51.37v-.02L.86 1.6.76 1.2a.2.2 0 0 0 .25 0l-.1.39-.02.06zM.38 1.3V.72L.8.47.69.9a.2.2 0 0 0 0 .23l.12.42zm.69-.27a.18.18 0 0 1-.36 0zM.7.99a.18.18 0 0 1 .36 0zM.89.36v.02l.02.06.1.38a.2.2 0 0 0-.25 0l.1-.38.02-.06zm.54.33L.95.4.91.26.89.25.86.26.82.41.34.69v.65l.48.28.04.14.03.02q.01 0 .02-.02l.04-.14.48-.28.01-.02V.7"/></svg>