<svg xmlns="http://www.w3.org/2000/svg" width="664.37" height="767.02" viewBox="0 0 17.58 20.29"><path fill="#00a94f" d="m16.62 14.67-7.83 4.52-7.82-4.52V5.63L8.79 1.1l7.83 4.52zM8.79 0 0 5.07v10.15l8.8 5.07 8.78-5.07V5.07z"/><path fill="#66499e" d="m.97 5.63 7.82-4.52 7.83 4.52v9.04L8.8 19.19.97 14.67z"/><path fill="#00a94f" d="m7.03 11.2 1.34 4.84-4.9-2.82V7.08l4.9-2.83L7.03 9.1l-.29 1.05zM14.11 7.08v6.14l-4.9 2.82 1.34-4.84.3-1.05-.3-1.05-1.33-4.85z"/><path fill="#66499e" d="m10.84 10.15-.29 1.05-1.76 6.38-.25-.92-1.5-5.46-.3-1.05.3-1.05 1.5-5.46.25-.92 1.76 6.38z"/><path fill="#66499e" d="m8.8 2.72-.26.92-1.8 6.5 1.8 6.52.25.92 2.05-7.43z"/><path fill="#fff" d="M13.87 13.08 9.6 15.55l1.18-4.26q.3-.52.3-1.14 0-.63-.3-1.14L9.6 4.75l4.27 2.47zm-5.08 3.6-.04-.15-.17-.64-1.06-3.84a2.3 2.3 0 0 0 2.55 0L9 15.89l-.18.64zm-5.08-3.6V7.22l4.27-2.47-1.17 4.26a2.3 2.3 0 0 0 0 2.28l1.17 4.26zm6.88-2.69a1.81 1.81 0 0 1-3.59 0zM7 9.91a1.81 1.81 0 0 1 3.59 0zm1.8-6.29.03.15.18.64 1.06 3.84a2.3 2.3 0 0 0-2.55 0l1.06-3.84.17-.64zm5.43 3.25L9.43 4.1l-.4-1.44a.24.24 0 0 0-.24-.17q-.17 0-.23.18l-.4 1.43-4.8 2.78a.2.2 0 0 0-.13.21v6.14q0 .14.12.2l4.81 2.78.4 1.44q.05.17.23.18t.23-.18l.4-1.44 4.81-2.77a.2.2 0 0 0 .12-.2V7.07a.2.2 0 0 0-.12-.2"/></svg>