<?xml version="1.0" encoding="UTF-8"?>
<svg width="175.78mm" height="202.94mm" version="1.1" viewBox="0 0 17.578 20.294" xmlns="http://www.w3.org/2000/svg">
 <g transform="translate(-112.45 -80.169)">
  <g transform="matrix(.26458 0 0 .26458 209.42 -92.505)">
   <path d="m-303.72 708.05-29.588 17.081-29.579-17.081v-34.156l29.579-17.083 29.588 17.083zm-29.588-55.429-33.214 19.176v38.357l33.214 19.169 33.221-19.169v-38.357z" fill="#a51e36"/>
   <path d="m-303.73 673.9-29.583-17.078-29.582 17.078v34.157l29.582 17.077 29.583-17.077z" fill="#66499e"/>
   <path d="m-313.2 684.39v18.192l-20.108 11.599-8.446-4.878c1.939-2.12 3.338-4.729 3.338-4.729l-8.088-8.088s-5.238 2.8-6.904 6.005v-23.12l20.1-11.608 6.456 3.731c-1.528 0.66-3.141 1.718-4.815 3.296-7.439 7.017-11.453 17.627-11.453 17.627l8.773 8.78s10.608-4.012 17.628-11.454c1.768-1.872 2.878-3.668 3.519-5.353" fill="#a51e36"/>
   <path d="m-314.12 684.25c-0.602 1.506-1.634 3.134-3.268 4.866-5.896 6.253-14.525 10.087-16.75 11.01l-7.928-7.926c0.925-2.226 4.757-10.854 11.012-16.751 1.455-1.371 2.832-2.32 4.135-2.942 0.776-0.377 1.524-0.642 2.235-0.814 4.61-1.089 7.795 1.7 8.576 2.482 0.47 0.467 1.661 1.8 2.302 3.8 0.54 1.671 0.686 3.808-0.314 6.275m0 17.807-19.197 11.083-7.031-4.064c1.494-1.829 2.526-3.695 2.724-4.072 0.192-0.353 0.129-0.787-0.152-1.072l-8.088-8.087c-0.291-0.289-0.725-0.353-1.072-0.161-0.487 0.256-3.423 1.872-5.573 4.089v-19.881l19.192-11.077 4.546 2.622c-1.134 0.66-2.315 1.545-3.532 2.692-7.504 7.082-11.51 17.525-11.68 17.969-0.125 0.33-0.042 0.711 0.205 0.959l8.783 8.782c0.173 0.172 0.404 0.262 0.639 0.262 0.109 0 0.218-0.02 0.321-0.057 0.443-0.168 10.889-4.167 17.974-11.681 0.755-0.8 1.395-1.587 1.941-2.358zm-31.798 8.985c-3.153 0.466-4.75-1.148-5.274-1.674l-0.116-0.113c-0.527-0.526-2.14-2.124-1.666-5.27 5e-3 -0.032 5e-3 -0.058 0.018-0.089 0.096-0.545 0.375-1.104 0.758-1.659 1.32-1.885 3.961-3.701 5.53-4.624l7.115 7.123c-0.546 0.923-1.403 2.23-2.404 3.409-0.408 0.488-0.838 0.954-1.288 1.359-0.869 0.807-1.793 1.409-2.673 1.538m31.094-38.156c-0.634-0.633-5.371-5.045-11.985-2.416l-6.051-3.493c-0.283-0.162-0.622-0.162-0.905 0l-20.107 11.608c-0.275 0.158-0.448 0.459-0.448 0.787v22.907c-0.224 0.469-0.386 0.949-0.456 1.439-0.397 2.691 0.334 4.984 2.195 6.825l0.1 0.103c1.52 1.531 3.34 2.299 5.442 2.299 0.45 0 0.909-0.038 1.386-0.107 1.452-0.218 2.845-1.194 4.049-2.385l7.839 4.519c0.14 0.083 0.295 0.121 0.448 0.121 0.162 0 0.314-0.038 0.457-0.121l20.106-11.602c0.281-0.161 0.456-0.462 0.456-0.787v-17.974c2.404-6.474-1.898-11.095-2.526-11.723" fill="#fff"/>
   <path d="m-303.72 708.05-29.588 17.081-29.579-17.081v-34.156l29.579-17.083 29.588 17.083zm-29.588-55.429-33.214 19.176v38.357l33.214 19.169 33.221-19.169v-38.357z" fill="#a51e36"/>
   <path d="m-303.73 673.9-29.583-17.078-29.582 17.078v34.157l29.582 17.077 29.583-17.077z" fill="#66499e"/>
   <path d="m-313.2 684.39v18.192l-20.108 11.599-8.446-4.878c1.939-2.12 3.338-4.729 3.338-4.729l-8.088-8.088s-5.238 2.8-6.904 6.005v-23.12l20.1-11.608 6.456 3.731c-1.528 0.66-3.141 1.718-4.815 3.296-7.439 7.017-11.453 17.627-11.453 17.627l8.773 8.78s10.608-4.012 17.628-11.454c1.768-1.872 2.878-3.668 3.519-5.353" fill="#a51e36"/>
   <path d="m-314.12 684.25c-0.602 1.506-1.634 3.134-3.268 4.866-5.896 6.253-14.525 10.087-16.75 11.01l-7.928-7.926c0.925-2.226 4.757-10.854 11.012-16.751 1.455-1.371 2.832-2.32 4.135-2.942 0.776-0.377 1.524-0.642 2.235-0.814 4.61-1.089 7.795 1.7 8.576 2.482 0.47 0.467 1.661 1.8 2.302 3.8 0.54 1.671 0.686 3.808-0.314 6.275m0 17.807-19.197 11.083-7.031-4.064c1.494-1.829 2.526-3.695 2.724-4.072 0.192-0.353 0.129-0.787-0.152-1.072l-8.088-8.087c-0.291-0.289-0.725-0.353-1.072-0.161-0.487 0.256-3.423 1.872-5.573 4.089v-19.881l19.192-11.077 4.546 2.622c-1.134 0.66-2.315 1.545-3.532 2.692-7.504 7.082-11.51 17.525-11.68 17.969-0.125 0.33-0.042 0.711 0.205 0.959l8.783 8.782c0.173 0.172 0.404 0.262 0.639 0.262 0.109 0 0.218-0.02 0.321-0.057 0.443-0.168 10.889-4.167 17.974-11.681 0.755-0.8 1.395-1.587 1.941-2.358zm-31.798 8.985c-3.153 0.466-4.75-1.148-5.274-1.674l-0.116-0.113c-0.527-0.526-2.14-2.124-1.666-5.27 5e-3 -0.032 5e-3 -0.058 0.018-0.089 0.096-0.545 0.375-1.104 0.758-1.659 1.32-1.885 3.961-3.701 5.53-4.624l7.115 7.123c-0.546 0.923-1.403 2.23-2.404 3.409-0.408 0.488-0.838 0.954-1.288 1.359-0.869 0.807-1.793 1.409-2.673 1.538m31.094-38.156c-0.634-0.633-5.371-5.045-11.985-2.416l-6.051-3.493c-0.283-0.162-0.622-0.162-0.905 0l-20.107 11.608c-0.275 0.158-0.448 0.459-0.448 0.787v22.907c-0.224 0.469-0.386 0.949-0.456 1.439-0.397 2.691 0.334 4.984 2.195 6.825l0.1 0.103c1.52 1.531 3.34 2.299 5.442 2.299 0.45 0 0.909-0.038 1.386-0.107 1.452-0.218 2.845-1.194 4.049-2.385l7.839 4.519c0.14 0.083 0.295 0.121 0.448 0.121 0.162 0 0.314-0.038 0.457-0.121l20.106-11.602c0.281-0.161 0.456-0.462 0.456-0.787v-17.974c2.404-6.474-1.898-11.095-2.526-11.723" fill="#fff"/>
  </g>
 </g>
</svg>
