<svg xmlns="http://www.w3.org/2000/svg" width="6643.65" height="7670.17" viewBox="0 0 17.58 20.29"><path fill="#00a94f" d="m16.62 14.66-7.83 4.52-7.83-4.52V5.63L8.8 1.1l7.83 4.52zM8.79 0 0 5.07v10.15l8.79 5.07 8.79-5.07V5.07z"/><path fill="#66499e" d="M16.62 5.63 8.79 1.1.96 5.63v9.03l7.83 4.52 7.83-4.52z"/><path fill="#00a94f" d="M14.1 8.4v4.82L8.8 16.28 6.55 15c.52-.56.89-1.25.89-1.25L5.3 11.6s-1.39.74-1.83 1.6V7.06L8.8 4l1.7.99q-.6.25-1.27.87C7.25 7.72 6.2 10.53 6.2 10.53l2.32 2.32s2.81-1.06 4.67-3.03q.69-.75.93-1.42"/><path fill="#fff" d="M13.87 8.37q-.23.6-.87 1.28a14 14 0 0 1-4.43 2.92l-2.1-2.1c.25-.59 1.26-2.87 2.92-4.43q.57-.55 1.1-.78.3-.15.58-.22a2.45 2.45 0 0 1 2.8 3.33m0 4.7-5.08 2.94-1.86-1.08c.4-.48.67-.97.72-1.07q.07-.16-.04-.29l-2.14-2.14a.24.24 0 0 0-.28-.04c-.13.07-.91.5-1.48 1.08V7.21L8.8 4.28l1.2.7q-.45.25-.93.7a14 14 0 0 0-3.1 4.76.24.24 0 0 0 .06.26l2.33 2.32a.2.2 0 0 0 .25.05c.12-.04 2.88-1.1 4.75-3.09q.3-.31.52-.62zm-8.41 2.38c-.84.13-1.26-.3-1.4-.44l-.03-.03c-.14-.14-.57-.56-.44-1.4v-.02q.05-.21.2-.44c.35-.5 1.05-.97 1.47-1.22l1.88 1.89a7 7 0 0 1-.98 1.26q-.35.33-.7.4m8.22-10.1a3 3 0 0 0-3.17-.63l-1.6-.92a.2.2 0 0 0-.24 0L3.35 6.87a.2.2 0 0 0-.12.2v6.07q-.09.18-.12.38a2 2 0 0 0 .58 1.8l.03.03q.6.6 1.44.6.18 0 .37-.02c.38-.06.75-.32 1.07-.63l2.07 1.2.12.03q.06 0 .12-.04l5.32-3.07a.2.2 0 0 0 .12-.2V8.46a3 3 0 0 0-.67-3.1"/></svg>