<svg xmlns="http://www.w3.org/2000/svg" width="66.44" height="76.7" viewBox="0 0 1.76 2.03"><path fill="#a51e36" d="m1.66 1.47-.79.45-.78-.45v-.9L.87.1l.79.45zM.87 0 0 .5v1.02l.88.5.88-.5V.51z"/><path fill="#66499e" d="M.1.56.86.11l.79.45v.9l-.79.46-.78-.45z"/><path fill="#a51e36" d="m.7 1.12.13.48-.49-.28V.71l.5-.29L.7.91.67 1zM1.4.7v.62l-.48.28.13-.48.03-.1L1.05.9.92.42z"/><path fill="#66499e" d="m1.08 1.01-.03.1-.18.65-.02-.1-.15-.54-.03-.1L.7.9.85.36.87.27l.18.64z"/><path fill="#66499e" d="m.87.27-.02.1L.67 1l.18.65.02.1.2-.75z"/><path fill="#fff" d="m1.38 1.3-.43.25.12-.42L1.1 1 1.07.9.95.47l.43.25zm-.5.37-.01-.02-.02-.06-.1-.39a.2.2 0 0 0 .25 0l-.1.39-.02.06zM.36 1.3V.72L.79.47.68.9a.2.2 0 0 0 0 .23l.11.42zm.68-.27a.18.18 0 0 1-.36 0zM.7.99a.18.18 0 0 1 .36 0zM.87.36v.02L.9.44l.1.38a.2.2 0 0 0-.25 0l.1-.38.02-.06zm.55.33L.94.4.9.26.87.25.85.26.81.41.33.69.32.7v.61l.01.02.48.28.04.14.02.02q.02 0 .03-.02l.04-.14.48-.28.01-.02V.71z"/></svg>