<svg width="17.5776mm" height="20.2941mm" version="1.1" viewBox="0 0 17.5776 20.2941" xmlns="http://www.w3.org/2000/svg"><g transform="translate(-92.3396 -126.206)"><g transform="translate(36.7771 -21.3108)" stroke-width=".264583"><path d="m72.1789 162.183-7.82849 4.51935-7.82611-4.51935v-9.03711l7.82611-4.51988 7.82849 4.51988zm-7.82849-14.6656-8.78787 5.07365v10.1486l8.78787 5.0718 8.78972-5.0718v-10.1486z" fill="#ffc52e"/><path d="m72.1786 153.145-7.82717-4.51855-7.8269 4.51855v9.03737l7.8269 4.51829 7.82717-4.51829z" fill="#66499e"/><path d="m69.6707 155.922v4.8133l-5.32024 3.0689-2.23467-1.29064c0.513027-0.56091 0.883179-1.25121 0.883179-1.25121l-2.13995-2.13995s-1.38589 0.74083-1.82668 1.58882v-6.11716l5.31812-3.07129 1.70815 0.98716c-0.404283 0.17463-0.831056 0.45456-1.27397 0.87207-1.96824 1.85658-3.03027 4.66381-3.03027 4.66381l2.32119 2.32304s2.8067-1.06151 4.66408-3.03054c0.467784-0.4953 0.761471-0.97049 0.931069-1.41631" fill="#ffc52e"/><path d="m69.4297 155.885c-0.159279 0.39846-0.432329 0.8292-0.864658 1.28746-1.55998 1.65444-3.84307 2.66885-4.43177 2.91306l-2.09762-2.09708c0.24474-0.58897 1.25862-2.87179 2.91359-4.43204 0.384969-0.36274 0.7493-0.61383 1.09405-0.7784 0.205317-0.0998 0.403225-0.16986 0.591344-0.21537 1.21973-0.28813 2.06243 0.44979 2.26907 0.65669 0.124355 0.12356 0.439473 0.47625 0.609071 1.00542 0.142875 0.44212 0.181504 1.00753-0.08308 1.66026m0 4.71144-5.07921 2.93237-1.86029-1.07526c0.395288-0.48393 0.668338-0.97764 0.720725-1.07739 0.0508-0.0934 0.03413-0.20822-0.04022-0.28363l-2.13995-2.13969c-0.07699-0.0765-0.191823-0.0934-0.283634-0.0426-0.128852 0.0677-0.905668 0.4953-1.47452 1.08188v-5.26018l5.07788-2.93079 1.2028 0.69373c-0.300038 0.17463-0.612511 0.40879-0.934509 0.71226-1.98543 1.87378-3.04535 4.63682-3.09033 4.7543-0.03307 0.0873-0.01111 0.18812 0.05424 0.25374l2.32384 2.32357c0.04577 0.0455 0.106892 0.0693 0.169069 0.0693 0.02884 0 0.05768-5e-3 0.08493-0.0151 0.11721-0.0444 2.88105-1.10252 4.75562-3.0906 0.19976-0.21167 0.369094-0.4199 0.513556-0.62389zm-8.41322 2.37728c-0.834231 0.12329-1.25677-0.30375-1.39541-0.44292l-0.03069-0.0299c-0.139435-0.13917-0.566208-0.56198-0.440796-1.39436 0.0013-8e-3 0.0013-0.0153 0.0048-0.0236 0.0254-0.14419 0.09922-0.2921 0.200554-0.43894 0.34925-0.49874 1.04802-0.97922 1.46315-1.22343l1.88251 1.88462c-0.144462 0.24421-0.37121 0.59002-0.636058 0.90197-0.10795 0.12912-0.221721 0.25241-0.340783 0.35957-0.229923 0.21352-0.474398 0.3728-0.707232 0.40693m8.22695-10.0954c-0.167745-0.16749-1.42108-1.33483-3.17103-0.63924l-1.60099-0.92419c-0.07488-0.0429-0.16457-0.0429-0.239448 0l-5.31998 3.07129c-0.07276 0.0418-0.118533 0.12144-0.118533 0.20822v6.06081c-0.05927 0.12409-0.102129 0.25109-0.12065 0.38074-0.105039 0.71199 0.08837 1.31868 0.580761 1.80578l0.02646 0.0272c0.402167 0.40508 0.883708 0.60828 1.43986 0.60828 0.119063 0 0.240507-0.0101 0.366713-0.0283 0.384175-0.0577 0.752739-0.31591 1.0713-0.63103l2.07407 1.19565c0.03704 0.022 0.07805 0.032 0.118534 0.032 0.04286 0 0.08308-0.0101 0.120914-0.032l5.31971-3.0697c0.07435-0.0426 0.12065-0.12223 0.12065-0.20822v-4.75562c0.636058-1.71292-0.502179-2.93556-0.668338-3.10171" fill="#fff"/></g></g></svg>
