<svg xmlns="http://www.w3.org/2000/svg" width="66.44" height="76.7" viewBox="0 0 1.76 2.03"><path fill="#e22626" d="m1.66 1.47-.78.45-.79-.45v-.9L.88.1l.78.45zM.88 0 0 .5v1.02l.88.5.87-.5V.51z"/><path fill="#66499e" d="M1.66.56.88.11.09.56v.9l.79.46.78-.45z"/><path fill="#e22626" d="M1.4.84v.48l-.52.3-.23-.12.09-.13-.21-.21s-.14.07-.19.16V.7L.88.4l.17.1-.13.09c-.2.18-.3.46-.3.46l.23.23s.28-.1.46-.3q.07-.08.1-.14"/><path fill="#fff" d="M1.38.84 1.3.96a1.4 1.4 0 0 1-.45.3l-.2-.21C.66.99.76.75.92.6l.11-.07L1.1.5a.24.24 0 0 1 .28.34m0 .47-.5.3-.2-.12.08-.1v-.03l-.22-.22H.51s-.09.05-.14.1V.73l.5-.3L1 .5.9.57c-.2.19-.3.46-.3.47v.03l.23.23h.03a1.4 1.4 0 0 0 .52-.36zm-.84.24Q.43 1.53.4 1.5c-.01-.02-.06-.06-.04-.14q0-.02.02-.05.06-.08.14-.12l.19.19-.1.12zM1.36.54a.3.3 0 0 0-.31-.07L.89.37H.86L.33.7.32.7v.6l-.01.04a.2.2 0 0 0 .06.18.2.2 0 0 0 .14.07h.04l.1-.07.21.12h.02l.54-.3.01-.03V.85a.3.3 0 0 0-.07-.31"/></svg>