<svg xmlns="http://www.w3.org/2000/svg" width="6643.65" height="7670.17" viewBox="0 0 17.58 20.29"><path fill="#bb6228" d="m16.62 14.66-7.83 4.52-7.83-4.52V5.62L8.8 1.1l7.83 4.52zM8.79-.01l-8.8 5.08v10.15l8.8 5.07 8.79-5.07V5.07z"/><path fill="#66499e" d="m.96 5.62 7.83-4.51 7.82 4.51v9.04L8.8 19.18.96 14.66z"/><path fill="#bc6228" d="m7.03 11.2 1.33 4.84-4.9-2.83V7.07l4.9-2.82-1.33 4.84-.3 1.05zM14.1 7.07v6.14l-4.89 2.83 1.34-4.85.29-1.05-.29-1.05-1.34-4.85z"/><path fill="#66499e" d="m10.84 10.14-.3 1.06-1.75 6.38-.26-.93-1.5-5.45-.3-1.06.3-1.04 1.5-5.47.26-.92 1.76 6.39z"/><path fill="#66499e" d="m8.79 2.71-.26.92-1.79 6.51 1.8 6.51.25.93 2.05-7.44z"/><path fill="#fff" d="M13.87 13.08 9.6 15.54l1.17-4.26q.3-.51.3-1.14T10.78 9L9.6 4.75l4.27 2.46zm-5.08 3.59-.04-.15-.18-.64-1.06-3.84a2.3 2.3 0 0 0 2.55 0l-1.05 3.84-.18.64zm-5.08-3.6V7.22l4.27-2.46L6.8 9a2.3 2.3 0 0 0 0 2.28l1.17 4.26zm6.87-2.69a1.81 1.81 0 0 1-3.58 0zM7 9.9a1.81 1.81 0 0 1 3.58 0zm1.79-6.28.04.15.18.64 1.05 3.83a2.3 2.3 0 0 0-2.55 0l1.06-3.83.18-.64zm5.44 3.25L9.42 4.09l-.4-1.44a.24.24 0 0 0-.23-.18q-.17 0-.23.18l-.4 1.44-4.8 2.78a.2.2 0 0 0-.13.2v6.14q0 .15.12.21l4.81 2.78.4 1.44q.05.17.23.18.17-.02.23-.18l.4-1.44 4.8-2.78a.2.2 0 0 0 .13-.2V7.06a.2.2 0 0 0-.12-.2"/></svg>