<svg xmlns="http://www.w3.org/2000/svg" width="66.44" height="76.7" viewBox="0 0 1.76 2.03"><path fill="#e22626" d="m1.66 1.47-.78.45-.78-.45v-.9L.88.1l.78.45zM.88 0 0 .5v1.02l.88.5.88-.5V.51z"/><path fill="#66499e" d="M.1.56.87.11l.78.45v.9l-.78.46-.79-.45z"/><path fill="#e22626" d="M1.4 1.06v.26l-.52.3-.13-.06-.02-.02-.03-.01-.35-.2V.7L.44.65.46.64.48.63.5.62.53.61V.6L.58.58.59.56.88.4l.32.19.04.02h-.02a.4.4 0 0 1-.17.06Q1 .67.95.65L.78.6Q.66.6.57.78H.55l.11.48.02-.03q.1-.15.2-.14t.2.05l.08.02a.4.4 0 0 0 .24-.1"/><path fill="#2b9a47" d="M1.4.7v.06z"/><g fill="#66499e"><path d="M.54.6H.53L.5.63H.46V.6A.05.05 0 1 1 .54.6M.57.55.54.51a.08.08 0 0 0-.1.11l.02.02h.05L.56.61.57.58z"/><path d="M.54.6H.53L.5.63H.46V.6A.05.05 0 1 1 .54.6M1.43 1.02l-.05.04q-.11.11-.29.07c-.18-.07-.28-.1-.41.1L.58.78C.7.57.77.6.94.66q.15.05.28-.03l.12-.1.04.14V.7l.02.06.02.1.03.13zm0-.26L1.41.68 1.37.5l-.12.1-.05.03Q1.1.68.96.64C.78.57.7.54.56.75L.55.78l.12.51.02-.03c.12-.2.2-.18.4-.1.1.04.22-.02.3-.07l.04-.04q.06-.04.06-.05z"/></g><path fill="#fff" d="m1.43 1.02-.05.04q-.11.11-.29.07c-.18-.07-.28-.1-.41.1L.58.78C.7.57.77.6.94.66q.15.05.28-.03l.12-.1.04.14V.7l.02.06.02.1.03.13zm-.05.29-.5.3-.13-.08-.06-.24c.13-.21.2-.18.39-.11l.09.01q.13 0 .21-.07zm-1.01 0V.72l.1-.06h.02l.2.83zM.45.54a.05.05 0 0 1 .1.02L.54.6H.53L.5.63H.46V.6a.1.1 0 0 1 0-.07M.87.43l.3.17a.3.3 0 0 1-.2.02C.77.55.67.52.55.72L.54.66.57.63.6.59zM1.5 1 1.4.48 1.37.47h-.02s-.05.06-.12.1L.89.37H.87L.59.55.55.49A.1.1 0 0 0 .41.5a.1.1 0 0 0 .01.13L.33.69v.65l.39.22.15.09H.9l.53-.3.01-.03V1.1l.08-.07z"/><path fill="#66499e" d="m1.46 1-.08.06q-.11.11-.29.07c-.18-.07-.28-.1-.41.1L.58.78C.7.57.77.6.94.66q.16.05.28-.03l.12-.1.04.14V.7l.02.06.02.1z"/></svg>