<svg xmlns="http://www.w3.org/2000/svg" width="66.44" height="76.7" viewBox="0 0 1.76 2.03"><path fill="#a51e36" d="m1.67 1.47-.79.45-.78-.45v-.9L.88.1l.79.45zM.88 0 .01.5v1.02l.87.5.88-.5V.51z"/><path fill="#66499e" d="M.1.56.88.11l.79.45v.9l-.79.46-.78-.45z"/><path fill="#a51e36" d="M1.42 1.06v.26l-.54.3-.12-.06-.02-.02-.03-.01-.36-.2V.7l.1-.06.02-.01L.5.63H.5V.61L.54.61.54.6.58.58.6.56.88.4l.33.19.03.02-.01.01a.4.4 0 0 1-.18.05Q1 .67.96.65L.78.6Q.67.6.57.78l.11.48.02-.02q.08-.15.2-.15.08 0 .2.05l.08.02a.4.4 0 0 0 .24-.1"/><path fill="#2b9a47" d="M1.42.7v.06L1.4.7z"/><g fill="#66499e"><path d="M.54.6Q.51.64.5.63H.46A.05.05 0 1 1 .54.6M.57.55.55.51a.08.08 0 0 0-.1.11v.01h.02L.5.65h.02L.57.61.58.58z"/><path d="M.54.6Q.51.64.5.63H.46A.05.05 0 1 1 .54.6M1.44 1.02l-.05.04q-.11.11-.29.07c-.19-.07-.29-.1-.41.1L.58.78C.7.57.78.6.96.67q.16.03.27-.04l.13-.1.03.14V.7l.03.06.02.1.03.13zm0-.26L1.42.68 1.37.5l-.11.1-.05.03Q1.1.68.97.64C.78.57.69.54.57.75L.55.78l.13.51.01-.03c.13-.2.21-.18.4-.1.11.04.22-.01.3-.07l.05-.03L1.5 1z"/></g><path fill="#fff" d="m1.44 1.02-.05.04q-.11.11-.29.07c-.19-.07-.29-.1-.41.1L.58.78C.7.57.78.6.96.67q.16.03.27-.04l.13-.1.03.14V.7l.03.06.02.1.03.13zm-.05.29-.5.3-.13-.08L.7 1.3c.13-.22.2-.2.38-.12l.1.01q.12 0 .21-.07zm-1.01 0V.72l.1-.05H.5l.2.83zM.46.54a.05.05 0 0 1 .1.02Q.55.58.53.6T.5.63H.46A.05.05 0 0 1 .46.53M.88.43l.3.17a.3.3 0 0 1-.2.02C.79.55.68.52.56.72L.55.66.58.63.6.59zm.64.57L1.4.48 1.38.47h-.02s-.06.06-.13.1L.9.38H.87L.6.54.56.49A.1.1 0 0 0 .42.5a.1.1 0 0 0 0 .13L.35.69.33.7v.63l.4.22.14.09H.9l.53-.3v-.26l.08-.07z"/><path fill="#66499e" d="m1.47 1-.08.06q-.11.11-.29.07c-.19-.07-.29-.1-.41.1L.58.78C.7.57.78.6.96.67q.16.03.27-.04l.13-.1.03.14V.7l.03.06.02.1z"/></svg>