<?xml version="1.0" encoding="UTF-8"?>
<svg width="1757.8mm" height="2029.4mm" version="1.1" viewBox="0 0 17.578 20.294" xmlns="http://www.w3.org/2000/svg">
 <g transform="translate(-30.632 -48.878)">
  <g transform="matrix(.26458 0 0 .26458 -79.371 -117.82)">
   <path d="m478.56 685.45-29.586 17.081-29.581-17.081v-34.156l29.581-17.083 29.586 17.083zm-29.586-55.429-33.214 19.176v38.357l33.214 19.169 33.221-19.169v-38.357z" fill="#bb6228"/>
   <path d="m419.34 651.3 29.582-17.078 29.581 17.078v34.157l-29.581 17.077-29.582-17.077z" fill="#66499e"/>
   <path d="m469.02 670.05v9.937l-20.102 11.598-4.775-2.754-0.787-0.455-1.089-0.629-13.449-7.76v-23.211l3.597-2.074 0.922-0.533 0.727-0.417 0.459-0.271c0.07 0 0.143-7e-3 0.212-0.011 0.371-0.052 0.704-0.201 0.982-0.44 0.114-0.085 0.216-0.195 0.308-0.32 0.036-0.05 0.076-0.102 0.109-0.159l1.171-0.678 0.916-0.525 10.697-6.181 12.269 7.083 1.384 0.804c-0.219 0.133-0.441 0.255-0.671 0.385-2.303 1.265-4.519 1.908-6.584 1.908-1.154 0-2.27-0.205-3.328-0.603-2.851-1.085-5.101-1.941-7.08-1.941-2.962 0-5.182 1.852-7.924 6.596l-0.096 0.152 4.352 18.049 0.571-0.884c2.487-3.82 4.775-5.456 7.647-5.456 2.146 0 4.674 0.897 7.518 1.975 0.934 0.358 1.943 0.54 2.981 0.54 3.236 0 6.364-1.764 8.415-3.246 0.224-0.152 0.443-0.314 0.648-0.479" fill="#bc6228"/>
   <path d="m469.02 656.77v2.153l-0.602-2.501z" fill="#2b9a47"/>
   <g fill="#66499e">
    <path d="m436.03 652.71c-0.093 0.125-0.195 0.234-0.308 0.32-0.278 0.239-0.612 0.388-0.982 0.44-0.069 4e-3 -0.142 0.011-0.212 0.011-0.165 0.013-0.327 0-0.486-0.042-0.257-0.054-0.494-0.157-0.711-0.315-0.014-7e-3 -0.026-0.02-0.04-0.026-0.865-0.656-1.038-1.886-0.384-2.744 0.384-0.506 0.967-0.775 1.565-0.775 0.411 0 0.821 0.126 1.17 0.39 0.457 0.346 0.725 0.845 0.772 1.372 0.044 0.41-0.047 0.84-0.275 1.21-0.033 0.056-0.073 0.109-0.109 0.159m1.22-1.85c-0.145-0.622-0.506-1.2-1.055-1.617-1.27-0.953-3.063-0.699-4.02 0.565-0.883 1.174-0.728 2.81 0.314 3.802 0.079 0.071 0.161 0.149 0.249 0.211 0.194 0.143 0.394 0.255 0.604 0.348 0.283 0.119 0.578 0.188 0.879 0.222 0.186 0.012 0.377 6e-3 0.566-0.01 0.119-0.018 0.235-0.033 0.349-0.067 0.303-0.069 0.589-0.191 0.854-0.357 0.288-0.182 0.546-0.416 0.765-0.698 6e-3 -0.01 9e-3 -0.024 0.015-0.026 0.31-0.417 0.49-0.88 0.54-1.36 0.042-0.341 0.02-0.685-0.06-1.013"/>
    <path d="m436.14 652.55c-0.033 0.057-0.073 0.109-0.109 0.159-0.093 0.125-0.196 0.235-0.308 0.32-0.278 0.239-0.612 0.388-0.982 0.44-0.07 4e-3 -0.142 0.011-0.212 0.011-0.165 0.013-0.327 0-0.487-0.042-0.256-0.054-0.494-0.157-0.711-0.315-0.013-7e-3 -0.026-0.02-0.038-0.026-0.866-0.655-1.04-1.886-0.385-2.744 0.385-0.506 0.966-0.775 1.565-0.775 0.41 0 0.82 0.126 1.17 0.39 0.457 0.347 0.725 0.846 0.771 1.372 0.044 0.41-0.046 0.84-0.274 1.21"/>
    <path d="m469.93 668.72c-0.274 0.239-0.575 0.486-0.909 0.752-0.282 0.231-0.591 0.459-0.909 0.69-2.823 2.032-7.019 4.153-10.975 2.647-7.05-2.677-10.916-3.705-15.703 3.654l-4.059-16.845c4.718-8.151 7.603-7.056 14.455-4.453 3.653 1.389 7.344 0.288 10.288-1.333 0.307-0.169 0.608-0.341 0.904-0.519 0.294-0.185 0.582-0.371 0.858-0.56 1.277-0.857 2.332-1.749 3.071-2.422l1.172 4.87 0.296 1.224 0.602 2.501 0.909 3.775 1.187 4.925c-0.262 0.254-0.666 0.642-1.187 1.094m0-9.903-0.718-2.988-1.749-7.267s-1.794 1.949-4.474 3.679c-0.282 0.185-0.576 0.364-0.883 0.54-0.303 0.177-0.611 0.347-0.93 0.512-2.673 1.373-5.892 2.213-9.018 1.026-7.078-2.687-10.423-3.617-15.1 4.062-0.223 0.347-0.43 0.711-0.649 1.096l4.659 19.339c0.218-0.385 0.435-0.756 0.653-1.104 4.673-7.665 8.02-6.742 15.095-4.056 4.089 1.559 8.32-0.36 11.296-2.385 0.318-0.219 0.621-0.433 0.909-0.652 0.327-0.238 0.629-0.476 0.909-0.708 1.366-1.113 2.185-2.011 2.185-2.011z"/>
   </g>
   <path d="m469.93 668.72c-0.274 0.239-0.575 0.486-0.909 0.752-0.282 0.231-0.591 0.459-0.909 0.69-2.823 2.032-7.019 4.153-10.975 2.647-7.05-2.677-10.916-3.705-15.703 3.654l-4.059-16.845c4.718-8.151 7.603-7.056 14.455-4.453 3.653 1.389 7.344 0.288 10.288-1.333 0.307-0.169 0.608-0.341 0.904-0.519 0.294-0.185 0.582-0.371 0.858-0.56 1.277-0.857 2.332-1.749 3.071-2.422l1.172 4.87 0.296 1.224 0.602 2.501 0.909 3.775 1.187 4.925c-0.262 0.254-0.666 0.642-1.187 1.094m-1.818 10.737-19.193 11.083-4.768-2.757-2.127-8.807c4.73-8.171 7.613-7.07 14.465-4.467 1.168 0.441 2.341 0.636 3.486 0.636 3.02-0.01 5.886-1.317 8.137-2.769zm-38.389 0v-22.165l3.699-2.134c0.328 0.096 0.673 0.146 1.019 0.146l7.532 31.223zm3.18-29.106c0.383-0.506 0.965-0.775 1.565-0.775 0.41 0 0.82 0.126 1.17 0.39 0.457 0.347 0.725 0.846 0.771 1.372 0.044 0.41-0.046 0.84-0.274 1.212-0.033 0.055-0.073 0.108-0.109 0.161-0.092 0.121-0.195 0.231-0.312 0.321-0.274 0.234-0.607 0.383-0.978 0.435-0.07 4e-3 -0.143 0.011-0.212 0.011-0.165 0.013-0.326 0-0.487-0.042-0.256-0.054-0.494-0.156-0.711-0.315-0.013-6e-3 -0.025-0.02-0.04-0.026-0.864-0.655-1.037-1.886-0.383-2.744m16.016-4.135 11.308 6.525c-2.372 1.121-5.115 1.722-7.748 0.726-7.058-2.679-10.924-3.711-15.726 3.687l-0.549-2.283c0.493-0.245 0.93-0.613 1.274-1.072 0.313-0.417 0.525-0.88 0.648-1.353zm24.082 21.473-4.659-19.343c-0.079-0.321-0.328-0.578-0.654-0.661-0.321-0.09-0.669 0.013-0.898 0.262-0.032 0.04-1.944 2.084-4.693 3.775l-12.721-7.343c-0.281-0.163-0.629-0.163-0.91 0l-10.416 6.01c-0.219-0.724-0.669-1.384-1.313-1.871-1.661-1.256-4.034-0.923-5.29 0.737-1.102 1.475-0.974 3.498 0.231 4.816l-3.313 1.915c-0.283 0.158-0.456 0.459-0.456 0.787v23.211c0 0.325 0.173 0.626 0.456 0.787l14.503 8.369c0.02 0.014 0.039 0.027 0.059 0.04l5.539 3.191c0.139 0.084 0.295 0.122 0.453 0.122 0.156 0 0.315-0.038 0.457-0.122l20.099-11.6c0.281-0.161 0.455-0.462 0.455-0.787v-8.899c1.672-1.3 2.744-2.433 2.859-2.57 0.205-0.225 0.282-0.532 0.212-0.826" fill="#fff"/>
   <path d="m471.12 667.63c-0.262 0.254-0.665 0.642-1.187 1.094-0.274 0.239-0.575 0.486-0.909 0.752-0.282 0.231-0.59 0.459-0.909 0.69-2.822 2.031-7.019 4.152-10.974 2.647-7.05-2.677-10.917-3.705-15.705 3.654l-4.057-16.845c4.718-8.151 7.602-7.056 14.455-4.453 3.652 1.389 7.344 0.288 10.287-1.333 0.308-0.169 0.608-0.341 0.902-0.519 0.296-0.185 0.582-0.372 0.861-0.56 1.273-0.857 2.332-1.749 3.07-2.422l1.173 4.87 0.296 1.224 0.601 2.501 0.909 3.775z" fill="#66499e"/>
  </g>
 </g>
</svg>
