<svg xmlns="http://www.w3.org/2000/svg" width="66.44" height="76.7" viewBox="0 0 17.58 20.29"><g stroke-width=".26"><path fill="#ffc52e" d="m16.62 14.67-7.83 4.52-7.83-4.52V5.63L8.8 1.1l7.83 4.52zM8.79 0 0 5.07v10.15l8.79 5.07 8.79-5.07V5.07z"/><path fill="#66499e" d="M.95 5.63 8.77 1.1l7.83 4.52v9.04l-7.83 4.51-7.82-4.51z"/><path fill="#ffc52e" d="M14.1 10.59v2.63l-5.33 3.07-1.26-.73-.2-.12-.3-.17-3.55-2.05V7.08l.95-.55.24-.14.2-.11.12-.07h.05a.5.5 0 0 0 .26-.12L5.36 6l.03-.04.31-.18.24-.14 2.83-1.63 3.25 1.87.37.21-.18.1q-.92.5-1.74.5-.46 0-.88-.15a6 6 0 0 0-1.88-.51c-.78 0-1.37.49-2.1 1.74l-.02.04 1.15 4.78.15-.24c.66-1 1.27-1.44 2.03-1.44.56 0 1.23.24 1.99.52q.37.15.78.14a4 4 0 0 0 2.4-.98"/><path fill="#2b9a47" d="M14.1 7.08v.57l-.17-.67z"/><g fill="#66499e"><path d="m5.36 6-.08.09a.5.5 0 0 1-.26.11h-.18a1 1 0 0 1-.2-.09.52.52 0 1 1 .75-.15zm.33-.49a.76.76 0 1 0-1.26.73l.06.06.16.09q.12.04.23.06h.15l.1-.02a.8.8 0 0 0 .43-.28v-.01a.75.75 0 0 0 .13-.63"/><path d="M5.4 5.96 5.35 6l-.08.09a.5.5 0 0 1-.26.11h-.18a1 1 0 0 1-.2-.09.52.52 0 1 1 .75-.15M14.33 10.24l-.48.38c-.75.54-1.86 1.1-2.9.7-1.87-.7-2.89-.98-4.16.97L5.72 7.83c1.25-2.16 2.01-1.87 3.82-1.18.97.37 1.95.08 2.73-.35a7 7 0 0 0 1.27-.93l.31 1.3.08.31.16.67.24 1 .32 1.3zm0-2.62-.19-.8-.46-1.92s-.47.52-1.18.98l-.48.28c-.71.36-1.56.58-2.39.27-1.87-.71-2.76-.96-4 1.07l-.17.3 1.24 5.1.17-.28c1.24-2.03 2.12-1.79 4-1.08 1.07.42 2.2-.1 2.98-.63l.48-.36c.36-.3.58-.53.58-.53z"/></g><path fill="#fff" d="m14.33 10.24-.48.38c-.75.54-1.86 1.1-2.9.7-1.87-.7-2.89-.98-4.16.97L5.72 7.83c1.25-2.16 2.01-1.87 3.82-1.18.97.37 1.95.08 2.73-.35a7 7 0 0 0 1.27-.93l.31 1.3.08.31.16.67.24 1 .32 1.3zm-.48 2.84L8.77 16l-1.26-.73-.56-2.33c1.25-2.16 2.01-1.87 3.83-1.18q.46.17.92.17c.8 0 1.56-.35 2.15-.73zm-10.16 0V7.2l.98-.56q.13.04.27.04l2 8.26zm.85-7.7a.52.52 0 0 1 .92.26q.03.16-.07.32L5.36 6l-.08.09a.5.5 0 0 1-.26.11h-.18a1 1 0 0 1-.2-.09.5.5 0 0 1-.1-.73m4.23-1.1 3 1.73c-.63.3-1.36.46-2.05.2-1.87-.72-2.9-.99-4.17.97l-.14-.6a1 1 0 0 0 .34-.29q.12-.17.17-.36zm6.38 5.69L13.9 4.85a.2.2 0 0 0-.17-.18.2.2 0 0 0-.24.07c0 .01-.51.55-1.24 1L8.89 3.8a.2.2 0 0 0-.24 0L5.9 5.39a1 1 0 0 0-1.75-.3 1 1 0 0 0 .06 1.27l-.87.5a.2.2 0 0 0-.13.22v6.14q0 .13.13.2l3.83 2.22.02.01 1.46.85.12.03q.07 0 .12-.03l5.32-3.07a.2.2 0 0 0 .12-.21v-2.36c.45-.34.73-.64.76-.68a.2.2 0 0 0 .06-.21"/><path fill="#66499e" d="M14.65 9.95a7 7 0 0 1-.8.67c-.74.54-1.86 1.1-2.9.7-1.87-.7-2.89-.98-4.16.97L5.72 7.83c1.25-2.16 2.01-1.87 3.82-1.18.97.37 1.95.08 2.73-.35a6 6 0 0 0 1.27-.93l.31 1.3.08.32.16.66.24 1z"/></g></svg>