<svg version="1.1" viewBox="0 0 612.284 858.898" xmlns="http://www.w3.org/2000/svg"><defs><clipPath id="a"><path transform="matrix(1,0,0,-1,0,907.89)" d="m24.496 883.394h612.283v-858.898h-612.283z"/></clipPath><clipPath id="e"><path d="m24.496 883.394h612.283v-858.898h-612.283z"/></clipPath><clipPath id="d"><path d="m24.496 883.394h612.283v-858.898h-612.283z"/></clipPath><clipPath id="c"><path d="m24.496 883.394h612.283v-858.898h-612.283z"/></clipPath><clipPath id="b"><path d="m24.496 883.394h612.283v-858.898h-612.283z"/></clipPath></defs><g transform="translate(-24.496,-24.496)"><path transform="matrix(1,0,0,-1,0,907.89)" d="m24.496 24.496h612.283v858.898h-612.283z" fill="#00988e"/><g clip-path="url(#a)"><path transform="matrix(1,0,0,-1,0,907.89)" d="m636.779 24.496h-612.283v859.398h612.283z" fill="none" stroke="#231f20" stroke-miterlimit="10"/><path transform="matrix(1 0 0 -1 1020.62 -368.504)" d="m0 0c13.084 3.322 24 8.666 29.334 8.666s8.666 8.666-0.666 11.334c-9.334 2.666-15.334 2.666-28 2-12.668-0.668-30-4.668-62.668 0.666-4.082 0.666-7.92 1.15-11.418 1.969-10.719 2.51-32.748-0.982-33.582 11.031-0.498 7.193 12.758 4.987 19 6 0.986 0.16 1.586 0.586 3 2 1.416 1.414-0.867 2.152-2 3-10.031 7.506-21.098 16.588-34 15-12.275-1.512-24.016-5.647-37-5-10.037 0.5-18.852 5.995-29 7-7.961 0.788-14.789-2.99-22-4-18.816-2.636-39.082 1.941-57 10-3.287 1.48-5.906 4.496-10 5-10.916 1.344-23.143 2.238-34 4-3.121 0.506-5.809 3.321-9 5-4.766 2.508-10 4-15 4-2 0-3.187 1.842-4 3-9.496 13.559-22.195 23.899-38 20-13.205-3.259-26.074-4.248-40-6-6.273-0.789-11.379-5.443-17-7-13.49-3.736-28.934 6.412-42 1-4.619-1.914-6.309-7.072-5-12 0.813-3.057 3.715-4.511 7-7 6.428-4.869 6.443-14.266 10-21 6.088-11.529 16-19 25-28 4-4 3.082-9.111-1-12-2.943-2.082-7.436-1.15-10-3-4.057-2.924 0.416-8.758-1-13-0.707-2.121-3.721 0.498-7-2-33.418-25.459-83.986 5.188-126 8-31.99 2.143-64.027 0.67-96 2-12.031 0.5-24 1-35.983 3-7.017 0-14.267 0.25-21.516 0.125-7.25-0.125-14.401-1.201-21.5-2.125-20.849-2.712-40.99 0.858-61.721-0.627-3.758-0.268-7.491-0.503-11.206-0.744-3.713-0.24-272.906-0.969-276.56-0.629-17.389 1.619-45.793-8.632-51 9-4.055 13.731-5.306 32.457-19 35-2.951 0.547-5.669 1.62-9 3-4.711 1.951-9.065 2.557-14 3.5-1.788 0.342-4.5 1.5-5.875 4.563-1.375 3.062-1.375 8.187 2.375 16.937 7.5 17.5-4.5 19.5-19.5 19.5s-17-0.5-44.5 0-31-2.5-47-6-40.5 0-61-7-62.5-12-71-12.5 24.5-13.5 39.5-13.5c7.5 0 18.75-4 29.75-8.562 3.666-1.522 7.382-2.94 10.76-4.624 9.735-4.851 20.876-4.136 29.49-9.314 3.09-1.857 5.879-2.84 6-6 0.158-4.121-4.535-7.553-8-10-18.999-13.418-43.495-14.75-65-24-4.108-1.768-6.579-7.794-2.186-10.029 1.948-0.992 3.186-0.971 5.186-2.971 1-1 2.076-0.617 3-1 1.306-0.541 0.614-1.716 2-2 5.275-1.082 9.12 3.479 14 2 1.353-0.41 2-2 3-2 10 0 19.204-0.99 29-3 14.921-3.062 25.284-23.317 41.653-25.334 0.993-0.121 7.527 1.208 8.833 0.668 6.467-2.68 8.875-2.602 17.167-0.5 12.5 3.166 23-0.169 32.166 0.166 14.309 0.522 11.938-2.47 25.875-4.125 6.041-0.718 5.334-2.213 11.875-3.937 2.859-0.753 5.257-0.34 8.164-0.887 2.906-0.547 5.183-0.012 8.17-0.385 6.036-0.753 9.204 0.48 11.416-1.332 3.094-2.537-5.192-1.369-9.25-3.25-3.454-1.603-6.375 1.5-10.75 1s-18.75-0.959-25.972-6.074c-32.065-22.713-24.442-8.502-64.778-11.51-1.994-0.148-4.823-1.486-7-2-9.732-2.298-20.267-0.703-30-3-2.176-0.514-5-2-7-2-1 0-3.617-0.924-4 0-0.541 1.307 2.697 0.77 2 2-2.031 3.588-7.902-1.879-13-2-24.731-0.589-51.502-10.096-71.665-25.408-1.354-1.028-2.701-1.694-2.835-2.176-0.666-2.416 0.771-2.929 0.931-3.916 0.507-3.121-9.507 0.121-9-3 0.32-1.975 5.139 0.231 5-2-0.448-7.197-19.501-0.947-19-8 0.142-1.994 3.586 1.414 5 0s-0.876-3.142-2-4c-6.407-4.894-21.971-4e-3 -23-8-1.376-10.683 19.963-5.5 30-6 12.984-0.647 26.032 0.078 39 1 35.266 2.506 69.649 9.447 105 10 9.054 0.142-5.388-16.942-32-20-23.193-2.664-54.368 0.62-77.431-3-43-6.75-56.473-29.933-81.5-31.25-14.25-0.75-33.168-8.361-33.5-13-1-14 69.25-9.5 68.25-16-0.344-2.238-19.689-4.836-27.75-5-6.081-0.125-27.608 1.963-34.25-0.25-4.743-1.582-13.193-2.596-15.673-6.937-4.492-7.863 8.383-7.236 13.854-10.563 6.823-4.15 14.596-6.158 21.827-9.078 0.658-0.265 1.306-0.549 1.971-0.797 9.109-3.386 17.776-6.14 25.202-11.125 8.825-5.925 14.454-16.453 22-25 0.936-1.061 0.921-3.086 2-4 6.564-5.561-43.248-20.369-43.431-29.75-0.013-0.684 0.711-8.57 0.75-9.25 0.356-6.123-8.919-6.434-6.231-12.386 0.263-0.584 0.619-1.133 0.776-1.749 1.08-4.24-3.295-6.74-1.025-10.246 1.63-2.517 5.072-10.75 8.538-14.684 7.026-7.976-24.558-15.644-38.058-32.185-1.896-2.324-1.147-6.228 0-9 3.248-7.84 27.844-6.976 36.25-8.5 10.824-1.963 29.95-0.089 34.431-9.25 5.894-12.052-22.44-16.494-35-15-9.368 1.114-19.049 4.933-28 4-19.312-2.011-37.082-6.002-55-13-3.359-1.312-7.496-2.908-8-7-0.368-2.978 3.826-5.238 6.5-7 2.366-1.559 5.319-2.166 8.329-2.635 3.009-0.467 6.216-0.704 9.467-0.439 8.741 0.713 18.54 3.068 27.704 4.074 15.904 1.746 33.054 1.319 49 0 6.062-0.502 13.053-1.203 19-2 11.3-1.514 20.442-8.477 32-12 5.819-1.773 9.774 3.836 15 6 3.695 1.53 7.027 0.101 11-1 2.726-0.755 4.039-2.52 7-3 3.121-0.507 5.097-0.746 8-2 13.554-5.855 27.328-11.277 42-8 24.104 5.385 48.266-2.824 65-17 2.751-2.33 4.257-5.386 7.952-7.295 2.878-1.486 5.798-4.08 9.548-6.205 11.25-6.375 27.5-12.5 47.5-11.5s26.5 4.75 34 7.875c2.5 1.041 5.06 2.27 8.362 2.793 16.484 2.621 35.326 7.305 50.638-0.668 1.254-0.652 2.002-2.902 4-3 41.146-2.002 348.487-6 388.486 3 3 3 7 3 10 5 30 9 60.7 17.492 92 20 9.969 0.799 21-0.014 30.982-7e-3 3.015 1e-3 4.897-1.487 8.018-1.993 12.832-2.082 25.536-2.173 38-6 38.534-11.834 75.748-7.506 113-5 17.961 1.209 34.953-7.037 51-14 6.68-2.897 15.594-5.894 22-1 2.248 1.717 4.082 2.312 7 3 13.059 3.082 8.771 19.795 16 29 4.455 5.672 13.916-2.396 20-6 4.303-2.548 9.223-4.724 13-8 1.068-0.927 1.797-2.257 3-3 8.07-4.988 15.965-7.531 28-12 5.93-2.201 11.83-1.563 17.309-2.916 4.119-1.015 8.191-0.992 12.05-1.268 23.162-1.656 41.641 1.584 71.641 5.184 50 6 57 2 98-1s45-10 69-3 28 13 64 11 39-1 73 3 44.482 13.764 49 27c3.33 9.756 2 25-32 26s-36 2-67 6c-20.666 2.666-32.443 4-39.777 7.853-3.666 1.924-6.287 4.446-8.223 8.147-1.035 1.981-2.064 3.877-4 5-6.236 3.619-14.113 3.881-16 10-3.84 12.459 17.582 18.268 28 21 14.639 3.84 29.777 3.508 45 2 5.971-0.591 11.816 0.411 17.766 2.822 3.037 1.233 6.398 2.262 9.609 3.678 9.629 4.244 18.625 10 20.625 15.5 1 2.75 0.064 5.064-1.906 6.984-1.99 1.94-4.949 3.664-8.174 4.69-16.645 5.291-34.029 6.151-50.92 8.326-5.057 0.651-10.68 3.571-13 8-1.467 2.801-1.387 5.48 1 7 9.873 6.287 22.826 5.813 35 8 8.914 1.603 18.203-4.141 27-2 3.504 0.853 6.135 4.566 9 8 3.205 3.838 10.223 3.725 14 7 1.068 0.926 1.195 3.02 1 4-2.549 12.747-15.701 18.715-27 23-25.436 9.648-52.771 5.006-79 3-14.955-1.144-29.057-1.309-44 0-17.195 1.506-33.596 6.564-51 8-29.965 2.471-58.939-4.662-89-4-18.105 0.399-36.449 1.344-54 7-7.248 2.336-20 3.055-20 12 0 2.236 1.521 4.323 3 6 11.932 13.516 32.602 13.646 50 17 41.428 7.988 84.314 3.932 124 19 8.361 3.176 18.982 15.801 12 24-3.779 4.439-12.879 0.959-15 7-1.322 3.774 3.562 4.565 6 6 12.551 7.385 28.092 6.12 42 8 5.055 0.684 9.713 2.981 15 4 0.982 0.189 2.008 1.877 3 2 8.186 1.008 17.809 1.643 22 8 1.102 1.67-1 2-2 2-9 0-15.818 8.279-21 15-8.48 11.002-11.637 25.688-21 36-1.502 1.655-1.969 4.065-4 5-18.729 8.614-38.982 10.393-59 11-4.525 0.137-8 2.5-10.91 5.422-2.912 2.924-5.311 6.733-7.389 10.961-1.764 3.588-4.846 4.55-8.701 5.617-5.619 1.557-8.807 6.749-10 12-3.332 14.659 10.15 26.659 25 29 77 12.137 101.5 3.5 126.5 3.5s38.5 4.5 33 5.5-17.5 7-27.5 5.5-21.5 2-33 2.5-25 4-26.5 6-7 3.666 3.5 6.334" fill="#104774"/><path transform="matrix(1,0,0,-1,673.374,87.4364)" d="m0 0c-7.922 7.41-14.404 18.096-25.756 22.582-13.154 5.197-28.416 7.139-44 3-6.765-1.797-13.83 2.258-21 1-18.226-3.195-34.168-9.162-52.293-7.73-3.629 0.285-7.213 0.816-10.722 0.723-10.033-0.263-21.068-1.721-30.986-2.993-23.577-3.024-46.23-14.879-70-15-4.123-0.02-6.987-1.947-11-1-17.946 4.236-32.787 14.621-50 21-4.781 1.772-10.382 1.086-15 3-2.613 1.083-4.1 2.23-7 3-3.896 1.035-7 4.25-10.625 6.25s-7.271 4.35-11.375 4.75c-19.93 1.95-39.874 6.018-60 8-41.846 4.124-82.16-9.736-124-24-0.947-0.322-2.014 0.16-3 0-3.121-0.507-4.927-5.369-9-6-11.882-1.841-23.438-2.061-35.157-3.516-3.906-0.484-7.828-1.142-11.846-1.485-21.941-1.866-52.1-13.31-66.997 3.001-0.676 0.738-0.014 1.84-1 2-1.561 0.254-3.25 0.25-4.875 0.25-0.542 0-1.072 0.223-1.57 0.12-0.654-0.134-1.264 1.054-2.555 1.63-13.029 5.825-27.877 2.194-41.366 5.744-0.718 0.19-1.452 0.332-2.159 0.59-1.52 0.555-3.2 1.053-4.475 1.666-16.324 7.846-34.241 8.348-52 13-4.837 1.268-12.851 2.866-14-2-0.514-2.176 5.157-0.769 5-3-0.449-6.309-17.547 4.155-19-2-0.325-1.376 1.77-1.027 2-2 0.513-2.176-1.79-1.078-3-4-0.856-2.065-7.109-0.47-8.417-2.283-0.827-1.148 0.55-4.219 1.417-4.717 12.047-6.919 34.033-15.369 38-4 1.187 3.404-10.445 2.012-9 6 3.76 10.387 20.146-8.048 31-6 13.184 2.487 24.119-3.503 35.5-6.5 0.734-0.193 1.449-0.449 2.175-0.676 6.521-2.031 14.338-2.122 19.325-6.824 1.627-1.533 3.885-3.274 5.998-4 0.604-0.207 1.236-0.281 1.834-0.461 4.184-1.257 7.746-3.941 12.168-4.539 13.908-1.88 26.736-5.746 41-7 3.488-0.307 7.015 0.142 10.543 0.08 24.691-0.424 49.709-1.297 74.457-1.08 8.062 0.071 19.298 5.608 24-2 0.526-0.851-0.514-1.142 0-2 7.57-12.676 29.014-0.365 43-1 11.034-0.5 20.173-7.363 31-13 0.887-0.462 2.023 0.211 3 0 11.809-2.558 22.003-9.99 34.397-13.877 2.905-0.912 5.84-1.751 8.81-2.498 2.969-0.748 5.971-1.4 9.007-1.961 4.198-0.775 8.412-1.367 12.661-1.789 21.128-2.097 43.391-1.355 64.125 3.125 24.436 5.281 48.22 1.539 72-2 2.967-0.44 6.041 0.498 9 0 27.132-4.562 53.088 4.117 80 5 5.096 0.168 11.009 0.885 16.312 1.299 3.953 0.31 7.865 0.768 11.789 1.112 27.297 2.39 54.949 6.425 81.9 1.589 7.164-1.285 15.256-2.257 20-7 3.16-3.162 6.906-4.496 11-5 16.871-2.076 37.512 2.545 49 16 11.703 13.711-10.451 24.606-20.361 33.039-2.524 2.15-5.377 4.035-7.883 6.379m-1040.76 152.069c-1.458 4.392 23.667 10.833 20 14.513-2.91 2.92 7.679 4.813 7 9-0.718 4.415-10.767 1.057-14 5-2.536 3.094 3.982 6.028 7 8 14.45 9.442 33.321 8.213 51 14 1.901 0.622 3.976-0.152 6.27-0.439 2.082-0.26 4.195-0.223 6.3-0.301 21.041-0.787 44.49-4.416 62.43 5.74 6.153 3.484 10.449 10.233 17.667 11.195 5 0.667 9.398 5.004 14.333 5.805 3.121 0.506 6.277-3.771 10-2 4.514 2.149 11.733 3.036 12 4 1.772 6.406-18.268 3.703-28 6-2.178 0.514-3.857 2.649-7 3-9.988 1.114-18.852 5.995-29 7-1.99 0.197-3.054-0.459-5 0-15.234 3.596-28.796-1.803-43 0-2.22 0.282-4.152 1.766-6 1-1.307-0.541-3.056-1.33-4-1-6.042 2.12-11.191 5.314-17.342 7.397-1.518 0.513-2.87 1.449-4.299 2.245-1.424 0.792-3.173 1.172-4.359 2.358-1.581 1.581-7.25 3.463-4 6 5.255 4.104 13.333 2.083 20 4.514 1.334 0.486 2.61 1.179 4.001 1.486 12.729 2.817 26.304-0.457 39.999-3 6.882-1.277 12.79 0.99 20 2 6.932 0.971 13.996 0.026 21 1 9.755 1.356 18.013 7.877 28 9 8.011 0.901 14.009-2.93 22-4 7.009-0.937 13.089-0.121 19.999 1 12.487 2.026 25.355 9.894 37 7 18.668-4.637 36.731-3.594 54.004-1.001 1.856 0.279 3.747 0.235 5.622 0.335 13.125 0.697 26.279 0.702 39.375 2.666 6.015 0.902 10.999-1.014 17.405-1.582 1.922-0.171 3.853-0.291 5.786-0.385 9.667-0.466 19.428-0.353 28.798-0.332 3.841 8e-3 7.675 0.252 11.511 0.471 3.833 0.217 7.869-0.445 11.5 0.828 3.402 1.193 5.975 3.077 9 4 17.866 5.456 36.349 4.37 53.99 9 2.837 0.744 5.572 1.689 8.415 2.189 8.532 1.499 17.244 2.058 25.595 2.811 3.859 0.348 7.765-0.016 11.668-0.045 3.902-0.029 7.816-0.113 11.737-0.127 25.595-0.093 52.901-4.931 78.595-0.828 10.782 1.723 21.5 4.25 32.625 4.25 3.826 0 7.634-0.305 11.519-0.397 7.854-0.189 15.794-2.786 23.856-2.853 37.214-0.31 75.839 7.691 111-4 3.421-1.138 7.484-1.203 11-2 6.896-1.563 12.929-1.074 20-1 33.238 0.355 66.986-17.07 99.001-9 2.168 0.547 6.018-9e-3 7 2 2.238 4.581-5.592 10.692-1 14 5.442 3.922 21.326 5.045 17 13-1.07 1.965-3.504 3.34-5 5-8.732 9.683-21.312 14.453-31 24-7.123 7.02-8.697 17.918-13 27-1.213 2.557-4.515 3.594-6 6-1.664 2.69-3.551 7.45-1 10 5.098 5.1 13.756 0.014 20-1 7.897-1.281 17.813-6.17 24-1 12.861 10.75 26.373 6.941 39 12 8.303 3.327 17.344 6.463 26 4 29.332-8.346 1.07-23.039 38.666-32.68 6.5-1.666 4.166-4.666 13.166-6.416 11.82-2.299 25.432 0.012 37-3.75 4.254-1.382 6.682-2.986 11.25-5.25 29.25-14.5 42.338-7.48 61.82-10 10.911-1.412 16.731 0.285 27.098-3.904 3.342-1.351 12.992-2.798 8-8-9.422-9.811-23.348-11.983-35-19-1.213-0.728-3.543-1.692-3-3 0.383-0.924 0.363-1.227 1-2 6.465-7.887 22.772-0.205 30-8 3.399-3.666 3.385-9.371 6-13 0.824-1.146 2.672-1.511 4-2 23.533-8.666 50.727-4.514 76-3 7.266 0.436 13.762 0.655 20.024 2.557 3.98 1.207 8.031 1.666 11.976 2.443 11.832 2.334 23.664 3.668 39.332-2 31.332-11.332 28-10 65.332-11.332 37.334-1.334 34-5.334 52.668-4.668 18.666 0.668 28.695-20.584 28-26-0.426-3.306-10.668-13.332-20.668-16.666s-30.666-7.334-50.666-6.666c-20 0.666-40.666-12.668-2-10.668s12-10.666 37.334-14c25.332-3.332 36.055-4.41 55.332-8.666 16.668-3.68-4.666-12-14.666-14.666-7.5-2-15.75-5.875-24.75-9.095-3-1.073-6.111-1.97-9.25-2.905-5.051-1.506-7.857-7.57-8-12.668-0.195-7.068 6-12.515 6-21 0-1.414-1.453-4.619-2.666-5.346-20.615-12.37-64.994-0.179-67.125-24.5-0.123-1.409 1.248-3.84 2.5-4.5 14.399-7.594 36.211 7.061 47.291-4.654 3.074-3.248 1.11-8.074-1-11-6.666-9.25-11.81-12.859-21.666-19.096-3.047-1.927-11.883-3.859-15.334-4.904-9.57-2.897-19.885 0.697-30 2-16.888 2.176-35.346 1.418-52-2-7.461-1.531-16.459-5.842-18.998-14-1.226-3.936 2.848-7.248 6-9 10.561-5.871 7.863-24.625 19.164-26.138 6.94-0.928 16.432-1.815 23.5-1.667 10.049 0.212 18.631-0.916 28.668-1.416 2.996-0.15 13.213 0.715 16.332 0.208 14.809-2.403 26.418 1.792 47.334 2.013 5.83 0.063 11.055 0.727 16 0 10.33-1.516 26.082-4.81 30-11 1.606-2.535-3.242-3.617-5-5-20.965-16.507-53.201 2.299-80-1-4.092-0.504-7.002-1.125-11-1-16.021 0.5-31.058 3.377-47 2-23.258-2.007-46.01-8.203-69.998-7-14.125 0.709-27.375 5.217-41 2-2.178-0.514-3-1-5-1-4 0-5.68-1.514-8.293-2.596-4.619-1.914-10.514-0.663-14.75-3.5-2.996-2.007 0.744-10.517-1.957-12.904-1.678-1.479-3.289-2.561-5-4-7.99-6.72-20.672-4.483-31-6-4.947-0.726-10.818 2.394-15-1-5.599-4.543 1.043-10.761 7-12 8.072-1.679 15.772-2.559 24-2 5.371 0.365 9.133 2.149 14 1 2.176-0.514 4-1 6-2 4-2 6.369-7.107 11-9 14.008-5.726 28.608-5.982 44-8 19.828-2.599 38.986 1.745 58.998 1 8.059-0.3 15.783-3.568 23-6 11.723-3.949 25.121-4.033 37-6 8.137-1.347 19.32 0.144 23.084-7.971 3.203-6.909-9.816-5.519-16.75-7.5-7-2-10.019-5.799-14.25-10.5-9-10 1.25-13 0.916-19.59-0.168-3.312 5.084-7.41 11.084-8.66 12-2.5 24.25-10.75 16.75-15.25s-69.834-16.029-57.334-18.029 33-4.5 46.5-3 16 3 55-0.5 31 3 47.5 1.5 4.5-19-9.5-19-37.5 1-71 2.5-35-8-69-13.5c-33.998-5.5-71.998 0.5-108.498 6.5s-32 10-57.5 8.5-11-3-40.5-10.5c-3.687-0.936-8.242-1.539-13.39-1.873-2.575-0.168-5.295-0.311-8.131-0.312-12.983-5e-3 -26.668-1.819-37.979 3.185-3.299 1.459-6.064 2.387-9 3-17.096 3.576-30.105 17.416-46 24-16.859 6.983-35.271-5.961-54-9-0.988-0.16-3.076-0.383-4 0-3.922 1.625-4.908 6.496-9 7-8.933 1.101-18.012 1.58-27 2-32.105 1.502-63.292-4.408-95.001 0-4.085 0.567-8 1.75-12 2.5s-7.913 1.987-12.022 2.489c-5.934 0.726-13.045 2.97-17.978-0.989-4.55-3.647-7.927-7.677-14-8-17.007-0.906-33.097-1.927-50-4-32.315-3.964-63.646-16.5-96-18-16.014-0.742-32.137 2.945-48 6-4.91 0.945-10.007 1.017-15-1-27.035-10.914-55.374-18.525-84-13-7.148 1.381-14.138 5.783-22 4-6.168-1.398-12.023-3.852-19.002-4.998-5.393-0.888-9.343-1.221-12.365-0.899-4.536 0.479-7.074 2.065-8.781 4.261-4.188 5.392-10.876 9.417-15.852 14.636-4.024 4.221-6.625 8.414-11 12-2.788 2.286-5.999 6.235-8 4-6.039-6.748 10.688-13.557 15-21 5.038-8.695-12.027-13.66-20-13-6.062 0.502-11.558 3.078-17 7-1.147 0.827-2.853 0.174-4 1-5.442 3.922-12.251 6.471-19 10-8.361 4.371-14.885 11.148-23 14-17.01 5.977-40.159-9.551-54 2-3.096 2.584-4.955 5.95-8 8.25-3.248 2.453-6.936 3.053-11 3.75-20.791 3.568-43.029-2.568-63 4-3.426 1.127-7.056 3.396-7 7 0.083 5.404 2.583 7.654 7 8 19.176 1.504 38.26-2.078 57 3 3.052 0.827 9.108 4.969 6 7-1 0.654-6.097 0.338-10 2-46.011 19.6-105.667-3.596-150.417 4.404-17.443 3.118-32.25 5.5-50.25 2.5-6-1-12.114-0.12-17.75 2.75-7.665 3.903-14.189-8.314-19.75-1.75-2.742 3.238-2.743 9.428-5.833 10.096-18.672 4.045-39.426-2.468-58 2-13.542 3.258-25.36-1.515-38-2-8.24-0.315-16.78 3.19-22 9-4.82 5.364-1.822 12.786 3 17 3.293 2.879 7.5 5.625 9.562 9.703 0.688 1.361 1.902 2.85 1.438 4.297-1.079 3.367-4.75 5-6.75 7.625-1 1.314-1.909 2.676-2.822 4.043-4.292 6.426-0.853 14.016 2.572 19.332 4.774 7.414 13.775 11.148 21.646 15.247 0.655 0.343 1.325 0.657 1.979 1.003 8.509 4.506 16.232 7.568 25.375 8.75 8.348 1.079 16.822 0.647 25.235 1.038 0.765 0.036 1.529 0.075 2.293 0.109 6.901 0.303 13.652 0.771 20.297 1.451 0.74 0.074 1.478 0.137 2.213 0.232 21.024 2.732 40.194 22.024 61.962 19.17 1.402-0.184 4.772-0.431 5.583 0.154 2.566 1.848 1.759 4.162 0.417 6.846-2.236 4.473-8.12 4.522-13 6-1.354 0.41-1.718 2.405-3 3-10.925 5.066-23.048-5.27-35-3-5.729 1.088-9.725 7.083-15 6-1.387-0.283-0.924-0.272-4-1-2.753-0.649-5.057 2.85-8.078 4.075-0.63 0.255-1.317 0.489-1.922 0.925-1.147 0.827-2.008 3.166-4 3-8.667-0.721-11.917 3.529-32.4 4.105-5.599 0.157-16.6 0.188-16.6 6.895 0 4.473 2.361 8.239 1 12-2.659 7.344-17.594 5.875-19 14-1.231 7.106 14.05-1.949 19 3 1.414 1.414 0.823 1.098 2 3 3.153 5.105 11.936-0.246 17.865-1.664 0.758-0.182 1.53-0.3 2.294-0.447 14.546-2.814 49.064-7.891 40.841 5.111-4.071 6.438-15.187-3.607-22-2-4.353 1.027-7.674 1.869-12 3-2.906 0.76-5.98 0.348-8.942 0.609-0.74 0.067-1.479 0.143-2.218 0.207-15.826 1.364-31.854 6.852-47.84 9.184-10.931 1.596-23.142-4.193-32.877 3.1-0.467 0.348-0.865 0.77-1.22 1.251-0.352 0.478-1.04 0.989-0.903 1.649 0.283 1.385 2.715 1.409 4 2 0.492 0.228 1.083 0.071 1.625 0.09 0.541 0.018 1.083 0.028 1.624 0.025 11.751-0.076 23.07-3.205 34.751-0.115 10.678 2.825 21-2.044 32.335-1.968 0.722 5e-3 1.443 0.032 2.166 0.072 2.166 0.119 4.937 0.012 6.582 1.508 2.34 2.127-4.791 6.875-10.625 8.292-0.658 0.16-4.208 1.333-3.708 5.458 0.486 4.01 8.583 4 11.97 4.314 0.995 0.094 4.405 0.84 5.28 1.324 8.251 4.573 4.664 13.969 13.833 16.404 14.784 3.926 35.174 5.332 50.213 5.836 2.351 0.079 4.694 0.241 7.038 0.366 7.026 0.375 14.013 0.829 20.916 1.394 12.995 1.064 28.136-0.283 36 9 0.646 0.764 0.532 1.692 1 2 4.496 2.965 13.743 8.256 9 13-3.162 3.162-8.648 1.973-13 3-14.599 3.446-28.778-0.492-44-2-2.986-0.296-34.86-3.949-36-0.513" fill="#3c6397"/><path transform="matrix(1 0 0 -1 -334.05 190.325)" d="m0 0c24-16 33.575-24 52.788-12 19.212 12 35.568 20 77.39 12s39.822 10.439 77.822 3.22c38-7.22 22 1.223 42-20.998 20-22.222-1.462-32.222 33.269-32.222s44.758-36.848 66.304-24.85c21.546 12 12.427 24.183 37.76 20.183 25.334-4 38.429-27.168 55.881-22.584 17.453 4.584 38.119-0.447 51.453-0.599 13.333-0.15 2.666-5.181 24.666 0 22 5.183 93.334 23.183 114.667 18.517 21.333-4.667 18.567-8 42.617-4s9.383 0.666 36.05 5.333c26.666 4.667 25.634-11.333 40.815 1.333 15.185 12.667-65.188 21.415-86.003 19.041-20.812-2.374-50.812-9.707-62.146-8.374-11.333 1.333-16 9.415-39.333 8.374s-25.333-7.707-46.667-5.707c-21.333 2-18.666 0.748-34.666 5.707s30.666 6.293 38.666 6.293 9.334-0.667 25.334 1.333 27 11.697 38.333 5.697 17.187-4.715 24.665-3.697c33.68 4.582 45.668 4 45.668 4s11.334-5.333 14.667-2-6.667 10-16 9.333c-9.333-0.666-30.005-3.333-44.335-4-14.332-0.666-9.665 10.667-29.665 9.334-20-1.334-19.333-6.667-40.667-5.334-21.333 1.334-16-7.333-36.666-0.666-20.667 6.666-52 17.333-66 18-14 0.666-29.334 22-50.667 14s-48.667-10-59.333-5.334c-10.667 4.667 14 1.585-24.667 7.126s-38 6.874-49.333 10.874c-11.334 4-79.334 4-112.667 0s-24.667-11.333-54.667-2.666c-30 8.666-68.666-0.667-87.333 5.666-18.667 6.334-40-13.666-62-11-22 2.667-32 2-44.667-2-12.666-4-30-14-22.666-14 7.333 0 8.666-2 24.666-2.666 16-0.667 23.334 2 36 2 12.667 0 10 5.333 24.667 4 14.667-1.334 15.333 2 25.333-0.667s18.667-6 18.667-6" fill="#00988e"/><path transform="matrix(1 0 0 -1 822.284 206.992)" d="m0 0c-15 0-21.334-5-12.666-5.065 8.666-0.067 15.666-3.268 28.332-4.268 12.668-1 26-0.667 39.334-3.667s25.666-1.333 40.666-2 22 4.667 38.668 9c16.666 4.333 10.332 9 3 9-7.334 0-31 4.333-46 0s-26.652-3.489-33.668-3c-5.947 0.415-42.666 0-57.666 0m150.334-86.667c-34.701-2.959-18.135 5.98-47.334 0-29.201-5.979-58 8-61.334 8-3.332 0-33.332 8.667-58 4.667-24.666-4-31.332-20.31-56.666-14.154-25.334 6.154-22.666 0.93-54 15.209-31.334 14.278-41.834 23.112-64.834 16.112s-64.5 0.395-85 2.447c-20.5 2.053-26-6.052-46.5 0-20.5 6.053-33 12.053-23.5 14.053s36.5 0.5 48 4 18-2 35.5-3 27 7.803 33.5 4.15c6.5-3.65 6-7.65 30-6.65s44 4 55.5 4 26.5 7 17 11.5-50.5-0.5-67.5 6-173 26.5-200 21-2.5-11.5-32.5-2.5-3.5-6.5-42.5 9.5-60 24-103.5 23.5-59.5-11-80-5-27 10-34 18.5 6 20 11 21.5 16.5-1.5 23 4 14 14.5 19.5 13.5 1.5-2.5 15.5-9 29.5-14 43-15.5 13.5-3.5 30.5-3.5 44.294-3 58.647 3.5 71.353 1.5 88.853-0.5 30-1.5 45.5 2 106 2.5 120 5.5 6.5 4.492 28-2.504 3.5-8.496 30-9.996 78-19 89.5-10 18-0.5 34 3 27-15 49-10.5 26.5 1 38.5-2 8.5-13.5-11.5-8.5-43 1-57-2-19.182-3.697-33-6c-6-1 2-12.5 9.5-9.5s38.5-2.5 54-0.5 27-0.5 46.5 1.5 81.334 0.5 98.834 1 12.166-11.667 33.166-9c14.42 1.831 12.295-1.48 14-10.5 1.168-6.167 5.334-8.834 5.5-13.5 0.168-4.667-0.166-9.5 3.334-11s11.5-1.834 13.834-5.5c2.332-3.667-2.168-11.667-9-13.5-6.834-1.834-23-4.667-27.168-5.167-4.166-0.5-16-7-6.666-9.5s19.666-3.5 25.666-3.667c6-0.166 21.834 1.167 28.834 0.167s6.666-7 3-8-5.666-2.667-15.666-4.667-29-8.719-39.668-5.859c-10.666 2.859-18.764 3.249-23.332 2.859" fill="#00988e"/></g><path d="m31.4336 566.385 62.273-68.086 18.709-82.958 5.154-54.006 54.139-46.996 16.649-63.001 51.621-19.784 62.201-67.516 28.614 29.619 50.725 19.091 34.662 53.864 73.898 49.91 15.653 80.77 29.332 45.647 16.814 47.081 76.398 75.911 8.504 10.297v307.166h-612.283v-307.792z" fill="#212d65"/><g fill="#3c6397"><path d="m217.797 429.374-112.27 90.196-80.002 91.361-15 212.725 22.475 76.364 14.342-58.636 28.637-47.827 6.464-28.968 21.887-17.977 5.058-56.591-13.861-45.837 22.042-17.572 1.67-26.133 83.762-86.872z" clip-path="url(#b)"/><path d="m290.475 391.384 30.732 114.555-15.366 89.992-102.84 157.589-38.285 36.045-13.064-22.117 7.965-20.835-18.184-75.682 19.092-21.136 6.285-32.046 34.519-58.662 37.604-21.111 6.258-56.863-6.258-59.273z"/><path d="m193.712 338.658 6.357 64.999-44.922 49.546-21.597-32.26 2.99-23.624-2.151-27.346 22.036-21.785z"/><path d="m418.19 280.228 46.749 50.248 20.764 10.909-1.979-20.32z"/></g><path d="m163.262 413.347 19.704-16.028 0.969-46.101-13.518 33.349z" fill="#212d65"/><g fill="#3c6397"><path d="m278.706 303.657-48.743 37.729-7.32 69.697 45.542-27.809 19.434-39.162z"/><path d="m290.475 190.981-32.131 34.721-17.365 19.773-18.335 65.332-15.359 22.196 22.678-15.937 18.917-34.043 25.508-6.184z"/><path d="m229.167 248.658-32.75 12.256-19.583 72.09 26.167-26.164z"/></g><path d="m122.498 531.158-24.02 29.318-15.227 40.228 23.409-9.255 18.75-25.518z" fill="#212d65"/><path d="m119.615 493.622 21.817-23.147-23.181-41.101-8.864 43.637" fill="#3c6397"/><path d="m209.394 660.704 5.676-42.955 25.227-21.817 17.045-57.956 5.455 61.365-26.701 26.591z" fill="#212d65"/><path d="m173.599 692.067 3.235 54.546 26.167-34.773-14.701-36.136h-14.701" fill="#212d65"/><g fill="#3c6397"><path d="m372.569 345.021 11.591 31.364 16.364 19.546v-28.41z"/><path d="m327.569 232.521 19.091 41.591 8.864 6.117 10.227-13.617z"/><path d="m471.434 527.067 34.091 38.864 7.5 45-24.546-37.5z"/><path d="m548.478 503.394 37.5 33.927 16.364 31.677v14.659l-19.092-1.364-13.181-22.726-26.304-17.454-2.787-21.129z"/><path d="m320.974 642.294 12.584 83.204 52.989 58.156 49.432 18.186-49.432-93.409-65.34-83.865z"/><path d="m209.394 767.067 2.948 34.773 26.591 27.273-2.837-18.409z"/></g><path d="m21.4326 746.613 23.183-14.319v-27.272l9.545-14.98v-29.833l-43.636 43.202s-2.728 11.965 0 21.787c2.726 9.822 10.908 21.415 10.908 21.415" clip-path="url(#c)" fill="#212d65"/><path d="m155.123 822.293 9.501 40.909 1.456 36.818-43.937 16.364-38.892-16.364 12.822-43.134 24.529-16.866 4.063-27.273 13.359-2.727 22.958-11.93z" clip-path="url(#d)" fill="#3c6397"/><path d="m548.709 732.291 38.182 25.454 15.452 44.093 19.093 44.09 43.636 25.482-20.909 37.244-80-8.634-15.454-89.547-35.685-63.861v-67.049z" clip-path="url(#e)" fill="#3c6397"/></g></svg>
