<svg width="420mm" height="167.041mm" version="1.1" viewBox="0 0 420 167.041" xmlns="http://www.w3.org/2000/svg"><defs><clipPath id="b"><path d="m-365.738 852.857h1190.55v-841.89h-1190.55z"/></clipPath><clipPath id="a"><path d="m-16.4932 709.161h1190.55v-841.89h-1190.55z"/></clipPath></defs><g transform="translate(66.4104 -92.9172)"><g><path d="m19.7802 193.447 9.50242 15.8372 25.6917 10.2062 3.16724 10.5583 18.9502 19.2888 5.68572-4.85951 11.9659-27.8031 17.5969-22.0303-22.539-18.4122-7.02381-19.08 7.58613-25.9299-23.3063-4.6923-18.2118-0.27481-11.575-5.78768-21.2051 10.7248-12.9829 12.3574-11.2617 3.28436 9.30663 37.4622z" fill="#6e52ae"/><g fill="#5f3da0"><path d="m303.561 101.833-11.8879-0.15628-7.82074 5.9436-1.52505 17.0815-22.9955 23.4636-2.69593 19.2384-13.7255 19.7086-26.3959 17.2452-5.63069 28.9747-12.0343 16.0055-7.98548 10.6207h162.725v-158.892l-29.2248-8.14952z"/><path d="m-53.2275 138.418-13.183 9.22867v112.311h131.076l12.4262-10.6207-18.9502-19.2888-3.16724-10.5583-25.6917-10.2062-9.50242-15.8373-18.6528-9.15035-9.30663-37.4622-26.4347-11.8576z"/><path d="m198.849 249.338"/></g><path d="m94.7434 216.675-11.9659 27.8031-5.68572 4.85951-12.4262 10.6207h126.198l7.98547-10.6207-38.9971-25.788-3.51649-1.09008-12.7462-3.95147-31.249-23.8633z" fill="#543c97"/><path d="m272.746 109.81-33.9429-6.72571-9.3846 3.36268-6.56978 0.15663-12.6961 10.0538-11.9638 1.28622-9.5437 5.03979-45.3348-4.88315-8.22678 0.78211-9.10872-2.7358-13.625 12.0135-8.42681 0.68403-13.5601 2.37843-7.58613 25.9299 7.0238 19.08 22.539 18.4122 31.249 23.8633 12.7466 3.95147 3.51613 1.09008 38.9971 25.788 12.0343-16.0055 5.63104-28.9747 26.3955-17.2452 13.7255-19.7086 2.69628-19.2384 22.9951-23.4636 1.52505-17.0815z" fill="#6547a7"/><g fill="#fff"><path d="m351.19 125.875-9.15035 27.6864 11.5496 13.8194v-43.9469z"/><path d="m317.997 146.578 6.95219-11.6621v-10.5406l-1.75824-20.755-11.4187-1.00541 12.2788-6.4128 14.8597 19.2391 5.55026 19.2507-6.72853 18.1659z"/><path d="m340.162 110.39 13.4267 2.12725v-5.05672l-13.7396-7.03474-10.3237-2.5026z"/><path d="m287.762 110.123-0.93909 26.3797-2.24261 4.48592 3.70064 3.70029-11.3259 11.3256 4.2612 9.86825 13.0076 6.05508 12.5024-3.19582 3.9811-3.98109v11.3256l3.70064-3.70028-2.69134 11.8865 12.5596 20.1842-2.01859 9.41952 23.5483 2.69099 7.78263 4.28237v-8.40881l-1.05446-0.80716-19.5114-13.2323-2.91571-24.6694 3.36374-18.7586-17.9412-5.68748-9.19515-6.95184 7.84966-19.9602-8.59014-16.7869-11.9659-0.46954z"/><path d="m255.801 143.476 11.8032-11.7514-14.9091-14.0289-13.4221-12.9692-8.21161 6.10058 17.1302 7.64505 2.48462 12.4241-9.00783-4.19312 1.08726-2.79576-12.7346-9.00748 5.2638 21.7674 14.1488 1.06221v9.00748z"/><path d="m229.021 169.37v-8.41834l9.12001-8.18479-6.54791-2.57211v-6.5479l-8.7443-30.9428-7.18044 5.47864-5.82295 17.5133-7.24923 17.0709z"/><path d="m208.443 196.263 4.31729-30.0323-14.0772-9.61955-4.92725-10.3237-20.647 16.8931 3.05012 12.67 13.8102 18.0739z"/><path d="m184.511 227.851-8.63071-13.5886 1.65277-3.85621-6.9783-12.4869 3.76449-3.76414-7.29192-30.5742-10.723-10.7227 5.77674-29.1271-9.8545-0.93839 2.34633 7.27322-12.6697 20.882-9.15035-5.39644-7.92127 3.89008-3.30553 12.6704-12.1193 6.05967s20.199-2.93794 20.75-2.93794h10.0997l-15.6086 6.79415s14.5069 8.26347 15.9759 8.63071c1.46897 0.36724 15.0573 1.83621 15.0573 1.83621l-7.34483 15.7921 19.8318 24.6062 14.8738 9.73208z"/><path d="m42.1504 195.384 23.2548-1.21955 14.3856 11.6833 16.7809 0.36724 8.17915-9.97973-15.8972-2.18581-0.679802-6.85906 0.15628-5.6522-5.16184-5.45324-10.6345-4.54836-3.92571-2.41794-5.25498 2.32445-13.5382-10.3145-6.25651 17.6752-10.1674 6.88234z"/><path d="m57.4556 153.881 0.924983-5.19324-5.12233-7.82496h-6.54473l-1.54869-11.4127-7.82673-4.20088-2.03341 8.134 3.72569 7.4796 3.98392 13.5163 4.83729-3.27236 6.61599 4.48168z"/><path d="m37.5828 173.174 4.83729-13.6588-3.41454-8.39435-7.39846-4.83764-19.3499 14.3704-8.39435 18.0693z"/><path transform="matrix(.352778 0 0 -.352778 62.614 263.827)" d="m0 0-118.738 85.18-18.1 36.481-12.408 40.147-27.233 11.756-8.014 28.934-33.697 10.642-45.669-45.669-17.736-97.546 52.32 27.933 47.207-14.25 5.464-23.987 55.002-24.238s52.72-48.366 55.497-51.353c2.777-2.986 54.65-4.87 54.65-4.87l-19.592 26.402z" clip-path="url(#b)"/><path d="m-24.4467 192.352 6.88234-7.50817 1.68557-12.1536v-6.06671l6.51616-1.12325-2.35938-9.97091-9.2837-9.78994-14.5464-6.53944-11.1058 2.65889 11.6805 8.13752 8.763 2.65395 9.88624 4.64891h-8.08884l-4.04424 4.04424v23.7046l5.61728-3.59516z"/><path transform="matrix(.352778 0 0 -.352778 -60.5919 213.135)" d="m0 0 43.947-6.369-8.917 47.768 24.84 20.063-4.458-33.916 21.33 6.535 17.736 16.849-25.054 17.856 5.095 21.655-14.649 10.828 9.554 27.865-3.821 18.63 10.827 4.458-9.554 15.286-40.68 8.013-34.584-31.48 37.049-3.283-14.649-42.036-31.845-24.84-10.191-21.655-14.649 14.649-14.649-14.649-31.845 9.235-50.317-9.235-26.75-91.08 24.839-31.845z" clip-path="url(#a)"/><path d="m114.217 139.014 5.16184 10.0891-2.25142 10.2344-16.5188 8.06626z"/><path d="m142.607 122.089 5.16184 12.2326-7.50781 10.7929-7.27357-6.10023-5.39645-18.5674 6.56943 2.34632z"/></g></g></g></svg>
