<svg version="1.1" viewBox="0 0 612.284 719.356" xmlns="http://www.w3.org/2000/svg"><defs><clipPath id="e"><path d="m24.496 883.394h612.283v-858.898h-612.283z"/></clipPath><clipPath id="d"><path d="m24.496 883.394h612.283v-858.898h-612.283z"/></clipPath><clipPath id="c"><path d="m24.496 883.394h612.283v-858.898h-612.283z"/></clipPath><clipPath id="b"><path d="m24.496 883.394h612.283v-858.898h-612.283z"/></clipPath></defs><path d="m6.9376 402.347 62.273-68.086 18.709-82.958 5.154-54.006 54.139-46.996 16.649-63.001 51.621-19.784 62.201-67.516 28.614 29.619 50.725 19.091 34.662 53.864 73.898 49.91 15.653 80.77 29.332 45.647 16.814 47.081 76.398 75.911 8.504 10.297v307.166h-612.283v-307.792z" fill="#212d65"/><g transform="translate(-24.496,-164.038)" fill="#3c6397"><path d="m217.797 429.374-112.27 90.196-80.002 91.361-15 212.725 22.475 76.364 14.342-58.636 28.637-47.827 6.464-28.968 21.887-17.977 5.058-56.591-13.861-45.837 22.042-17.572 1.67-26.133 83.762-86.872z" clip-path="url(#b)"/><path d="m290.475 391.384 30.732 114.555-15.366 89.992-102.84 157.589-38.285 36.045-13.064-22.117 7.965-20.835-18.184-75.682 19.092-21.136 6.285-32.046 34.519-58.662 37.604-21.111 6.258-56.863-6.258-59.273z"/><path d="m193.712 338.658 6.357 64.999-44.922 49.546-21.597-32.26 2.99-23.624-2.151-27.346 22.036-21.785z"/><path d="m418.19 280.228 46.749 50.248 20.764 10.909-1.979-20.32z"/></g><path d="m138.766 249.309 19.704-16.028 0.969-46.101-13.518 33.349z" fill="#212d65"/><g transform="translate(-24.496,-164.038)" fill="#3c6397"><path d="m278.706 303.657-48.743 37.729-7.32 69.697 45.542-27.809 19.434-39.162z"/><path d="m290.475 190.981-32.131 34.721-17.365 19.773-18.335 65.332-15.359 22.196 22.678-15.937 18.917-34.043 25.508-6.184z"/><path d="m229.167 248.658-32.75 12.256-19.583 72.09 26.167-26.164z"/></g><path d="m98.002 367.12-24.02 29.318-15.227 40.228 23.409-9.255 18.75-25.518z" fill="#212d65"/><path d="m95.119 329.584 21.817-23.147-23.181-41.101-8.864 43.637" fill="#3c6397"/><path d="m184.898 496.666 5.676-42.955 25.227-21.817 17.045-57.956 5.455 61.365-26.701 26.591z" fill="#212d65"/><path d="m149.103 528.029 3.235 54.546 26.167-34.773-14.701-36.136h-14.701" fill="#212d65"/><g transform="translate(-24.496,-164.038)" fill="#3c6397"><path d="m372.569 345.021 11.591 31.364 16.364 19.546v-28.41z"/><path d="m327.569 232.521 19.091 41.591 8.864 6.117 10.227-13.617z"/><path d="m471.434 527.067 34.091 38.864 7.5 45-24.546-37.5z"/><path d="m548.478 503.394 37.5 33.927 16.364 31.677v14.659l-19.092-1.364-13.181-22.726-26.304-17.454-2.787-21.129z"/><path d="m320.974 642.294 12.584 83.204 52.989 58.156 49.432 18.186-49.432-93.409-65.34-83.865z"/><path d="m209.394 767.067 2.948 34.773 26.591 27.273-2.837-18.409z"/></g><path transform="translate(-24.496,-164.038)" d="m21.4326 746.613 23.183-14.319v-27.272l9.545-14.98v-29.833l-43.636 43.202s-2.728 11.965 0 21.787c2.726 9.822 10.908 21.415 10.908 21.415" clip-path="url(#c)" fill="#212d65"/><path transform="translate(-24.496,-164.038)" d="m155.123 822.293 9.501 40.909 1.456 36.818-43.937 16.364-38.892-16.364 12.822-43.134 24.529-16.866 4.063-27.273 13.359-2.727 22.958-11.93z" clip-path="url(#d)" fill="#3c6397"/><path transform="translate(-24.496,-164.038)" d="m548.709 732.291 38.182 25.454 15.452 44.093 19.093 44.09 43.636 25.482-20.909 37.244-80-8.634-15.454-89.547-35.685-63.861v-67.049z" clip-path="url(#e)" fill="#3c6397"/></svg>
