<svg width="2467mm" height="2467.1mm" version="1.1" viewBox="0 0 24.67 24.671" xmlns="http://www.w3.org/2000/svg">
 <defs>
  <clipPath id="a">
   <path transform="matrix(1,0,0,-1,0,841.89)" d="m241.48 609.28h93.241v93.244h-93.241z"/>
  </clipPath>
 </defs>
 <g transform="translate(-147.37 -133.61)">
  <g transform="matrix(.26458 0 0 .26458 83.481 96.742)" clip-path="url(#a)">
   <path transform="matrix(1 0 0 -1 309.94 182.11)" d="m0 0c0-0.76 0.616-1.377 1.377-1.377 0.759 0 1.375 0.617 1.375 1.377 0 0.761-0.616 1.377-1.375 1.377-0.761 0-1.377-0.616-1.377-1.377" fill="#fff"/>
   <path transform="matrix(1 0 0 -1 311.74 186.45)" d="m0 0c0-0.76 0.616-1.377 1.376-1.377s1.376 0.617 1.376 1.377c0 0.761-0.616 1.377-1.376 1.377s-1.376-0.616-1.376-1.377" fill="#fff"/>
   <path transform="matrix(1 0 0 -1 244.84 185.98)" d="m0 0 43.267-43.268 43.267 43.269-43.267 43.267z" fill="#222c64"/>
   <path transform="matrix(1 0 0 -1 288.1 139.36)" d="m0 0-7.484-7.484-36.468-36.469-2.67-2.669 46.622-46.622 2.669 2.67 41.28 41.283 2.67 2.67-2.67 2.669-36.521 36.523-4.758 4.759zm0-5.341 4.757-4.758 36.523-36.522-41.28-41.283-41.282 41.282 36.468 36.468z" fill="#a51e36"/>
   <path transform="matrix(1 0 0 -1 277.24 167.76)" d="m0 0c0-0.761-0.616-1.377-1.377-1.377-0.76 0-1.375 0.616-1.375 1.377 0 0.76 0.615 1.376 1.375 1.376 0.761 0 1.377-0.616 1.377-1.376" fill="#fff"/>
   <path transform="matrix(1 0 0 -1 272.31 169.53)" d="m0 0c-0.76 0-1.376-0.616-1.376-1.376s0.616-1.376 1.376-1.376c0.761 0 1.377 0.616 1.377 1.376s-0.616 1.376-1.377 1.376" fill="#fff"/>
   <path transform="matrix(1 0 0 -1 269.18 172.97)" d="m0 0c-0.76 0-1.376-0.616-1.376-1.377 0-0.76 0.616-1.375 1.376-1.375 0.761 0 1.376 0.615 1.376 1.375 0 0.761-0.615 1.377-1.376 1.377" fill="#fff"/>
   <path transform="matrix(1 0 0 -1 266.48 176.7)" d="m0 0c-0.761 0-1.377-0.616-1.377-1.377 0-0.759 0.616-1.374 1.377-1.374s1.376 0.615 1.376 1.374c0 0.761-0.615 1.377-1.376 1.377" fill="#fff"/>
   <path transform="matrix(1 0 0 -1 299.68 166.39)" d="m0 0c0.76 0 1.376-0.616 1.376-1.377 0-0.76-0.616-1.375-1.376-1.375-0.761 0-1.377 0.615-1.377 1.375 0 0.761 0.616 1.377 1.377 1.377" fill="#fff"/>
   <path transform="matrix(1 0 0 -1 301.86 170.91)" d="m0 0c0-0.76 0.616-1.377 1.376-1.377s1.376 0.617 1.376 1.377c0 0.761-0.616 1.377-1.376 1.377s-1.376-0.616-1.376-1.377" fill="#fff"/>
   <path transform="matrix(1 0 0 -1 304.99 174.34)" d="m0 0c0-0.761 0.616-1.377 1.376-1.377 0.761 0 1.376 0.616 1.376 1.377 0 0.76-0.615 1.376-1.376 1.376-0.76 0-1.376-0.616-1.376-1.376" fill="#fff"/>
   <path transform="matrix(1 0 0 -1 307.69 178.08)" d="m0 0c0-0.76 0.616-1.376 1.377-1.376 0.759 0 1.375 0.616 1.375 1.376s-0.616 1.376-1.375 1.376c-0.761 0-1.377-0.616-1.377-1.376" fill="#fff"/>
   <path transform="matrix(1 0 0 -1 290.15 161.29)" d="m0 0 2.022 4.081h-8.8l2.022-4.081-3.631 0.449v-6.065l6.009 3.594 6.01-3.594v6.065z" fill="#fff"/>
   <path transform="matrix(1 0 0 -1 287.77 166.64)" d="m0 0v-1e-3c-1e-3 0-1e-3 1e-3 -1e-3 1e-3 -1.515 0-2.742-1.226-2.742-2.742 0-1.515 1.227-2.741 2.742-2.741h1e-3c1.515 0 2.742 1.226 2.742 2.741 0 1.516-1.227 2.742-2.742 2.742" fill="#fff"/>
   <path transform="matrix(1 0 0 -1 287.77 173.73)" d="M 0,0 H -1.329 L 0,-3.033 1.329,0 Z" fill="#fff"/>
   <path transform="matrix(1 0 0 -1 307.08 188.5)" d="M 0,0 C 0.04,-0.162 0.068,-0.322 0.087,-0.483 0.07,-0.322 0.04,-0.162 0,0" fill="#fff"/>
   <path transform="matrix(1 0 0 -1 305.35 194.95)" d="m0 0c-2.26-0.52-3.92-0.274-5.32 0.827l0.308 3.021c0.193 0.721 0.635 1.322 1.256 1.169 0.529-0.135 0.702-0.713 0.519-1.193 0.765-0.183 1.477 0.375 1.703 1.072 0.341 1.039-0.327 2.188-1.448 2.304-1.577 0.159-2.698-1.794-2.848-3.27l-0.211 0.019c0.207 2.025 1.419 2.616 1.558 3.973 0.068 0.654-0.201 1.438-0.875 2.058-0.091 0.082-0.534 0.491-0.784 0.823-0.317-0.274-0.832-0.587-0.938-0.65-0.784-0.471-1.207-1.183-1.274-1.837-0.135-1.356 0.933-2.179 0.726-4.204l-0.212 0.019c0.154 1.482-0.548 3.617-2.126 3.781-1.126 0.115-2.011-0.88-1.885-1.967 0.081-0.726 0.668-1.419 1.452-1.39-0.081 0.505 0.202 1.039 0.751 1.063 0.634 0.024 0.952-0.655 0.996-1.4l-0.313-3.054c-2.213-1.212-4.526-1.058-6.898 0.462v2.082l2.516-1.029v5.483l-2.516-1.029 1.03 2.515h-5.485l1.029-2.515-2.515 1.029v-5.483l2.515 1.029v-2.082c-2.37-1.52-4.684-1.674-6.897-0.462l-0.313 3.054c0.044 0.745 0.361 1.424 0.996 1.4 0.549-0.024 0.832-0.558 0.75-1.063 0.784-0.029 1.371 0.664 1.453 1.39 0.125 1.087-0.76 2.082-1.885 1.967-1.578-0.164-2.28-2.299-2.126-3.781l-0.212-0.019c-0.207 2.025 0.861 2.848 0.726 4.204-0.067 0.654-0.49 1.366-1.274 1.837-0.106 0.063-0.621 0.376-0.938 0.65-0.25-0.332-0.693-0.741-0.784-0.823-0.674-0.62-0.943-1.404-0.875-2.058 0.139-1.357 1.351-1.948 1.558-3.973l-0.212-0.019c-0.149 1.476-1.269 3.429-2.847 3.27-1.121-0.116-1.789-1.265-1.448-2.304 0.226-0.697 0.938-1.255 1.703-1.072-0.183 0.48-0.01 1.058 0.519 1.193 0.621 0.153 1.063-0.448 1.256-1.169l0.307-3.021c-1.399-1.101-3.059-1.347-5.319-0.827l-0.481-2.112c0.914-0.206 1.765-0.312 2.564-0.312 1.293 0 2.448 0.274 3.487 0.832 0.601 0.322 1.168 0.741 1.702 1.25 0.635-0.413 1.289-0.741 1.949-0.976 2.712-0.976 5.588-0.476 8.354 1.491v2e-3l1e-3 -2e-3c2.765-1.967 5.642-2.467 8.354-1.491 0.66 0.235 1.314 0.563 1.949 0.976 0.533-0.509 1.101-0.928 1.702-1.25 1.039-0.558 2.193-0.832 3.487-0.832 0.799 0 1.65 0.106 2.564 0.312z" fill="#fff"/>
   <path transform="matrix(1 0 0 -1 268.54 190.79)" d="m0 0-0.825-0.531-2.133-1.368c-0.456 1.202-0.785 2.634-0.584 4.189h3.465c-0.023-0.089-0.04-0.177-0.055-0.267-0.015-0.071-0.025-0.144-0.033-0.216-9e-3 -0.08-0.017-0.16-0.022-0.239-5e-3 -0.133-7e-3 -0.265-3e-3 -0.395v-0.014c0-0.05 3e-3 -0.102 0.011-0.152 7e-3 -0.115 0.019-0.229 0.037-0.344 5e-3 -0.048 0.013-0.095 0.025-0.14 0.02-0.119 0.045-0.236 0.074-0.356 0.01-0.04 0.021-0.08 0.031-0.119 5e-3 -0.015 7e-3 -0.033 0.012-0.048" fill="#fff"/>
   <path transform="matrix(1 0 0 -1 309.96 192.69)" d="m0 0-2.133 1.368-0.825 0.531c0.025 0.087 0.045 0.172 0.065 0.259 0.02 0.082 0.035 0.162 0.05 0.242 0.012 0.055 0.022 0.11 0.028 0.164 0.014 0.112 0.027 0.222 0.037 0.332 7e-3 0.057 9e-3 0.112 9e-3 0.167 8e-3 0.134 5e-3 0.268-2e-3 0.401-5e-3 0.08-0.012 0.162-0.022 0.242-0.018 0.161-0.047 0.321-0.087 0.483h3.461c0.202-1.555-0.124-2.988-0.581-4.189" fill="#fff"/>
   <path transform="matrix(1 0 0 -1 307.19 189.63)" d="M 0,0 C 0.005,0.134 0.003,0.267 -0.002,0.402 0.005,0.269 0.007,0.134 0,0" fill="#fff"/>
   <path transform="matrix(1 0 0 -1 270.56 184.05)" d="m0 0c-0.601-1.069-1.156-2.18-1.668-3.329h-1e-3c0.51 1.149 1.066 2.26 1.669 3.329" fill="#fff"/>
   <path transform="matrix(1 0 0 -1 294.54 177.27)" d="m0 0c-0.147 0-0.294 0-0.444-5e-3 0.932 1.119 1.875 2.168 2.821 3.14 1.517-1.301 2.921-2.726 4.204-4.268-1.819 0.737-4.08 1.133-6.581 1.133m-13.534 0c-2.499 0-4.76-0.396-6.579-1.133 1.281 1.542 2.684 2.967 4.202 4.268 0.949-0.972 1.891-2.021 2.823-3.14-0.149 5e-3 -0.299 5e-3 -0.446 5e-3m29.056-9.389-0.032 0.081c-2.56 5.969-6.225 11.025-10.89 15.029l-2.43 2.084-2.23-2.293c-2.285-2.342-4.535-5.089-6.706-8.183-1.086 1.547-2.19 3.008-3.309 4.373-1.121 1.368-2.253 2.639-3.397 3.81l-2.233 2.293-2.426-2.084c-4.668-4.004-8.331-9.06-10.89-15.029l-0.035-0.081c-0.095-0.24-0.178-0.477-0.245-0.713h3.654c0.511 1.149 1.066 2.259 1.669 3.329 0.068 0.127 0.14 0.252 0.215 0.376 0.194 0.344 0.396 0.683 0.603 1.017 0.084 0.137 0.169 0.271 0.254 0.403 0.341 0.539 0.692 1.067 1.062 1.583 0.101 0.147 0.206 0.294 0.316 0.44 1.791 1.254 4.655 2.012 7.994 2.012 0.407 0 0.823-0.013 1.241-0.035h5e-3c0.157-0.197 0.317-0.399 0.473-0.6 1.104-1.413 2.196-2.923 3.267-4.529l0.574-0.854h2.417l0.57 0.854c0.972 1.454 1.959 2.829 2.956 4.125 0.105 0.135 0.21 0.269 0.314 0.404 0.122 0.154 0.244 0.309 0.363 0.46 0.036 0.048 0.073 0.093 0.11 0.14h3e-3c0.421 0.022 0.835 0.035 1.241 0.035 3.339 0 6.204-0.758 7.997-2.012 0.109-0.146 0.214-0.293 0.315-0.44 0.367-0.516 0.721-1.044 1.062-1.583 0.085-0.132 0.17-0.266 0.255-0.403 0.204-0.334 0.406-0.673 0.603-1.017 0.075-0.124 0.147-0.249 0.214-0.376 0.603-1.07 1.159-2.18 1.67-3.329h3.653c-0.067 0.236-0.15 0.473-0.247 0.713" fill="#fff"/>
   <path transform="matrix(1 0 0 -1 282.72 178.85)" d="m0 0c-0.16 0.202-0.319 0.404-0.478 0.601h5e-3c0.157-0.197 0.316-0.399 0.473-0.601" fill="#fff"/>
   <path transform="matrix(1 0 0 -1 293.3 178.25)" d="m0 0c-0.037-0.046-0.075-0.093-0.112-0.14 0.035 0.047 0.072 0.092 0.11 0.14z" fill="#fff"/>
   <path transform="matrix(1 0 0 -1 306.65 187.38)" d="m0 0h-3e-3c-0.51 1.148-1.066 2.26-1.666 3.329 0.602-1.069 1.158-2.181 1.669-3.329" fill="#fff"/>
   <path transform="matrix(1 0 0 -1 279.23 203.35)" d="m0 0c0-0.505-0.774-0.914-1.727-0.914-0.952 0-1.726 0.409-1.726 0.914s0.774 0.914 1.726 0.914c0.953 0 1.727-0.409 1.727-0.914" fill="#fff"/>
   <path transform="matrix(1 0 0 -1 287.77 202.44)" d="m0 0c-0.955 0-1.727-0.409-1.727-0.915 0-0.502 0.772-0.911 1.727-0.911 0.476 0 0.907 0.099 1.221 0.269 0.312 0.161 0.504 0.389 0.504 0.642 0 0.506-0.773 0.915-1.725 0.915-0.955 0-1.727-0.409-1.727-0.915 0-0.502 0.772-0.911 1.727-0.911 0.476 0 0.907 0.099 1.221 0.269 0.312 0.161 0.504 0.389 0.504 0.642 0 0.506-0.773 0.915-1.725 0.915-0.955 0-1.727-0.409-1.727-0.915 0-0.502 0.772-0.911 1.727-0.911 0.476 0 0.907 0.099 1.221 0.269 0.312 0.161 0.504 0.389 0.504 0.642 0 0.506-0.773 0.915-1.725 0.915m10.262 0c-0.952 0-1.727-0.409-1.727-0.915 0-0.502 0.775-0.911 1.727-0.911 0.959 0 1.727 0.409 1.727 0.911 0 0.506-0.768 0.915-1.727 0.915-0.952 0-1.727-0.409-1.727-0.915 0-0.502 0.775-0.911 1.727-0.911 0.959 0 1.727 0.409 1.727 0.911 0 0.506-0.768 0.915-1.727 0.915m-10.262 0c-0.955 0-1.727-0.409-1.727-0.915 0-0.502 0.772-0.911 1.727-0.911 0.476 0 0.907 0.099 1.221 0.269 0.312 0.161 0.504 0.389 0.504 0.642 0 0.506-0.773 0.915-1.725 0.915m-18.831 10.563-5e-3 -2e-3c0.027-0.062 0.054-0.122 0.087-0.184-0.028 0.062-0.055 0.125-0.082 0.186m18.831-10.563c-0.955 0-1.727-0.409-1.727-0.915 0-0.502 0.772-0.911 1.727-0.911 0.476 0 0.907 0.099 1.221 0.269 0.312 0.161 0.504 0.389 0.504 0.642 0 0.506-0.773 0.915-1.725 0.915m10.262 0c-0.952 0-1.727-0.409-1.727-0.915 0-0.502 0.775-0.911 1.727-0.911 0.959 0 1.727 0.409 1.727 0.911 0 0.506-0.768 0.915-1.727 0.915m3.797 3.561c0.175 0.209 0.369 0.449 0.576 0.708-0.209-0.259-0.403-0.499-0.576-0.708m1.409 1.76c0.448 0.575 0.912 1.186 1.335 1.781-0.426-0.595-0.889-1.206-1.335-1.781m2.581 3.693c-0.147-0.265-0.326-0.559-0.528-0.87 0.204 0.311 0.384 0.605 0.531 0.87 0.075 0.134 0.147 0.266 0.214 0.396-0.069-0.13-0.142-0.262-0.217-0.396m0.781 1.549c-0.111-0.249-0.23-0.503-0.36-0.762 0.133 0.257 0.255 0.509 0.364 0.76zm-18.83-10.563c-0.955 0-1.727-0.409-1.727-0.915 0-0.502 0.772-0.911 1.727-0.911 0.476 0 0.907 0.099 1.221 0.269 0.312 0.161 0.504 0.389 0.504 0.642 0 0.506-0.773 0.915-1.725 0.915m10.262 0c-0.952 0-1.727-0.409-1.727-0.915 0-0.502 0.775-0.911 1.727-0.911 0.959 0 1.727 0.409 1.727 0.911 0 0.506-0.768 0.915-1.727 0.915-0.952 0-1.727-0.409-1.727-0.915 0-0.502 0.775-0.911 1.727-0.911 0.959 0 1.727 0.409 1.727 0.911 0 0.506-0.768 0.915-1.727 0.915m-10.262 0c-0.955 0-1.727-0.409-1.727-0.915 0-0.502 0.772-0.911 1.727-0.911 0.476 0 0.907 0.099 1.221 0.269 0.312 0.161 0.504 0.389 0.504 0.642 0 0.506-0.773 0.915-1.725 0.915-0.955 0-1.727-0.409-1.727-0.915 0-0.502 0.772-0.911 1.727-0.911 0.476 0 0.907 0.099 1.221 0.269 0.312 0.161 0.504 0.389 0.504 0.642 0 0.506-0.773 0.915-1.725 0.915m10.262 0c-0.952 0-1.727-0.409-1.727-0.915 0-0.502 0.775-0.911 1.727-0.911 0.959 0 1.727 0.409 1.727 0.911 0 0.506-0.768 0.915-1.727 0.915-0.952 0-1.727-0.409-1.727-0.915 0-0.502 0.775-0.911 1.727-0.911 0.959 0 1.727 0.409 1.727 0.911 0 0.506-0.768 0.915-1.727 0.915m-10.262 0c-0.955 0-1.727-0.409-1.727-0.915 0-0.502 0.772-0.911 1.727-0.911 0.476 0 0.907 0.099 1.221 0.269 0.312 0.161 0.504 0.389 0.504 0.642 0 0.506-0.773 0.915-1.725 0.915" fill="#fff"/>
   <path transform="matrix(1 0 0 -1 298.03 205.63)" d="m0 0c-1.789 0-3.087 0.957-3.087 2.275 0 1.319 1.298 2.276 3.087 2.276 1.794 0 3.092-0.957 3.092-2.276 0-1.318-1.298-2.275-3.092-2.275m-8.047 0.645c-0.548-0.403-1.32-0.645-2.215-0.645-1.789 0-3.095 0.957-3.095 2.275 0 1.319 1.306 2.276 3.095 2.276s3.093-0.957 3.093-2.276c0-0.658-0.33-1.225-0.878-1.63m-12.479-0.645c-1.789 0-3.093 0.957-3.093 2.275 0 1.319 1.304 2.276 3.093 2.276s3.092-0.957 3.092-2.276c0-1.318-1.303-2.275-3.092-2.275m25.852 3.262 0.288 0.342c0.384 0.45 3.786 4.477 5.156 6.95 0.207 0.376 0.456 0.827 0.703 1.338l-2.098 1.343-0.803 0.516c-0.109-0.252-0.231-0.504-0.363-0.761v-1e-3c-0.065-0.13-0.133-0.26-0.205-0.389-0.067-0.131-0.139-0.262-0.214-0.397-0.147-0.264-0.327-0.558-0.531-0.87-0.067-0.102-0.137-0.206-0.209-0.314-0.098-0.142-0.197-0.286-0.299-0.433-0.07-0.098-0.139-0.197-0.21-0.294-0.424-0.596-0.887-1.206-1.335-1.782-0.224-0.286-0.444-0.563-0.651-0.822-0.059-0.077-0.122-0.155-0.181-0.229-0.207-0.26-0.402-0.499-0.576-0.708-0.072-0.093-0.145-0.177-0.21-0.257-0.022-0.027-0.044-0.052-0.064-0.077-0.063-0.075-0.12-0.144-0.173-0.206-0.034-0.043-0.067-0.083-0.096-0.118-0.03-0.038-0.058-0.07-0.083-0.1l-0.154-0.182h-26.562s-3.523 4.147-4.769 6.392c-0.08 0.142-0.158 0.284-0.232 0.424-0.065 0.122-0.127 0.242-0.189 0.362v1e-3c-0.033 0.066-0.065 0.13-0.095 0.195-0.065 0.127-0.125 0.254-0.182 0.382-0.032 0.062-0.06 0.121-0.087 0.184l-0.803-0.516-2.098-1.343c0.247-0.511 0.496-0.962 0.703-1.338 1.37-2.473 4.772-6.5 5.156-6.95l0.288-0.342 0.155-0.182c0.11-0.112 0.177-0.269 0.177-0.438 0-0.342-0.274-0.616-0.615-0.616-0.967 0-1.745-0.784-1.745-1.747 0-0.961 0.778-1.739 1.745-1.739h31.745c0.967 0 1.746 0.778 1.746 1.739 0 0.963-0.779 1.747-1.746 1.747-0.342 0-0.616 0.274-0.616 0.616 0 0.169 0.067 0.326 0.177 0.438z" fill="#fff"/>
   <path transform="matrix(1 0 0 -1 288.1 139.36)" d="m0 0-7.484-7.484-36.468-36.469-2.67-2.669 46.622-46.622 2.669 2.67 41.28 41.283 2.67 2.67-2.67 2.669-36.521 36.523-4.758 4.759zm0-5.341 4.757-4.758 36.523-36.522-41.28-41.283-41.282 41.282 36.468 36.468z" fill="#a51e36"/>
  </g>
 </g>
</svg>
