<svg width="24.7211mm" height="24.7221mm" version="1.1" viewBox="0 0 24.7211 24.7221" xmlns="http://www.w3.org/2000/svg"><defs><clipPath id="a"><path transform="matrix(1,0,0,-1,0,907.89)" d="m220.745 618.015h200.472v141.789h-200.472z"/></clipPath></defs><g transform="translate(-97.8958 -71.1729)"><g transform="matrix(.264583 0 0 .264583 25.3213 25.6128)" clip-path="url(#a)"><path transform="matrix(1 0 0 -1 365.056 218.914)" d="m0 0-44.041-44.042-44.041 44.041 44.041 44.042z" fill="#222c64" fill-rule="evenodd"/><path transform="matrix(1 0 0 -1 321.016 172.196)" d="m0 0-7.5-7.5-36.542-36.544-2.676-2.675 2.676-2.676 41.366-41.367 2.676-2.676 2.676 2.676 41.365 41.368 2.675 2.676-2.675 2.675-36.598 36.599-4.767 4.768zm0-5.352 4.768-4.768 36.597-36.598-41.365-41.368-41.367 41.367 36.543 36.544z" fill="#bc6228"/><path transform="matrix(1 0 0 -1 321.003 252.182)" d="m0 0-0.306-2e-3c-1.137 0-3.984 0.398-6.105 4.093l-0.021 0.038c-0.126 0.231-0.228 0.436-0.313 0.624-0.132 0.134-0.258 0.276-0.375 0.424-0.057 0.069-0.109 0.14-0.156 0.212-0.421 0.616-0.742 1.221-0.969 1.83-0.049 0.019-0.096 0.037-0.139 0.055-3.649 1.536-5.823 4.512-5.823 7.965 0 0.29 0.029 0.574 0.09 0.891 0.068 0.43 0.161 0.885 0.251 1.324 0.217 1.07 0.464 2.283 0.334 3.019-0.609 3.455-0.341 4.777 0.146 6.648 0.015 0.054 0.029 0.109 0.043 0.166-0.04 0.325-0.098 0.41-0.263 0.649-0.023 0.032-0.044 0.064-0.068 0.098-0.365 0.409-1.006 0.778-1.955 1.326-0.171 0.098-0.35 0.202-0.537 0.311-6.081 3.535-6.557 8.738-6.813 11.533l-0.076 0.788c-0.283 2.683 0.96 8.588 2.733 9.893 0.643 0.473 1.405 0.713 2.267 0.713 0.742 0 1.559-0.169 2.653-0.546 5.899-2.036 11.41-8.046 15.414-16.703 4.005 8.657 9.514 14.667 15.414 16.703 1.094 0.377 1.912 0.546 2.652 0.546 0.862 0 1.625-0.24 2.267-0.712 1.773-1.305 3.016-7.21 2.733-9.898l-0.038-0.383-0.037-0.401c-0.256-2.795-0.732-7.998-6.815-11.534-0.186-0.108-0.365-0.212-0.536-0.31-0.949-0.548-1.589-0.917-1.955-1.326-0.022-0.034-0.045-0.066-0.067-0.098-0.165-0.239-0.224-0.325-0.264-0.649 0.015-0.057 0.03-0.112 0.043-0.166 0.487-1.871 0.756-3.193 0.147-6.648-0.129-0.737 0.117-1.95 0.335-3.02 0.089-0.439 0.181-0.894 0.251-1.323 0.06-0.317 0.088-0.601 0.088-0.891 0-3.453-2.173-6.429-5.814-7.962-0.045-0.018-0.095-0.038-0.147-0.058-0.228-0.609-0.548-1.214-0.968-1.83-0.048-0.072-0.101-0.143-0.157-0.212-0.118-0.148-0.243-0.29-0.374-0.424-0.086-0.188-0.189-0.393-0.314-0.624l-0.02-0.038c-2.123-3.695-4.969-4.093-6.095-4.093z" fill="#fff"/><path transform="matrix(1 0 0 -1 331.784 238.842)" d="m0 0c-7e-3 -0.019-0.012-0.033-0.016-0.047v-2e-3c-3e-3 -2e-3 -5e-3 -5e-3 -5e-3 -0.01-0.028-0.06-0.055-0.124-0.086-0.184-0.434-0.892-1.107-1.565-1.777-2.055-0.087-0.063-0.171-0.124-0.257-0.18 0.143 0.199 0.266 0.395 0.378 0.591 0.309 0.554 0.504 1.102 0.593 1.628 5e-3 0.018 8e-3 0.037 0.01 0.053 0.01 0.047 0.014 0.092 0.018 0.138 5e-3 0.033 0.01 0.07 0.015 0.105 2e-3 0.035 4e-3 0.068 7e-3 0.103 9e-3 0.173 9e-3 0.343 0 0.509-0.04 0.458-0.171 0.878-0.391 1.242 0 3e-3 -2e-3 3e-3 -2e-3 5e-3 -0.8 1.665-2.947 1.814-2.947 1.814l0.841-0.943c0.012-9e-3 0.021-0.025 0.033-0.037l7e-3 -7e-3c0.68-0.766 1.053-1.541 1.259-2.186-0.116 0.058-0.225 0.121-0.339 0.187-0.505 0.292-1.007 0.628-1.439 0.947 0.098-0.212 0.182-0.45 0.26-0.7 0.041-0.126 0.076-0.259 0.111-0.392 0.073-0.247 0.124-0.481 0.16-0.701 4e-3 -6e-3 4e-3 -0.013 4e-3 -0.019 0.051-0.298 0.073-0.569 0.073-0.817v-2e-3c0-0.623-0.141-1.095-0.318-1.441-0.11 0.944-0.43 2.165-0.43 2.165-0.18 0.619-0.413 1.17-0.677 1.682-0.065 0.126-0.131 0.247-0.198 0.371-3e-3 0-3e-3 4e-3 -5e-3 4e-3 -0.141 0.253-0.29 0.495-0.437 0.734h0.78c-0.077 0.093-0.409 0.465-0.822 0.924-3e-3 0-3e-3 3e-3 -5e-3 5e-3v2e-3h-2e-3c-1.656 2.525-2.448 5.521 0.579 7.032-0.521-0.416-0.787-0.92-0.915-1.833-7e-3 -0.047-0.054-0.143 0-0.194 1.772-1.67 4.18-0.334 3.998 1.518 0 0 1.237 0.402 1.336 1.534-1.346-0.568-2.385 0.95-4.582 0.22-2.784-0.928-3.851-3.237-3.463-5.241 0.255-1.268 0.842-2.886 1.957-5.145 0.537-1.087 0.616-1.629 0.849-2.5 0.052-0.194 0.103-0.397 0.148-0.622l7e-3 -0.025c0.198-0.815 0.503-3.197-0.444-4.407-0.334-0.427-1.289-0.854-2.606-0.763-1.315 0.091-1.563 0.843-1.588 1.121 0.044 0.182 2.573 2.442 2.798 1.947 0.317-0.698-2.182-1.728-2.242-1.77 3.143-0.254 3.397 1.427 3.556 2.177 0.103 0.478-0.483 2.251-0.686 1.938-0.796-1.205-2.735-1.565-3.676-1.619-0.084-4e-3 -0.192-7e-3 -0.192-7e-3s-0.107 3e-3 -0.191 7e-3c-0.94 0.054-2.879 0.414-3.676 1.619-0.203 0.313-0.789-1.46-0.686-1.938 0.159-0.75 0.413-2.431 3.556-2.177-0.06 0.042-2.559 1.072-2.242 1.77 0.225 0.495 2.754-1.765 2.798-1.947-0.025-0.278-0.273-1.03-1.588-1.121-1.317-0.091-2.272 0.336-2.606 0.763-0.949 1.21-0.642 3.592-0.444 4.407l7e-3 0.025c0.045 0.225 0.096 0.428 0.148 0.622 0.233 0.871 0.312 1.413 0.849 2.5 1.115 2.259 1.703 3.877 1.957 5.145 0.388 2.004-0.679 4.313-3.463 5.241-2.197 0.73-3.236-0.788-4.582-0.22 0.099-1.132 1.336-1.534 1.336-1.534-0.181-1.852 2.226-3.188 3.998-1.518 0.054 0.051 7e-3 0.147 0 0.194-0.129 0.913-0.394 1.417-0.915 1.833 3.026-1.511 2.235-4.507 0.579-7.032h-3e-3v-2e-3c-1e-3 -2e-3 -1e-3 -5e-3 -4e-3 -5e-3 -0.413-0.459-0.745-0.831-0.822-0.924h0.78c-0.147-0.239-0.297-0.481-0.437-0.734-2e-3 0-2e-3 -4e-3 -5e-3 -4e-3 -0.067-0.124-0.133-0.245-0.198-0.371-0.264-0.512-0.497-1.063-0.678-1.682 0 0-0.319-1.221-0.428-2.165-0.178 0.346-0.318 0.818-0.318 1.441v2e-3c0 0.248 0.021 0.519 0.072 0.817 0 6e-3 0 0.013 4e-3 0.019 0.035 0.22 0.087 0.454 0.16 0.701 0.035 0.133 0.07 0.266 0.112 0.392 0.077 0.25 0.161 0.488 0.259 0.7-0.432-0.319-0.934-0.655-1.439-0.947-0.114-0.066-0.224-0.129-0.339-0.187 0.206 0.645 0.579 1.42 1.259 2.186l7e-3 7e-3c0.012 0.012 0.021 0.028 0.033 0.037l0.841 0.943s-2.147-0.149-2.947-1.814c0-2e-3 -2e-3 -2e-3 -2e-3 -5e-3 -0.22-0.364-0.351-0.784-0.391-1.242-9e-3 -0.166-9e-3 -0.336 0-0.509 3e-3 -0.035 5e-3 -0.068 7e-3 -0.103 5e-3 -0.035 0.01-0.072 0.015-0.105 4e-3 -0.046 8e-3 -0.091 0.018-0.138 2e-3 -0.016 5e-3 -0.035 0.01-0.053 0.088-0.526 0.284-1.074 0.593-1.628 0.112-0.196 0.235-0.392 0.378-0.591-0.086 0.056-0.17 0.117-0.257 0.18-0.67 0.49-1.343 1.163-1.778 2.055-0.03 0.06-0.057 0.124-0.086 0.184 0 5e-3 -2e-3 8e-3 -4e-3 0.01v2e-3c-4e-3 0.014-9e-3 0.028-0.017 0.047-0.1 0.282-0.168 0.561-0.2 0.843-0.035 1.756 2.279 2.919 2.279 2.919s-0.098 7e-3 -0.26 7e-3c-0.42 0-1.269-0.054-1.917-0.441 0.566 1.02 0.697 2.22 0.708 3.36l-9e-3 0.733c-0.029 0.523-0.101 1.299-0.292 2.27-0.409 2.076 0.415 3.66 0.919 4.42 0.174 0.275 0.398 0.533 0.656 0.776 4e-3 4e-3 6e-3 9e-3 0.011 0.014 2e-3 3e-3 7e-3 4e-3 0.01 8e-3 1.166 1.085 3.031 1.837 4.417 2.027-0.686 0.618-1.737 0.727-2.67 0.567 0.881 0.8 1.945 0.807 3.252 1.328-1.86 0.315-3.547 0.131-4.806-0.912-0.917 1.124-1.27 2.482-1.402 2.918-1.003 3.344 0.588 6.682 0.362 8.644-0.067 0.582-0.208 1.049-0.398 1.446 2.381-2.191 5.849-7.322 8.08-13.508l0.157-0.389c-1.072 0.091-1.174 0.247-1.174 0.247s0.551-1.442 2.543-1.442h1.009c1.992 0 2.544 1.442 2.544 1.442s-0.103-0.156-1.175-0.247l0.157 0.389c2.231 6.186 5.699 11.317 8.08 13.508-0.19-0.397-0.331-0.864-0.398-1.446-0.226-1.962 1.365-5.3 0.362-8.644-0.131-0.436-0.485-1.794-1.402-2.918-1.258 1.043-2.946 1.227-4.806 0.912 1.307-0.521 2.372-0.528 3.252-1.328-0.933 0.16-1.984 0.051-2.67-0.567 1.385-0.19 3.251-0.942 4.417-2.027 4e-3 -4e-3 8e-3 -5e-3 9e-3 -8e-3 6e-3 -5e-3 9e-3 -0.01 0.012-0.014 0.258-0.243 0.482-0.501 0.656-0.776 0.504-0.76 1.329-2.344 0.919-4.42-0.191-0.971-0.264-1.747-0.292-2.27l-9e-3 -0.733c0.011-1.14 0.142-2.34 0.708-3.36-0.647 0.387-1.497 0.441-1.917 0.441-0.161 0-0.26-7e-3 -0.26-7e-3s2.314-1.163 2.279-2.919c-0.033-0.282-0.099-0.561-0.201-0.843m-10.513-9.348h-0.513c-1.773 9e-3 -2.364 0.11-2.983 0.827 0.831-0.145 2.256-0.28 2.994 0.329 0.094 0.077 0.175 0.164 0.245 0.266 0.071-0.102 0.153-0.189 0.246-0.266 0.738-0.609 2.162-0.474 2.994-0.329-0.619-0.717-1.21-0.818-2.983-0.827m19.096 46.56c-0.805 0.592-1.873 0.461-3.398-0.066-7.012-2.419-12.484-10.521-15.789-18.97l-0.166-0.59-0.166 0.59c-3.304 8.449-8.775 16.551-15.788 18.97-1.525 0.527-2.592 0.658-3.398 0.066-1.002-0.737-2.35-5.719-2.068-8.391 0.011-0.114 0.023-0.243 0.039-0.388 0.26-2.691 0.412-7.403 6.037-10.673 1.427-0.832 2.35-1.304 2.978-2.063 0.337-0.505 0.596-0.755 0.688-1.88-0.482-1.896-0.865-2.825-0.236-6.398 0.248-1.411-0.337-3.365-0.582-4.895v-4e-3c-0.042-0.208-0.067-0.402-0.067-0.622 0-3.983 3.358-5.828 4.801-6.436 0.204-0.084 0.598-0.221 0.848-0.303 0.14-0.638 0.43-1.354 1.002-2.19 0.021-0.033 0.044-0.064 0.067-0.092 0.136-0.172 0.288-0.334 0.449-0.476 0.01-9e-3 0.02-0.019 0.03-0.026 0.079-0.214 0.203-0.476 0.378-0.8 1.692-2.946 3.82-3.263 4.659-3.263l0.329 2e-3 0.33-2e-3c0.838 0 2.968 0.317 4.659 3.263 0.175 0.324 0.299 0.586 0.378 0.8 9e-3 7e-3 0.021 0.017 0.03 0.026 0.161 0.142 0.312 0.304 0.448 0.476 0.025 0.028 0.047 0.059 0.069 0.092 0.571 0.836 0.861 1.552 1.002 2.19 0.25 0.082 0.644 0.219 0.847 0.303 1.443 0.608 4.801 2.453 4.801 6.436 0 0.22-0.025 0.414-0.067 0.622v4e-3c-0.246 1.53-0.831 3.484-0.582 4.895 0.628 3.573 0.246 4.502-0.236 6.398 0.092 1.125 0.351 1.375 0.688 1.88 0.628 0.759 1.55 1.231 2.978 2.063 5.625 3.27 5.777 7.982 6.037 10.673 0.016 0.145 0.028 0.274 0.039 0.388 0.282 2.672-1.066 7.654-2.068 8.391" fill="#222c64"/><path transform="matrix(1 0 0 -1 332.418 211.875)" d="m0 0c-1.229 7.131 7.009 8.924 7.009 8.924-1.671-1.06-5.944-3.837-5.003-8.966 1.167 0.929 1.915 2.388 2.432 3.169 0.489-1.954-1.066-4.898-2.521-5.822 2.114-0.314 3.503 3.34 3.503 3.34 0.315-3.425-2.374-5.419-4.034-6.314 0.718-0.456 1.623-0.087 1.623-0.087-2.229-3.132-4.354-3.449-4.354-3.449 0.647 0.812 0.98 1.77 1.482 2.964 0.826 2.679 0.335 3.504-0.137 6.241" fill="#fff"/><path transform="matrix(1 0 0 -1 330.024 230.867)" d="m0 0c-1.67-1.474-3.44-0.754-4.276-0.152 3e-3 -5e-3 0.332-1.763 2.922-2.585 1.729-0.549 2.241-0.969 2.271-0.992-0.032 0.056-1.228 2.092-0.917 3.729" fill="#222c64"/><path transform="matrix(1 0 0 -1 326.536 229.17)" d="m0 0c0-0.354 0.244-0.642 0.545-0.642s0.545 0.288 0.545 0.642c0 0.355-0.244 0.642-0.545 0.642s-0.545-0.287-0.545-0.642" fill="#fff"/><path transform="matrix(1 0 0 -1 309.611 211.875)" d="m0 0c1.229 7.131-7.009 8.924-7.009 8.924 1.671-1.06 5.944-3.837 5.003-8.966-1.167 0.929-1.915 2.388-2.431 3.169-0.489-1.954 1.065-4.898 2.521-5.822-2.115-0.314-3.504 3.34-3.504 3.34-0.315-3.425 2.375-5.419 4.034-6.314-0.718-0.456-1.623-0.087-1.623-0.087 2.23-3.132 4.354-3.449 4.354-3.449-0.647 0.812-0.979 1.77-1.482 2.964-0.826 2.679-0.335 3.504 0.137 6.241" fill="#fff"/><path transform="matrix(1 0 0 -1 311.088 234.596)" d="M 0,0 C 0.03,0.023 0.542,0.443 2.272,0.992 4.861,1.814 5.191,3.573 5.193,3.578 4.357,2.975 2.587,2.256 0.918,3.729 1.229,2.092 0.032,0.056 0,0" fill="#222c64"/><path transform="matrix(1 0 0 -1 315.493 229.17)" d="m0 0c0-0.354-0.243-0.642-0.545-0.642-0.301 0-0.544 0.288-0.544 0.642 0 0.355 0.243 0.642 0.544 0.642 0.302 0 0.545-0.287 0.545-0.642" fill="#fff"/></g></g></svg>
