<svg width="24.6021mm" height="24.6025mm" version="1.1" viewBox="0 0 24.6021 24.6025" xmlns="http://www.w3.org/2000/svg"><defs><clipPath id="a"><path transform="matrix(1,0,0,-1,0,907.89)" d="m274.481 684.421h92.985v92.9861h-92.985z"/></clipPath></defs><g transform="translate(-83.6956 -35.2992)"><g transform="matrix(.264583 0 0 .264583 11.0724 .775468)" clip-path="url(#a)"><path transform="matrix(1 0 0 -1 277.827 176.977)" d="m0 0 43.147 43.148 43.146-43.147-43.146-43.147z" fill="#222c64"/><path transform="matrix(1 0 0 -1 320.976 130.483)" d="m0 0-2.663-2.662-8.888-8.888-32.28-32.281-2.663-2.663 2.663-2.662 41.168-41.167 2.663-2.663 2.662 2.663 30.738 30.739 10.428 10.429 2.663 2.662-2.663 2.663-11.725 11.726-29.441 29.441zm-41.169-46.494 32.28 32.282 8.889 8.887 8.09-8.092 21.349-21.35 11.727-11.726-10.429-10.428-30.737-30.74z" fill="#ffc52e"/><path transform="matrix(1 0 0 -1 320.976 130.483)" d="m0 0-2.663-2.662-8.888-8.888-32.28-32.281-2.663-2.663 2.663-2.662 41.168-41.167 2.663-2.663 2.662 2.663 30.738 30.739 10.428 10.429 2.663 2.662-2.663 2.663-11.725 11.726-29.441 29.441zm-41.169-46.494 32.28 32.282 8.889 8.887 8.09-8.092 21.349-21.35 11.727-11.726-10.429-10.428-30.737-30.74z" fill="#ffc52e"/><path transform="matrix(1 0 0 -1 310.776 197.107)" d="m0 0-1.218-2.273-1.926 1.635c-2.448 2.073-4.108 4.614-4.934 7.553l-0.279 0.997-2.319-2.634-0.968 3.736c-0.35 1.33-0.175 3.308 0.517 5.883l0.252 0.937-4.871-1.278 6.959 14.182c0.611 1.239 1.153 2.832 1.609 4.735l5e-3 0.02 3e-3 0.021c0.225 1.402 0.269 2.463 0.311 3.488l6e-3 0.166c0.017 0.666 0.042 1.44 0.144 2.309 0.253 2.301 2.219 4.169 4.384 4.169 0.365 0 0.727-0.057 1.077-0.171 1.767-0.554 3.573-2.512 4.779-3.937 0.046-0.056 0.106-0.124 0.172-0.198l0.865-0.961 0.227 2.556 2.411-2.955 1.35 3.35 1.598-2.806 1.586 2.81 1.358-3.37s1.946 2.461 2.7 3.417v-2.977l0.991 1.16c1.313 1.537 3.04 3.369 4.77 3.913 0.335 0.112 0.699 0.169 1.064 0.169 2.169 0 4.14-1.867 4.393-4.164 0.088-0.851 0.116-1.576 0.142-2.279 0.04-1.217 0.091-2.272 0.342-3.824l9e-3 -0.043c0.443-1.813 0.973-3.36 1.576-4.6l6.958-14.18-4.87 1.278 0.253-0.937c0.696-2.584 0.872-4.563 0.524-5.885l-0.979-3.734-2.309 2.635-0.282-0.997c-0.832-2.943-2.491-5.485-4.93-7.553l-1.935-1.635-1.217 2.272-10.145-11.585z" fill="#fff"/><path transform="matrix(1 0 0 -1 341.314 180.677)" d="m0 0c0.824-2.561 1.488-5.495 1.01-7.312l-0.781-2.978-2.391 2.73c-0.391-2.632-1.631-6.168-5.194-9.19l-1.542-1.302-1.258 2.348-10.229-11.681-10.235 11.681-1.259-2.348-1.533 1.302c-3.571 3.022-4.813 6.558-5.192 9.19l-2.403-2.73-0.77 2.978c-0.48 1.817 0.176 4.751 1.001 7.312l-4.734-1.241 6.559 13.365c0.63 1.276 1.179 2.898 1.64 4.822 0.256 1.576 0.291 2.693 0.336 3.774 0.018 0.71 0.045 1.446 0.142 2.278 0.231 2.101 2.012 3.802 3.971 3.802 0.328 0 0.647-0.053 0.948-0.151 1.666-0.522 3.422-2.428 4.591-3.81 0.319-0.381 0.983-1.064 1.577-1.667 0.036-0.034 0.071-0.07 0.098-0.106 0.017 0.089 0.026 0.151 0.035 0.195l0.195 2.19 1.374-1.684s0.426-0.541 0.868-1.1c0.248 0.691 0.506 1.392 0.576 1.587l0.683 1.693 0.904-1.587c0.018-0.035 0.301-0.541 0.628-1.205 0.329 0.664 0.604 1.17 0.631 1.205l0.895 1.587 0.681-1.693c0.08-0.195 0.337-0.896 0.576-1.587 0.453 0.559 2.447 3.084 2.447 3.084v-2.525c0-0.027 9e-3 -0.08 0.026-0.16 0.036 0.036 0.071 0.072 0.098 0.106 0.594 0.603 1.259 1.286 1.578 1.667 1.179 1.382 2.933 3.288 4.599 3.81 0.292 0.098 0.612 0.151 0.94 0.151 1.959 0 3.748-1.701 3.978-3.793 0.089-0.841 0.117-1.577 0.143-2.287 0.035-1.081 0.08-2.198 0.346-3.837 0.451-1.861 1.001-3.483 1.621-4.759l6.558-13.365z" fill="#fff"/><g fill="#222c64"><path transform="matrix(1 0 0 -1 312.748 164.576)" d="m0 0s-1.276 0.55-1.928-0.216c0 0-1.978 0.24-3.463 1.699 0 0 0.278-1.875 4.695-3.5 0 0-0.632 1.467 0.696 2.017"/><path transform="matrix(1 0 0 -1 313.19 187.378)" d="m0 0 1.877-0.625 1.394 4.552 0.024 0.071c0.055 0.169 0.09 0.362 0.09 0.585 0 0.939-1.092 1.249-1.98 1.512-0.884 0.259-3.126 1.406-3.228 2.813-0.268 3.625 1.276 5.196 2.868 5.156 1.045-0.027 2.081-0.357 2.34-0.569 0 0-1.057 2.234-4.218 2.392-1.725 0.086-2.282-0.118-2.282-0.118l0.672-0.657s-2.687-1.252-3.39-2.226l0.966-0.467s-1.57-2.962-1.677-3.276l1.194 0.067-0.388-2.848 1.547 0.531c-0.617-2.718 3.88-4.168 4.191-6.893"/><path transform="matrix(1 0 0 -1 329.106 164.576)" d="m0 0s1.275 0.55 1.927-0.216c0 0 1.979 0.24 3.464 1.699 0 0-0.278-1.875-4.695-3.5 0 0 0.632 1.467-0.696 2.017"/><path transform="matrix(1 0 0 -1 328.48 189.837)" d="m0 0c-0.42-0.404-0.958-0.872-1.579-1.308-0.02-0.039-0.036-0.086-0.051-0.129v-4e-3c-0.221-0.731-0.526-1.626-1.1-2.114-1.618-1.382-4.701-0.47-4.732-0.459h-0.028c-0.02 4e-3 -0.043 9e-3 -0.062 9e-3h-1e-3c-0.019 0-0.043-5e-3 -0.062-9e-3h-0.029c-0.03-0.011-3.113-0.923-4.731 0.459-0.573 0.488-0.88 1.383-1.1 2.114v4e-3c-0.015 0.043-0.032 0.09-0.051 0.129-0.62 0.436-1.16 0.904-1.578 1.308 0.011-0.094 0.027-0.192 0.046-0.291l-4e-3 4e-3s4e-3 -7e-3 4e-3 -0.011c0.055-0.31 0.142-0.645 0.247-0.978 0.264-0.986 0.692-2.428 1.073-2.974 0.542-0.785 2.764-1.641 4.627-1.42 0.431-0.241 0.969-0.39 1.558-0.39h1e-3c0.589 0 1.126 0.149 1.559 0.39 1.861-0.221 4.084 0.635 4.627 1.42 0.381 0.546 0.808 1.988 1.071 2.974 0.107 0.333 0.193 0.668 0.248 0.978 0 4e-3 3e-3 0.011 3e-3 0.011l-3e-3 -4e-3c0.02 0.099 0.035 0.197 0.047 0.291"/><path transform="matrix(1 0 0 -1 328.664 187.378)" d="m0 0-1.877-0.625-1.394 4.552-0.024 0.071c-0.055 0.169-0.091 0.362-0.091 0.585 0 0.939 1.092 1.249 1.981 1.512 0.884 0.259 3.125 1.406 3.227 2.813 0.268 3.625-1.276 5.196-2.867 5.156-1.045-0.027-2.081-0.357-2.341-0.569 0 0 1.057 2.234 4.219 2.392 1.724 0.086 2.282-0.118 2.282-0.118l-0.673-0.657s2.688-1.252 3.39-2.226l-0.966-0.467s1.571-2.962 1.677-3.276l-1.194 0.067 0.389-2.848-1.547 0.531c0.617-2.718-3.88-4.168-4.191-6.893"/><path transform="matrix(1 0 0 -1 323.343 187.815)" d="m0 0c-0.641 0.386-1.479 0.16-2.399 0.16-6e-3 0-0.011 1e-3 -0.016 1e-3 -6e-3 0-0.012-1e-3 -0.017-1e-3 -0.919 0-1.758 0.226-2.399-0.16-0.759-0.458-1.237-1.596-1.237-2.461 0-0.627 0.256-1.182 0.684-1.626 0.166 0.207 0.419 0.343 0.706 0.343 0.502 0 0.909-0.407 0.909-0.909 0-0.119-0.024-0.232-0.066-0.336 0.433-0.129 0.905-0.198 1.403-0.198h0.017 0.016c0.497 0 0.97 0.069 1.403 0.198-0.042 0.104-0.066 0.217-0.066 0.336 0 0.502 0.407 0.909 0.909 0.909 0.286 0 0.54-0.136 0.706-0.343 0.429 0.444 0.684 0.999 0.684 1.626 0 0.865-0.479 2.003-1.237 2.461"/><path transform="matrix(1 0 0 -1 340.05 185.642)" d="m0 0-4.053 4.623 0.714-2.97c0.048-0.192 0.778-3.428-0.828-7.053 1.092 4.077-1.791 8.4-1.791 8.4s-0.361-1.759-1.445-2.737c-1.132-1.021-1.93-2.07-2.176-3.9-0.15-1.115-0.907-2.906-0.954-3.02l2.761 2.919 0.86-5.57c-8e-3 -0.012-0.016-0.02-0.025-0.027l-1.476 2.756-0.605-0.691-3.215-3.028s-1.447-1.14-2.073-1.235c-0.934-0.142-1.859 0.356-2.08 0.52 0 0 0.095-1.229-0.416-2.03 0 0-1.037 0.899-1.367 1.285 0 0-0.208-1.701-0.954-3.107-0.746 1.406-0.954 3.107-0.954 3.107-0.329-0.386-1.366-1.285-1.366-1.285-0.511 0.801-0.417 2.03-0.417 2.03-0.22-0.164-1.145-0.662-2.079-0.52-0.627 0.095-2.073 1.235-2.073 1.235l-3.216 3.028-0.604 0.691-1.478-2.756c-7e-3 7e-3 -0.015 0.015-0.023 0.027l0.86 5.57 2.761-2.919c-0.047 0.114-0.805 1.905-0.954 3.02-0.248 1.83-1.045 2.879-2.176 3.9-1.084 0.978-1.445 2.737-1.445 2.737s-2.883-4.323-1.791-8.4c-1.608 3.625-0.876 6.861-0.829 7.053l0.715 2.97-4.054-4.623c0.276 2.341 1.458 5.664 2.019 7.039l0.397 0.968-1.994-0.113 2.019 2.281-1.037 0.353c0.829 0.974 1.773 1.805 2.704 2.497l-0.615 0.389c2.81 1.97 4.289 2.744 7.257 2.346 1.446-0.193 3.275-1.599 3.275-1.599s-0.862 1.501-1.069 1.768l1.359-0.089s-2.145 1.548-3.424 1.7c-2.312 0.275-4.174-0.292-5.144-0.854 0.898 1.165 2.685 1.995 3.205 1.931 0 0-3.993 0.866-4.179 3.094l-2e-3 -1e-3c-3e-3 0.135-4e-3 0.274-0.01 0.402 0 3e-3 0 7e-3 -4e-3 0.012 4e-3 0.113-4e-3 0.239-0.016 0.372-0.071 1.83-0.09 5.169 0.711 5.491 0.012 4e-3 0.02 8e-3 0.031 8e-3 0.02 7e-3 0.035 0.011 0.055 0.011 0.02 4e-3 0.04 9e-3 0.06 0.012h3e-3c0.24 0.016 0.51-0.118 0.786-0.526 0.302-0.451 0.518-0.927 0.742-1.724 0 0-0.624-0.644-1.056-0.754 0 0 0.9-0.574 1.838-0.467 0 0-0.861-0.464-1.406-1.614 0 0 3.687 0.871 5.372-1.666-0.039 0.141-0.706 2.416-1.464 3.425-0.782 1.041-2.165 2.874-2.777 3.625-0.237 0.287-1.288 1.041-1.755 0.971 0 0 0.568 0.584 1.547-0.06 0.977-0.648 1.77-1.846 2.046-2.168 0.27-0.322 3.566-3.912 3.605-5.491 0 0 0.365 1.065 0.173 2.286 0 0 1.045-1.355 1.807-1.622v4e-3c0.504-0.264 1.276-0.43 1.921-0.639-0.015-0.014-0.03-0.023-0.045-0.037-1.837-1.741-5.339-1.356-5.861-1.117 0 0 0.105-0.814 0.417-1.484 0.314-0.669 0.626-0.669 1.876-1.339s3.755-1.345 4.147-3.72c0 0-1.051 0.442-2.002 0.642 0 0 1.189-2.618 1.189-3.767 0 0-0.625 0.479-1.198 0.575 0 0 1.317-1.871 1.459-2.824 0.156-1.053 0.085-3.607 0.015-4.199-0.067-0.591-0.953-2.37-1.579-2.849l1.242 0.293s-2.05-2.003-1.627-3.821c0 0 0.177 1.644 4.11 1.644h1e-3c3.933 0 4.109-1.644 4.109-1.644 0.423 1.818-1.627 3.821-1.627 3.821l1.242-0.293c-0.624 0.479-1.511 2.258-1.58 2.849-0.068 0.592-0.139 3.146 0.018 4.199 0.141 0.953 1.458 2.824 1.458 2.824-0.572-0.096-1.198-0.575-1.198-0.575 0 1.149 1.189 3.767 1.189 3.767-0.951-0.2-2.002-0.642-2.002-0.642 0.391 2.375 2.896 3.05 4.147 3.72s1.563 0.67 1.875 1.339c0.312 0.67 0.417 1.484 0.417 1.484-0.522-0.239-4.022-0.624-5.861 1.117-0.015 0.014-0.03 0.023-0.044 0.037 0.644 0.209 1.416 0.375 1.921 0.639v-4e-3c0.762 0.267 1.806 1.622 1.806 1.622-0.191-1.221 0.173-2.286 0.173-2.286 0.04 1.579 3.335 5.169 3.606 5.491 0.275 0.322 1.069 1.52 2.046 2.168 0.978 0.644 1.547 0.06 1.547 0.06-0.467 0.07-1.519-0.684-1.755-0.971-0.612-0.751-1.995-2.584-2.777-3.625-0.758-1.009-1.426-3.284-1.465-3.425 1.686 2.537 5.373 1.666 5.373 1.666-0.547 1.15-1.406 1.614-1.406 1.614 0.938-0.107 1.838 0.467 1.838 0.467-0.432 0.11-1.056 0.754-1.056 0.754 0.224 0.797 0.44 1.273 0.741 1.724 0.276 0.408 0.547 0.542 0.786 0.526h4e-3c0.021-3e-3 0.039-8e-3 0.059-0.012 0.02 0 0.036-4e-3 0.056-0.011 0.011 0 0.019-4e-3 0.031-8e-3 0.801-0.322 0.781-3.661 0.711-5.491-0.012-0.133-0.02-0.259-0.016-0.372-4e-3 -5e-3 -4e-3 -9e-3 -4e-3 -0.012-6e-3 -0.128-8e-3 -0.267-0.011-0.402l-2e-3 1e-3c-0.185-2.228-4.178-3.094-4.178-3.094 0.519 0.064 2.306-0.766 3.204-1.931-0.97 0.562-2.831 1.129-5.144 0.854-1.278-0.152-3.423-1.7-3.423-1.7l1.359 0.089c-0.207-0.267-1.069-1.768-1.069-1.768s1.829 1.406 3.274 1.599c2.969 0.398 4.448-0.376 7.258-2.346l-0.615-0.389c0.93-0.692 1.874-1.523 2.704-2.497l-1.038-0.353 2.02-2.281-1.995 0.113 0.397-0.968c0.562-1.375 1.745-4.698 2.019-7.039m4.363 5.062-3.684 7.514-2.027 4.127c-0.772 1.575-1.327 3.429-1.704 5.004-0.46 2.793-0.271 4.108-0.495 6.166-0.227 2.054-2.223 3.405-3.782 2.906-1.563-0.494-3.405-2.623-4.187-3.546-0.718-0.849-2.881-2.934-2.957-3.15-0.079 0.927-0.298 1.924-0.298 2.105 0 0-1.623-2.046-1.862-2.333 0 0-0.942 2.656-1.096 3.036 0 0-0.969-1.712-1.394-3.047-0.424 1.335-1.395 3.047-1.395 3.047-0.152-0.38-1.095-3.036-1.095-3.036-0.24 0.287-1.861 2.333-1.861 2.333 0-0.181-0.22-1.178-0.298-2.105-0.075 0.216-2.24 2.301-2.958 3.15-0.782 0.923-2.624 3.052-4.187 3.546-1.559 0.499-3.555-0.852-3.781-2.906-0.225-2.058-0.036-3.373-0.495-6.166-0.377-1.575-0.931-3.429-1.705-5.004l-2.027-4.127-3.684-7.514 4.458 1.163c-0.786-2.172-2.071-6.244-1.516-8.35l0.357-1.375 2.691 3.068c-0.012-2.667 0.742-7.038 5.035-10.683l0.711-0.6 1.343 2.509 10.407-11.876v-1e-3h1e-3v1e-3l10.407 11.876 1.343-2.509 0.712 0.6c4.292 3.645 5.046 8.016 5.034 10.683l2.69-3.068 0.358 1.375c0.554 2.106-0.731 6.178-1.517 8.35z"/><path transform="matrix(1 0 0 -1 316.795 177.968)" d="m0 0c-0.333 0.127-0.696 0.101-0.924 0.066-0.074-0.013-0.219-0.048-0.219-0.048-0.294-0.044-0.608 4e-3 -0.888 0.149-0.307 0.152-0.526 0.411-0.626 0.704-5e-3 4e-3 -9e-3 0.013-9e-3 0.022-9e-3 9e-3 -0.014 0.022-0.018 0.035-0.122 0.333-0.358 0.88-0.591 1.073 0.285 0.057 0.565 0.079 0.868 0.096 0.061 4e-3 0.122 9e-3 0.183 0.013 0.11 0 0.228-0.013 0.337-0.03 0.175-0.032 0.325-0.057 0.482-0.114-0.328-0.075-0.574-0.368-0.574-0.718 0-0.403 0.329-0.731 0.736-0.731h4e-3c0.342 0 0.622 0.232 0.705 0.543 0.017 0.061 0.026 0.122 0.026 0.188 0 0.083-0.013 0.162-0.039 0.236 0.253-0.192 0.346-0.324 0.433-0.503 5e-3 -9e-3 0.013-0.023 0.017-0.035 0.172-0.342 0.097-0.946 0.097-0.946m0.854 0.863c-0.21 0.831-0.753 1.475-1.66 1.838-0.901 0.36-1.698 0.237-2.14 0.162-0.325-0.052-0.902-0.201-1.366-0.342-0.149-0.043-0.236-0.1-0.285-0.157 0 0-0.013-9e-3 -0.026-0.035-0.053-0.066-0.153-0.232-0.197-0.578 0 0 0.696-0.04 1.322-1.208 0.044-0.079 0.079-0.131 0.105-0.158 4e-3 -4e-3 9e-3 -0.013 9e-3 -0.013 0.228-0.354 0.591-0.705 1.148-0.967 0.616-0.289 1.142-0.312 1.488-0.277 0.048 0.01 0.092 0.014 0.136 0.014 0.271 0 0.446-0.188 0.323-0.718-0.048-0.219-0.105-0.595-0.044-0.964 0.058-0.319 0.154-0.546 0.456-0.857l4e-3 -5e-3s0.481 1.668 0.679 2.299c0.171 0.534 0.223 1.283 0.048 1.966"/><path transform="matrix(1 0 0 -1 325.18 177.022)" d="m0 0c5e-3 0.013 0.014 0.026 0.018 0.035 0.087 0.179 0.179 0.311 0.433 0.503-0.026-0.074-0.039-0.153-0.039-0.236 0-0.066 9e-3 -0.127 0.026-0.188 0.083-0.312 0.364-0.543 0.705-0.543h4e-3c0.408 0 0.735 0.328 0.735 0.731 0 0.35-0.244 0.643-0.572 0.718 0.157 0.057 0.306 0.084 0.48 0.114 0.11 0.017 0.229 0.03 0.338 0.03 0.06-4e-3 0.122-8e-3 0.185-0.013 0.301-0.017 0.582-0.04 0.866-0.096-0.233-0.193-0.468-0.74-0.591-1.073-5e-3 -0.013-9e-3 -0.026-0.018-0.035 0-9e-3 -5e-3 -0.017-8e-3 -0.022-0.102-0.293-0.32-0.551-0.627-0.704-0.28-0.145-0.595-0.193-0.888-0.149 0 0-0.145 0.035-0.22 0.048-0.226 0.035-0.591 0.061-0.924-0.066 0 0-0.074 0.604 0.097 0.946m-0.901-2.049c0.196-0.631 0.677-2.298 0.677-2.298l5e-3 4e-3c0.303 0.311 0.399 0.538 0.455 0.858 0.062 0.368 5e-3 0.744-0.044 0.963-0.122 0.53 0.053 0.718 0.325 0.718 0.044 0 0.087-4e-3 0.136-0.013 0.345-0.035 0.87-0.014 1.488 0.276 0.556 0.263 0.92 0.613 1.147 0.967 0 0 4e-3 9e-3 9e-3 0.013 0.026 0.027 0.061 0.08 0.105 0.158 0.626 1.169 1.322 1.208 1.322 1.208-0.043 0.346-0.145 0.512-0.197 0.578-0.013 0.027-0.027 0.035-0.027 0.035-0.047 0.057-0.135 0.114-0.283 0.158-0.465 0.14-1.043 0.289-1.366 0.341-0.443 0.075-1.24 0.197-2.142-0.161-0.906-0.364-1.448-1.007-1.659-1.839-0.175-0.683-0.122-1.432 0.049-1.966"/></g></g></g></svg>
