<svg xmlns="http://www.w3.org/2000/svg" width="2472" height="2472.1" viewBox="0 0 24.72 24.72"><defs><clipPath id="a"><path d="M220.87 243.87h200.46V102.09H220.87z"/></clipPath></defs><g clip-path="url(#a)" transform="translate(-72.6 -33.39)scale(.26458)"><path fill="#222c64" fill-rule="evenodd" d="m365.18 172.92-44.04 44.04-44.04-44.04 44.04-44.04z"/><path fill="#00a94f" d="m321.14 126.2-2.68 2.68-4.82 4.82-36.54 36.54-2.68 2.68 46.72 46.71 2.68-2.67 41.36-41.37 2.67-2.67-39.27-39.28-4.76-4.76zm0 5.35 4.77 4.77 36.6 36.6-41.37 41.36-41.37-41.36 36.55-36.55z"/><path fill="#fff" d="M346.59 168.04q-.23-.12-.44-.2l1.16 1.47c.02.1-.21-.02-.32-.12a9 9 0 0 0-3.1-1.87c.05.04.9.85 1.38 1.37.3.34-.78 0-1.94-.74-.11-.08-.93-.52-.93-.52.05.19.34.85.55 1.18.28.41-1.3-.46-1.75-.76l-.12-.09a3 3 0 0 0 .15.56c.04.12-.17 0-.42-.17-.32-.22-.71-.53-.71-.53s.57-.36 1.52-.65a8 8 0 0 1 3.17-.27c3.32.43 4.32 3.42 4.64 4.24.12.3-1.3-2.03-2.84-2.9m4.46 3.43.26.14c.67.38-1.04-2.38-1.92-3.19l-.03-.03h.01c.33.14.5.14.07-.23a11 11 0 0 0-2.74-1.85l-.13-.06-.05-.02a7.4 7.4 0 0 0-5.32-.19l-1.06.4a4.6 4.6 0 0 1 .36-2.98c1.13-2.43 1.3-3.55 1.31-4.08v-.12c-.02-.36-.16-1.18-1-1.45-.76-.24-1.1.15-1.21.33s-.81.63-1.33.92c-.35.2.3.23.6.22.17 0 .88-.09 1.2.1.14.08.4.15.87.08q-.31.16-.5.31t-.33.48l-.03.05-.05.12c-.34.76-1.07 1.66-1.32 2-1.07 1.5-2.12 3.52-.79 6.72.85 2.05 2.29 2.66 5.31 3.26.8.43 1.45 1.26 1.47 1.92.02.81-1.26 3.6-1.54 4.3s-.93.7-1.76.72-1.1.75-1.1.75h2.63c.68 0 .71-.37 1.42-2.03.64-1.52 1.05-2.33 1.57-3.67q.13-.42-.14-1.01a1.6 1.6 0 0 0-.64-.63 15 15 0 0 0 1.22.1c.5.25.9.6 1.07.98.32.74.15 4.04.15 4.8s-.53.69-1.36.72-1.1.74-1.1.74h2.63c.84 0 .68-.62.73-2.43.03-1.44.1-2.5.11-3.7a1.3 1.3 0 0 0-.73-1.06l-.03-.01h.1a5 5 0 0 1 .79.15c.48.12.82.3 1.39.48.28.09.15-.16.04-.32q.46.18.81.53c1.2 1.26.47-1.02.1-2.26M335.53 165.24c-2.78-1.47-7.37-1.48-7.33-4.6.01-.68-.3-1.03-.75-1.03q-.35 0-.78.29a14 14 0 0 0-3.14 3.12c.4.6.6 1.26.6 1.86 0 2.02-1.7 3.08-1.7 6.1h.31c0-2.2 1.36-5.26 3.72-5.26a2.6 2.6 0 0 1 1.48 4.7l.07.16.17.36c.39.85.79 1.41 1.23 1.86 1.57-1.26 1.36-3.32 3.55-4.84a10 10 0 0 1 2.68-1.34c.8-.25.8-.9-.11-1.38m-9.8 7.8c-.88.2-1.77-.01-1.89-1.04v-.02h-1.1c.04.8.65 2.39 1.64 2.39.73 0 1.3-.64 1.36-1.34m5.41 1.86c0 .17-.23.29-.43.38a12 12 0 0 1-3.76.9h-.02a10 10 0 0 1-2.2-.09 4 4 0 0 1-1.97-.82q.35-.42.55-.86a5 5 0 0 1-.89-2.42h-2.37a5 5 0 0 1-.9 2.42 5.2 5.2 0 0 0 2.09 2.14q.59-.34 1.1-.83l.05.04q.98.75 2.24.94.56.07 1.13.1c.03 1.75-.36 3.44-1.07 4.88-.47.96-1.2 1.56-2.06 1.56q-.56 0-1.19-.36c-1.37-.8-2.11-2.4-4.48-3.56a7.5 7.5 0 0 0-3.51-.73h-.21c-.48 0-.76-.01-.78-.2-.02-.29.5-.5 1.05-.9.66-.46 1.61-1.35 2.43-2.27.39-.14.93-.37 1.54-.69l.36-.18q.12.02.25.03c1 0 1.6-1.6 1.64-2.4h-1.09v.03c-.12 1.03-1.01 1.23-1.9 1.03q.06.56.45.95c-.9.48-1.69.74-1.95.83q-1.34.45-2.13.46-.71 0-1.08-.34c-.53-.45-.29-1.19-.11-2.1.17-.9.13-1.7-.22-2.43-.91-1.9-3.62-2.36-5.55-3.78-.94-.7-1.43-1.46-1.3-2.32.1-.65.62-1.36 1.72-1.76q1.59-.58 4.14-.6a25 25 0 0 1 3.49.27l.16.03a15 15 0 0 1 2.56.66l.3.12.3.13.33.16.21.11.5.3h.01l-.07.22q-.16.47-.16.94c0 2.02 1.7 3.08 1.7 6.1h-.3c0-2.2-1.36-5.26-3.72-5.26a2.6 2.6 0 0 0-2.5 3.19c.24 1.06 1.21 2 2.36 1.83-.2-.73.15-1.56.96-1.68.93-.14 1.5.82 1.67 1.92h-.01a.34.34 0 1 0 0 .69h5.47a.34.34 0 1 0 0-.69h-.02c.18-1.1.75-2.06 1.68-1.92.81.12 1.15.95.96 1.68q.4.06.78-.06l.24.52a6.5 6.5 0 0 0 3.06 3.27q.46.26.47.42m-8.62-12.92c-.15-.11-.86-.65-1.29-1.1-.42.45-1.14.99-1.28 1.1q-.71.54-1.1 1.2-1.62-1.04-4.1-1.49-.01-.72.34-1.16c.31-.38.85-.45 1.45-.45l1.07.02c.46 0 .9-.04 1.24-.22.78-.41 1.28-1.32 2.15-3.44.85-2.07 1.55-3.75 2.96-3.76h.01c1.3 0 1.99 1.86 2.5 3.77.16.58.4 1.52.57 2.62q-.36.09-.73.33a14 14 0 0 0-3.18 3.13q-.27-.3-.6-.55"/><path fill="#fff" d="M304.88 168.89c-.52-.55-1.12-.94-1.31-1.37l-.01-.02c-.11-.21-.2-.4-.14-.66l.04-.13c.42-1.5-.22-2.1-.52-3.23l-.1-.43c-.04-.18-.12-.31-.38-.47-.43-.27-.43-1.07-.43-1.07s.23.65.87.66h.95c.6 0 1.06-.3 1.06-.63 0-.34-.1-.52-.68-.95-.4-.3-.41-.53-.38-.64q0-.08-.06-.12a2 2 0 0 1-.64-.52l.09-.21c.09-.41.15-1.02-.15-1.34 0 0-.7.73-1 1.35a3.4 3.4 0 0 0-1.79-1.04 6 6 0 0 0 .6 2.06l.08.1a5 5 0 0 0-.29 1.86c0 3.75-2.7 4.74-4.19 7.28-1.48 2.54-.21 5.85-1.77 7.99-.89 1.21-2.78 1.76-4.23 1.76l-2.36.01c-1.07 0-.82.47-.47.8.2.18 3.23.17 3.68.15 0 0 3.96.2 5.27-1.85.76-1.2 1.55-2.43 2.52-2.72.31.26.48.63.58.99.1.44-.21 1.2-.38 2.19-.09.5-.33 1.39 0 1.39h6.12c-.1-.82-1.22-.8-1.65-.78-.84.03-3.37.22-3.37.22s.95-2.67 1.72-4.2c1.07-2.12.15-2.85-.02-4.01-.14-.93-.23-1.87.14-2.42v-.02c.09-.12.03-.22-.03-.3l-.02-.02-.04-.05c-.35-.47-.17-.95-.17-.95.02.48.42.76.58.88.54.44 1.19.56 1.65.9.45.3.36 1.04.36 1.04.8-.03.82-.9.27-1.48M320.46 191.82a1.05 1.05 0 1 1-2.08-.32 1.05 1.05 0 0 1 2.08.32M319.97 190.18a.32.32 0 1 1-.64-.1.32.32 0 0 1 .64.1M319.5 193.23a.32.32 0 1 1-.64-.1.32.32 0 0 1 .64.1M318.77 190.22a.32.32 0 1 1-.52.38.32.32 0 0 1 .52-.38M320.59 192.7c.1.14.07.35-.07.45a.32.32 0 1 1 .07-.45M317.94 191.1a.32.32 0 1 1-.1.64.32.32 0 0 1 .1-.64M320.99 191.57a.32.32 0 1 1-.1.64.32.32 0 0 1 .1-.64M317.99 192.31c.14-.1.35-.07.45.07s.07.34-.07.45a.32.32 0 0 1-.38-.52M320.47 190.48c.14-.1.35-.07.45.07a.32.32 0 1 1-.52.38.3.3 0 0 1 .07-.45M324.14 192.17a.87.87 0 1 1-1.53-.85.87.87 0 0 1 1.53.85M324.24 190.75a.3.3 0 0 1-.36.1c-.13-.07-.18-.23-.1-.36s.23-.17.36-.1.17.23.1.36M323 192.99a.27.27 0 1 1-.47-.26.27.27 0 0 1 .37-.1c.13.07.17.23.1.36M323.29 190.44a.27.27 0 1 1-.51.15.27.27 0 0 1 .51-.15M323.99 192.9a.27.27 0 0 1-.51.15.3.3 0 0 1 .18-.33c.14-.04.29.04.33.18M322.4 190.89c.13.07.18.23.1.36a.26.26 0 0 1-.36.1.3.3 0 0 1-.1-.36.3.3 0 0 1 .36-.1M324.63 192.13a.27.27 0 1 1-.26.47.27.27 0 0 1 .26-.47M322.08 191.84a.27.27 0 1 1 .15.51.27.27 0 1 1-.15-.51M324.54 191.13a.27.27 0 1 1 .15.51.27.27 0 0 1-.15-.51M322.99 187.74a1.34 1.34 0 1 1-2.65-.3 1.34 1.34 0 0 1 2.65.3M322.29 185.68a.4.4 0 1 1-.81-.1.4.4 0 0 1 .81.1"/><path fill="#fff" d="M321.85 189.56a.4.4 0 1 1-.81-.1.4.4 0 0 1 .81.1M320.77 185.79a.4.4 0 1 1-.64.5.4.4 0 0 1 .64-.5M323.2 188.85a.4.4 0 1 1-.64.5.4.4 0 0 1 .64-.5M319.77 186.94a.4.4 0 1 1-.1.8.4.4 0 0 1 .1-.8M323.65 187.39a.4.4 0 1 1-.1.8.4.4 0 0 1 .1-.8M319.88 188.47a.4.4 0 1 1 .5.64.4.4 0 0 1-.5-.64M322.94 186.04a.4.4 0 1 1 .5.64.4.4 0 0 1-.5-.64M330.16 186.76s-.8-1.26.68-3.15c0 0 1.03 1.58-.68 3.15M330.16 186.76s.56 1.38 2.95 1.29c0 0-.68-1.76-2.95-1.29M332.17 185.43s-1.14-.82-.54-2.98c0 0 1.46 1 .54 2.98M332.17 185.43s.99 1 3.03.06c0 0-1.23-1.28-3.03-.06M333.49 183.85s-1.02-.59-.7-2.44c0 0 1.3.72.7 2.44M333.49 183.85s.9.76 2.53-.2c0 0-1.12-.97-2.53.2M327.7 187.54s-.63-1.5 1.29-3.25c0 0 .82 1.88-1.29 3.25M327.7 187.54s.36 1.58 2.93 1.9c0 0-.41-2-2.93-1.9M325.32 188.59s-.84-1.55 1.03-3.66c0 0 1.1 1.94-1.03 3.66M325.32 188.59s.56 1.67 3.38 1.73c0 0-.67-2.12-3.38-1.73"/><path fill="#fff" d="M334.5 182.22c-.13.54-.42 1-.71 1.46q-.45.69-.97 1.32t-1.16 1.16a5 5 0 0 1-1.47.84l-3.05 1.02q-.72.27-1.4.68-.68.4-1.26.9a.3.3 0 0 1-.4-.47 9 9 0 0 1 2.87-1.66l3.1-.94c.96-.3 1.78-1 2.5-1.78q.53-.58.98-1.24c.31-.44.6-.88.97-1.3M332.6 186.3a.26.26 0 1 1-.52 0c0-.14.12-.26.26-.26s.26.12.26.26M334.37 184.54c0 .14-.12.26-.26.26a.26.26 0 0 1 0-.52c.14 0 .26.12.26.26M335.14 182.54a.26.26 0 1 1-.52 0 .26.26 0 0 1 .52 0M335.75 181.21a.26.26 0 1 1-.52 0 .26.26 0 0 1 .52 0"/><path fill="#fff" d="M328.77 186.04c0 .14-.12.26-.26.26s-.26-.12-.26-.26.12-.26.26-.26.26.11.26.26M327.35 185.48c.1.1.1.27 0 .37s-.27.1-.37 0a.26.26 0 0 1 0-.37c.1-.1.27-.1.37 0M328.7 188.99c.1.1.1.27 0 .37s-.27.1-.37 0a.26.26 0 1 1 .37-.37M330.06 187.39a.26.26 0 1 1-.37.37.26.26 0 1 1 .37-.37M327.57 188.23a.26.26 0 1 1 0 .52.26.26 0 0 1-.26-.26c0-.14.12-.26.26-.26M331.46 184.93c.14 0 .26.12.26.26s-.12.26-.26.26-.26-.12-.26-.26.12-.26.26-.26M332.8 183.52a.26.26 0 1 1 0 .52.26.26 0 0 1 0-.52M334.05 181.73c.14 0 .26.12.26.26s-.11.26-.26.26-.26-.12-.26-.26.12-.26.26-.26M334.88 180.54a.26.26 0 1 1 0 .52.26.26 0 0 1 0-.52M335.57 180.15a.26.26 0 1 1 0 .52.26.26 0 0 1 0-.52M334.75 181.47a.26.26 0 1 1 0 .52.26.26 0 0 1 0-.52M334.23 180.89a.26.26 0 1 1 0 .52.26.26 0 0 1 0-.52M335.45 181.73a.26.26 0 1 1 0 .52.26.26 0 0 1 0-.52M326.82 186.58c.1-.1.27-.1.37 0s.1.27 0 .37a.26.26 0 0 1-.37-.37M329.17 186.15c.1-.1.27-.1.37 0s.1.27 0 .37a.26.26 0 0 1-.37-.37M329.38 185.01c.1-.1.27-.1.37 0a.26.26 0 1 1-.37 0M330.62 188.09c.1-.1.27-.1.37 0s.1.27 0 .37-.27.1-.37 0a.26.26 0 0 1 0-.37M312.58 186.76s.8-1.26-.68-3.15c0 0-1.03 1.58.68 3.15M312.58 186.76s-.56 1.38-2.95 1.29c0 0 .68-1.76 2.95-1.29M310.57 185.43s1.14-.82.54-2.98c0 0-1.46 1-.54 2.98M310.57 185.43s-.98 1-3.03.06c0 0 1.23-1.28 3.03-.06M309.25 183.85s1.02-.59.7-2.44c0 0-1.3.72-.7 2.44M309.25 183.85s-.9.76-2.53-.2c0 0 1.12-.97 2.53.2M315.05 187.54s.63-1.5-1.29-3.25c0 0-.82 1.88 1.29 3.25M315.05 187.54s-.36 1.58-2.93 1.9c0 0 .42-2 2.93-1.9M317.43 188.59s.84-1.55-1.03-3.66c0 0-1.1 1.94 1.03 3.66M317.43 188.59s-.56 1.67-3.38 1.73c0 0 .67-2.12 3.38-1.73"/><path fill="#fff" d="M308.25 182.22c.37.4.66.86.96 1.3q.46.64 1 1.23c.7.78 1.53 1.48 2.5 1.78l3.08.95a9 9 0 0 1 2.88 1.66c.13.1.15.3.04.43a.3.3 0 0 1-.44.03 10 10 0 0 0-2.67-1.57l-3.05-1.02a5 5 0 0 1-1.46-.84q-.65-.54-1.16-1.17-.53-.63-.97-1.32a5 5 0 0 1-.71-1.46M310.14 186.3c0 .14.12.26.26.26a.26.26 0 1 0-.26-.26M308.38 184.54c0 .14.12.26.26.26a.26.26 0 1 0-.26-.26M307.6 182.54a.26.26 0 1 0 .52 0 .26.26 0 0 0-.52 0M306.99 181.21a.26.26 0 1 0 .52 0 .26.26 0 0 0-.52 0"/><path fill="#fff" d="M313.97 186.04c0 .14.12.26.26.26s.26-.12.26-.26-.12-.26-.26-.26a.26.26 0 0 0-.26.26M315.39 185.48c-.1.1-.1.27 0 .37s.27.1.37 0a.26.26 0 1 0-.37-.37M314.05 188.99c-.1.1-.1.27 0 .37s.27.1.37 0a.26.26 0 0 0-.37-.37M312.69 187.39c-.1.1-.1.27 0 .37s.27.1.37 0 .1-.27 0-.37-.27-.1-.37 0M315.17 188.23a.26.26 0 1 0 0 .52.26.26 0 0 0 0-.52M311.29 184.93a.26.26 0 1 0 0 .52c.14 0 .26-.12.26-.26a.26.26 0 0 0-.26-.26M309.94 183.52c-.14 0-.26.12-.26.26s.11.26.26.26.26-.12.26-.26a.26.26 0 0 0-.26-.26M308.69 181.73a.26.26 0 1 0 0 .52.26.26 0 0 0 0-.52M307.86 180.54a.26.26 0 1 0 0 .52.26.26 0 0 0 0-.52M307.18 180.15a.26.26 0 1 0 0 .52.26.26 0 0 0 0-.52M307.99 181.47a.26.26 0 1 0 0 .52.26.26 0 0 0 0-.52M308.51 180.89a.26.26 0 0 0-.26.26.26.26 0 0 0 .52 0 .26.26 0 0 0-.26-.26M307.29 181.73a.26.26 0 1 0 0 .52.26.26 0 0 0 0-.52M315.92 186.58a.26.26 0 0 0-.37 0c-.1.1-.1.27 0 .37s.27.1.37 0 .1-.27 0-.37M313.58 186.15a.26.26 0 0 0-.37 0c-.1.1-.1.27 0 .37s.27.1.37 0 .1-.27 0-.37M313.36 185.01a.26.26 0 0 0-.37 0c-.1.1-.1.27 0 .37a.26.26 0 1 0 .37-.37M312.12 188.09a.26.26 0 0 0-.37 0c-.1.1-.1.27 0 .37s.27.1.37 0 .1-.27 0-.37"/></g></svg>