<svg width="2475.9mm" height="2476mm" version="1.1" viewBox="0 0 24.759 24.76" xmlns="http://www.w3.org/2000/svg">
 <defs>
  <clipPath id="a">
   <path transform="matrix(1,0,0,-1,0,907.89)" d="m274.3 692.12h93.579v93.582h-93.579z"/>
  </clipPath>
 </defs>
 <g transform="translate(-88.635 -39.423)">
  <g transform="matrix(.26458 0 0 .26458 16.059 7.0951)" clip-path="url(#a)">
   <path transform="matrix(1 0 0 -1 277.67 168.98)" d="m0 0 43.425 43.426 43.424-43.425-43.424-43.426z" fill="#222c64"/>
   <path transform="matrix(1 0 0 -1 321.09 122.18)" d="m0 0-2.68-2.68-4.832-4.831-36.599-36.601-2.68-2.68 2.68-2.679 41.431-41.432 2.68-2.68 2.679 2.68 41.429 41.433 2.68 2.679-2.68 2.679-36.654 36.656-4.774 4.776zm-41.432-46.792 36.6 36.601 4.832 4.831 4.774-4.776 36.655-36.655-41.429-41.432z" fill="#e22626"/>
   <path transform="matrix(1 0 0 -1 314.85 188.16)" d="m0 0h-2.879v5.901h2.879c1.346 0 2.438-1.323 2.438-2.95 0-1.632-1.092-2.951-2.438-2.951m-2.879 14.091h1.908c1.216 0 2.203-1.192 2.203-2.665 0-1.477-0.987-2.669-2.203-2.669h-1.908zm7.669-8.683c-0.067 0.171-0.148 0.335-0.235 0.493-0.168 0.313-0.363 0.607-0.58 0.879-0.313 0.39-0.675 0.735-1.079 1.025-9e-3 9e-3 -0.023 0.013-0.032 0.023 5e-3 5e-3 9e-3 0.013 0.014 0.018 0.223 0.281 0.417 0.589 0.58 0.911 0.227 0.444 0.395 0.924 0.499 1.428 0.086 0.398 0.131 0.815 0.131 1.241 0 0.966-0.227 1.877-0.63 2.665-0.081 0.159-0.168 0.313-0.263 0.463-0.439 0.693-1.015 1.269-1.691 1.681-0.589 0.368-1.25 0.603-1.953 0.68-0.172 0.022-0.344 0.031-0.522 0.031h-6.19v-2.855h1.428v-14.091h-1.428v-2.855h7.161c1.939 0 3.635 1.146 4.555 2.855 0.276 0.503 0.48 1.056 0.602 1.641 0.028 0.122 0.05 0.244 0.064 0.367 0.033 0.195 0.05 0.39 0.059 0.589 9e-3 0.118 0.013 0.236 0.013 0.354 0 0.879-0.176 1.713-0.503 2.457" fill="#fff"/>
   <path transform="matrix(1 0 0 -1 329.45 181.35)" d="m0 0c-0.453-0.145-0.934-0.223-1.428-0.223v7.498h1.428c1.827 0 3.101-1.583 3.101-3.535 0-1.637-1.329-3.178-3.101-3.74m4.99 7.275c-1.051 1.731-2.878 2.854-4.99 2.854h-5.71v-2.854h1.427v-14.092h-1.427v-2.855h5.71v2.855h-1.428v3.735c0.486 0 0.966 0.045 1.428 0.136 3.346 0.63 5.956 3.435 5.956 6.686 0 1.318-0.353 2.529-0.966 3.535" fill="#fff"/>
   <path transform="matrix(1 0 0 -1 323.44 180.41)" d="m0 0-1.637-1.637-1.636 1.637 1.636 1.636z" fill="#fff"/>
   <path transform="matrix(1 0 0 -1 334.29 159.82)" d="m0 0-1e-3 -2e-3 7e-3 6e-3zm-7e-3 -0.023v0.015l-0.012-0.012 0.012 0.015-0.014-0.013 0.014 0.017v0.044c0.017 0 0.025-4e-3 0.035-0.015l-0.029-0.03z" fill="#bf4f9d"/>
   <path transform="matrix(1 0 0 -1 331.24 157.45)" d="m0 0-1.442 1.442 1.442 1.449 0.493-0.494v-7e-3l0.948-0.948zm-6.363 1.442-0.648 0.648-0.795 0.801 1.443 1.442 1.442-1.442zm-6.843 0.648-0.648-0.648-1.442 1.449 1.442 1.442 1.442-1.442zm-6.91-1.99-0.101-0.1-1.441 1.442 0.948 0.948v7e-3l0.493 0.494 1.443-1.449zm22.125 8.079-1.168-4.467c-1.155 0.388-2.31 0.708-3.458 0.968l0.801 4.607c-1.529 0.36-3.051 0.62-4.58 0.774l-0.361-4.693c-1.122 0.113-2.236 0.173-3.351 0.173s-2.23-0.06-3.352-0.173l-0.36 4.693c-1.53-0.154-3.051-0.414-4.579-0.774l0.799-4.607c-1.148-0.26-2.302-0.58-3.458-0.968l-1.168 4.467c-1.421-0.488-2.843-1.062-4.265-1.723l1.568-4.266 1.65-4.5 0.012-0.04c1.142 0.521 2.284 0.975 3.432 1.362 1.021 0.341 2.05 0.634 3.071 0.868 1.222 0.281 2.45 0.487 3.672 0.614 0.995 0.1 1.99 0.153 2.978 0.153s1.982-0.053 2.977-0.153c1.222-0.127 2.45-0.333 3.672-0.614 1.021-0.234 2.05-0.527 3.071-0.868 1.149-0.387 2.29-0.841 3.432-1.362l0.014 0.04 1.648 4.5 1.569 4.266c-1.421 0.661-2.843 1.235-4.266 1.723" fill="#fff"/>
   <path transform="matrix(1 0 0 -1 333.48 166.49)" d="m0 0-0.959-1.548h-0.011c-0.011 0.011-0.022 0.022-0.033 0.022-0.35 0.142-0.697 0.294-1.046 0.425-0.611 0.24-1.21 0.458-1.809 0.643-0.306 0.109-0.611 0.208-0.916 0.294-0.807 0.23-1.602 0.425-2.409 0.589-0.948 0.185-1.896 0.327-2.855 0.403-0.763 0.076-1.537 0.109-2.312 0.109-0.762 0-1.537-0.033-2.31-0.109-0.947-0.076-1.896-0.218-2.856-0.403-0.796-0.164-1.601-0.359-2.409-0.589-0.304-0.086-0.61-0.185-0.915-0.294-0.599-0.185-1.198-0.403-1.798-0.643-0.36-0.142-0.719-0.294-1.079-0.447h-0.012l-0.958 1.548c0.479 0.207 0.948 0.403 1.427 0.589 0.971 0.359 1.93 0.686 2.9 0.948 0.85 0.239 1.7 0.435 2.55 0.599 1.003 0.186 2.017 0.327 3.019 0.414 0.817 0.066 1.636 0.098 2.441 0.098 0.818 0 1.635-0.032 2.443-0.098 1.012-0.087 2.015-0.228 3.029-0.414 0.851-0.164 1.69-0.36 2.551-0.599 0.959-0.262 1.929-0.589 2.889-0.948h0.01c0.48-0.186 0.948-0.382 1.428-0.589" fill="#fff"/>
   <path transform="matrix(1,0,0,-1,0,907.89)" d="m308 748.08h-0.065v0.046h0.065z" fill="#bf4f9d"/>
   <path transform="matrix(1 0 0 -1 333.75 165.02)" d="m0 0-0.49-0.785c-0.339 0.142-0.677 0.273-1.026 0.403l-0.075 0.033c-0.96 0.36-1.919 0.676-2.867 0.938-0.861 0.239-1.733 0.446-2.594 0.61-1.057 0.196-2.093 0.338-3.074 0.414-1.602 0.153-3.389 0.153-4.98 0-0.993-0.076-2.029-0.218-3.084-0.414-0.851-0.164-1.723-0.371-2.595-0.61-0.938-0.251-1.897-0.567-2.845-0.927l-0.098-0.044c-0.337-0.13-0.687-0.261-1.025-0.403l-0.479 0.785v1.275c0.272 0.12 0.535 0.229 0.806 0.349 1.035 0.425 2.082 0.807 3.117 1.123 0.894 0.283 1.821 0.523 2.747 0.708 1.166 0.24 2.246 0.403 3.291 0.49 1.701 0.175 3.597 0.175 5.308 0 1.047-0.087 2.115-0.25 3.281-0.49 0.938-0.185 1.853-0.425 2.758-0.708 1.025-0.316 2.071-0.698 3.107-1.123 0.272-0.12 0.545-0.229 0.817-0.349zm0.763 2.114c-0.381 0.175-0.763 0.349-1.156 0.513-1.068 0.447-2.147 0.839-3.215 1.155-0.926 0.295-1.885 0.545-2.856 0.742-1.198 0.25-2.321 0.414-3.4 0.511-1.765 0.174-3.75 0.174-5.504 0-1.09-0.097-2.201-0.261-3.411-0.511-0.97-0.197-1.931-0.447-2.856-0.742-1.057-0.316-2.136-0.708-3.216-1.155-0.381-0.164-0.763-0.338-1.155-0.513l-0.316-0.141v-2.289l1.667-2.703h0.666l0.447 0.284-0.251 0.413-0.371 0.6c0.239 0.098 0.479 0.196 0.73 0.294l0.098 0.033c0.948 0.36 1.908 0.676 2.845 0.937 0.84 0.229 1.679 0.425 2.507 0.589 1.013 0.185 2.016 0.327 2.975 0.403 1.527 0.142 3.248 0.142 4.784 0 0.96-0.076 1.953-0.218 2.966-0.403 0.828-0.164 1.678-0.36 2.507-0.589 0.937-0.261 1.897-0.577 2.845-0.937l0.109-0.033c0.239-0.098 0.479-0.196 0.73-0.294l-0.535-0.861-0.097-0.152 0.348-0.219c0.022-0.011 0.044-0.032 0.077-0.043 0.01 0 0.021-0.011 0.033-0.022h0.653l1.679 2.703v2.289z" fill="#fff"/>
   <path transform="matrix(1 0 0 -1 321.13 159.85)" d="m0 0c0.944 0 1.871-0.043 2.756-0.129 1.081-0.097 2.195-0.264 3.402-0.509 0.969-0.201 1.931-0.451 2.859-0.743 1.058-0.321 2.14-0.712 3.211-1.159 0.129-0.054 0.259-0.109 0.389-0.166l4e-3 2.397c-1.022 0.455-2.055 0.86-3.074 1.204-1.033 0.344-2.05 0.631-3.019 0.853-1.207 0.276-2.418 0.48-3.606 0.603-1.98 0.202-3.868 0.2-5.844 0-1.186-0.123-2.399-0.327-3.605-0.603-0.972-0.222-1.989-0.509-3.021-0.854-1.019-0.343-2.052-0.748-3.072-1.203l3e-3 -2.397c0.13 0.057 0.259 0.112 0.389 0.166 1.072 0.447 2.153 0.838 3.217 1.161 0.922 0.29 1.884 0.54 2.852 0.74 1.208 0.246 2.322 0.413 3.407 0.51 0.881 0.086 1.808 0.129 2.752 0.129m13.701-4.387-0.767 0.348c-0.376 0.172-0.752 0.337-1.127 0.495-1.036 0.432-2.083 0.809-3.113 1.123-0.898 0.282-1.823 0.522-2.756 0.716-1.164 0.236-2.239 0.396-3.283 0.491-1.708 0.166-3.605 0.166-5.306 0-1.048-0.095-2.123-0.255-3.289-0.492-0.931-0.193-1.856-0.433-2.748-0.713-1.035-0.316-2.083-0.693-3.119-1.125-0.375-0.158-0.751-0.323-1.127-0.495l-0.766-0.348-0.011 7.012 0.734-0.27c0.241-0.088 0.32-0.118 0.347-0.511h0.01v-0.216c4e-3 -0.173 5e-3 -0.395 6e-3 -0.679v-0.066c0.905 0.39 1.817 0.74 2.719 1.044 1.069 0.357 2.12 0.654 3.124 0.884 1.249 0.287 2.505 0.496 3.737 0.623 2.053 0.209 4.015 0.209 6.068 0 1.232-0.127 2.488-0.336 3.737-0.623 1.003-0.23 2.053-0.527 3.123-0.882 0.97-0.328 1.951-0.708 2.923-1.133l0.88 2.789 0.014-5.224z" fill="#fff"/>
   <path transform="matrix(1 0 0 -1 317.61 158.22)" d="m0 0v-1.009c-1.089-0.126-2.185-0.327-3.272-0.587v1.028c1.087 0.254 2.176 0.441 3.272 0.568" fill="#fff"/>
   <path transform="matrix(1 0 0 -1 312.44 159.28)" d="m0 0v-1.048c-1.095-0.334-2.183-0.728-3.271-1.189v1.082c1.088 0.447 2.176 0.834 3.271 1.155" fill="#fff"/>
   <path transform="matrix(1 0 0 -1 319.5 158.06)" d="m0 0v-1.001c1.088 0.066 2.184 0.066 3.271 0v1.001c-1.094 0.06-2.183 0.06-3.271 0" fill="#fff"/>
   <path transform="matrix(1 0 0 -1 324.66 158.22)" d="m0 0v-1.009c1.089-0.126 2.184-0.327 3.272-0.587v1.028c-1.088 0.254-2.176 0.441-3.272 0.568" fill="#fff"/>
   <path transform="matrix(1 0 0 -1 329.83 159.28)" d="m0 0v-1.048c1.095-0.334 2.184-0.728 3.271-1.189v1.082c-1.087 0.447-2.176 0.834-3.271 1.155" fill="#fff"/>
   <path transform="matrix(1 0 0 -1 322.33 150.21)" d="m0 0c-0.308-0.548-0.714-1.048-1.195-1.522-0.474 0.474-0.882 0.974-1.195 1.522-0.521 0.901-0.674 1.976-0.447 2.978 0.086 0.407 0.233 0.794 0.447 1.161 0.313 0.541 0.721 1.042 1.195 1.516 0.481-0.474 0.887-0.975 1.195-1.516 0.213-0.367 0.36-0.754 0.447-1.161 0.227-1.002 0.074-2.077-0.447-2.978" fill="#fff"/>
   <path transform="matrix(1 0 0 -1 315.03 162.32)" d="m0 0v-1.028c-1.089-0.227-2.184-0.521-3.271-0.881v1.054c1.087 0.348 2.176 0.635 3.271 0.855" fill="#fff"/>
   <path transform="matrix(1 0 0 -1 316.92 161.99)" d="m0 0c1.089 0.153 2.184 0.247 3.271 0.287v-1.008c-1.087-0.04-2.175-0.134-3.271-0.3z" fill="#fff"/>
   <path transform="matrix(1 0 0 -1 325.35 161.99)" d="m0 0v-1.021c-1.088 0.166-2.177 0.26-3.265 0.3v1.008c1.088-0.04 2.177-0.134 3.265-0.287" fill="#fff"/>
   <path transform="matrix(1 0 0 -1 330.51 163.18)" d="m0 0v-1.055c-1.088 0.36-2.183 0.655-3.271 0.882v1.028c1.095-0.221 2.183-0.508 3.271-0.855" fill="#fff"/>
   <path transform="matrix(1 0 0 -1 332.48 168.02)" d="m0 0c-0.032 0.011-0.055 0.032-0.076 0.043-0.12 0.099-0.175 0.24-0.251 0.371-0.055 0.109-0.131 0.217-0.272 0.273-0.611 0.239-0.763 0.196-1.362 0.381h-19.009c-0.599-0.185-0.763 0.24-1.363 0-0.142-0.055-0.175-0.207-0.185-0.392-0.022-0.273 0.01-0.59-0.196-0.698h22.747c-0.012 0.011-0.022 0.022-0.033 0.022" fill="#fff"/>
   <path transform="matrix(1 0 0 -1 321.09 122.18)" d="m0 0-2.68-2.68-4.832-4.831-36.599-36.601-2.68-2.68 2.68-2.679 41.431-41.432 2.68-2.68 2.679 2.68 41.429 41.433 2.68 2.679-2.68 2.679-36.654 36.656-4.774 4.776zm0-5.36 4.774-4.776 36.655-36.655-41.429-41.432-41.432 41.431 36.6 36.601z" fill="#e22626"/>
  </g>
 </g>
</svg>
