<svg xmlns="http://www.w3.org/2000/svg" width="93.43" height="93.44" viewBox="0 0 24.72 24.72"><defs><clipPath id="a"><path d="M220.75 289.88h200.47v-141.8H220.74z"/></clipPath></defs><g clip-path="url(#a)" transform="translate(-72.57 -45.56)scale(.26458)"><path fill="#222c64" fill-rule="evenodd" d="M365.06 218.91 321 262.96l-44.04-44.04 44.04-44.05z"/><path fill="#bc6228" d="m321.02 172.2-7.5 7.5-36.55 36.54-2.67 2.68 2.67 2.67 41.37 41.37 2.68 2.67 2.67-2.67 41.37-41.37 2.67-2.68-2.67-2.67-36.6-36.6-4.77-4.77zm0 5.35 4.76 4.77 36.6 36.6-41.36 41.36-41.37-41.36 36.54-36.55z"/><path fill="#fff" d="M321 252.18h-.3c-1.14 0-3.99-.4-6.1-4.09l-.03-.04-.31-.62a5 5 0 0 1-.53-.64 9 9 0 0 1-.97-1.83l-.14-.05c-3.65-1.54-5.82-4.51-5.82-7.97q0-.42.09-.89.1-.65.25-1.32c.21-1.07.46-2.29.33-3.02-.6-3.46-.34-4.78.15-6.65l.04-.17c-.04-.32-.1-.4-.26-.64l-.07-.1c-.37-.41-1-.78-1.96-1.33l-.53-.3c-6.08-3.54-6.56-8.75-6.82-11.54l-.07-.79c-.28-2.68.96-8.59 2.73-9.9q.96-.7 2.27-.7c.74 0 1.56.16 2.65.54 5.9 2.04 11.41 8.05 15.42 16.7 4-8.65 9.5-14.66 15.4-16.7a8 8 0 0 1 2.66-.55q1.3 0 2.27.72c1.77 1.3 3.01 7.2 2.73 9.9l-.04.38-.03.4c-.26 2.8-.74 8-6.82 11.53l-.53.31c-.95.55-1.6.92-1.96 1.33l-.07.1c-.16.23-.22.32-.26.64l.04.17c.49 1.87.76 3.2.15 6.65-.13.74.12 1.95.33 3.02q.15.68.26 1.32.09.46.08.9c0 3.45-2.17 6.42-5.81 7.95l-.15.06a9 9 0 0 1-1.12 2.04l-.38.43q-.12.29-.31.62l-.02.04c-2.12 3.7-4.97 4.1-6.1 4.1z"/><path fill="#222c64" d="m331.78 238.84-.01.05v.01l-.1.19c-.43.89-1.1 1.56-1.77 2.05l-.26.18q.22-.3.38-.6a5 5 0 0 0 .62-1.81l.02-.1v-.62a3 3 0 0 0-.39-1.24c-.8-1.67-2.95-1.82-2.95-1.82l.84.95q.03 0 .04.03a6 6 0 0 1 1.26 2.2l-.34-.2c-.5-.28-1-.62-1.43-.94q.14.32.26.7l.1.4a6 6 0 0 1 .24 1.53c0 .63-.14 1.1-.31 1.44-.11-.94-.43-2.16-.43-2.16a9 9 0 0 0-.68-1.68l-.2-.37-.44-.74h.78l-.82-.93h-.01c-1.66-2.53-2.45-5.52.58-7.04-.52.42-.79.92-.92 1.84 0 .04-.05.14 0 .2 1.78 1.66 4.18.33 4-1.53 0 0 1.24-.4 1.34-1.53-1.35.57-2.39-.95-4.58-.22-2.79.93-3.86 3.24-3.47 5.24.26 1.27.84 2.89 1.96 5.15.54 1.08.62 1.62.85 2.5l.15.62v.02c.2.82.5 3.2-.44 4.4-.33.44-1.29.86-2.6.77-1.32-.09-1.57-.84-1.6-1.12.05-.18 2.58-2.44 2.8-1.95.32.7-2.18 1.73-2.24 1.77 3.14.26 3.4-1.42 3.56-2.17.1-.48-.49-2.25-.69-1.94-.8 1.2-2.73 1.56-3.67 1.62h-.39c-.94-.06-2.88-.42-3.67-1.62-.2-.31-.8 1.46-.69 1.94.16.75.41 2.43 3.56 2.17-.06-.04-2.56-1.07-2.25-1.77.23-.5 2.76 1.77 2.8 1.95-.02.28-.27 1.03-1.59 1.12-1.31.1-2.27-.33-2.6-.76-.95-1.21-.64-3.6-.45-4.4l.01-.03.15-.62c.23-.88.31-1.42.85-2.5a22 22 0 0 0 1.96-5.15c.38-2-.68-4.31-3.47-5.24-2.2-.73-3.23.79-4.58.22.1 1.13 1.34 1.53 1.34 1.53-.18 1.86 2.22 3.2 4 1.52.05-.05 0-.15 0-.2-.13-.9-.4-1.41-.92-1.83 3.03 1.52 2.23 4.51.58 7.04l-.83.93h.78l-.44.73-.2.38q-.4.75-.68 1.68s-.32 1.22-.43 2.16a3 3 0 0 1-.31-1.44q0-.37.07-.82v-.02a6 6 0 0 1 .27-1.09q.12-.38.26-.7a16 16 0 0 1-1.78 1.14c.21-.65.58-1.42 1.26-2.2h.01l.03-.03.84-.95s-2.14.15-2.94 1.82a3 3 0 0 0-.39 1.86l.02.1.02.2a5 5 0 0 0 .98 2.21l-.26-.18a6 6 0 0 1-1.78-2.05l-.09-.19v-.01l-.02-.05a4 4 0 0 1-.2-.84c-.03-1.76 2.28-2.92 2.28-2.92h-.26c-.42 0-1.27.05-1.91.43.56-1.02.7-2.22.7-3.36v-.73c-.03-.52-.1-1.3-.3-2.27a5.9 5.9 0 0 1 1.58-5.2l.02-.02a9 9 0 0 1 4.42-2.02c-.69-.62-1.74-.73-2.67-.57.88-.8 1.94-.8 3.25-1.33-1.86-.31-3.55-.13-4.8.91-.93-1.12-1.28-2.48-1.41-2.92-1-3.34.59-6.68.36-8.64a5 5 0 0 0-.4-1.45c2.38 2.2 5.85 7.33 8.08 13.51l.16.4c-1.07-.1-1.17-.26-1.17-.26s.55 1.45 2.54 1.45h1c2 0 2.55-1.45 2.55-1.45s-.1.16-1.17.25l.15-.39c2.24-6.18 5.7-11.31 8.08-13.5q-.29.59-.4 1.44c-.22 1.96 1.37 5.3.37 8.64-.13.44-.49 1.8-1.4 2.92-1.26-1.04-2.95-1.22-4.8-.9 1.3.51 2.36.52 3.24 1.32-.93-.16-1.98-.05-2.67.57 1.39.19 3.25.94 4.42 2.02v.01l.02.01q.39.37.66.78c.5.76 1.33 2.35.92 4.42-.2.97-.27 1.75-.3 2.27v.73c0 1.14.14 2.34.7 3.36a4 4 0 0 0-1.91-.44l-.26.01s2.31 1.16 2.27 2.92q-.05.42-.2.84m-10.5 9.35h-.52c-1.78 0-2.37-.11-2.99-.83.84.15 2.26.28 3-.33q.14-.1.24-.26.11.15.25.26c.74.61 2.16.48 3 .33-.63.72-1.22.82-2.99.83m19.1-46.56c-.8-.6-1.88-.46-3.4.07-7.01 2.42-12.49 10.52-15.79 18.97l-.17.59-.16-.6c-3.3-8.44-8.78-16.54-15.79-18.96-1.53-.53-2.6-.66-3.4-.07-1 .74-2.35 5.72-2.07 8.4l.04.38c.26 2.69.41 7.4 6.04 10.67 1.43.83 2.35 1.3 2.98 2.07.33.5.6.75.69 1.88-.49 1.9-.87 2.82-.24 6.4.25 1.4-.34 3.36-.58 4.89q-.06.3-.07.62c0 3.99 3.36 5.83 4.8 6.44l.85.3a6 6 0 0 0 1.07 2.29q.2.26.45.47l.03.03q.12.31.38.8c1.69 2.94 3.82 3.26 4.65 3.26h.66c.84 0 2.97-.32 4.66-3.26a7 7 0 0 0 .41-.83 4 4 0 0 0 .52-.57c.57-.83.86-1.55 1-2.19l.85-.3c1.44-.6 4.8-2.45 4.8-6.44q0-.32-.07-.62c-.25-1.53-.83-3.49-.58-4.9.63-3.57.24-4.5-.24-6.4.1-1.12.35-1.37.7-1.88.62-.75 1.54-1.23 2.97-2.06 5.62-3.27 5.78-7.98 6.04-10.67l.03-.39c.29-2.67-1.06-7.65-2.06-8.39"/><path fill="#fff" d="M332.42 211.88c-1.23-7.14 7-8.93 7-8.93-1.66 1.06-5.94 3.84-5 8.97 1.17-.93 1.92-2.4 2.44-3.17.49 1.95-1.07 4.9-2.52 5.82 2.1.31 3.5-3.34 3.5-3.34.31 3.43-2.38 5.42-4.04 6.31.72.46 1.63.1 1.63.1-2.23 3.12-4.36 3.44-4.36 3.44.65-.81.98-1.77 1.49-2.96.82-2.68.33-3.5-.14-6.25"/><path fill="#222c64" d="M330.02 230.87c-1.67 1.47-3.44.75-4.27.15 0 0 .33 1.76 2.92 2.58 1.73.55 2.24.97 2.27 1-.03-.06-1.23-2.1-.92-3.73"/><path fill="#fff" d="M326.54 229.17c0 .35.24.64.54.64s.55-.29.55-.64-.25-.64-.55-.64-.54.28-.54.64M309.61 211.88c1.23-7.14-7-8.93-7-8.93 1.66 1.06 5.94 3.84 5 8.97-1.17-.93-1.92-2.4-2.44-3.17-.49 1.95 1.07 4.9 2.52 5.82-2.11.31-3.5-3.34-3.5-3.34-.31 3.43 2.38 5.42 4.03 6.31-.71.46-1.62.1-1.62.1 2.23 3.12 4.36 3.44 4.36 3.44-.65-.81-.98-1.77-1.49-2.96-.82-2.68-.33-3.5.14-6.25"/><path fill="#222c64" d="M311.09 234.6c.03-.03.54-.45 2.27-1 2.59-.82 2.92-2.58 2.92-2.58-.83.6-2.6 1.32-4.27-.15.3 1.63-.89 3.67-.92 3.73"/><path fill="#fff" d="M315.5 229.17c0 .35-.25.64-.55.64s-.55-.29-.55-.64.25-.64.55-.64.54.28.54.64"/></g></svg>