<svg xmlns="http://www.w3.org/2000/svg" width="92.98" height="92.99" viewBox="0 0 24.6 24.6"><defs><clipPath id="a"><path d="M274.48 223.47h92.99v-92.99h-92.99z"/></clipPath></defs><g clip-path="url(#a)" transform="translate(-72.62 -34.52)scale(.26458)"><path fill="#222c64" d="m277.83 176.98 43.14-43.15 43.15 43.15-43.15 43.14z"/><path fill="#ffc52e" d="m320.98 130.48-2.67 2.67-8.89 8.88-32.28 32.28-2.66 2.67 2.66 2.66 41.17 41.17 2.67 2.66 2.66-2.66 30.74-30.74 10.42-10.43 2.67-2.66-2.67-2.67-11.72-11.72-29.44-29.44zm-41.17 46.5 32.28-32.28 8.89-8.9 8.09 8.1 21.34 21.35 11.73 11.73-10.43 10.42-30.73 30.74z"/><path fill="#ffc52e" d="m320.98 130.48-2.67 2.67-8.89 8.88-32.28 32.28-2.66 2.67 2.66 2.66 41.17 41.17 2.67 2.66 2.66-2.66 30.74-30.74 10.42-10.43 2.67-2.66-2.67-2.67-11.72-11.72-29.44-29.44zm-41.17 46.5 32.28-32.28 8.89-8.9 8.09 8.1 21.34 21.35 11.73 11.73-10.43 10.42-30.73 30.74z"/><path fill="#fff" d="m310.78 197.1-1.22 2.28-1.93-1.63a15 15 0 0 1-4.93-7.56l-.28-1-2.32 2.64-.97-3.74q-.52-2 .52-5.88l.25-.94-4.87 1.28 6.96-14.18a23 23 0 0 0 1.6-4.74l.01-.02v-.02c.23-1.4.27-2.46.32-3.49v-.16c.02-.67.04-1.44.15-2.31.25-2.3 2.22-4.17 4.38-4.17q.56 0 1.08.17c1.76.56 3.57 2.51 4.78 3.94l.17.2.86.96.23-2.56 2.41 2.96 1.35-3.35 1.6 2.8 1.59-2.8 1.35 3.36 2.7-3.41v2.97l1-1.16c1.3-1.53 3.03-3.37 4.76-3.91q.51-.17 1.07-.17c2.17 0 4.14 1.87 4.4 4.16.08.86.1 1.58.13 2.28.04 1.22.1 2.28.35 3.83v.04q.68 2.73 1.58 4.6l6.96 14.18-4.87-1.28.25.94q1.04 3.88.53 5.89l-.98 3.73-2.31-2.64-.28 1a15 15 0 0 1-4.93 7.55l-1.94 1.64-1.22-2.27-10.14 11.58z"/><path fill="#fff" d="M341.31 180.68c.83 2.56 1.5 5.5 1.01 7.3l-.78 2.99-2.39-2.73a14.7 14.7 0 0 1-5.2 9.19l-1.53 1.3-1.26-2.35-10.23 11.68-10.24-11.68-1.25 2.35-1.54-1.3a14.6 14.6 0 0 1-5.19-9.2l-2.4 2.74-.77-2.98c-.48-1.82.17-4.75 1-7.31l-4.74 1.24 6.56-13.37q.95-1.92 1.64-4.82c.26-1.57.3-2.7.34-3.77q.01-1.05.14-2.28c.23-2.1 2.01-3.8 3.97-3.8q.5 0 .95.15c1.67.52 3.42 2.43 4.6 3.8a37 37 0 0 0 1.67 1.78l.03-.2.2-2.18 1.37 1.68.87 1.1.57-1.59.69-1.69.9 1.59c.02.03.3.54.63 1.2.33-.66.6-1.17.63-1.2l.9-1.59.68 1.7c.08.19.33.89.57 1.58.46-.56 2.45-3.08 2.45-3.08v2.52l.02.16.1-.1c.6-.6 1.26-1.3 1.58-1.67 1.18-1.38 2.93-3.29 4.6-3.81q.45-.15.94-.15c1.96 0 3.75 1.7 3.98 3.79q.11 1.24.14 2.29c.04 1.08.08 2.2.35 3.83.45 1.87 1 3.49 1.62 4.76l6.56 13.37z"/><g fill="#222c64"><path d="M312.75 164.58s-1.28-.55-1.93.21c0 0-1.98-.24-3.46-1.7 0 0 .27 1.88 4.7 3.5 0 0-.64-1.46.69-2.01M313.19 187.38l1.88.62 1.4-4.55.01-.07q.1-.25.1-.58c0-.94-1.1-1.25-1.98-1.52-.89-.26-3.13-1.4-3.23-2.81-.27-3.62 1.27-5.2 2.86-5.16a5 5 0 0 1 2.34.57s-1.05-2.23-4.21-2.39c-1.73-.09-2.29.12-2.29.12l.68.66s-2.69 1.25-3.4 2.22l.97.47s-1.57 2.96-1.67 3.27l1.19-.06-.39 2.85 1.55-.53c-.62 2.71 3.88 4.16 4.19 6.89M329.1 164.58s1.28-.55 1.93.21c0 0 1.98-.24 3.47-1.7 0 0-.28 1.88-4.7 3.5 0 0 .63-1.46-.7-2.01M328.48 189.84c-.42.4-.96.87-1.58 1.3l-.05.13c-.22.74-.53 1.63-1.1 2.12-1.62 1.38-4.7.47-4.73.46h-.18c-.03.01-3.12.92-4.74-.46-.57-.49-.88-1.38-1.1-2.11l-.05-.14a13 13 0 0 1-1.57-1.3q0 .14.04.29.09.48.25.98c.26.99.7 2.43 1.07 2.98.54.78 2.77 1.64 4.63 1.42q.66.38 1.56.39.9-.01 1.56-.4c1.86.23 4.08-.63 4.62-1.41.38-.55.81-2 1.07-2.98q.17-.5.25-.98zM328.66 187.38l-1.87.62-1.4-4.55-.02-.07q-.1-.25-.1-.58c0-.94 1.1-1.25 1.99-1.52.88-.26 3.12-1.4 3.23-2.81.26-3.62-1.28-5.2-2.87-5.16a5 5 0 0 0-2.34.57s1.05-2.23 4.22-2.39a7 7 0 0 1 2.28.12l-.67.66s2.68 1.25 3.39 2.22l-.97.47s1.57 2.96 1.68 3.27l-1.2-.06.4 2.85-1.56-.53c.62 2.71-3.88 4.16-4.19 6.89"/><path d="M323.34 187.82c-.64-.4-1.48-.16-2.4-.16h-.03c-.92 0-1.76-.23-2.4.16-.76.45-1.23 1.6-1.23 2.46q.02.95.68 1.62a.9.9 0 0 1 1.55.9q.65.2 1.4.2h.03q.75 0 1.4-.2a.9.9 0 0 1 1.55-.9q.68-.68.69-1.62c0-.87-.48-2-1.24-2.46"/><path d="m340.05 185.64-4.05-4.62.71 2.97c.05.2.78 3.43-.83 7.05 1.1-4.07-1.79-8.4-1.79-8.4s-.36 1.76-1.44 2.74a6 6 0 0 0-2.18 3.9c-.15 1.11-.9 2.9-.95 3.02l2.76-2.92.86 5.57-.03.03-1.47-2.76-.6.7-3.22 3.02s-1.45 1.14-2.08 1.23a3.2 3.2 0 0 1-2.08-.52s.1 1.23-.41 2.03c0 0-1.04-.9-1.37-1.28 0 0-.2 1.7-.95 3.1-.75-1.4-.96-3.1-.96-3.1-.33.39-1.36 1.28-1.36 1.28-.51-.8-.42-2.03-.42-2.03a3.2 3.2 0 0 1-2.08.52c-.63-.09-2.07-1.23-2.07-1.23l-3.22-3.03-.6-.69-1.48 2.76-.02-.03.86-5.57 2.76 2.92c-.05-.12-.8-1.9-.96-3.02a6 6 0 0 0-2.17-3.9c-1.09-.98-1.45-2.74-1.45-2.74s-2.88 4.33-1.79 8.4a12 12 0 0 1-.83-7.05l.72-2.97-4.06 4.62a33 33 0 0 1 2.02-7.04l.4-.96-2 .1 2.03-2.27-1.04-.36c.83-.97 1.77-1.8 2.7-2.5l-.61-.38c2.8-1.97 4.29-2.75 7.25-2.35 1.45.2 3.28 1.6 3.28 1.6s-.86-1.5-1.07-1.77l1.36.1s-2.15-1.56-3.42-1.7a8.6 8.6 0 0 0-5.15.85c.9-1.17 2.69-2 3.2-1.93 0 0-3.99-.87-4.17-3.1l-.01-.4v-.01l-.02-.37c-.08-1.83-.1-5.17.7-5.5h.04l.05-.01.06-.02c.25-.01.52.12.8.53.3.45.5.93.73 1.72 0 0-.62.65-1.05.76 0 0 .9.57 1.84.47 0 0-.87.46-1.41 1.6 0 0 3.69-.86 5.37 1.68-.04-.15-.7-2.42-1.46-3.43-.78-1.04-2.17-2.87-2.78-3.62-.24-.3-1.29-1.05-1.75-.98 0 0 .56-.58 1.54.06.98.65 1.77 1.85 2.05 2.17s3.56 3.91 3.6 5.5c0 0 .37-1.07.18-2.3 0 0 1.04 1.36 1.8 1.63.5.26 1.28.43 1.92.63l-.04.04c-1.84 1.74-5.34 1.36-5.86 1.12 0 0 .1.81.42 1.48.3.67.62.67 1.87 1.34s3.76 1.35 4.15 3.72c0 0-1.05-.44-2-.64 0 0 1.19 2.62 1.19 3.77 0 0-.63-.48-1.2-.58 0 0 1.31 1.87 1.46 2.83.15 1.05.08 3.6.01 4.2a6.6 6.6 0 0 1-1.58 2.84l1.24-.29s-2.05 2-1.62 3.82c0 0 .17-1.64 4.1-1.64 3.94 0 4.12 1.64 4.12 1.64.42-1.82-1.63-3.82-1.63-3.82l1.24.3a6.7 6.7 0 0 1-1.58-2.86c-.07-.59-.14-3.14.02-4.2.14-.95 1.46-2.82 1.46-2.82-.57.1-1.2.58-1.2.58 0-1.15 1.19-3.77 1.19-3.77-.95.2-2 .64-2 .64.39-2.37 2.9-3.05 4.14-3.72s1.57-.67 1.88-1.34.42-1.48.42-1.48c-.53.24-4.03.62-5.86-1.12l-.05-.04c.65-.2 1.42-.37 1.92-.63.76-.27 1.8-1.62 1.8-1.62-.18 1.22.18 2.28.18 2.28.04-1.58 3.34-5.17 3.6-5.49.28-.32 1.08-1.52 2.05-2.17.98-.64 1.55-.06 1.55-.06-.47-.07-1.52.69-1.75.98-.62.75-2 2.58-2.78 3.62-.76 1-1.43 3.28-1.47 3.43 1.69-2.54 5.38-1.67 5.38-1.67a3.7 3.7 0 0 0-1.41-1.61c.94.1 1.84-.47 1.84-.47-.43-.11-1.06-.76-1.06-.76.23-.8.44-1.27.74-1.72.28-.4.55-.54.79-.53l.06.02h.06l.03.02c.8.32.78 3.66.71 5.49l-.02.37v.01l-.01.4c-.19 2.23-4.18 3.1-4.18 3.1.52-.07 2.3.76 3.2 1.93a8.6 8.6 0 0 0-5.14-.86c-1.28.15-3.42 1.7-3.42 1.7l1.36-.09c-.21.27-1.07 1.77-1.07 1.77s1.83-1.4 3.27-1.6c2.97-.4 4.45.38 7.26 2.35l-.62.39c.93.69 1.88 1.52 2.7 2.5l-1.03.35 2.02 2.28-2-.11.4.96c.56 1.38 1.75 4.7 2.02 7.04m4.36-5.06-3.68-7.51-2.03-4.13a25 25 0 0 1-1.7-5c-.46-2.8-.27-4.11-.5-6.17s-2.22-3.4-3.78-2.9c-1.56.49-3.4 2.62-4.19 3.54-.71.85-2.88 2.93-2.95 3.15-.08-.93-.3-1.92-.3-2.1l-1.86 2.33s-.94-2.66-1.1-3.04c0 0-.97 1.71-1.4 3.05a20 20 0 0 0-1.39-3.05c-.15.38-1.1 3.04-1.1 3.04l-1.85-2.34c0 .19-.22 1.18-.3 2.1-.08-.2-2.24-2.3-2.96-3.14-.78-.92-2.62-3.05-4.19-3.55-1.56-.5-3.55.86-3.78 2.9-.22 2.07-.03 3.38-.5 6.18a25 25 0 0 1-1.7 5l-2.02 4.13-3.69 7.51 4.46-1.16c-.79 2.17-2.07 6.24-1.52 8.35l.36 1.37 2.7-3.07c-.02 2.67.73 7.04 5.03 10.69l.7.6 1.35-2.51 10.4 11.87 10.42-11.87 1.34 2.5.71-.6a13.7 13.7 0 0 0 5.03-10.68l2.7 3.07.35-1.37c.56-2.1-.73-6.18-1.51-8.35z"/><path d="M316.8 177.97c-.34-.13-.7-.1-.93-.07l-.22.05q-.45.07-.89-.15a1.2 1.2 0 0 1-.63-.73l-.02-.03a3 3 0 0 0-.59-1.07q.43-.08.87-.1l.18-.01q.17 0 .34.03.25.03.48.11a.73.73 0 0 0 .16 1.45.73.73 0 0 0 .7-.97c.25.2.34.33.43.5l.02.04c.17.34.1.95.1.95m.85-.87a2.6 2.6 0 0 0-1.66-1.83c-.9-.36-1.7-.24-2.14-.17-.33.06-.9.2-1.37.35a1 1 0 0 0-.28.15l-.03.04c-.05.06-.15.23-.2.58 0 0 .7.04 1.33 1.2l.11.18c.23.35.6.7 1.15.96a3 3 0 0 0 1.62.27c.27 0 .45.18.33.71-.05.22-.1.6-.05.97.06.32.16.54.46.85v.01s.48-1.67.68-2.3c.17-.53.22-1.28.05-1.97M325.18 177.02l.02-.03c.08-.18.18-.31.43-.5a1 1 0 0 0-.01.42.73.73 0 1 0 .87-.9 3 3 0 0 1 .82-.15l.18.01q.45.02.87.1c-.23.19-.47.74-.6 1.07l-.01.04v.02q-.17.46-.63.7-.44.22-.9.15l-.21-.05c-.23-.03-.6-.06-.93.07 0 0-.07-.6.1-.95m-.9 2.05c.2.63.68 2.3.68 2.3.3-.32.4-.54.46-.86.06-.37 0-.75-.05-.97-.12-.53.06-.71.33-.71h.13c.35.04.87.02 1.5-.27a2.7 2.7 0 0 0 1.14-.96v-.02l.11-.15c.63-1.17 1.32-1.21 1.32-1.21a1 1 0 0 0-.22-.62 1 1 0 0 0-.28-.15c-.47-.14-1.05-.3-1.37-.34a4 4 0 0 0-2.14.16q-1.35.56-1.66 1.84c-.17.68-.12 1.43.05 1.96"/></g></g></svg>