<svg width="2472" height="2472.1" version="1.1" viewBox="0 0 24.72 24.721" xmlns="http://www.w3.org/2000/svg">
 <defs>
  <clipPath id="a">
   <path transform="matrix(1,0,0,-1,0,907.89)" d="m220.87 664.02h200.46v141.78h-200.46z"/>
  </clipPath>
 </defs>
 <g transform="translate(-118.53 -116.15)">
  <g transform="matrix(.26458 0 0 .26458 45.925 82.762)" clip-path="url(#a)">
   <path transform="matrix(1 0 0 -1 365.18 172.92)" d="m0 0-44.038-44.04-44.04 44.039 44.038 44.039z" fill="#222c64" fill-rule="evenodd"/>
   <path transform="matrix(1 0 0 -1 321.14 126.2)" d="m0 0-2.676-2.675-4.824-4.824-36.54-36.542-2.676-2.675 46.716-46.716 2.675 2.676 41.363 41.365 2.675 2.676-39.271 39.272-4.767 4.767zm0-5.351 4.767-4.768 36.595-36.596-41.362-41.366-41.365 41.365 36.541 36.542z" fill="#00a94f"/>
   <path transform="matrix(1 0 0 -1 322.37 182.29)" d="m0 0" fill="#fff" fill-rule="evenodd"/>
   <path transform="matrix(1 0 0 -1 346.59 168.04)" d="m0 0c-0.146 0.084-0.296 0.153-0.442 0.204 0.045-0.055 0.766-0.944 1.088-1.351 0.047-0.058 0.067-0.098 0.071-0.121 0.021-0.096-0.209 0.017-0.318 0.121-1.381 1.298-3.047 1.855-3.098 1.871 0.053-0.049 0.892-0.85 1.374-1.376 0.307-0.336-0.771 6e-3 -1.931 0.746-0.114 0.073-0.937 0.518-0.937 0.518 0.05-0.19 0.339-0.855 0.556-1.183 0.273-0.411-1.295 0.463-1.749 0.757-0.08 0.05-0.126 0.085-0.126 0.093 0 0 0.014-0.079 0.049-0.214 0.023-0.091 0.057-0.208 0.1-0.342 0.041-0.122-0.171-4e-3 -0.42 0.167-0.322 0.22-0.707 0.528-0.707 0.528s0.572 0.365 1.516 0.65c0.82 0.251 1.92 0.438 3.169 0.276 3.322-0.439 4.325-3.429 4.643-4.24 0.12-0.312-1.301 2.026-2.838 2.896m4.464-3.433c0.084-0.046 0.169-0.095 0.253-0.14 0.675-0.373-1.041 2.383-1.912 3.19 0 0-2e-3 4e-3 -4e-3 4e-3 -0.01 0.01-0.021 0.02-0.031 0.028 4e-3 -3e-3 8e-3 -3e-3 0.012-3e-3v-2e-3c0.332-0.133 0.497-0.129 0.068 0.234-1.093 0.923-1.684 1.37-2.741 1.853-0.042 0.02-0.085 0.04-0.13 0.061-0.016 6e-3 -0.03 0.014-0.044 0.019-1.444 0.637-3.223 0.845-5.325 0.187-0.047-0.015-0.922-0.341-1.063-0.406-0.093 0.429-0.299 1.568 0.364 2.992 1.128 2.424 1.296 3.545 1.313 4.076 2e-3 2e-3 2e-3 2e-3 0 4e-3 2e-3 2e-3 2e-3 6e-3 2e-3 8e-3v0.01c0 0.026-2e-3 0.059-4e-3 0.098-0.021 0.363-0.163 1.178-0.997 1.447-0.762 0.241-1.113-0.15-1.217-0.328-0.104-0.177-0.812-0.628-1.329-0.923-0.347-0.2 0.298-0.223 0.605-0.212 0.169 4e-3 0.877 0.083 1.191-0.109 0.15-0.079 0.405-0.144 0.879-0.077-0.217-0.122-0.374-0.204-0.5-0.31-0.135-0.107-0.235-0.242-0.336-0.477-8e-3 -0.018-0.017-0.037-0.025-0.055-0.016-0.039-0.033-0.077-0.051-0.116-0.338-0.758-1.077-1.662-1.319-2.001-1.07-1.507-2.124-3.517-0.793-6.718 0.855-2.054 2.287-2.662 5.313-3.261 0.806-0.426 1.447-1.258 1.467-1.925 0.025-0.807-1.264-3.601-1.541-4.298-0.275-0.7-0.925-0.695-1.763-0.722s-1.091-0.742-1.091-0.742h2.624c0.684 0 0.715 0.363 1.419 2.028 0.638 1.517 1.054 2.324 1.571 3.664 0.109 0.278 0.036 0.633-0.142 1.017 0 2e-3 -2e-3 2e-3 -2e-3 4e-3 -0.19 0.336-0.441 0.525-0.632 0.627 0.095-0.012 0.191-0.024 0.285-0.034 0.133-0.016 0.263-0.029 0.393-0.041 0.182-0.014 0.359-0.027 0.535-0.037h2e-3c0.503-0.236 0.911-0.589 1.076-0.97 0.318-0.74 0.146-4.044 0.144-4.794 0-0.752-0.525-0.695-1.363-0.722s-1.091-0.742-1.091-0.742h2.623c0.847 0 0.686 0.618 0.728 2.423 0.035 1.446 0.109 2.496 0.117 3.701 2e-3 1e-3 2e-3 1e-3 0 4e-3 -0.019 0.419-0.324 0.856-0.736 1.06h-2e-3c-6e-3 4e-3 -0.014 8e-3 -0.021 0.01 0.032-2e-3 0.066-6e-3 0.098-0.01h7e-3c0.187-0.019 0.351-0.043 0.501-0.074 0.099-0.018 0.193-0.041 0.281-0.063 0.475-0.123 0.821-0.296 1.386-0.481 0.282-0.092 0.153 0.157 0.047 0.318 0.306-0.118 0.578-0.288 0.807-0.53 1.205-1.262 0.474 1.023 0.094 2.256" fill="#fff"/>
   <path transform="matrix(1 0 0 -1 335.53 165.24)" d="m0 0c-2.782 1.466-7.37 1.48-7.326 4.599 0.01 0.682-0.302 1.029-0.749 1.029-0.235 0-0.506-0.095-0.787-0.288-0.648-0.442-1.622-1.272-2.534-2.35-0.194-0.23-0.396-0.487-0.599-0.766 0.404-0.604 0.6-1.259 0.6-1.86 0-2.027-1.704-3.08-1.704-6.104h0.314c0 2.209 1.357 5.261 3.715 5.264 1.678 2e-3 2.837-1.6 2.491-3.19-0.133-0.606-0.507-1.168-1.016-1.512 1e-3 -3e-3 3e-3 -8e-3 4e-3 -0.01l0.07-0.153c0.056-0.122 0.111-0.243 0.167-0.362 0.393-0.844 0.79-1.408 1.239-1.852 1.563 1.253 1.353 3.313 3.55 4.84 1.084 0.754 1.949 1.103 2.673 1.332 0.8 0.253 0.796 0.906-0.108 1.383m-9.794-7.793c-0.887-0.201-1.775 6e-3 -1.895 1.03-1e-3 6e-3 -2e-3 0.015-3e-3 0.026h-1.09c0.036-0.798 0.646-2.389 1.637-2.389 0.728 0 1.293 0.637 1.351 1.333m5.415-1.86c1e-3 -0.164-0.234-0.287-0.432-0.372-0.439-0.187-1.579-0.635-3.078-0.83-0.219-0.029-0.447-0.052-0.681-0.069-8e-3 0-0.017-1e-3 -0.025-1e-3 -0.232-0.016-0.469-0.025-0.714-0.025-0.478 0-0.977 0.033-1.49 0.11-0.771 0.116-1.425 0.413-1.962 0.82 0.229 0.277 0.419 0.566 0.551 0.856-0.539 0.746-0.81 1.67-0.888 2.427h-2.376c-0.077-0.757-0.348-1.681-0.887-2.427 0.373-0.813 1.19-1.628 2.076-2.14 0.392 0.227 0.768 0.516 1.101 0.836l0.049-0.038c0.659-0.5 1.413-0.816 2.244-0.941 0.37-0.055 0.748-0.084 1.13-0.1 0.032-1.753-0.363-3.442-1.069-4.884-0.471-0.962-1.202-1.554-2.064-1.554-0.374 0-0.771 0.111-1.183 0.352-1.378 0.803-2.118 2.395-4.481 3.561-1.423 0.703-2.69 0.732-3.514 0.732h-0.209c-0.479 0-0.764 0.012-0.778 0.208-0.021 0.278 0.495 0.497 1.053 0.887 0.656 0.461 1.61 1.354 2.422 2.272 0.391 0.147 0.933 0.369 1.54 0.689l-4e-3 8e-3c0.097 0.043 0.215 0.103 0.363 0.18 0.084-0.018 0.169-0.03 0.258-0.03 0.992 0 1.603 1.591 1.639 2.389h-1.091c-1e-3 -0.011-1e-3 -0.02-2e-3 -0.026-0.12-1.024-1.009-1.231-1.895-1.03 0.029-0.358 0.194-0.7 0.446-0.948-0.907-0.479-1.686-0.737-1.951-0.829-0.892-0.309-1.592-0.458-2.134-0.458-0.473 0-0.825 0.113-1.077 0.334-0.528 0.459-0.285 1.193-0.111 2.107 0.172 0.897 0.132 1.692-0.22 2.43-0.908 1.905-3.614 2.359-5.544 3.779-0.941 0.691-1.435 1.454-1.304 2.322 0.098 0.644 0.624 1.353 1.724 1.755 1.057 0.386 2.441 0.593 4.136 0.593 0.643 0 1.33-0.03 2.061-0.091 0.263-0.021 0.515-0.05 0.765-0.08 0.226-0.027 0.445-0.059 0.662-0.093 0.052-8e-3 0.106-0.015 0.159-0.024 0.191-0.031 0.378-0.067 0.561-0.104 0.073-0.014 0.146-0.028 0.217-0.044 0.166-0.036 0.327-0.074 0.486-0.114 0.085-0.021 0.169-0.043 0.251-0.066 0.142-0.038 0.282-0.079 0.42-0.121 0.093-0.03 0.184-0.06 0.275-0.091 0.121-0.041 0.24-0.082 0.356-0.125 0.103-0.039 0.202-0.081 0.3-0.122 0.099-0.04 0.198-0.081 0.293-0.124 0.116-0.053 0.227-0.11 0.338-0.166 0.07-0.036 0.144-0.07 0.212-0.107 0.175-0.096 0.344-0.196 0.503-0.3l5e-3 -2e-3c-0.029-0.072-0.051-0.143-0.074-0.214-0.102-0.318-0.155-0.636-0.155-0.94 0-2.027 1.703-3.08 1.703-6.104h-0.312c0 2.209-1.358 5.261-3.715 5.264-1.679 2e-3 -2.838-1.6-2.491-3.19 0.232-1.063 1.202-1.997 2.355-1.837-0.195 0.737 0.144 1.567 0.952 1.684 0.935 0.135 1.503-0.823 1.678-1.921h-0.015c-0.191 0-0.344-0.154-0.344-0.344s0.153-0.344 0.344-0.344h5.472c0.19 0 0.344 0.154 0.344 0.344s-0.154 0.344-0.344 0.344h-0.016c0.174 1.098 0.743 2.056 1.677 1.921 0.809-0.117 1.149-0.947 0.953-1.684 0.276-0.039 0.539-0.014 0.787 0.06 0.08-0.176 0.159-0.35 0.237-0.519 0.889-1.902 1.828-2.527 3.063-3.263 0.306-0.181 0.469-0.3 0.469-0.428m-8.62 12.928c-0.146 0.109-0.861 0.646-1.286 1.104-0.425-0.458-1.141-0.995-1.286-1.104-0.477-0.357-0.836-0.774-1.098-1.21-1.078 0.693-2.453 1.193-4.102 1.494 5e-3 0.474 0.108 0.881 0.339 1.165 0.312 0.38 0.85 0.451 1.448 0.451 0.348 0 0.716-0.024 1.071-0.024 0.461 0 0.899 0.04 1.245 0.223 0.774 0.41 1.276 1.321 2.144 3.436 0.85 2.072 1.551 3.753 2.966 3.765h0.012c1.293 0 1.984-1.864 2.499-3.771 0.156-0.579 0.398-1.528 0.568-2.621-0.243-0.063-0.489-0.172-0.73-0.336-0.853-0.583-1.845-1.503-2.655-2.461-0.176-0.208-0.352-0.433-0.524-0.664-0.179 0.195-0.382 0.382-0.611 0.553" fill="#fff"/>
   <path transform="matrix(1 0 0 -1 304.88 168.89)" d="m0 0c-0.522 0.554-1.125 0.94-1.315 1.37-2e-3 0-4e-3 3e-3 -4e-3 5e-3 -2e-3 4e-3 -2e-3 5e-3 -5e-3 0.01-0.108 0.216-0.192 0.402-0.131 0.665 0.013 0.043 0.026 0.086 0.037 0.126 0 2e-3 0 2e-3 2e-3 4e-3v2e-3c0.417 1.492-0.22 2.093-0.52 3.232-0.042 0.16-0.075 0.304-0.096 0.431v4e-3c-0.05 0.166-0.133 0.304-0.392 0.464-0.427 0.265-0.427 1.062-0.427 1.062s0.226-0.641 0.872-0.652h0.949c0.594 0 1.061 0.29 1.059 0.626-2e-3 0.338-0.096 0.522-0.675 0.949-0.404 0.299-0.416 0.527-0.385 0.638 0.013 0.049-0.015 0.099-0.06 0.122-0.275 0.147-0.479 0.34-0.611 0.497-9e-3 9e-3 -0.019 0.017-0.029 0.025 0.057 0.127 0.087 0.212 0.087 0.212 0.09 0.412 0.153 1.022-0.147 1.34 0 0-0.692-0.735-1.002-1.356-0.226 0.251-0.858 0.868-1.787 1.048 0 0 0.184-1.492 0.607-2.062 0.022-0.029 0.045-0.061 0.072-0.095-0.187-0.417-0.289-1.041-0.289-1.868 0-3.752-2.697-4.735-4.186-7.283-1.482-2.535-0.215-5.85-1.773-7.982-0.888-1.215-2.784-1.765-4.236-1.765-0.457 0-1.309-9e-3 -2.356-9e-3 -1.068 0-0.823-0.474-0.47-0.799 0.202-0.185 3.232-0.174 3.676-0.147 0 0 3.962-0.205 5.27 1.846 0.766 1.199 1.557 2.428 2.529 2.72l5e-3 -5e-3c0.303-0.251 0.473-0.628 0.569-0.984 0.099-0.438-0.213-1.21-0.379-2.191-0.085-0.497-0.327-1.388 1e-3 -1.388l6.122-4e-3c-0.111 0.818-1.224 0.798-1.649 0.784-0.844-0.029-3.371-0.227-3.371-0.227s0.946 2.678 1.72 4.206c1.072 2.116 0.146 2.844-0.027 4.009-0.14 0.929-0.229 1.873 0.141 2.415 3e-3 7e-3 7e-3 0.015 0.012 0.022 0.082 0.122 0.022 0.221-0.04 0.298l-0.022 0.026-0.034 0.044v2e-3c-0.352 0.477-0.173 0.951-0.173 0.951 0.018-0.478 0.419-0.757 0.576-0.883 0.547-0.438 1.19-0.558 1.654-0.89 0.453-0.306 0.363-1.05 0.363-1.05 0.793 0.03 0.814 0.904 0.268 1.485" fill="#fff"/>
   <path transform="matrix(1 0 0 -1 320.46 191.82)" d="m0 0c-0.088-0.576-0.626-0.971-1.201-0.883-0.576 0.087-0.972 0.626-0.884 1.201 0.088 0.577 0.627 0.972 1.202 0.884 0.576-0.088 0.971-0.626 0.883-1.202" fill="#fff"/>
   <path transform="matrix(1 0 0 -1 319.97 190.18)" d="m0 0c-0.027-0.176-0.191-0.297-0.367-0.27s-0.297 0.191-0.27 0.367c0.027 0.175 0.192 0.297 0.367 0.27 0.176-0.027 0.296-0.191 0.27-0.367" fill="#fff"/>
   <path transform="matrix(1 0 0 -1 319.5 193.23)" d="m0 0c-0.026-0.176-0.191-0.296-0.367-0.27-0.176 0.027-0.297 0.192-0.27 0.368 0.028 0.175 0.192 0.297 0.367 0.269 0.176-0.026 0.296-0.191 0.27-0.367" fill="#fff"/>
   <path transform="matrix(1 0 0 -1 318.77 190.22)" d="m0 0c0.105-0.143 0.075-0.345-0.068-0.45-0.144-0.106-0.345-0.075-0.451 0.069-0.105 0.143-0.075 0.345 0.069 0.45 0.143 0.105 0.346 0.075 0.45-0.069" fill="#fff"/>
   <path transform="matrix(1 0 0 -1 320.59 192.7)" d="m0 0c0.105-0.144 0.074-0.345-0.068-0.45-0.144-0.106-0.345-0.075-0.451 0.069-0.105 0.143-0.075 0.345 0.069 0.45 0.143 0.105 0.345 0.075 0.45-0.069" fill="#fff"/>
   <path transform="matrix(1 0 0 -1 317.94 191.1)" d="m0 0c0.176-0.026 0.297-0.191 0.27-0.367-0.028-0.176-0.192-0.296-0.368-0.27-0.175 0.028-0.297 0.192-0.269 0.367 0.026 0.176 0.19 0.297 0.367 0.27" fill="#fff"/>
   <path transform="matrix(1 0 0 -1 320.99 191.57)" d="m0 0c0.176-0.026 0.297-0.191 0.27-0.367-0.027-0.175-0.192-0.296-0.368-0.27-0.175 0.028-0.297 0.192-0.269 0.367 0.027 0.176 0.191 0.297 0.367 0.27" fill="#fff"/>
   <path transform="matrix(1 0 0 -1 317.99 192.31)" d="m0 0c0.144 0.106 0.345 0.075 0.45-0.068 0.106-0.144 0.074-0.346-0.068-0.451-0.144-0.106-0.346-0.074-0.451 0.069-0.106 0.143-0.075 0.345 0.069 0.45" fill="#fff"/>
   <path transform="matrix(1 0 0 -1 320.47 190.48)" d="m0 0c0.144 0.105 0.346 0.075 0.45-0.069 0.106-0.143 0.075-0.345-0.068-0.45-0.144-0.106-0.345-0.074-0.45 0.068-0.106 0.144-0.075 0.346 0.068 0.451" fill="#fff"/>
   <path transform="matrix(1 0 0 -1 324.14 192.17)" d="m0 0c-0.233-0.422-0.766-0.575-1.187-0.341-0.422 0.234-0.575 0.766-0.341 1.188s0.765 0.575 1.188 0.34c0.422-0.233 0.574-0.765 0.34-1.187" fill="#fff"/>
   <path transform="matrix(1 0 0 -1 324.24 190.75)" d="m0 0c-0.071-0.129-0.233-0.175-0.362-0.104-0.129 0.072-0.176 0.234-0.105 0.363s0.235 0.176 0.363 0.104c0.129-0.072 0.176-0.234 0.104-0.363" fill="#fff"/>
   <path transform="matrix(1 0 0 -1 323 192.99)" d="m0 0c-0.071-0.129-0.234-0.176-0.363-0.104-0.129 0.071-0.175 0.234-0.104 0.363s0.234 0.175 0.363 0.103c0.129-0.071 0.175-0.233 0.104-0.362" fill="#fff"/>
   <path transform="matrix(1 0 0 -1 323.29 190.44)" d="m0 0c0.041-0.142-0.041-0.29-0.183-0.331-0.141-0.04-0.29 0.042-0.33 0.184-0.041 0.142 0.041 0.289 0.183 0.33 0.142 0.04 0.289-0.042 0.33-0.183" fill="#fff"/>
   <path transform="matrix(1 0 0 -1 323.99 192.9)" d="m0 0c0.04-0.142-0.042-0.289-0.184-0.33-0.141-0.041-0.289 0.041-0.33 0.183-0.04 0.142 0.041 0.29 0.184 0.33 0.142 0.041 0.289-0.041 0.33-0.183" fill="#fff"/>
   <path transform="matrix(1 0 0 -1 322.4 190.89)" d="m0 0c0.13-0.071 0.176-0.234 0.104-0.363-0.071-0.129-0.233-0.175-0.362-0.103-0.129 0.071-0.176 0.233-0.104 0.362 0.071 0.129 0.233 0.176 0.362 0.104" fill="#fff"/>
   <path transform="matrix(1 0 0 -1 324.63 192.13)" d="m0 0c0.129-0.072 0.176-0.234 0.104-0.363s-0.234-0.176-0.363-0.104c-0.129 0.071-0.176 0.234-0.104 0.363 0.071 0.129 0.234 0.175 0.363 0.104" fill="#fff"/>
   <path transform="matrix(1 0 0 -1 322.08 191.84)" d="m0 0c0.143 0.041 0.29-0.042 0.33-0.183 0.041-0.142-0.041-0.289-0.183-0.33-0.141-0.041-0.289 0.041-0.33 0.183-0.04 0.142 0.042 0.289 0.183 0.33" fill="#fff"/>
   <path transform="matrix(1 0 0 -1 324.54 191.13)" d="m0 0c0.142 0.04 0.29-0.042 0.33-0.184 0.041-0.141-0.041-0.289-0.183-0.33-0.141-0.04-0.29 0.042-0.33 0.184-0.041 0.142 0.041 0.289 0.183 0.33" fill="#fff"/>
   <path transform="matrix(1 0 0 -1 322.99 187.74)" d="m0 0c-0.084-0.732-0.746-1.258-1.479-1.174-0.732 0.085-1.257 0.746-1.173 1.479 0.084 0.732 0.746 1.257 1.478 1.174 0.733-0.084 1.258-0.747 1.174-1.479" fill="#fff"/>
   <path transform="matrix(1 0 0 -1 322.29 185.68)" d="m0 0c-0.025-0.224-0.228-0.384-0.451-0.359-0.224 0.026-0.385 0.229-0.359 0.452 0.026 0.224 0.228 0.384 0.452 0.359 0.223-0.026 0.384-0.228 0.358-0.452" fill="#fff"/>
   <path transform="matrix(1 0 0 -1 321.85 189.56)" d="m0 0c-0.026-0.224-0.229-0.384-0.452-0.358-0.224 0.025-0.384 0.227-0.359 0.451 0.026 0.224 0.228 0.384 0.452 0.359 0.223-0.026 0.384-0.228 0.359-0.452" fill="#fff"/>
   <path transform="matrix(1 0 0 -1 320.77 185.79)" d="m0 0c0.14-0.176 0.11-0.432-0.065-0.572-0.177-0.14-0.434-0.111-0.574 0.065-0.139 0.177-0.11 0.433 0.066 0.573 0.177 0.14 0.433 0.111 0.573-0.066" fill="#fff"/>
   <path transform="matrix(1 0 0 -1 323.2 188.85)" d="m0 0c0.141-0.176 0.11-0.433-0.065-0.573-0.177-0.14-0.433-0.11-0.574 0.066-0.139 0.176-0.11 0.433 0.066 0.573 0.177 0.14 0.433 0.11 0.573-0.066" fill="#fff"/>
   <path transform="matrix(1 0 0 -1 319.77 186.94)" d="m0 0c0.224-0.026 0.384-0.228 0.358-0.452-0.025-0.223-0.227-0.383-0.451-0.358-0.223 0.025-0.385 0.227-0.358 0.451 0.025 0.224 0.227 0.385 0.451 0.359" fill="#fff"/>
   <path transform="matrix(1 0 0 -1 323.65 187.39)" d="m0 0c0.224-0.026 0.384-0.228 0.358-0.452-0.025-0.223-0.228-0.384-0.452-0.358-0.223 0.025-0.384 0.228-0.358 0.451 0.026 0.224 0.227 0.384 0.452 0.359" fill="#fff"/>
   <path transform="matrix(1 0 0 -1 319.88 188.47)" d="m0 0c0.177 0.141 0.433 0.11 0.573-0.065 0.14-0.177 0.111-0.434-0.066-0.574-0.176-0.139-0.433-0.11-0.572 0.066-0.141 0.177-0.112 0.433 0.065 0.573" fill="#fff"/>
   <path transform="matrix(1 0 0 -1 322.94 186.04)" d="m0 0c0.176 0.14 0.433 0.11 0.572-0.066 0.141-0.176 0.112-0.433-0.065-0.573-0.176-0.14-0.433-0.111-0.572 0.066-0.141 0.177-0.112 0.433 0.065 0.573" fill="#fff"/>
   <path transform="matrix(1 0 0 -1 330.16 186.76)" d="m0 0s-0.794 1.265 0.677 3.146c0 0 1.028-1.581-0.677-3.146" fill="#fff"/>
   <path transform="matrix(1 0 0 -1 330.16 186.76)" d="m0 0s0.563-1.383 2.95-1.287c0 0-0.683 1.759-2.95 1.287" fill="#fff"/>
   <path transform="matrix(1 0 0 -1 332.17 185.43)" d="m0 0s-1.144 0.816-0.538 2.979c0 0 1.461-1.007 0.538-2.979" fill="#fff"/>
   <path transform="matrix(1 0 0 -1 332.17 185.43)" d="m0 0s0.985-1.001 3.025-0.062c0 0-1.223 1.284-3.025 0.062" fill="#fff"/>
   <path transform="matrix(1 0 0 -1 333.49 183.85)" d="m0 0s-1.023 0.587-0.697 2.445c0 0 1.304-0.72 0.697-2.445" fill="#fff"/>
   <path transform="matrix(1 0 0 -1 333.49 183.85)" d="m0 0s0.907-0.755 2.534 0.199c0 0-1.129 0.972-2.534-0.199" fill="#fff"/>
   <path transform="matrix(1 0 0 -1 327.7 187.54)" d="m0 0s-0.626 1.498 1.287 3.252c0 0 0.821-1.878-1.287-3.252" fill="#fff"/>
   <path transform="matrix(1 0 0 -1 327.7 187.54)" d="m0 0s0.358-1.583 2.934-1.905c0 0-0.419 2.006-2.934 1.905" fill="#fff"/>
   <path transform="matrix(1 0 0 -1 325.32 188.59)" d="m0 0s-0.844 1.55 1.028 3.66c0 0 1.098-1.939-1.028-3.66" fill="#fff"/>
   <path transform="matrix(1 0 0 -1 325.32 188.59)" d="m0 0s0.563-1.672 3.384-1.733c0 0-0.677 2.123-3.384 1.733" fill="#fff"/>
   <path transform="matrix(1 0 0 -1 334.5 182.22)" d="m0 0c-0.129-0.542-0.417-1.008-0.713-1.462-0.297-0.454-0.612-0.897-0.966-1.314-0.355-0.416-0.729-0.821-1.164-1.169-0.431-0.347-0.921-0.652-1.463-0.838l-3.051-1.021c-0.481-0.172-0.95-0.406-1.397-0.674-0.445-0.267-0.885-0.569-1.267-0.896l-5e-3 -5e-3c-0.129-0.111-0.324-0.096-0.434 0.033-0.111 0.129-0.097 0.323 0.032 0.433 0.434 0.374 0.888 0.677 1.367 0.956 0.479 0.276 0.978 0.524 1.514 0.702l3.09 0.945c0.964 0.298 1.792 0.999 2.499 1.777 0.357 0.389 0.684 0.81 0.992 1.243 0.308 0.436 0.588 0.884 0.963 1.292h2e-3l1e-3 -1e-3" fill="#fff"/>
   <path transform="matrix(1 0 0 -1 332.6 186.3)" d="m0 0c1e-3 -0.144-0.116-0.26-0.26-0.261-0.143 0-0.261 0.117-0.261 0.261s0.117 0.26 0.26 0.261c0.145 0 0.261-0.117 0.261-0.261" fill="#fff"/>
   <path transform="matrix(1 0 0 -1 334.37 184.54)" d="m0 0c0-0.144-0.117-0.26-0.261-0.261-0.143 0-0.26 0.117-0.26 0.261s0.116 0.26 0.259 0.26c0.145 0 0.261-0.116 0.262-0.26" fill="#fff"/>
   <path transform="matrix(1 0 0 -1 335.14 182.54)" d="m0 0c0-0.144-0.116-0.261-0.26-0.261s-0.261 0.116-0.261 0.261c0 0.143 0.117 0.26 0.26 0.26 0.144 0 0.261-0.116 0.261-0.26" fill="#fff"/>
   <path transform="matrix(1 0 0 -1 335.75 181.21)" d="m0 0c0-0.144-0.116-0.261-0.261-0.261-0.143 0-0.26 0.116-0.26 0.261 0 0.143 0.117 0.26 0.26 0.26 0.144 0 0.261-0.116 0.261-0.26" fill="#fff"/>
   <path transform="matrix(1 0 0 -1 328.77 186.04)" d="m0 0c0-0.144-0.116-0.26-0.261-0.26-0.143-1e-3 -0.26 0.116-0.26 0.26s0.117 0.26 0.26 0.261c0.144 0 0.26-0.116 0.261-0.261" fill="#fff"/>
   <path transform="matrix(1 0 0 -1 327.35 185.48)" d="m0 0c0.102-0.102 0.103-0.267 1e-3 -0.368-0.102-0.102-0.267-0.103-0.368-1e-3 -0.103 0.101-0.103 0.266-1e-3 0.368 0.101 0.102 0.266 0.103 0.368 1e-3" fill="#fff"/>
   <path transform="matrix(1 0 0 -1 328.7 188.99)" d="m0 0c0.103-0.102 0.103-0.266 1e-3 -0.368s-0.267-0.102-0.368-1e-3c-0.103 0.102-0.103 0.267-1e-3 0.369 0.101 0.102 0.266 0.102 0.368 0" fill="#fff"/>
   <path transform="matrix(1 0 0 -1 330.06 187.39)" d="m0 0c0.102-0.102 0.103-0.266 1e-3 -0.368s-0.267-0.102-0.368 0c-0.103 0.101-0.103 0.266-1e-3 0.368 0.101 0.102 0.266 0.102 0.368 0" fill="#fff"/>
   <path transform="matrix(1 0 0 -1 327.57 188.23)" d="m0 0c0.144 0 0.261-0.116 0.261-0.26s-0.116-0.261-0.261-0.261c-0.144 0-0.26 0.117-0.261 0.26 0 0.144 0.117 0.261 0.261 0.261" fill="#fff"/>
   <path transform="matrix(1 0 0 -1 331.46 184.93)" d="m0 0c0.145 0 0.261-0.116 0.261-0.26 1e-3 -0.144-0.116-0.261-0.26-0.261s-0.261 0.117-0.261 0.26c0 0.144 0.116 0.261 0.26 0.261" fill="#fff"/>
   <path transform="matrix(1 0 0 -1 332.8 183.52)" d="m0 0c0.144 0 0.261-0.116 0.261-0.26s-0.116-0.261-0.26-0.261c-0.145 0-0.261 0.117-0.261 0.26 0 0.144 0.116 0.261 0.26 0.261" fill="#fff"/>
   <path transform="matrix(1 0 0 -1 334.05 181.73)" d="m0 0c0.145 0 0.261-0.116 0.261-0.26s-0.116-0.261-0.26-0.261-0.261 0.116-0.261 0.26 0.116 0.261 0.26 0.261" fill="#fff"/>
   <path transform="matrix(1 0 0 -1 334.88 180.54)" d="m0 0c0.145 0 0.261-0.117 0.261-0.26 0-0.144-0.116-0.261-0.26-0.261s-0.261 0.116-0.261 0.26 0.116 0.261 0.26 0.261" fill="#fff"/>
   <path transform="matrix(1 0 0 -1 335.57 180.15)" d="m0 0c0.144 0 0.261-0.116 0.261-0.26s-0.116-0.261-0.26-0.261c-0.145 0-0.261 0.117-0.261 0.26 0 0.144 0.116 0.261 0.26 0.261" fill="#fff"/>
   <path transform="matrix(1 0 0 -1 334.75 181.47)" d="m0 0c0.144 0 0.261-0.116 0.261-0.26s-0.116-0.261-0.26-0.261c-0.145 0-0.261 0.116-0.261 0.26s0.116 0.261 0.26 0.261" fill="#fff"/>
   <path transform="matrix(1 0 0 -1 334.23 180.89)" d="m0 0c0.144 0 0.261-0.117 0.261-0.26 0-0.144-0.116-0.261-0.26-0.261-0.145 0-0.261 0.116-0.261 0.26s0.116 0.261 0.26 0.261" fill="#fff"/>
   <path transform="matrix(1 0 0 -1 335.45 181.73)" d="m0 0c0.144 0 0.261-0.117 0.261-0.26 0-0.144-0.116-0.261-0.261-0.261-0.144 0-0.26 0.116-0.261 0.26 0 0.144 0.117 0.261 0.261 0.261" fill="#fff"/>
   <path transform="matrix(1 0 0 -1 326.82 186.58)" d="m0 0c0.102 0.102 0.267 0.102 0.368 0 0.102-0.101 0.103-0.266 1e-3 -0.368-0.101-0.102-0.266-0.102-0.369 0-0.102 0.101-0.102 0.266 0 0.368" fill="#fff"/>
   <path transform="matrix(1 0 0 -1 329.17 186.15)" d="m0 0c0.102 0.102 0.267 0.102 0.368 0 0.102-0.101 0.103-0.266 1e-3 -0.368-0.101-0.102-0.266-0.102-0.369 0-0.102 0.101-0.102 0.266 0 0.368" fill="#fff"/>
   <path transform="matrix(1 0 0 -1 329.38 185.01)" d="m0 0c0.102 0.102 0.267 0.102 0.368 0 0.102-0.101 0.102-0.266 1e-3 -0.368s-0.266-0.102-0.369-1e-3c-0.102 0.102-0.102 0.267 0 0.369" fill="#fff"/>
   <path transform="matrix(1 0 0 -1 330.62 188.09)" d="m0 0c0.102 0.102 0.266 0.102 0.368 0s0.102-0.266 0-0.368c-0.101-0.102-0.266-0.102-0.368 0-0.102 0.101-0.102 0.266 0 0.368" fill="#fff"/>
   <path transform="matrix(1 0 0 -1 312.58 186.76)" d="m0 0s0.794 1.265-0.677 3.146c0 0-1.028-1.581 0.677-3.146" fill="#fff"/>
   <path transform="matrix(1 0 0 -1 312.58 186.76)" d="m0 0s-0.564-1.383-2.95-1.287c0 0 0.683 1.759 2.95 1.287" fill="#fff"/>
   <path transform="matrix(1 0 0 -1 310.57 185.43)" d="m0 0s1.144 0.816 0.537 2.979c0 0-1.46-1.007-0.537-2.979" fill="#fff"/>
   <path transform="matrix(1 0 0 -1 310.57 185.43)" d="m0 0s-0.985-1.001-3.026-0.062c0 0 1.223 1.284 3.026 0.062" fill="#fff"/>
   <path transform="matrix(1 0 0 -1 309.25 183.85)" d="m0 0s1.023 0.587 0.696 2.445c0 0-1.304-0.72-0.696-2.445" fill="#fff"/>
   <path transform="matrix(1 0 0 -1 309.25 183.85)" d="m0 0s-0.907-0.755-2.535 0.199c0 0 1.13 0.972 2.535-0.199" fill="#fff"/>
   <path transform="matrix(1 0 0 -1 315.05 187.54)" d="m0 0s0.626 1.498-1.286 3.252c0 0-0.821-1.878 1.286-3.252" fill="#fff"/>
   <path transform="matrix(1 0 0 -1 315.05 187.54)" d="m0 0s-0.357-1.583-2.933-1.905c0 0 0.419 2.006 2.933 1.905" fill="#fff"/>
   <path transform="matrix(1 0 0 -1 317.43 188.59)" d="m0 0s0.844 1.55-1.029 3.66c0 0-1.097-1.939 1.029-3.66" fill="#fff"/>
   <path transform="matrix(1 0 0 -1 317.43 188.59)" d="m0 0s-0.563-1.672-3.384-1.733c0 0 0.677 2.123 3.384 1.733" fill="#fff"/>
   <path transform="matrix(1 0 0 -1 308.25 182.22)" d="m0 0c0.374-0.407 0.655-0.855 0.962-1.292 0.309-0.432 0.635-0.854 0.993-1.243 0.707-0.777 1.535-1.478 2.498-1.776l3.091-0.945c0.535-0.179 1.034-0.427 1.513-0.702 0.479-0.28 0.934-0.583 1.367-0.957 0.129-0.111 0.143-0.305 0.032-0.433-0.11-0.129-0.305-0.143-0.434-0.032l-4e-3 5e-3c-0.382 0.327-0.823 0.628-1.267 0.896-0.448 0.267-0.916 0.501-1.397 0.673l-3.051 1.021c-0.543 0.187-1.032 0.492-1.464 0.838-0.435 0.349-0.809 0.754-1.163 1.169-0.354 0.417-0.669 0.861-0.967 1.315-0.295 0.453-0.583 0.919-0.712 1.462 0 0 0 1e-3 1e-3 1e-3 1e-3 1e-3 1e-3 0 2e-3 0" fill="#fff"/>
   <path transform="matrix(1 0 0 -1 310.14 186.3)" d="m0 0c0-0.144 0.116-0.26 0.261-0.261 0.143 0 0.26 0.117 0.26 0.261s-0.116 0.26-0.26 0.261c-0.144 0-0.261-0.117-0.261-0.261" fill="#fff"/>
   <path transform="matrix(1 0 0 -1 308.38 184.54)" d="m0 0c0-0.144 0.116-0.26 0.261-0.261 0.143 0 0.26 0.117 0.26 0.261s-0.116 0.26-0.26 0.26-0.261-0.116-0.261-0.26" fill="#fff"/>
   <path transform="matrix(1 0 0 -1 307.6 182.54)" d="m0 0c0-0.144 0.116-0.261 0.261-0.261 0.143 0 0.26 0.116 0.26 0.261 0 0.143-0.116 0.26-0.26 0.26s-0.261-0.116-0.261-0.26" fill="#fff"/>
   <path transform="matrix(1 0 0 -1 306.99 181.21)" d="m0 0c0-0.144 0.116-0.261 0.26-0.261s0.261 0.116 0.261 0.261c0 0.143-0.117 0.26-0.26 0.26-0.144 0-0.261-0.116-0.261-0.26" fill="#fff"/>
   <path transform="matrix(1 0 0 -1 313.97 186.04)" d="m0 0c0-0.144 0.116-0.26 0.26-0.26 0.144-1e-3 0.261 0.116 0.261 0.26s-0.117 0.26-0.26 0.261c-0.144 0-0.261-0.116-0.261-0.261" fill="#fff"/>
   <path transform="matrix(1 0 0 -1 315.39 185.48)" d="m0 0c-0.102-0.102-0.102-0.267 0-0.368 0.102-0.102 0.267-0.103 0.368-1e-3 0.102 0.101 0.102 0.266 1e-3 0.368-0.102 0.102-0.266 0.103-0.369 1e-3" fill="#fff"/>
   <path transform="matrix(1 0 0 -1 314.05 188.99)" d="m0 0c-0.102-0.102-0.102-0.266 0-0.368s0.267-0.102 0.368-1e-3c0.102 0.102 0.102 0.267 0 0.369-0.101 0.102-0.265 0.102-0.368 0" fill="#fff"/>
   <path transform="matrix(1 0 0 -1 312.69 187.39)" d="m0 0c-0.102-0.102-0.102-0.266 0-0.368s0.267-0.102 0.368 0c0.102 0.101 0.103 0.266 1e-3 0.368s-0.266 0.102-0.369 0" fill="#fff"/>
   <path transform="matrix(1 0 0 -1 315.17 188.23)" d="m0 0c-0.144 0-0.261-0.116-0.261-0.26s0.116-0.261 0.26-0.261c0.145 0 0.261 0.117 0.261 0.26 0 0.144-0.116 0.261-0.26 0.261" fill="#fff"/>
   <path transform="matrix(1 0 0 -1 311.29 184.93)" d="m0 0c-0.144 0-0.261-0.116-0.261-0.26s0.116-0.261 0.261-0.261c0.144 0 0.26 0.117 0.261 0.26 0 0.144-0.116 0.261-0.261 0.261" fill="#fff"/>
   <path transform="matrix(1 0 0 -1 309.94 183.52)" d="m0 0c-0.145 0-0.261-0.116-0.261-0.26s0.116-0.261 0.26-0.261 0.261 0.117 0.261 0.26c0 0.144-0.116 0.261-0.26 0.261" fill="#fff"/>
   <path transform="matrix(1 0 0 -1 308.69 181.73)" d="m0 0c-0.144 0-0.26-0.116-0.261-0.26 0-0.144 0.116-0.261 0.261-0.261 0.144 0 0.261 0.116 0.261 0.26s-0.116 0.261-0.261 0.261" fill="#fff"/>
   <path transform="matrix(1 0 0 -1 307.86 180.54)" d="m0 0c-0.144 0-0.26-0.117-0.26-0.26-1e-3 -0.144 0.116-0.261 0.26-0.261s0.261 0.116 0.261 0.26-0.116 0.261-0.261 0.261" fill="#fff"/>
   <path transform="matrix(1 0 0 -1 307.18 180.15)" d="m0 0c-0.144 0-0.261-0.116-0.261-0.26s0.116-0.261 0.26-0.261 0.261 0.117 0.261 0.26c0 0.144-0.116 0.261-0.26 0.261" fill="#fff"/>
   <path transform="matrix(1 0 0 -1 307.99 181.47)" d="m0 0c-0.144 0-0.261-0.116-0.261-0.26s0.116-0.261 0.26-0.261 0.261 0.116 0.261 0.26-0.116 0.261-0.26 0.261" fill="#fff"/>
   <path transform="matrix(1 0 0 -1 308.51 180.89)" d="m0 0c-0.144 0-0.26-0.117-0.261-0.26 0-0.144 0.117-0.261 0.261-0.261s0.261 0.116 0.261 0.26-0.116 0.261-0.261 0.261" fill="#fff"/>
   <path transform="matrix(1 0 0 -1 307.29 181.73)" d="m0 0c-0.144 0-0.261-0.117-0.261-0.26 0-0.144 0.116-0.261 0.26-0.261 0.145 0 0.261 0.116 0.261 0.26s-0.116 0.261-0.26 0.261" fill="#fff"/>
   <path transform="matrix(1 0 0 -1 315.92 186.58)" d="m0 0c-0.102 0.102-0.266 0.102-0.368 0-0.102-0.101-0.102-0.266 0-0.368 0.101-0.102 0.266-0.102 0.368 0 0.102 0.101 0.102 0.266 0 0.368" fill="#fff"/>
   <path transform="matrix(1 0 0 -1 313.58 186.15)" d="m0 0c-0.102 0.102-0.267 0.102-0.368 0-0.102-0.101-0.102-0.266 0-0.368 0.101-0.102 0.266-0.102 0.368 0 0.102 0.101 0.102 0.266 0 0.368" fill="#fff"/>
   <path transform="matrix(1 0 0 -1 313.36 185.01)" d="m0 0c-0.102 0.102-0.267 0.102-0.368 0-0.103-0.101-0.103-0.266-1e-3 -0.368 0.101-0.102 0.266-0.102 0.368-1e-3 0.102 0.102 0.103 0.267 1e-3 0.369" fill="#fff"/>
   <path transform="matrix(1 0 0 -1 312.12 188.09)" d="m0 0c-0.102 0.102-0.267 0.102-0.368 0-0.102-0.102-0.102-0.266 0-0.368 0.101-0.102 0.265-0.102 0.368 0 0.102 0.101 0.102 0.266 0 0.368" fill="#fff"/>
  </g>
 </g>
</svg>
