<?xml version="1.0" encoding="UTF-8"?>
<svg version="1.1" viewBox="0 0 372.48 520.38" xmlns="http://www.w3.org/2000/svg">
 <g transform="translate(-50.415 -61.177)" fill="#9e1b32">
  <path transform="matrix(1.3333,0,0,-1.3333,298.81,345.5)" d="m0 0c-0.041 1.196-0.139 2.526-0.301 3.951-0.553 4.859-1.915 10.876-4.764 16.958-1.637 3.494-3.768 7.005-6.518 10.327-4.107 4.964-9.598 9.5-16.91 12.91-0.656 0.306-1.32 0.607-2.005 0.894-1.343 0.563-2.707 1.058-4.082 1.487-2.746 0.857-5.545 1.432-8.35 1.675-1.734 0.151-3.47 0.172-5.197 0.053-10.284-0.705-20.248-6.393-27.508-19.819-1.135-2.099-2.648-4.413-4.419-6.832-7.878-10.766-20.906-23.65-28.935-29.278-4.967-3.481-9.557-5.422-9.373-7.903 0.348-4.696 18.103 2.481 40.067-8.362 21.029-10.383 27.615-24.548 39.882-31.705 12.13-7.076 22.892-1.566 28.901 10.706 6.479 13.234 10.063 28.81 9.512 44.938"/>
  <path transform="matrix(1.3333,0,0,-1.3333,315.03,144.26)" d="m0 0c-1.444 11.997-4.169 22.655-5.811 28.747-4.59 17.028-10.769 33.665-22.349 33.566-12.59-0.109-18.839-15.071-26.403-33.517-7.718-18.819-12.193-26.928-19.085-30.581-9.527-5.049-27.018 2.137-33.497-5.789-2.93-3.585-3.568-9.362-2.632-15.965 0.693-4.884 2.247-10.22 4.376-15.462 2.007-4.94 4.522-9.797 7.308-14.107 6.43-9.949 14.694-17.575 24.879-21.973 2.366-1.023 4.837-1.87 7.412-2.531 0.197-0.051 0.394-0.099 0.593-0.148 3.685-0.899 7.581-1.426 11.694-1.536 0.555-0.016 1.111-0.026 1.673-0.026 0.543 0 1.095 0.013 1.654 0.038 3.279 0.144 6.824 0.724 10.463 1.775 0.272 0.078 0.542 0.151 0.815 0.234 0.336 0.103 0.673 0.22 1.01 0.332 1.598 0.528 3.208 1.138 4.818 1.857 0.641 0.286 1.282 0.589 1.922 0.906 10.363 5.139 20.445 14.409 26.513 28.986 1.977 4.751 3.535 10.056 4.528 15.977 1.598 9.524 1.254 19.784 0.119 29.217"/>
  <path transform="matrix(1.3333,0,0,-1.3333,414.66,210.41)" d="m0 0c-24.767 13.049-65.6 13.171-65.212 40.928 0.105 7.435-4.075 10.393-9.506 8.688-1.331-0.418-2.734-1.105-4.171-2.087-3.53-2.412-8.155-6.126-13.074-10.844-3.107-2.981-6.33-6.36-9.47-10.075-8.968-10.608-20.025-27.904-22.716-44.214-0.147-0.889-0.275-1.777-0.371-2.66-0.356-3.306-0.474-6.434-0.386-9.404 0.072-2.406 0.278-4.707 0.619-6.899 0.68-4.373 1.874-8.33 3.506-11.9 1.467-3.206 3.288-6.096 5.4-8.702 3.579-4.413 7.998-8 12.985-10.857 1.316-0.754 2.623-1.423 3.925-2.053 10.018-4.849 19.649-6.112 28.344-4.371 3.895 0.78 7.597 2.168 11.066 4.096 0.311 0.173 0.629 0.331 0.937 0.512 18.103 10.706 14.147 30.976 35.287 45.673 9.649 6.708 17.349 9.815 23.802 11.855 7.122 2.251 7.085 8.072-0.965 12.314"/>
  <path transform="matrix(1.3333,0,0,-1.3333,242.37,234.22)" d="m0 0c-3.362 17.454-15.316 30.879-36.723 38.853-5.546 2.065-11.727 3.764-18.554 5.075-5.569 1.068-11.565 1.88-18.004 2.416-23.68 1.972-42.175 0.269-55.164-4.475-9.783-3.573-14.476-9.886-15.34-15.613-1.165-7.732 3.23-14.517 11.604-20.674 17.184-12.636 41.261-16.679 49.348-33.634 3.132-6.567 3.492-13.646 1.963-21.63-1.558-8.134-3.709-14.669 0.978-18.758 4.824-4.209 13.722-4.048 28.579 1.102 1.99 0.691 7.195 2.421 13.589 5.477 6.162 2.944 13.425 7.122 19.991 12.791 0.323 0.299 0.655 0.594 1.004 0.882 4.119 3.697 7.915 8.002 10.931 12.978 3.982 6.57 6.595 14.313 6.783 23.381 7e-3 0.347 0.019 0.691 0.019 1.042 0 3.747-0.34 7.343-1.004 10.787"/>
  <path transform="matrix(1.3333,0,0,-1.3333,357.13,319.89)" d="m0 0c-5.968 3.551-11.155 6.815-15.916 11.756-3.309 3.433-6.412 7.682-9.426 13.399-0.646 1.228-1.289 2.515-1.929 3.884-5.905 12.636-11.373 28.396-30.188 28.396-1.923 0-3.771-0.163-5.543-0.465-0.559-0.096-1.11-0.206-1.653-0.33-1.678-0.384-3.277-0.905-4.793-1.549-0.322-0.136-0.638-0.279-0.953-0.428-0.303-0.142-0.6-0.293-0.897-0.446-3.984-2.057-7.311-5.02-9.845-8.675-3.176-4.583-5.105-10.245-5.53-16.546-0.166-2.461-0.101-5.019 0.208-7.648 0.042-0.355 0.077-0.707 0.128-1.064 2.009-14.163 12.299-30.11 30.685-34.161 0.875-0.192 1.761-0.367 2.673-0.505 3.039-0.458 6.022-0.735 8.935-0.873 21.435-1.012 38.925 5.807 44.365 8.133 1.765 0.754 3.855 1.846 3.851 3.309-2e-3 1.141-1.461 2.2-4.172 3.813"/>
 </g>
 <g stroke-width="1.3333">
  <path d="m226.85 253.23c4.0252 7.3678 6.1492 15.606 5.7425 22.943-0.02 0.35465-0.0493 0.69331-0.0733 1.0413 1.1666 0.25733 2.3493 0.48932 3.5652 0.67332 4.0506 0.61065 8.0278 0.97997 11.912 1.164-0.73732-6.4772-2.5533-14.501-6.3518-22.61-4.8812-0.42666-9.9358-1.3893-14.794-3.2119" fill="#811520"/>
  <path d="m191.6 231.67c-0.0667-0.47466-0.11466-0.94531-0.16933-1.4173-0.41332-3.5052-0.49999-6.9172-0.27866-10.198-2.3119-0.2-4.6266-0.22933-6.9292-0.0707-4.0212 6.6345-9.0824 12.376-14.576 17.304-0.44265 0.39733-0.88931 0.78932-1.3373 1.1773-5.7612 5.3319-8.7144 11.952-14.225 20.02-3.0266 4.4319-6.8265 9.2984-12.29 14.628-10.982 10.71-3.3586 18.454 0.24399 21.931 13.632 13.161 48.044 30.585 66.286 21.565 10.76-5.3185 22.462-13.716 24.187-39.391-24.514-5.4012-38.232-26.663-40.912-45.547" fill="#5b021b"/>
  <path d="m226.85 253.23c-6.5598-2.4613-12.756-6.4772-17.661-12.834-1.8066-2.3426-3.2066-4.7385-4.2786-7.1438-1.6373-3.6759-2.4746-7.3772-2.6186-10.966-3.6612-1.1413-7.3918-1.9093-11.133-2.2333-0.22133 3.2812-0.13466 6.6932 0.27733 10.198 0.056 0.47199 0.104 0.94265 0.17066 1.4173 2.6799 18.884 16.398 40.146 40.912 45.547 0.024-0.34799 0.0533-0.68665 0.0733-1.0413 0.40666-7.3372-1.7173-15.576-5.7425-22.943" fill="#4d0018"/>
  <path d="m167 183.19c-13.58-5.8638-24.598-16.032-33.17-29.297-3.7159-5.7465-7.0692-12.222-9.7451-18.809-14.917-3.4092-29.121-3.9746-37.212-4.1812-23.339-0.59599-39.796 3.2812-43.222 12.944-2.5373 7.7838-0.03867 15.048 12.257 22.453 32.097 19.329 36.875 28.641 44.47 48.343 7.4572 19.344 33.452 26.735 56.119 11.052 8.2598-5.7145 13.97-13.06 17.366-20.957-1.2746-7.2318-3.5852-14.712-6.8772-21.545 5e-3 3e-3 9e-3 -4e-3 0.0147-3e-3" fill="#5b021b"/>
  <path d="m259.56 230.2c2.8266 7.0172 6.5025 13.217 11.185 18.302 5.1919-1.0413 10.128-2.8906 14.754-5.4625-4.4119-4.5786-8.5491-10.244-12.568-17.866-3.8959 2.4679-8.4545 4.2559-13.372 5.0265" fill="#811520"/>
  <path d="m223.08 181.99c-1e-3 7e-3 -4e-3 0.012-4e-3 0.0187-0.12533 0.24399-0.23199 0.50398-0.35466 0.74931 2.3626-0.40399 4.8279-0.61998 7.3905-0.61998 25.087 0 32.378 21.013 40.25 37.86 0.85465 1.8253 1.7106 3.5412 2.5733 5.1785 4.6452-2.9426 8.3438-6.8505 10.552-11.18 5.5905-10.969 11.373-22.406 22.622-29.838 12.601-8.3238 19.972-8.4731 19.972-15.928 0-10.4-34.923-29.082-67.65-24.887-8.0905 19.434-21.533 31.794-35.35 38.646" fill="#5b021b"/>
  <path d="m230.11 182.13c-2.5639 0-5.0279 0.21599-7.3905 0.61998-2.0546 4.1599-3.7652 8.6091-5.0932 13.181 3.1853-1.5226 6.6825-2.3306 10.309-2.2226 18.44 0.55198 25.127 14.294 27.813 24.811 1.0466 4.0906 2.3253 7.9825 3.8119 11.674 4.9159-0.77065 9.4758-2.5586 13.372-5.0265-0.86132-1.636-1.7186-3.3519-2.5733-5.1772-7.8718-16.848-15.162-37.86-40.248-37.86" fill="#4d0018"/>
  <path d="m148.34 143.64c-3.3079-7.0212-5.5812-15.029-5.3479-22.411-7.3945-2.7533-15.636-5.0185-24.738-6.7665 0.92265 6.5118 2.9946 13.626 5.8345 20.615 8.1638 1.8666 16.541 4.5812 24.251 8.5624" fill="#811520"/>
  <path d="m191.96 173.04c-6.2825-0.16533-12.184-1.4426-17.641-3.7212 2.2799 5.3772 3.4226 11.345 3.3612 17.445 4.9132 1.1986 10.108 1.9013 15.593 2.0479 9e-3 -0.46265 0.0253-0.92131 0.0253-1.3893 0-4.9959-0.45332-9.7904-1.3386-14.382" fill="#4d0018"/>
  <path d="m241.63 100.32c0.60265 9.8824 0.072 20.293-2.3506 30.771-4.7106 20.383-19.654 38.876-40.563 41.611-0.196 1.1866-0.36666 2.3693-0.49466 3.5466-0.47599 4.4092-0.63198 8.5798-0.51465 12.54 4.3719-0.19332 9.0984-0.96664 13.952-2.3679 0.39466-0.20399 0.79065-0.40532 1.1946-0.59465 0.55065-1.4093 1.1173-2.7826 1.6973-4.1186 1.812-11.057 7.5385-20.61 13.417-25.534 9.0118-7.5492 19.616-11.448 30.459-12.837 2.6359-6.3345 4.7132-13.409 6.0372-21.303 2.1306-12.697 1.672-26.378 0.15866-38.955-1.7746 0.55732-3.6452 1.4746-5.5612 2.7826-4.7066 3.2159-10.873 8.1678-17.432 14.46" fill="#811520"/>
  <path d="m191.96 173.04c0.46399 0.012 0.92531 0.0307 1.3933 0.0307 1.8293 0 3.6146-0.13066 5.3639-0.35999 3.5879-21.746 18.33-44.807 30.289-58.951 4.1852-4.9532 8.4824-9.4584 12.625-13.432-0.84931-13.934-3.9746-26.81-7.3958-37.268-3.1772-9.7144-8.0758-17.3-14.865-17.298-10.108 4e-3 -16.914 11.618-23.734 24.038-8.5011 15.482-15.217 25.355-32.109 29.721-10.332 2.6693-17.114 6.4385-19.557 15.09-0.59598 2.116-0.89998 4.3426-0.97331 6.6265 28.542 10.632 44.48 28.531 48.963 51.803" fill="#5b021b"/>
  <path d="m170.31 162.09c1.584 2.2439 2.9226 4.6679 4.0079 7.2265 5.4585 2.2786 11.358 3.5559 17.641 3.7212-4.4826-23.271-20.421-41.171-48.961-51.803-0.23466 7.3825 2.0386 15.39 5.3465 22.411 8.5438 4.4132 16.268 10.373 21.966 18.444" fill="#4d0018"/>
  <path d="m159.44 159.71c4.4826 4.1132 9.4638 7.3438 14.874 9.6024-1.0853-2.5586-2.4239-4.9826-4.0079-7.2265-5.6998-8.0705-13.422-14.03-21.966-18.444 3.1852 6.7612 7.3225 12.602 11.1 16.068" fill="#35111c"/>
 </g>
 <g transform="translate(-50.415 -61.177)" fill="#4d0018">
  <path transform="matrix(1.3333,0,0,-1.3333,279.41,174.93)" d="m0 0c-8.969-10.608-20.025-27.904-22.716-44.214 15.682 2.051 26.89 15.921 30.423 31.209 1.816 7.859 2.215 15.667 1.763 23.079-3.108-2.98-6.33-6.359-9.47-10.074"/>
  <path transform="matrix(1.3333,0,0,-1.3333,278.38,217.36)" d="m0 0c-4.409-3.693-8.704-10.858-10.063-19.151-0.435-1.002-0.86-2.033-1.272-3.089-0.028-0.071-0.055-0.142-0.082-0.213-1.536-3.973-2.857-8.367-3.632-13.456-0.466-3.058-0.736-6.363-0.736-9.979v-1.417h5.622v1.417c0 3.767 0.461 7.684 1.283 11.568 0.319 1.509 0.691 3.012 1.123 4.501 0.996 3.428 2.279 6.765 3.82 9.885 0.092 0.185 0.172 0.379 0.266 0.563 0 5e-3 2e-3 9e-3 3e-3 0.014 10.363 5.138 20.445 14.409 26.513 28.985-8.133-1.042-16.086-3.967-22.845-9.628"/>
  <path transform="matrix(1.3333,0,0,-1.3333,228.03,249.78)" d="m0 0c0.023 0.463 0.036 0.924 0.041 1.384 0.046 4.575-0.812 9.051-2.522 13.084-4.058 1.694-7.794 4.117-11.156 7.202-2.832 2.599-5.935 6.98-8.324 12.051-5.783 2.986-12.067 5.022-18.19 6.422 2.007-4.941 4.522-9.797 7.308-14.108 6.43-9.948 14.694-17.574 24.879-21.973-4e-3 1e-3 -7e-3 -3e-3 -0.012-1e-3 2.47-5.125 4.203-10.736 5.159-16.16 0.577-3.274 0.872-6.481 0.872-9.47v-1.42h5.62v1.42c0 8.703-1.565 15.625-3.675 21.569"/>
 </g>
 <g stroke-width="1.3333">
  <path d="m272.04 249.92c-0.45199-0.45199-0.86398-0.94931-1.3-1.42-4.6812-5.0852-8.3571-11.285-11.184-18.302-1.488-3.6919-2.7666-7.5838-3.8119-11.674-2.6853-10.517-9.3731-24.259-27.813-24.811-3.6266-0.108-7.1238 0.69998-10.309 2.2226-0.94531 0.45066-1.8573 0.97331-2.7426 1.5453-2.6599 1.72-5.0332 3.9506-6.9798 6.5745-2.132 2.8693-3.7492 6.1998-4.6959 9.8011-0.70665 2.6839-1.0346 5.5185-0.91598 8.4278 0.144 3.5906 0.97998 7.2905 2.6173 10.966 1.0733 2.4066 2.4719 4.8026 4.2799 7.1438 4.9039 6.3572 11.101 10.374 17.661 12.834 4.8572 1.824 9.9118 2.7853 14.793 3.2132 12.178 1.064 23.266-1.2213 27.429-1.988 5.6985-1.0466 5.9132-1.592 2.9719-4.5332" fill="#5b021b"/>
  <path d="m256.62 154.88c-27.977 0.0373-44.09 36.263-44.09 62.476h-3.7146c0-35.892 20.221-48.389 20.221-72.445 0-11.586-6.1465-24.878-19.045-34.548-1.724-1.292-10.221-7.6558-15.262-13.093-5.0412 5.4372-13.538 11.801-15.264 13.093-12.898 9.6704-19.044 22.962-19.044 34.548 0 24.055 20.221 36.552 20.221 72.445h-3.7159c0-26.213-16.112-62.438-44.088-62.476-19.922-0.0267-33.67 18.989-29.563 37.856 2.7559 12.622 14.27 23.709 27.953 21.811-2.3186-8.7558 1.712-18.598 11.308-19.99 11.092-1.6053 17.834 9.7664 19.909 22.798h-0.18933c-2.2533 0-4.0812 1.828-4.0812 4.0812s1.828 4.0799 4.0812 4.0799h64.948c2.2533 0 4.0799-1.8266 4.0799-4.0799s-1.8266-4.0812-4.0799-4.0812h-0.18933c2.0746-13.032 8.8158-24.403 19.909-22.798 9.5958 1.392 13.625 11.234 11.308 19.99 13.682 1.8973 25.195-9.1891 27.953-21.811 4.1066-18.868-9.6424-37.883-29.563-37.856m-31.087 74.611c-9e-3 -0.0693-0.0173-0.17867-0.0253-0.29866h-12.942c0.42799 9.4651 7.6731 28.349 19.442 28.349 8.6264 0 15.337-7.5638 16.022-15.817-10.522 2.372-21.071-0.08-22.497-12.233m-44.903-0.29866c-0.91998 8.9758-4.1372 19.949-10.534 28.802 4.4199 9.6384 14.122 19.317 24.634 25.389 10.51-6.0718 20.214-15.75 24.633-25.389-6.3958-8.8531-9.6144-19.826-10.533-28.802zm-3.7359 0c-0.42932 9.4651-7.6745 28.349-19.444 28.349-8.6264 0-15.337-7.5638-16.022-15.817 10.522 2.372 21.071-0.08 22.498-12.233 8e-3 -0.0693 0.016-0.17867 0.024-0.29866z" fill="#fff"/>
  <path d="m299.98 412.24c0.80798-5.8359 2.6039-7.7211 8.3491-7.7211 5.3879 0 7.4518 1.3466 7.6292 7.7211zm7.3612-18.134c-13.196 0-21.635 5.4732-21.635 23.967 0 18.849 9.6051 24.505 22.533 24.505 5.2065 0 12.028-0.98664 16.606-2.5119l-2.064-10.502c-3.4132 0.89731-9.4264 1.524-12.745 1.524-6.6425 0-9.9678-1.3453-10.145-8.7078h28.095c1.2586-23.606-5.3839-28.274-20.645-28.274m-232.79-15.349c-3.7706 13.104-10.23 33.928-15.349 47.036-3.8599-13.553-11.401-34.92-16.517-47.036h-15.98c7.1838 16.426 16.426 43.267 22.261 62.565h18.494c7.3585-17.504 17.414-44.972 22.53-62.565zm83.046 62.565h13.824v-25.405c0-16.517-6.2825-21.811-18.942-21.811-8.2558 0-17.413 1.976-23.338 4.1279v43.088h13.822v-34.112c2.2466-0.53732 4.3106-0.80532 6.5532-0.80532 6.7332 0 8.0811 2.244 8.0811 10.593zm199.8-47.216c-6.6438 0-9.6064 2.1546-11.129 4.8479v-3.5919h-13.826v45.96h13.826v-30.163c0-3.0519 4.3052-4.6652 9.2424-4.6652 2.2466 0 4.6679 0.17866 6.4638 0.71598v-12.834c-1.6173-0.17866-3.2306-0.26932-4.5772-0.26932m-88.528 17.053c0-3.0519 4.3079-4.6652 9.2451-4.6652 2.2453 0 4.6679 0.17866 6.4625 0.71598v-12.834c-1.6173-0.17866-3.2306-0.26932-4.5772-0.26932-6.6438 0-9.6051 2.1546-11.13 4.8479v-3.5919h-13.825v45.96h13.825zm-163.84-6.6398c5.3879 0 7.4518 1.3466 7.6305 7.7211h-15.98c0.80798-5.8359 2.6053-7.7211 8.3491-7.7211m-22.618 13.554c0 18.849 9.6038 24.505 22.529 24.505 5.2092 0 12.03-0.98664 16.606-2.5119l-2.064-10.502c-3.4092 0.89731-9.4264 1.524-12.746 1.524-6.6425 0-9.9624-1.3453-10.145-8.7078h28.099c1.256-23.606-5.3879-28.274-20.647-28.274-13.197 0-21.631 5.4732-21.631 23.967m109.71 24.505c4.9359 0 10.413-0.89865 13.821-2.3333l-2.2426-10.59c-2.1533 0.71865-4.4892 1.2546-7.3612 1.2546-4.8479 0-6.1932-1.8853-6.1932-6.5545v-17.145h14.364v-11.848h-14.364v-12.388l-13.822 5.5665v37.252c0 13.733 5.6559 16.785 15.798 16.785m44.382-13.104c-2.4253 0.53599-4.3999 0.89865-6.6425 0.89865-6.7332 0-8.1718-2.3359-8.1718-10.593v-24.418h-13.642v25.495c0 16.426 6.1025 21.809 18.853 21.809 8.1665 0 17.413-2.0626 23.247-4.1266v-43.178h-13.644zm68.721 60.944c-7.1065-0.89997-8.3678-1.5293-8.3678-3.9586 0-3.5972 2.16-3.9586 6.4785-3.9586 4.6786 0 9.9851 0.98931 13.584 1.98l2.6999-10.256c-4.3199-1.5293-10.797-2.5173-15.744-2.5173-11.516 0-20.421 3.2372-20.421 15.741 0 9.8064 5.1265 12.594 14.753 13.494 7.6452 0.71999 9.1758 1.7093 9.1758 4.2279 0 3.5986-2.5186 4.0479-7.9171 4.0479-4.4972 0-9.6238-0.89865-13.044-1.888l-2.6986 10.434c4.2292 1.5293 11.425 2.5186 16.373 2.5186 11.605 0 20.601-3.3279 20.601-15.832 0-9.4464-4.7679-12.685-15.473-14.034m-33.502 18.173c-4.8585 0-6.2078-1.8893-6.2078-6.5678v-17.182h14.394v-11.874h-14.394v-13.697l-13.853 5.5772v38.615c0 13.765 5.6679 16.822 15.833 16.822 4.9479 0 10.434-0.89864 13.853-2.3386l-2.2493-10.614c-2.1573 0.71864-4.4972 1.26-7.3758 1.26m-93.7 0.89865c-6.4772 0-8.3665-1.8906-8.3665-13.494 0-12.054 1.8893-13.494 8.3665-13.494 6.5678 0 8.4571 1.44 8.4571 13.494 0 11.604-1.8893 13.494-8.4571 13.494m0-37.782c-14.662 0-22.31 5.2172-22.31 24.017 0 18.893 7.4678 24.559 22.31 24.559 15.024 0 22.49-5.6665 22.49-24.559 0-18.8-7.5558-24.017-22.49-24.017m-82.971 11.733c-10.169-1.092-11.849-2.4373-11.849-6.1345 0-4.0346 2.5199-5.7132 11.261-5.7132 6.4705 0 12.521 0.92398 16.052 1.932l2.7719-11.597c-4.6226-1.6813-11.681-2.7733-18.74-2.7733-17.396 0-25.801 5.5465-25.801 20.085 0 10.841 5.8839 14.958 18.405 16.304 11.008 1.176 12.606 2.9413 12.606 6.6385 0 4.4546-2.7733 5.7145-11.514 5.7145-6.3865 0-12.269-0.92397-16.05-1.932l-2.7733 11.596c4.7065 1.6813 11.933 2.7733 18.993 2.7733 18.236 0 25.967-4.6226 25.967-19.076 0-11.177-5.9665-16.304-19.329-17.817m46.292 0.0493c3.7786 0 7.8265 0.89998 10.434 1.8893l2.8799-11.693c-3.5986-1.26-9.7158-1.9786-14.485-1.9786-13.673 0-22.938 5.3065-22.938 24.017 0 18.893 9.1744 24.559 22.938 24.559 4.5879 0 10.796-0.80931 14.485-2.3386l-2.8799-11.605c-2.6079 1.08-6.4772 2.0693-10.434 2.0693-6.7465 0-10.166-1.6186-10.166-12.414 0-11.336 3.4199-12.505 10.166-12.505m91.734 23.661c-2.4279 0.53999-4.4066 0.89864-6.6558 0.89864-6.7465 0-8.1865-2.3386-8.1865-10.614v-24.469h-13.673v25.547c0 16.464 6.1158 21.861 18.892 21.861 8.1851 0 17.45-2.0693 23.298-4.1386v-43.27h-13.674z"/>
 </g>
</svg>
