<?xml version="1.0" encoding="UTF-8"?>
<svg version="1.1" viewBox="0 0 372.47 520.37" xmlns="http://www.w3.org/2000/svg">
 <g transform="translate(-50.412 -61.2)">
  <g fill="#dc8219">
   <path transform="matrix(.13333 0 0 -.13333 0 642.75)" d="m2241 2229.3c-0.41 11.96-1.39 25.26-3.01 39.51-5.54 48.58-19.15 108.76-47.65 169.58-16.36 34.94-37.67 70.05-65.17 103.27-41.08 49.64-95.98 95-169.1 129.1-6.56 3.06-13.2 6.07-20.05 8.94-13.43 5.62-27.07 10.57-40.82 14.87-27.46 8.56-55.45 14.32-83.5 16.75-17.34 1.5-34.71 1.72-51.98 0.53-102.83-7.06-202.47-63.93-275.08-198.2-11.34-20.98-26.47-44.12-44.18-68.32-78.78-107.65-209.07-236.49-289.35-292.77-49.67-34.82-95.57-54.22-93.74-79.03 3.49-46.97 181.04 24.81 400.67-83.63 210.3-103.83 276.16-245.48 398.83-317.04 121.3-70.76 228.92-15.66 289.01 107.06 64.79 132.34 100.63 288.1 95.12 449.38"/>
   <path transform="matrix(.13333 0 0 -.13333 0 642.75)" d="m2362.8 3738.6c-14.45 119.97-41.69 226.56-58.11 287.47-45.91 170.29-107.69 336.66-223.49 335.66-125.9-1.09-188.39-150.7-264.04-335.17-77.18-188.19-121.93-269.28-190.85-305.81-95.26-50.49-270.17 21.37-334.96-57.89-29.31-35.85-35.69-93.61-26.32-159.65 6.92-48.84 22.46-102.19 43.76-154.62 20.07-49.4 45.21-97.97 73.08-141.07 64.3-99.48 146.93-175.74 248.78-219.73 23.67-10.22 48.37-18.7 74.12-25.31 1.97-0.51 3.95-0.99 5.93-1.47 36.85-9 75.81-14.26 116.95-15.37 5.54-0.15 11.1-0.26 16.72-0.26 5.43 0 10.96 0.14 16.55 0.38 32.78 1.45 68.23 7.25 104.63 17.76 2.72 0.78 5.42 1.5 8.15 2.33 3.35 1.03 6.73 2.21 10.09 3.32 15.99 5.28 32.08 11.39 48.19 18.57 6.4 2.87 12.82 5.89 19.22 9.07 103.63 51.38 204.45 144.09 265.12 289.85 19.78 47.51 35.35 100.57 45.29 159.78 15.97 95.23 12.53 197.84 1.19 292.16"/>
   <path transform="matrix(.13333 0 0 -.13333 0 642.75)" d="m3109.9 3242.5c-247.66 130.49-655.99 131.71-652.11 409.28 1.04 74.35-40.76 103.93-95.06 86.88-13.31-4.18-27.35-11.05-41.71-20.87-35.3-24.12-81.55-61.26-130.74-108.44-31.08-29.81-63.31-63.6-94.7-100.75-89.69-106.08-200.26-279.04-227.16-442.13-1.47-8.9-2.75-17.78-3.71-26.61-3.57-33.06-4.74-64.34-3.86-94.04 0.71-24.06 2.77-47.07 6.18-68.99 6.8-43.73 18.74-83.3 35.07-119 14.66-32.06 32.87-60.96 54-87.02 35.79-44.13 79.98-80 129.85-108.57 13.15-7.54 26.22-14.23 39.25-20.53 100.17-48.49 196.48-61.12 283.43-43.71 38.95 7.8 75.97 21.68 110.67 40.97 3.1 1.72 6.29 3.3 9.36 5.11 181.04 107.06 141.48 309.76 352.88 456.73 96.49 67.08 173.48 98.15 238.01 118.55 71.22 22.51 70.85 80.72-9.65 123.14"/>
   <path transform="matrix(.13333 0 0 -.13333 0 642.75)" d="m1817.8 3064c-33.62 174.54-153.16 308.78-367.22 388.52-55.46 20.65-117.28 37.65-185.55 50.75-55.69 10.69-115.65 18.8-180.04 24.16-236.8 19.73-421.75 2.7-551.64-44.74-97.832-35.74-144.77-98.86-153.4-156.14-11.652-77.31 32.293-145.16 116.04-206.73 171.84-126.36 412.61-166.79 493.48-336.34 31.318-65.68 34.918-136.47 19.638-216.3-15.587-81.35-37.099-146.69 9.77-187.59 48.24-42.09 137.22-40.48 285.8 11.03 19.89 6.9 71.94 24.21 135.88 54.76 61.62 29.45 134.25 71.22 199.91 127.91 3.23 3 6.56 5.95 10.04 8.83 41.19 36.96 79.15 80.02 109.31 129.78 39.82 65.7 65.96 143.12 67.83 233.8 0.07 3.47 0.19 6.92 0.19 10.42 0 37.47-3.4 73.43-10.04 107.88"/>
   <path transform="matrix(.13333 0 0 -.13333 0 642.75)" d="m2678.5 2421.4c-59.68 35.51-111.55 68.15-159.16 117.56-33.09 34.33-64.12 76.82-94.26 133.99-6.46 12.28-12.89 25.15-19.3 38.84-59.04 126.36-113.72 283.95-301.87 283.95-19.23 0-37.72-1.62-55.43-4.65-5.59-0.95-11.1-2.06-16.53-3.3-16.78-3.83-32.77-9.04-47.93-15.48-3.22-1.36-6.39-2.8-9.53-4.28-3.03-1.43-6.01-2.93-8.97-4.46-39.84-20.57-73.11-50.2-98.45-86.75-31.76-45.83-51.05-102.45-55.3-165.46-1.66-24.61-1.01-50.2 2.08-76.49 0.42-3.54 0.77-7.07 1.28-10.63 20.09-141.63 122.99-301.1 306.85-341.61 8.75-1.93 17.61-3.67 26.73-5.05 30.38-4.58 60.22-7.35 89.35-8.73 214.35-10.12 389.25 58.06 443.65 81.33 17.65 7.54 38.55 18.45 38.51 33.08-0.02 11.42-14.61 22-41.72 38.14"/>
  </g>
  <path transform="matrix(.13333 0 0 -.13333 0 642.75)" d="m2079.4 2462.5c30.18-55.26 46.12-117.05 43.06-172.08-0.14-2.66-0.37-5.2-0.54-7.81 8.75-1.93 17.61-3.67 26.73-5.05 30.38-4.58 60.22-7.35 89.35-8.73-5.54 48.58-19.15 108.76-47.65 169.58-36.61 3.2-74.52 10.42-110.95 24.09" fill="#c7652a"/>
  <path transform="matrix(.13333 0 0 -.13333 0 642.75)" d="m1815.1 2624.2c-0.51 3.56-0.86 7.09-1.28 10.63-3.09 26.29-3.74 51.88-2.08 76.49-17.34 1.5-34.71 1.72-51.98 0.53-30.16-49.76-68.12-92.82-109.31-129.78-3.33-2.98-6.67-5.92-10.04-8.83-43.2-39.99-65.35-89.64-106.69-150.15-22.7-33.24-51.2-69.74-92.18-109.71-82.37-80.33-25.18-138.41 1.84-164.49 102.23-98.71 360.33-229.39 497.15-161.74 80.7 39.89 168.48 102.87 181.42 295.44-183.86 40.51-286.76 199.98-306.85 341.61" fill="#b4481f"/>
  <path transform="matrix(.13333 0 0 -.13333 0 642.75)" d="m2079.4 2462.5c-49.2 18.46-95.68 48.58-132.46 96.26-13.55 17.57-24.05 35.54-32.09 53.58-12.28 27.57-18.56 55.33-19.64 82.25-27.46 8.56-55.45 14.32-83.5 16.75-1.66-24.61-1.01-50.2 2.08-76.49 0.42-3.54 0.77-7.07 1.28-10.63 20.09-141.63 122.99-301.1 306.85-341.61 0.17 2.61 0.4 5.15 0.54 7.81 3.06 55.03-12.88 116.82-43.06 172.08" fill="#a14726"/>
  <path transform="matrix(.13333 0 0 -.13333 0 642.75)" d="m1630.6 2987.8c-101.85 43.99-184.48 120.25-248.78 219.73-27.87 43.1-53.01 91.67-73.08 141.07-111.89 25.57-218.42 29.81-279.11 31.36-175.04 4.47-298.48-24.61-324.17-97.08-19.031-58.38-0.293-112.86 91.934-168.4 240.74-144.97 276.58-214.8 333.54-362.58 55.92-145.07 250.89-200.51 420.89-82.89 61.96 42.86 104.78 97.95 130.25 157.18-9.56 54.24-26.89 110.34-51.58 161.59 0.04-0.02 0.07 0.03 0.11 0.02" fill="#b4481f"/>
  <path transform="matrix(.13333 0 0 -.13333 0 642.75)" d="m2324.8 2635.2c21.2-52.62 48.77-99.13 83.88-137.26 38.95 7.8 75.97 21.68 110.67 40.97-33.09 34.33-64.12 76.82-94.26 133.99-29.22-18.51-63.42-31.91-100.29-37.7" fill="#c7652a"/>
  <path transform="matrix(.13333 0 0 -.13333 0 642.75)" d="m2051.2 2996.8c-0.01-0.05-0.03-0.09-0.03-0.14-0.94-1.84-1.74-3.78-2.66-5.63 17.71 3.03 36.2 4.65 55.43 4.65 188.15 0 242.83-157.59 301.87-283.95 6.41-13.69 12.84-26.56 19.3-38.84 34.84 22.07 62.59 51.38 79.14 83.85 41.94 82.26 85.3 168.04 169.68 223.79 94.5 62.43 149.78 63.54 149.78 119.46 0 78-261.93 218.11-507.39 186.66-60.67-145.76-161.49-238.47-265.12-289.85" fill="#b4481f"/>
  <path transform="matrix(.13333 0 0 -.13333 0 642.75)" d="m2103.9 2995.7c-19.23 0-37.72-1.62-55.43-4.65-15.41-31.2-28.24-64.57-38.2-98.85 23.89 11.41 50.12 17.48 77.32 16.67 138.3-4.14 188.46-107.22 208.6-186.1 7.85-30.68 17.44-59.87 28.59-87.56 36.87 5.79 71.07 19.19 100.29 37.7-6.46 12.28-12.89 25.15-19.3 38.84-59.04 126.36-113.72 283.95-301.87 283.95" fill="#a14726"/>
  <path transform="matrix(.13333 0 0 -.13333 0 642.75)" d="m1490.6 3284.4c-24.81 52.66-41.86 112.73-40.1 168.09-55.46 20.65-117.28 37.65-185.55 50.75 6.92-48.84 22.46-102.19 43.76-154.62 61.23-13.99 124.07-34.35 181.89-64.22" fill="#c7652a"/>
  <path transform="matrix(.13333 0 0 -.13333 0 642.75)" d="m1817.8 3064c-47.12 1.24-91.38 10.82-132.31 27.91 17.1-40.34 25.68-85.09 25.21-130.84 36.85-9 75.81-14.26 116.95-15.37 0.07 3.47 0.19 6.92 0.19 10.42 0 37.47-3.4 73.43-10.04 107.88" fill="#a14726"/>
  <path transform="matrix(.13333 0 0 -.13333 0 642.75)" d="m2190.3 3609.3c4.52-74.12 0.53-152.2-17.63-230.79-35.33-152.89-147.41-291.59-304.23-312.09-1.47-8.9-2.75-17.78-3.71-26.61-3.57-33.06-4.74-64.34-3.86-94.04 32.78 1.45 68.23 7.25 104.63 17.76 2.96 1.53 5.94 3.03 8.97 4.46 4.12 10.56 8.37 20.87 12.73 30.89 13.58 82.93 56.53 154.58 100.62 191.51 67.59 56.61 147.12 85.86 228.45 96.28 19.78 47.51 35.35 100.57 45.29 159.78 15.97 95.23 12.53 197.84 1.19 292.16-13.31-4.18-27.35-11.05-41.71-20.87-35.3-24.12-81.55-61.26-130.74-108.44" fill="#c7652a"/>
  <path transform="matrix(.13333 0 0 -.13333 0 642.75)" d="m1817.8 3064c3.48-0.09 6.94-0.24 10.45-0.24 13.73 0 27.12 0.99 40.24 2.71 26.9 163.09 137.47 336.05 227.16 442.13 31.39 37.15 63.62 70.94 94.7 100.75-6.38 104.51-29.82 201.07-55.48 279.52-23.83 72.86-60.57 129.74-111.49 129.74-75.81-0.03-126.86-87.14-178.01-180.3-63.75-116.11-114.13-190.16-240.82-222.91-77.49-20.02-128.36-48.29-146.68-113.17-4.47-15.87-6.75-32.57-7.29-49.71 214.06-79.74 333.6-213.98 367.22-388.52" fill="#b4481f"/>
  <path transform="matrix(.13333 0 0 -.13333 0 642.75)" d="m1655.4 3146.1c11.88-16.82 21.92-35.01 30.06-54.19 40.93-17.09 85.19-26.67 132.31-27.91-33.62 174.54-153.16 308.78-367.22 388.52-1.76-55.36 15.29-115.43 40.1-168.09 64.08-33.09 122-77.8 164.75-138.33" fill="#a14726"/>
  <path transform="matrix(.13333 0 0 -.13333 0 642.75)" d="m1573.9 3163.9c33.62-30.85 70.98-55.08 111.56-72.02-8.14 19.18-18.18 37.37-30.06 54.19-42.75 60.53-100.67 105.24-164.75 138.33 23.89-50.7 54.92-94.52 83.25-120.5" fill="#8f3f22"/>
  <g fill="#a14726">
   <path transform="matrix(.13333 0 0 -.13333 0 642.75)" d="m2095.6 3508.6c-89.69-106.08-200.26-279.04-227.16-442.13 156.82 20.5 268.9 159.2 304.23 312.09 18.16 78.59 22.15 156.67 17.63 230.79-31.08-29.81-63.31-63.6-94.7-100.75"/>
   <path transform="matrix(.13333 0 0 -.13333 0 642.75)" d="m2087.8 3190.4c-44.09-36.93-87.04-108.58-100.62-191.51-4.36-10.02-8.61-20.33-12.73-30.89-0.27-0.7-0.55-1.42-0.82-2.13-15.35-39.73-28.56-83.67-36.31-134.56-4.66-30.58-7.37-63.63-7.37-99.79v-14.17h56.22v14.17c0 37.67 4.62 76.84 12.84 115.68 3.19 15.1 6.9 30.12 11.23 45.01 9.96 34.28 22.79 67.65 38.2 98.85 0.92 1.85 1.72 3.79 2.66 5.63 0 0.05 0.02 0.09 0.03 0.14 103.63 51.38 204.45 144.09 265.12 289.85-81.33-10.42-160.86-39.67-228.45-96.28"/>
   <path transform="matrix(.13333 0 0 -.13333 0 642.75)" d="m1710.2 2947.2c0.23 4.63 0.35 9.24 0.4 13.84 0.47 45.75-8.11 90.5-25.21 130.84-40.58 16.94-77.94 41.17-111.56 72.02-28.33 25.98-59.36 69.8-83.25 120.5-57.82 29.87-120.66 50.23-181.89 64.22 20.07-49.4 45.21-97.97 73.08-141.07 64.3-99.48 146.93-175.74 248.78-219.73-0.04 0.01-0.07-0.04-0.11-0.02 24.69-51.25 42.02-107.35 51.58-161.59 5.78-32.74 8.72-64.81 8.72-94.71v-14.19h56.2v14.19c0 87.04-15.64 156.25-36.74 215.7"/>
  </g>
  <path transform="matrix(.13333 0 0 -.13333 0 642.75)" d="m2418.4 2487.3c-3.39 3.39-6.48 7.12-9.75 10.66-35.11 38.13-62.68 84.64-83.88 137.26-11.15 27.69-20.74 56.88-28.59 87.56-20.14 78.88-70.3 181.96-208.6 186.1-27.2 0.81-53.43-5.26-77.32-16.67-7.09-3.38-13.93-7.31-20.57-11.59-19.95-12.91-37.75-29.63-52.35-49.31-15.98-21.52-28.12-46.51-35.22-73.52-5.3-20.12-7.76-41.38-6.87-63.21 1.08-26.92 7.36-54.68 19.64-82.25 8.04-18.04 18.54-36.01 32.09-53.58 36.78-47.68 83.26-77.8 132.46-96.26 36.43-13.67 74.34-20.89 110.95-24.09 91.34-7.99 174.51 9.16 205.73 14.9 42.73 7.85 44.34 11.94 22.28 34" fill="#b4481f"/>
  <path transform="matrix(.13333 0 0 -.13333 0 642.75)" d="m2302.7 3200.1c-209.84-0.29-330.68-271.98-330.68-468.59h-27.87c0 269.2 151.66 362.93 151.66 543.35 0 86.91-46.09 186.6-142.83 259.12-12.93 9.7-76.66 57.43-114.48 98.21-37.8-40.78-101.53-88.51-114.47-98.21-96.74-72.52-142.84-172.21-142.84-259.12 0-180.42 151.67-274.15 151.67-543.35h-27.87c0 196.61-120.84 468.3-330.68 468.59-149.41 0.19-252.53-142.42-221.72-283.93 20.66-94.68 107.03-177.82 209.65-163.59-17.39 65.67 12.84 139.49 84.8 149.93 83.2 12.04 133.77-73.25 149.32-171h-1.41c-16.91 0-30.61-13.7-30.61-30.6 0-16.91 13.7-30.61 30.61-30.61h487.11c16.91 0 30.61 13.7 30.61 30.61 0 16.9-13.7 30.6-30.61 30.6h-1.41c15.55 97.75 66.12 183.04 149.31 171 71.98-10.44 102.2-84.26 84.82-149.93 102.62-14.23 188.97 68.91 209.65 163.59 30.8 141.51-72.32 284.12-221.73 283.93zm-233.17-559.6c-0.06 0.52-0.12 1.34-0.18 2.23h-97.08c3.22-70.98 57.56-212.61 145.83-212.61 64.7 0 115.03 56.73 120.16 118.63-78.91-17.79-158.03 0.6-168.73 91.75zm-336.77 2.23c-6.9-67.31-31.03-149.61-79.01-216.01 33.15-72.3 105.92-144.88 184.75-190.42 78.84 45.54 151.61 118.12 184.75 190.42-47.96 66.4-72.1 148.7-78.99 216.01zm-28.02 0c-3.22-70.98-57.56-212.61-145.83-212.61-64.7 0-115.03 56.73-120.17 118.63 78.92-17.79 158.04 0.6 168.74 91.75 0.06 0.52 0.12 1.34 0.18 2.23h97.08" fill="#fff"/>
  <path transform="matrix(.13333 0 0 -.13333 0 642.75)" d="m1435.8 1171.5v318.32h-102.76v-301.94c0-37.8-18.89-51.66-49.16-51.66-29.61 0-56.09 5.05-77.52 12.61l-17.03-90.78c29.62-10.07 66.82-16.38 106.53-16.38 69.33 0 139.94 27.74 139.94 129.83zm199.65 153.54c49.26 0 63.43-10.78 63.43-101.2 0-87.04-14.17-101.21-63.43-101.21-48.55 0-62.72 14.17-62.72 101.21 0 90.42 14.17 101.2 62.72 101.2zm0-283.37c112.69 0 168.7 42.51 168.7 184.18 0 141.03-56.68 180.15-168.7 180.15-109.97 0-167.32-39.12-167.32-180.15 0-141.67 56.01-184.18 167.32-184.18zm360.14 286.06c40.5 0 56.01-10.11 57.36-58.02h-120.11c6.08 43.85 19.58 58.02 62.75 58.02zm-0.66-286.06c39.12 0 90.39 7.42 124.81 18.88l-15.52 78.93c-25.65-6.74-70.85-11.44-95.8-11.44-49.93 0-74.91 10.11-76.25 65.44h211.17c9.47 177.43-40.47 212.52-155.16 212.52-99.19 0-162.62-41.14-162.62-180.15 0-141.67 72.19-184.18 169.37-184.18zm197.82-120.11h114c16.89 33.082 33.74 72.203 49.26 108.63 51.27 118.77 97.17 246.27 131.59 365.7h-103.25c-18.88-78.95-45.87-161.25-73.54-240.19-21.59 82.31-47.92 167.99-75.58 240.19h-104.57c40.5-107.29 85.02-239.51 118.74-361.64-16.86-37.128-37.78-80.308-56.65-112.69zm-66.61-363.5c-18.22-4.047-33.06-6.75-49.93-6.75-50.6 0-61.4 17.543-61.4 79.621v183.51h-102.56v-191.61c0-123.47 45.88-163.95 141.7-163.95 61.4 0 130.89 15.52 174.74 31.032v324.53h-102.55zm-412.92-17.547c-48.58 0-62.75 14.18-62.75 101.21 0 90.41 14.17 101.21 62.75 101.21 49.25 0 63.42-10.801 63.42-101.21 0-87.027-14.17-101.21-63.42-101.21zm0 283.39c-109.98 0-167.33-39.137-167.33-180.15 0-141.69 56-184.2 167.33-184.2 112.68 0 168.67 42.508 168.67 184.2 0 141.01-56.67 180.15-168.67 180.15zm702.76-276.64c-36.44 0-46.55 14.168-46.55 49.25v128.87h107.96v89.063h-107.96v102.73l-103.91-41.828v-289.62c0-103.23 42.51-126.17 118.75-126.17 37.11 0 78.26 6.75 103.91 17.539l-16.88 79.621c-16.18-5.402-33.73-9.449-55.32-9.449zm251.27 136.3c-53.3 6.742-62.75 11.461-62.75 29.684 0 26.988 16.2 29.687 48.58 29.687 35.09 0 74.89-7.418 101.88-14.84l20.25 76.91c-32.39 11.481-80.98 18.899-118.08 18.899-86.37 0-153.16-24.297-153.16-118.08 0-73.539 38.46-94.461 110.65-101.21 57.35-5.399 68.82-12.809 68.82-31.711 0-26.988-18.89-30.359-59.37-30.359-33.73 0-72.19 6.75-97.84 14.171l-20.24-78.269c31.72-11.473 85.69-18.891 122.8-18.891 87.04 0 154.51 24.961 154.51 118.74 0 70.851-35.76 95.14-116.05 105.27zm-1576.3 52.32c-76.27 8.192-88.87 18.282-88.87 46.02 0 30.25 18.91 42.863 84.45 42.863 48.54 0 93.92-6.953 120.39-14.512l20.8 86.989c-34.66 12.601-87.61 20.801-140.55 20.801-130.47 0-193.5-41.598-193.5-150.65 0-81.308 44.125-112.18 138.03-122.27 82.57-8.832 94.55-22.063 94.55-49.801 0-33.399-20.8-42.86-86.36-42.86-47.898 0-92.019 6.938-120.38 14.5l-20.8-86.98c35.297-12.609 89.496-20.801 142.45-20.801 136.77 0 194.76 34.672 194.76 143.08 0 83.821-44.75 122.27-144.97 133.62zm347.2-0.367c28.34 0 58.7-6.75 78.27-14.172l21.59 87.711c-26.99 9.449-72.87 14.848-108.64 14.848-102.54 0-172.04-39.82-172.04-180.15 0-141.69 68.82-184.2 172.04-184.2 34.41 0 80.98 6.078 108.64 17.539l-21.59 87.039c-19.57-8.089-48.58-15.519-78.27-15.519-50.6 0-76.25 12.14-76.25 93.109 0 85.02 25.65 93.793 76.25 93.793" fill="#fff"/>
 </g>
</svg>
