<?xml version="1.0" encoding="UTF-8"?>
<svg version="1.1" viewBox="0 0 372.48 362.68" xmlns="http://www.w3.org/2000/svg">
 <g stroke-width="1.3333">
  <path d="m364.25 149.24c-33.021-17.398-87.464-17.561-86.946-54.571 0.14-9.9118-5.4332-13.856-12.676-11.582-1.7746 0.55599-3.6439 1.472-5.5612 2.7826-4.7052 3.2159-10.873 8.1665-17.432 14.458-4.1412 3.9746-8.4384 8.4784-12.626 13.432-11.956 14.144-26.699 37.206-30.286 58.952-0.19599 1.1853-0.36666 2.3693-0.49465 3.5452-0.47599 4.4092-0.63199 8.5798-0.51466 12.538 0.0947 3.2079 0.36933 6.2772 0.82398 9.1998 0.90665 5.8292 2.4986 11.105 4.6759 15.865 1.9546 4.2746 4.3826 8.1291 7.1998 11.602 4.7719 5.8852 10.664 10.666 17.313 14.477 1.7533 1.004 3.4972 1.896 5.2332 2.7373 13.357 6.4638 26.197 8.1491 37.79 5.8265 5.1932-1.0386 10.129-2.8906 14.754-5.4599 0.41599-0.232 0.83864-0.44266 1.2493-0.68398 24.137-14.274 18.862-41.299 47.049-60.894 12.865-8.9451 23.131-13.086 31.734-15.806 9.4958-3.0013 9.4478-10.762-1.2866-16.418" fill="#7ebc42"/>
  <path d="m264.62 83.083c-1.924-15.997-5.5572-30.206-7.7478-38.328-6.1198-22.705-14.357-44.886-29.797-44.754-16.788 0.144-25.118 20.094-35.204 44.687-10.29 25.093-16.257 35.904-25.446 40.774-12.701 6.7318-36.023-2.8493-44.66 7.7198-3.9079 4.7799-4.7585 12.481-3.5092 21.286 0.92264 6.5118 2.9946 13.626 5.8345 20.615 2.6746 6.5865 6.0278 13.061 9.7438 18.809 8.5718 13.264 19.59 23.431 33.17 29.297 3.1559 1.3626 6.4492 2.4919 9.8824 3.3746 0.26266 0.0667 0.52666 0.132 0.79065 0.19599 4.9132 1.2 10.108 1.9013 15.593 2.0493 0.73865 0.02 1.48 0.0333 2.2293 0.0333 0.72398 0 1.46-0.0173 2.2053-0.0507 4.3719-0.19066 9.0984-0.96397 13.952-2.3653 0.36266-0.10533 0.72265-0.20133 1.0866-0.31333 0.44666-0.13599 0.89731-0.29332 1.3453-0.44265 2.1306-0.70398 4.2772-1.516 6.4238-2.4746 0.85598-0.38132 1.7093-0.78531 2.5626-1.208 13.817-6.8532 27.261-19.212 35.351-38.647 2.6359-6.3345 4.7119-13.408 6.0372-21.302 2.1293-12.698 1.672-26.378 0.15733-38.955" fill="#ffc62f"/>
  <path d="m241.63 100.32v1e-3 -1e-3c-0.85065-13.934-3.9746-26.809-7.3958-37.268-3.1772-9.7131-8.0758-17.3-14.865-17.297-10.108 4e-3 -16.914 11.618-23.734 24.038-8.5011 15.482-15.217 25.354-32.109 29.721-10.332 2.6693-17.114 6.4398-19.557 15.089-0.59598 2.116-0.89997 4.3426-0.9733 6.6278-0.23333 7.3825 2.0399 15.392 5.3479 22.411 3.1853 6.7598 7.3225 12.601 11.1 16.068 4.4826 4.1119 9.4638 7.3425 14.874 9.6024 5.4572 2.2786 11.358 3.5546 17.641 3.7199 0.46399 0.0133 0.92531 0.0333 1.3933 0.0333 1.8306 0 3.6146-0.13333 5.3639-0.36133v-1e-3 1e-3c20.91-2.7359 35.854-21.229 40.563-41.612 2.4226-10.477 2.9533-20.889 2.3506-30.771" fill="#fbaa19"/>
  <path d="m248.4 284.32c-0.0547-1.5946-0.184-3.3679-0.39999-5.2679-0.73865-6.4785-2.5546-14.502-6.3518-22.611-2.1826-4.6586-5.0252-9.3384-8.6904-13.768-5.4759-6.6185-12.798-12.668-22.547-17.214-0.87331-0.40798-1.7586-0.80931-2.6733-1.192-1.7893-0.75064-3.6079-1.4093-5.4425-1.9813-3.6612-1.1426-7.3918-1.9106-11.133-2.2333-2.3119-0.20132-4.6266-0.22932-6.9292-0.072-13.712 0.93997-26.997 8.5238-36.676 26.426-1.5133 2.7986-3.5306 5.8838-5.8905 9.1091-10.505 14.354-27.875 31.533-38.579 39.035-6.6238 4.6426-12.742 7.2292-12.498 10.537 0.46399 6.2612 24.138-3.3079 53.421 11.149 28.038 13.844 36.819 32.731 53.176 42.272 16.173 9.4344 30.522 2.0893 38.534-14.273 8.6384-17.645 13.417-38.412 12.681-59.916" fill="#de8d28"/>
  <path d="m226.85 253.23c-6.5612-2.4613-12.757-6.4772-17.661-12.836-1.808-2.3413-3.2066-4.7372-4.2799-7.1425-1.6373-3.6759-2.4733-7.3785-2.6173-10.966-3.6626-1.1413-7.3932-1.9106-11.134-2.2346-2.3106-0.19866-4.6266-0.22799-6.9292-0.0693-4.0212 6.6345-9.0824 12.374-14.574 17.302-0.44399 0.39866-0.88931 0.79065-1.3386 1.1773-5.7598 5.3332-8.7144 11.953-14.225 20.021-3.0266 4.4319-6.8265 9.2984-12.29 14.628-10.982 10.709-3.3572 18.453 0.24532 21.931 13.63 13.16 48.043 30.583 66.285 21.565 10.76-5.3185 22.463-13.717 24.189-39.392 0.024-0.34666 0.052-0.68665 0.072-1.0413 0.40666-7.3372-1.716-15.574-5.7412-22.942" fill="#bb6228"/>
  <path d="m306.72 258.71c-7.9571-4.7346-14.873-9.0864-21.221-15.674-4.4119-4.5772-8.5478-10.242-12.566-17.866-0.86131-1.636-1.72-3.3519-2.5733-5.1772-7.8718-16.848-15.162-37.862-40.248-37.862-2.5653 0-5.0279 0.21733-7.3905 0.62132-0.74665 0.128-1.48 0.27333-2.2053 0.43999-2.236 0.51199-4.3692 1.2066-6.3892 2.064-0.42932 0.18266-0.85197 0.37332-1.2706 0.57065-0.40532 0.19066-0.80131 0.39199-1.196 0.59598-5.3119 2.7413-9.7478 6.6932-13.126 11.566-4.2359 6.1105-6.8065 13.66-7.3745 22.061-0.22133 3.2812-0.13333 6.6905 0.27866 10.197 0.0547 0.47332 0.10266 0.94131 0.16933 1.4186 2.6799 18.884 16.398 40.146 40.914 45.546 1.1666 0.25733 2.3479 0.49066 3.5626 0.67465 4.0519 0.60932 8.0305 0.97998 11.914 1.164 28.579 1.348 51.897-7.7438 59.151-10.844 2.3533-1.0066 5.1399-2.4613 5.1359-4.4119-4e-3 -1.5213-1.9493-2.9346-5.5639-5.0839" fill="#a42036"/>
  <path d="m191.96 173.04c-4.4826-23.27-20.421-41.17-48.963-51.803-7.3945-2.7533-15.636-5.0186-24.738-6.7652-7.4252-1.4253-15.42-2.5079-24.005-3.2226-31.573-2.6293-56.232-0.35865-73.55 5.9665-13.044 4.7652-19.301 13.182-20.453 20.817-1.5533 10.309 4.3066 19.356 15.472 27.566 22.911 16.848 55.013 22.238 65.796 44.844 4.1759 8.7544 4.6559 18.194 2.6173 28.839-2.0773 10.845-4.9452 19.558 1.304 25.009 6.4318 5.6132 18.296 5.3972 38.104-1.4693 2.6533-0.91998 9.5931-3.2279 18.118-7.3012 8.2158-3.9266 17.9-9.4958 26.654-17.056 0.43066-0.39866 0.87331-0.79065 1.3386-1.176 5.4919-4.9292 10.553-10.668 14.574-17.304 5.3092-8.7584 8.7931-19.084 9.0438-31.173 9e-3 -0.46266 0.0253-0.92131 0.0253-1.3893 0-4.9972-0.45332-9.7918-1.3386-14.384" fill="#eb6952"/>
  <path d="m177.62 188.6c0.0307-0.61598 0.048-1.2306 0.0547-1.8453 0.0613-6.0998-1.0826-12.066-3.3626-17.444-1.084-2.5586-2.4239-4.9839-4.0079-7.2278-5.6985-8.0678-13.422-14.03-21.965-18.442-7.7105-3.9812-16.089-6.6958-24.253-8.5624-14.918-3.4092-29.121-3.9732-37.214-4.1799-23.338-0.59866-39.796 3.2799-43.222 12.944-2.5373 7.7825-0.03867 15.048 12.258 22.453 32.097 19.328 36.875 28.639 44.47 48.341 7.4558 19.342 33.451 26.734 56.119 11.05 8.2598-5.7145 13.969-13.06 17.366-20.955 0.76932 4.3666 1.1626 8.6411 1.1626 12.628v1.8933h7.4932v-1.8933c0-11.605-2.0866-20.834-4.8999-28.759" fill="#ed1d24"/>
  <path d="m177.68 186.76c0.0613-6.0998-1.0813-12.066-3.3612-17.444 5.4572 2.2786 11.358 3.5546 17.641 3.7199-4.4826-23.27-20.421-41.17-48.963-51.803-7.3945-2.7533-15.636-5.0185-24.738-6.7652 0.92264 6.5118 2.9946 13.625 5.8345 20.615 2.6746 6.5878 6.0278 13.061 9.7438 18.81 8.5718 13.262 19.59 23.43 33.17 29.295-5e-3 -1e-3 -9e-3 5e-3 -0.0147 3e-3 3.2919 6.8332 5.6025 14.314 6.8772 21.543 0.77065 4.3679 1.1626 8.6424 1.1626 12.629v1.8933h7.4931v-1.8933c0-11.605-2.0853-20.834-4.8999-28.759 0.0307-0.61599 0.048-1.2306 0.0547-1.8453" fill="#eb8350"/>
  <path d="m142.99 121.23c-0.23333 7.3825 2.0386 15.392 5.3479 22.413 3.1852 6.7585 7.3225 12.601 11.098 16.066 4.4826 4.1119 9.4638 7.3425 14.874 9.6038 5.4585 2.2773 11.36 3.5546 17.642 3.7199-4.4839-23.271-20.421-41.17-48.963-51.803" fill="#de6940"/>
  <path d="m177.62 188.6c0.0307-0.61598 0.048-1.2306 0.0547-1.8453 0.0613-6.0998-1.0826-12.066-3.3626-17.444-1.084-2.5586-2.4239-4.9839-4.0079-7.2278-5.6985-8.0678-13.422-14.03-21.965-18.442-7.7105-3.9812-16.089-6.6958-24.253-8.5624 2.6759 6.5878 6.0292 13.061 9.7438 18.81 8.5731 13.262 19.592 23.43 33.171 29.295-5e-3 0-9e-3 5e-3 -0.016 3e-3 3.2932 6.8332 5.6039 14.314 6.8785 21.545 0.76932 4.3666 1.1626 8.6411 1.1626 12.628v1.8933h7.4932v-1.8933c0-11.605-2.0866-20.834-4.8999-28.759" fill="#d9292c"/>
  <path d="m159.44 159.71c4.4826 4.1119 9.4638 7.3438 14.874 9.6024-1.0853-2.5586-2.4239-4.9839-4.0079-7.2278-5.6999-8.0691-13.422-14.03-21.966-18.442 3.1852 6.7598 7.3225 12.601 11.1 16.068" fill="#c1272a"/>
  <path d="m258.43 143.34c-10.845 1.3906-21.447 5.2905-30.459 12.838-5.8798 4.9239-11.605 14.476-13.417 25.534-0.57998 1.336-1.148 2.7093-1.6973 4.1172-0.036 0.0947-0.072 0.18933-0.10933 0.284-2.0466 5.2972-3.8079 11.156-4.8412 17.941-0.62132 4.0772-0.98131 8.4851-0.98131 13.306v1.8893h7.4958v-1.8893c0-5.0239 0.61465-10.246 1.7093-15.424 0.42666-2.0146 0.92131-4.0159 1.4973-6.0025 3.1866-1.5213 6.6838-2.3293 10.31-2.2213 18.441 0.55065 25.127 14.296 27.813 24.811 1.0453 4.0919 2.3239 7.9825 3.8119 11.674 4.9159-0.77198 9.4758-2.5586 13.373-5.0265 4.6439-2.9413 8.3451-6.8505 10.552-11.178 5.5905-10.968 11.373-22.406 22.622-29.838 12.6-8.3238 19.972-8.4731 19.972-15.928 0-10.4-34.923-29.083-67.65-24.889" fill="#2f9e49"/>
  <path d="m264.62 83.083c-1.7746 0.55599-3.6439 1.472-5.5612 2.7826-4.7052 3.2146-10.873 8.1665-17.432 14.458-4.1426 3.9746-8.4384 8.4785-12.626 13.432-11.957 14.144-26.699 37.206-30.287 58.952-0.196 1.1853-0.36666 2.3693-0.49332 3.5452-0.47599 4.4106-0.63199 8.5798-0.51599 12.538 4.3719-0.19066 9.0984-0.96397 13.952-2.3653 0.39466-0.20533 0.79198-0.40666 1.196-0.59599-0.036 0.0947-0.0733 0.188-0.10933 0.28266-2.0466 5.2972-3.8092 11.157-4.8426 17.941-0.61998 4.0772-0.9813 8.4864-0.9813 13.306v1.8893h7.4958v-1.8893c0-5.0239 0.61598-10.246 1.7106-15.422 0.42533-2.0146 0.91998-4.0172 1.4973-6.0025 1.3293-4.5719 3.0386-9.0198 5.0945-13.18 0.12266-0.24799 0.22933-0.50665 0.35332-0.75198 1e-3 -5e-3 4e-3 -0.0107 4e-3 -0.016 13.817-6.8532 27.261-19.213 35.351-38.648 2.6359-6.3332 4.7119-13.408 6.0372-21.301 2.1293-12.698 1.672-26.378 0.15733-38.955" fill="#9fc23f"/>
  <path d="m229 113.75c-11.957 14.144-26.699 37.206-30.287 58.952 20.91-2.7359 35.854-21.229 40.563-41.611 2.4213-10.48 2.9533-20.89 2.3506-30.771-4.1426 3.9732-8.4384 8.4771-12.626 13.43" fill="#ad9d42"/>
  <path d="m227.97 156.18c-5.8798 4.9239-11.605 14.476-13.417 25.534-0.58132 1.336-1.148 2.7093-1.6973 4.1172-0.036 0.096-0.0733 0.19066-0.10933 0.28399-2.0466 5.2972-3.8079 11.156-4.8412 17.941-0.62132 4.0786-0.98264 8.4851-0.98264 13.306v1.8893h7.4958v-1.8893c0-5.0239 0.61598-10.245 1.7106-15.424 0.42533-2.0133 0.92131-4.0159 1.4973-6.0025 1.3293-4.5706 3.0386-9.0184 5.0945-13.178 0.12266-0.24799 0.22933-0.50665 0.35332-0.75198 1e-3 -5e-3 4e-3 -0.012 4e-3 -0.0173 13.817-6.8518 27.261-19.212 35.351-38.646-10.845 1.3893-21.447 5.2892-30.459 12.837" fill="#008d51"/>
  <path d="m226.85 253.23c4.0252 7.3678 6.1478 15.605 5.7412 22.942-0.02 0.35599-0.048 0.69465-0.072 1.0413 1.1666 0.25866 2.3493 0.49065 3.5639 0.67465 4.0506 0.60932 8.0291 0.97998 11.913 1.164-0.73732-6.4772-2.5546-14.502-6.3518-22.611-4.8826-0.42533-9.9358-1.388-14.794-3.2106" fill="#923938"/>
  <path d="m226.85 253.23c-6.5612-2.4613-12.757-6.4772-17.661-12.834-1.808-2.3426-3.2066-4.7385-4.2799-7.1438-1.6373-3.6759-2.4733-7.3785-2.6173-10.966-3.6626-1.1413-7.3932-1.9106-11.134-2.2333-0.22133 3.2812-0.13333 6.6918 0.27866 10.198 0.0547 0.47199 0.10266 0.94131 0.16933 1.4173 2.6799 18.884 16.4 40.146 40.914 45.546 0.024-0.34666 0.052-0.68532 0.072-1.0413 0.40666-7.3372-1.716-15.574-5.7412-22.942" fill="#803039"/>
  <path d="m272.04 249.92c-0.45332-0.45332-0.86531-0.94931-1.3013-1.4213-4.6812-5.0839-8.3571-11.284-11.184-18.301-1.4866-3.6932-2.7653-7.5825-3.8119-11.676-2.6853-10.516-9.3718-24.259-27.813-24.81-3.6266-0.108-7.1238 0.69998-10.309 2.2213-0.94398 0.45199-1.8573 0.97464-2.7426 1.5466-2.6599 1.7186-5.0332 3.9506-6.9798 6.5732-2.1306 2.8706-3.7479 6.2012-4.6959 9.8011-0.70531 2.6853-1.0333 5.5185-0.91597 8.4291 0.14399 3.5892 0.98131 7.2905 2.6186 10.966 1.072 2.4066 2.4719 4.8026 4.2786 7.1438 4.9052 6.3572 11.101 10.374 17.662 12.834 4.8572 1.824 9.9104 2.7853 14.793 3.2119 12.177 1.064 23.265-1.22 27.429-1.9866 5.6985-1.048 5.9119-1.5933 2.9719-4.5332" fill="#79242f"/>
  <path d="m259.56 230.2c2.8266 7.0172 6.5025 13.217 11.185 18.301 5.1919-1.04 10.128-2.8906 14.754-5.4612-4.4119-4.5786-8.5478-10.244-12.566-17.868-3.8972 2.4693-8.4558 4.2572-13.373 5.0279" fill="#9f4040"/>
  <path d="m230.11 182.13c-2.5653 0-5.0279 0.21599-7.3905 0.62132-2.056 4.1599-3.7652 8.6078-5.0945 13.18 3.1852-1.5213 6.6825-2.3293 10.309-2.2213 18.441 0.55065 25.127 14.294 27.814 24.81 1.0453 4.0919 2.3239 7.9825 3.8106 11.676 4.9159-0.77064 9.4758-2.5586 13.373-5.0279-0.86132-1.6346-1.72-3.3506-2.5733-5.1772-7.8718-16.846-15.162-37.86-40.248-37.86" fill="#505b3b"/>
  <path d="m256.62 154.88c-27.977 0.0373-44.088 36.262-44.088 62.474h-3.7159c0-35.892 20.222-48.389 20.222-72.444 0-11.588-6.1478-24.879-19.045-34.548-1.7253-1.292-10.222-7.6558-15.264-13.094-5.0412 5.4385-13.538 11.802-15.262 13.094-12.898 9.6691-19.045 22.961-19.045 34.548 0 24.054 20.222 36.551 20.222 72.444h-3.7172c0-26.213-16.11-62.437-44.088-62.474-19.921-0.0267-33.67 18.989-29.563 37.856 2.7559 12.621 14.27 23.709 27.954 21.811-2.3186-8.7571 1.7106-18.6 11.306-19.99 11.092-1.6066 17.836 9.7651 19.909 22.797h-0.18799c-2.2546 0-4.0812 1.828-4.0812 4.0812s1.8266 4.0812 4.0812 4.0812h64.946c2.2533 0 4.0812-1.828 4.0812-4.0812s-1.828-4.0812-4.0812-4.0812h-0.18933c2.0746-13.032 8.8171-24.403 19.91-22.797 9.5958 1.3906 13.624 11.233 11.306 19.99 13.682 1.8973 25.197-9.1904 27.953-21.811 4.1066-18.868-9.6424-37.883-29.563-37.856m-31.087 74.611c-8e-3 -0.0693-0.016-0.17866-0.024-0.29866h-12.944c0.42932 9.4651 7.6745 28.347 19.444 28.347 8.6264 0 15.337-7.5638 16.022-15.816-10.522 2.3719-21.071-0.0813-22.498-12.233m-44.903-0.29866c-0.91864 8.9758-4.1372 19.949-10.533 28.801 4.4186 9.6398 14.122 19.318 24.633 25.389 10.51-6.0705 20.214-15.749 24.634-25.389-6.3972-8.8518-9.6144-19.825-10.534-28.801zm-3.7346 0c-0.42933 9.4651-7.6745 28.347-19.444 28.347-8.6264 0-15.337-7.5638-16.022-15.816 10.522 2.3719 21.071-0.0813 22.498-12.233 8e-3 -0.0693 0.016-0.17866 0.024-0.29866z" fill="#fff"/>
 </g>
</svg>
