<?xml version="1.0" encoding="UTF-8"?>
<svg version="1.1" viewBox="0 0 372.48 442.68" xmlns="http://www.w3.org/2000/svg">
 <g transform="translate(-50.415 -61.177)">
  <g fill="#7ebc42">
   <path transform="matrix(1.3333,0,0,-1.3333,298.81,345.5)" d="m0 0c-0.041 1.196-0.139 2.526-0.301 3.951-0.553 4.859-1.915 10.876-4.764 16.958-1.637 3.494-3.768 7.005-6.518 10.327-4.107 4.964-9.598 9.5-16.91 12.91-0.656 0.306-1.32 0.607-2.005 0.894-1.343 0.563-2.707 1.058-4.082 1.487-2.746 0.857-5.545 1.432-8.35 1.675-1.734 0.151-3.47 0.172-5.197 0.053-10.284-0.705-20.248-6.393-27.508-19.819-1.135-2.099-2.648-4.413-4.419-6.832-7.878-10.766-20.906-23.65-28.935-29.278-4.967-3.481-9.557-5.422-9.373-7.903 0.348-4.696 18.103 2.481 40.067-8.362 21.029-10.383 27.615-24.548 39.882-31.705 12.13-7.076 22.892-1.566 28.901 10.706 6.479 13.234 10.063 28.81 9.512 44.938"/>
   <path transform="matrix(1.3333,0,0,-1.3333,315.03,144.26)" d="m0 0c-1.444 11.997-4.169 22.655-5.811 28.747-4.59 17.028-10.769 33.665-22.349 33.566-12.59-0.109-18.839-15.071-26.403-33.517-7.718-18.819-12.193-26.928-19.085-30.581-9.527-5.049-27.018 2.137-33.497-5.789-2.93-3.585-3.568-9.362-2.632-15.965 0.693-4.884 2.247-10.22 4.376-15.462 2.007-4.94 4.522-9.797 7.308-14.107 6.43-9.949 14.694-17.575 24.879-21.973 2.366-1.023 4.837-1.87 7.412-2.531 0.197-0.051 0.394-0.099 0.593-0.148 3.685-0.899 7.581-1.426 11.694-1.536 0.555-0.016 1.111-0.026 1.673-0.026 0.543 0 1.095 0.013 1.654 0.038 3.279 0.144 6.824 0.724 10.463 1.775 0.272 0.078 0.542 0.151 0.815 0.234 0.336 0.103 0.673 0.22 1.01 0.332 1.598 0.528 3.208 1.138 4.818 1.857 0.641 0.286 1.282 0.589 1.922 0.906 10.363 5.139 20.445 14.41 26.513 28.986 1.977 4.751 3.535 10.056 4.528 15.977 1.598 9.524 1.254 19.784 0.119 29.217"/>
   <path transform="matrix(1.3333,0,0,-1.3333,414.66,210.41)" d="m0 0c-24.767 13.049-65.6 13.171-65.212 40.928 0.105 7.435-4.075 10.393-9.506 8.688-1.331-0.418-2.734-1.105-4.171-2.087-3.53-2.412-8.155-6.126-13.074-10.844-3.107-2.981-6.33-6.36-9.47-10.075-8.968-10.608-20.025-27.904-22.716-44.214-0.147-0.889-0.275-1.777-0.371-2.66-0.356-3.306-0.474-6.434-0.386-9.404 0.072-2.406 0.278-4.707 0.619-6.899 0.68-4.373 1.874-8.33 3.506-11.9 1.467-3.206 3.288-6.096 5.4-8.702 3.579-4.413 7.998-8 12.985-10.857 1.316-0.754 2.623-1.423 3.925-2.053 10.018-4.849 19.649-6.112 28.344-4.371 3.895 0.78 7.597 2.168 11.066 4.096 0.311 0.173 0.629 0.331 0.937 0.512 18.103 10.706 14.147 30.976 35.287 45.673 9.649 6.708 17.349 9.815 23.802 11.855 7.122 2.251 7.085 8.072-0.965 12.314"/>
   <path transform="matrix(1.3333,0,0,-1.3333,242.37,234.22)" d="m0 0c-3.362 17.454-15.316 30.879-36.723 38.853-5.546 2.065-11.727 3.764-18.554 5.075-5.569 1.068-11.565 1.88-18.004 2.416-23.68 1.972-42.175 0.269-55.164-4.475-9.783-3.573-14.476-9.886-15.34-15.613-1.165-7.732 3.23-14.517 11.604-20.674 17.184-12.636 41.261-16.679 49.348-33.634 3.132-6.567 3.492-13.646 1.963-21.63-1.558-8.134-3.709-14.669 0.978-18.758 4.824-4.209 13.722-4.048 28.579 1.102 1.99 0.691 7.195 2.421 13.589 5.477 6.162 2.944 13.425 7.122 19.991 12.791 0.323 0.299 0.655 0.594 1.004 0.882 4.119 3.697 7.915 8.002 10.931 12.978 3.982 6.57 6.595 14.313 6.783 23.381 7e-3 0.347 0.019 0.691 0.019 1.042 0 3.747-0.34 7.343-1.004 10.787"/>
   <path transform="matrix(1.3333,0,0,-1.3333,357.13,319.89)" d="m0 0c-5.968 3.551-11.155 6.815-15.916 11.756-3.309 3.433-6.412 7.682-9.426 13.399-0.646 1.228-1.289 2.515-1.929 3.884-5.905 12.636-11.373 28.396-30.188 28.396-1.923 0-3.771-0.163-5.543-0.465-0.559-0.096-1.11-0.206-1.653-0.33-1.678-0.384-3.277-0.905-4.793-1.549-0.322-0.136-0.638-0.279-0.953-0.428-0.303-0.142-0.6-0.293-0.897-0.446-3.984-2.057-7.311-5.02-9.845-8.675-3.176-4.583-5.105-10.245-5.53-16.546-0.166-2.461-0.101-5.019 0.208-7.648 0.042-0.355 0.077-0.707 0.128-1.064 2.009-14.163 12.299-30.11 30.685-34.161 0.875-0.192 1.761-0.367 2.673-0.505 3.039-0.458 6.022-0.735 8.935-0.873 21.435-1.012 38.925 5.807 44.365 8.133 1.765 0.754 3.855 1.846 3.851 3.309-2e-3 1.141-1.461 2.2-4.172 3.813"/>
  </g>
  <path transform="matrix(1.3333,0,0,-1.3333,277.26,314.41)" d="m0 0c3.019-5.526 4.612-11.705 4.307-17.208-0.015-0.266-0.037-0.52-0.055-0.781 0.875-0.193 1.762-0.367 2.674-0.505 3.038-0.458 6.021-0.735 8.934-0.873-0.553 4.858-1.915 10.876-4.764 16.958-3.661 0.32-7.452 1.042-11.096 2.409" fill="#6cb051"/>
  <path transform="matrix(1.3333,0,0,-1.3333,242.01,292.85)" d="m0 0c-0.05 0.356-0.086 0.709-0.127 1.063-0.31 2.629-0.375 5.188-0.209 7.649-1.734 0.15-3.47 0.172-5.197 0.053-3.016-4.976-6.812-9.282-10.932-12.978-0.332-0.298-0.667-0.592-1.003-0.883-4.321-3.999-6.536-8.964-10.669-15.015-2.27-3.324-5.12-6.974-9.218-10.971-8.237-8.033-2.519-13.841 0.183-16.449 10.224-9.871 36.034-22.939 49.716-16.174 8.07 3.989 16.847 10.287 18.141 29.544-18.386 4.051-28.675 19.998-30.685 34.161" fill="#00ae42"/>
  <path transform="matrix(1.3333,0,0,-1.3333,277.26,314.41)" d="m0 0c-4.92 1.846-9.567 4.858-13.246 9.626-1.355 1.757-2.405 3.554-3.209 5.358-1.228 2.757-1.856 5.533-1.964 8.225-2.746 0.856-5.544 1.432-8.35 1.675-0.166-2.461-0.101-5.02 0.208-7.649 0.042-0.354 0.078-0.707 0.128-1.063 2.01-14.163 12.299-30.11 30.685-34.161 0.018 0.261 0.04 0.515 0.055 0.781 0.305 5.503-1.288 11.682-4.307 17.208" fill="#2d9a47"/>
  <path transform="matrix(1.3333,0,0,-1.3333,217.41,244.37)" d="m0 0c-10.185 4.398-18.449 12.024-24.878 21.973-2.787 4.31-5.302 9.167-7.309 14.107-11.188 2.557-21.841 2.981-27.91 3.136-17.505 0.447-29.848-2.461-32.417-9.708-1.903-5.838-0.029-11.286 9.193-16.84 24.073-14.497 27.657-21.481 33.353-36.258 5.593-14.508 25.09-20.052 42.09-8.289 6.195 4.286 10.478 9.795 13.025 15.718-0.956 5.424-2.689 11.034-5.158 16.159 4e-3 -2e-3 7e-3 3e-3 0.011 2e-3" fill="#00ae42"/>
  <path transform="matrix(1.3333,0,0,-1.3333,309.97,291.38)" d="m0 0c2.12-5.263 4.877-9.913 8.389-13.727 3.894 0.781 7.596 2.168 11.066 4.097-3.309 3.434-6.412 7.683-9.426 13.4-2.922-1.851-6.341-3.192-10.029-3.77" fill="#6cb051"/>
  <path transform="matrix(1.3333,0,0,-1.3333,273.49,243.17)" d="m0 0c-1e-3 -5e-3 -3e-3 -9e-3 -3e-3 -0.014-0.094-0.183-0.174-0.378-0.266-0.562 1.772 0.303 3.621 0.465 5.543 0.465 18.816 0 24.284-15.76 30.188-28.396 0.641-1.369 1.283-2.656 1.93-3.884 3.484 2.207 6.258 5.138 7.914 8.385 4.193 8.227 8.53 16.805 16.967 22.379 9.451 6.243 14.979 6.355 14.979 11.946 0 7.8-26.193 21.812-50.739 18.666-6.068-14.576-16.15-23.846-26.513-28.985" fill="#00ae42"/>
  <path transform="matrix(1.3333,0,0,-1.3333,280.52,243.31)" d="m0 0c-1.923 0-3.771-0.162-5.543-0.465-1.541-3.12-2.824-6.457-3.82-9.886 2.389 1.142 5.012 1.748 7.732 1.667 13.83-0.414 18.846-10.721 20.86-18.609 0.785-3.068 1.744-5.987 2.859-8.756 3.687 0.578 7.107 1.919 10.029 3.77-0.646 1.227-1.289 2.514-1.93 3.883-5.904 12.636-11.372 28.396-30.187 28.396" fill="#2d9a47"/>
  <path transform="matrix(1.3333,0,0,-1.3333,198.75,204.82)" d="m0 0c-2.481 5.266-4.186 11.272-4.011 16.809-5.546 2.065-11.727 3.764-18.554 5.075 0.692-4.884 2.246-10.22 4.376-15.462 6.123-1.4 12.406-3.436 18.189-6.422" fill="#6cb051"/>
  <path transform="matrix(1.3333,0,0,-1.3333,242.37,234.22)" d="m0 0c-4.712 0.124-9.138 1.082-13.231 2.791 1.71-4.033 2.567-8.509 2.521-13.084 3.685-0.899 7.581-1.426 11.695-1.536 7e-3 0.347 0.019 0.691 0.019 1.042 0 3.747-0.34 7.343-1.004 10.787" fill="#2d9a47"/>
  <path transform="matrix(1.3333,0,0,-1.3333,292.04,161.5)" d="m0 0c0.452-7.412 0.054-15.22-1.763-23.079-3.533-15.288-14.741-29.158-30.423-31.209-0.147-0.89-0.275-1.777-0.371-2.66-0.357-3.307-0.474-6.435-0.386-9.405 3.279 0.145 6.824 0.725 10.464 1.776 0.296 0.153 0.593 0.304 0.896 0.446 0.413 1.057 0.838 2.087 1.273 3.089 1.359 8.293 5.654 15.458 10.063 19.151 6.759 5.662 14.712 8.586 22.845 9.628 1.977 4.751 3.535 10.057 4.528 15.978 1.598 9.523 1.254 19.784 0.119 29.217-1.331-0.418-2.734-1.106-4.171-2.087-3.53-2.412-8.155-6.126-13.074-10.845" fill="#6cb051"/>
  <path transform="matrix(1.3333,0,0,-1.3333,242.37,234.22)" d="m0 0c0.348-9e-3 0.694-0.023 1.045-0.023 1.372 0 2.711 0.098 4.023 0.27 2.691 16.31 13.748 33.606 22.717 44.214 3.139 3.715 6.362 7.094 9.469 10.074-0.637 10.451-2.981 20.108-5.547 27.952-2.383 7.286-6.057 12.975-11.149 12.974-7.581-3e-3 -12.686-8.714-17.801-18.029-6.376-11.612-11.413-19.017-24.082-22.291-7.749-2.002-12.836-4.829-14.668-11.318-0.447-1.587-0.675-3.257-0.73-4.97 21.407-7.974 33.361-21.399 36.723-38.853" fill="#00ae42"/>
  <path transform="matrix(1.3333,0,0,-1.3333,220.72,223.27)" d="m0 0c1.188-1.683 2.192-3.501 3.006-5.42 4.094-1.709 8.519-2.667 13.231-2.791-3.362 17.454-15.316 30.879-36.722 38.853-0.176-5.537 1.529-11.543 4.01-16.809 6.408-3.31 12.201-7.78 16.475-13.833" fill="#2d9a47"/>
  <path transform="matrix(1.3333,0,0,-1.3333,209.85,220.89)" d="m0 0c3.362-3.085 7.098-5.508 11.156-7.202-0.814 1.919-1.818 3.737-3.006 5.42-4.275 6.053-10.067 10.523-16.475 13.833 2.389-5.071 5.492-9.452 8.325-12.051" fill="#008050"/>
  <g fill="#2d9a47">
   <path transform="matrix(1.3333,0,0,-1.3333,279.41,174.93)" d="m0 0c-8.969-10.608-20.025-27.904-22.716-44.214 15.682 2.051 26.89 15.921 30.423 31.209 1.816 7.859 2.215 15.667 1.763 23.079-3.108-2.98-6.33-6.359-9.47-10.074"/>
   <path transform="matrix(1.3333,0,0,-1.3333,278.38,217.36)" d="m0 0c-4.409-3.693-8.704-10.858-10.063-19.151-0.435-1.002-0.86-2.033-1.272-3.089-0.028-0.071-0.055-0.142-0.082-0.213-1.536-3.973-2.857-8.367-3.632-13.456-0.466-3.058-0.736-6.363-0.736-9.979v-1.417h5.622v1.417c0 3.767 0.461 7.684 1.283 11.568 0.319 1.509 0.691 3.012 1.123 4.501 0.996 3.428 2.279 6.765 3.82 9.885 0.092 0.185 0.172 0.379 0.266 0.563 0 5e-3 2e-3 9e-3 3e-3 0.014 10.363 5.138 20.445 14.409 26.513 28.985-8.133-1.042-16.086-3.967-22.845-9.628"/>
   <path transform="matrix(1.3333,0,0,-1.3333,228.03,249.78)" d="m0 0c0.023 0.463 0.036 0.924 0.041 1.384 0.046 4.575-0.812 9.051-2.522 13.084-4.058 1.694-7.794 4.117-11.156 7.202-2.832 2.599-5.935 6.98-8.324 12.051-5.783 2.986-12.067 5.022-18.19 6.422 2.007-4.941 4.522-9.797 7.308-14.108 6.43-9.948 14.694-17.574 24.879-21.973-4e-3 1e-3 -7e-3 -3e-3 -0.012-1e-3 2.47-5.125 4.203-10.736 5.159-16.16 0.577-3.274 0.872-6.481 0.872-9.47v-1.42h5.62v1.42c0 8.703-1.565 15.625-3.675 21.569"/>
  </g>
  <path transform="matrix(1.3333,0,0,-1.3333,322.45,311.1)" d="m0 0c-0.339 0.339-0.648 0.712-0.975 1.065-3.511 3.814-6.268 8.464-8.388 13.727-1.116 2.769-2.075 5.687-2.859 8.756-2.014 7.888-7.03 18.195-20.86 18.609-2.72 0.081-5.343-0.525-7.732-1.667-0.709-0.338-1.393-0.73-2.057-1.159-1.995-1.29-3.775-2.963-5.235-4.931-1.599-2.152-2.812-4.65-3.522-7.351-0.53-2.013-0.776-4.139-0.687-6.321 0.108-2.693 0.735-5.468 1.963-8.225 0.805-1.805 1.854-3.602 3.21-5.358 3.678-4.768 8.326-7.781 13.246-9.626 3.643-1.368 7.434-2.089 11.095-2.41 9.134-0.798 17.45 0.916 20.572 1.491 4.274 0.785 4.435 1.194 2.229 3.4" fill="#00ae42"/>
  <path transform="matrix(1.3333,0,0,-1.3333,307.03,216.06)" d="m0 0c-20.983-0.028-33.068-27.198-33.068-46.858h-2.786c0 26.92 15.166 36.293 15.166 54.335 0 8.69-4.61 18.659-14.284 25.912-1.293 0.969-7.666 5.742-11.447 9.82-3.781-4.078-10.154-8.851-11.448-9.82-9.674-7.253-14.283-17.222-14.283-25.912 0-18.042 15.166-27.415 15.166-54.335h-2.787c0 19.66-12.084 46.83-33.067 46.858-14.942 0.02-25.253-14.242-22.173-28.393 2.067-9.467 10.703-17.782 20.965-16.359-1.739 6.567 1.284 13.949 8.481 14.993 8.319 1.204 13.376-7.325 14.932-17.099h-0.142c-1.69 0-3.061-1.371-3.061-3.061s1.371-3.06 3.061-3.06h48.712c1.69 0 3.06 1.37 3.06 3.06s-1.37 3.061-3.06 3.061h-0.142c1.556 9.774 6.612 18.303 14.932 17.099 7.197-1.044 10.219-8.426 8.481-14.993 10.262-1.423 18.897 6.892 20.965 16.359 3.08 14.151-7.232 28.413-22.173 28.393m-23.316-55.96c-7e-3 0.052-0.013 0.134-0.019 0.224h-9.707c0.321-7.099 5.755-21.262 14.582-21.262 6.47 0 11.503 5.673 12.017 11.863-7.892-1.779-15.804 0.06-16.873 9.175m-33.678 0.224c-0.69-6.732-3.103-14.962-7.901-21.602 3.315-7.229 10.592-14.488 18.476-19.042 7.883 4.554 15.161 11.813 18.475 19.042-4.797 6.64-7.211 14.87-7.9 21.602zm-2.802 0c-0.322-7.099-5.756-21.262-14.583-21.262-6.47 0-11.503 5.673-12.017 11.863 7.892-1.779 15.804 0.06 16.874 9.175 6e-3 0.052 0.012 0.134 0.018 0.224z" fill="#fff"/>
  <path transform="matrix(1.3333,0,0,-1.3333,367.33,467.96)" d="m0 0c-2.698 0.741-6.679 1.484-10.188 1.484-3.239 0-4.858-0.27-4.858-2.969 0-1.822 0.945-2.293 6.275-2.968 8.03-1.013 11.605-3.442 11.605-10.526 0-9.378-6.747-11.875-15.451-11.875-3.71 0-9.109 0.742-12.279 1.889l2.024 7.826c2.563-0.742 6.41-1.416 9.783-1.416 4.049 0 5.938 0.337 5.938 3.036 0 1.889-1.148 2.631-6.883 3.171-7.219 0.675-11.065 2.767-11.065 10.121 0 9.378 6.68 11.807 15.316 11.807 3.711 0 8.569-0.741 11.808-1.889zm-38.554-0.271v-12.886c0-3.509 1.013-4.926 4.657-4.926 2.159 0 3.913 0.405 5.532 0.944l1.687-7.961c-2.564-1.08-6.68-1.754-10.39-1.754-7.625 0-11.876 2.293-11.876 12.617v28.963l10.39 4.182v-10.272h10.796v-8.907zm-24.328 8.907h10.256v-32.453c-4.386-1.552-11.336-3.105-17.475-3.105-9.581 0-14.169 4.049-14.169 16.396v19.162h10.255v-18.353c0-6.207 1.079-7.961 6.14-7.961 1.687 0 3.172 0.27 4.993 0.675zm-47.567-17.273c0-8.704 1.417-10.121 6.275-10.121 4.925 0 6.342 1.417 6.342 10.121 0 9.041-1.417 10.121-6.342 10.121-4.858 0-6.275-1.08-6.275-10.121m-10.458 0.202c0 14.102 5.735 18.015 16.733 18.015 11.2 0 16.867-3.913 16.867-18.015 0-14.169-5.599-18.419-16.867-18.419-11.133 0-16.733 4.25-16.733 18.419m-0.792-16.665c-2.766-1.147-7.422-1.754-10.863-1.754-10.323 0-17.205 4.25-17.205 18.419 0 14.035 6.95 18.015 17.205 18.015 3.576 0 8.164-0.539 10.863-1.484l-2.159-8.771c-1.957 0.742-4.993 1.416-7.827 1.416-5.06 0-7.625-0.876-7.625-9.378 0-8.096 2.565-9.311 7.625-9.311 2.969 0 5.87 0.742 7.827 1.552zm-33.108 33.317c-2.648 0.756-7.186 1.449-12.039 1.449-6.555 0-8.446-1.261-8.446-4.286 0-2.774 1.261-3.781 8.887-4.601 10.022-1.134 14.497-4.979 14.497-13.362 0-10.841-5.799-14.308-19.476-14.308-5.295 0-10.715 0.82-14.245 2.08l2.08 8.698c2.836-0.756 7.249-1.449 12.039-1.449 6.555 0 8.635 0.945 8.635 4.286 0 2.773-1.198 4.096-9.455 4.979-9.391 1.008-13.803 4.097-13.803 12.228 0 10.904 6.303 15.063 19.35 15.063 5.294 0 10.589-0.819 14.055-2.079z"/>
 </g>
</svg>
