<?xml version="1.0" encoding="UTF-8"?>
<svg version="1.1" viewBox="0 0 372.48 476.63" xmlns="http://www.w3.org/2000/svg">
 <g transform="translate(-50.415 -61.177)">
  <path transform="matrix(1.3333,0,0,-1.3333,414.66,210.42)" d="m0 0c-24.766 13.049-65.6 13.171-65.211 40.929 0.105 7.434-4.075 10.392-9.507 8.687-1.331-0.417-2.733-1.104-4.171-2.087-3.529-2.412-8.155-6.125-13.074-10.844-3.106-2.981-6.329-6.359-9.47-10.074-8.967-10.608-20.025-27.905-22.715-44.215-0.147-0.889-0.275-1.777-0.371-2.659-0.357-3.307-0.474-6.435-0.386-9.404 0.071-2.406 0.277-4.708 0.618-6.9 0.68-4.372 1.874-8.329 3.507-11.899 1.466-3.206 3.287-6.097 5.4-8.702 3.579-4.414 7.998-8 12.985-10.858 1.315-0.753 2.623-1.422 3.925-2.053 10.018-4.848 19.648-6.112 28.343-4.37 3.895 0.779 7.597 2.168 11.066 4.095 0.312 0.174 0.629 0.332 0.937 0.513 18.103 10.706 14.147 30.975 35.288 45.672 9.649 6.709 17.349 9.815 23.801 11.855 7.122 2.251 7.086 8.072-0.965 12.314" fill="#7ebc42"/>
  <path transform="matrix(1.3333,0,0,-1.3333,315.03,144.26)" d="m0 0c-1.443 11.998-4.168 22.655-5.811 28.747-4.59 17.029-10.768 33.665-22.348 33.566-12.591-0.108-18.839-15.071-26.404-33.516-7.718-18.82-12.193-26.929-19.085-30.581-9.526-5.049-27.018 2.137-33.496-5.79-2.931-3.585-3.569-9.361-2.632-15.965 0.692-4.884 2.246-10.22 4.376-15.462 2.006-4.94 4.521-9.796 7.308-14.107 6.429-9.948 14.693-17.574 24.878-21.973 2.367-1.022 4.837-1.869 7.412-2.531 0.197-0.05 0.395-0.099 0.593-0.147 3.685-0.9 7.581-1.426 11.695-1.537 0.554-0.015 1.11-0.025 1.672-0.025 0.543 0 1.095 0.013 1.654 0.038 3.279 0.143 6.824 0.723 10.464 1.774 0.272 0.079 0.542 0.151 0.815 0.235 0.335 0.102 0.673 0.22 1.009 0.332 1.598 0.528 3.208 1.137 4.818 1.856 0.642 0.286 1.282 0.589 1.922 0.906 10.363 5.14 20.446 14.409 26.514 28.986 1.977 4.751 3.534 10.056 4.528 15.977 1.597 9.524 1.254 19.784 0.118 29.217" fill="#ffc62f"/>
  <path transform="matrix(1.3333,0,0,-1.3333,292.04,161.5)" d="m0 0v-1e-3 1e-3c-0.638 10.451-2.981 20.107-5.547 27.952-2.383 7.285-6.057 12.975-11.149 12.973-7.581-3e-3 -12.686-8.714-17.801-18.029-6.376-11.612-11.413-19.016-24.082-22.291-7.749-2.002-12.836-4.83-14.668-11.317-0.447-1.587-0.675-3.257-0.73-4.971-0.175-5.537 1.53-11.544 4.011-16.809 2.389-5.07 5.492-9.451 8.325-12.051 3.362-3.084 7.098-5.507 11.156-7.202 4.093-1.709 8.519-2.666 13.231-2.79 0.348-0.01 0.694-0.025 1.045-0.025 1.373 0 2.711 0.1 4.023 0.271v1e-3 -1e-3c15.683 2.052 26.891 15.922 30.423 31.21 1.817 7.858 2.215 15.667 1.763 23.079" fill="#fbaa19"/>
  <path transform="matrix(1.3333,0,0,-1.3333,298.81,345.5)" d="m0 0c-0.041 1.196-0.138 2.526-0.3 3.951-0.554 4.859-1.916 10.877-4.764 16.959-1.637 3.494-3.769 7.004-6.518 10.326-4.107 4.964-9.599 9.501-16.911 12.911-0.655 0.306-1.319 0.607-2.005 0.894-1.342 0.563-2.706 1.057-4.082 1.486-2.746 0.857-5.544 1.433-8.35 1.675-1.734 0.151-3.47 0.172-5.197 0.054-10.284-0.705-20.248-6.393-27.508-19.82-1.135-2.099-2.648-4.413-4.418-6.832-7.879-10.766-20.907-23.65-28.935-29.277-4.968-3.482-9.557-5.422-9.374-7.903 0.348-4.696 18.104 2.481 40.067-8.362 21.029-10.383 27.615-24.549 39.883-31.705 12.13-7.076 22.892-1.567 28.901 10.705 6.479 13.234 10.063 28.81 9.511 44.938" fill="#de8d28"/>
  <path transform="matrix(1.3333,0,0,-1.3333,277.26,314.41)" d="m0 0c-4.921 1.846-9.568 4.858-13.246 9.627-1.356 1.756-2.405 3.553-3.21 5.357-1.228 2.757-1.855 5.534-1.963 8.225-2.747 0.856-5.545 1.433-8.351 1.676-1.733 0.149-3.47 0.171-5.197 0.052-3.016-4.976-6.812-9.281-10.931-12.977-0.333-0.299-0.667-0.593-1.004-0.883-4.32-4-6.536-8.965-10.669-15.016-2.27-3.324-5.12-6.974-9.218-10.971-8.237-8.032-2.518-13.84 0.184-16.449 10.223-9.87 36.033-22.938 49.715-16.174 8.07 3.989 16.848 10.288 18.142 29.545 0.018 0.26 0.039 0.515 0.054 0.781 0.305 5.503-1.287 11.681-4.306 17.207" fill="#bb6228"/>
  <path transform="matrix(1.3333,0,0,-1.3333,357.13,319.89)" d="m0 0c-5.968 3.551-11.155 6.815-15.916 11.756-3.309 3.433-6.411 7.682-9.425 13.4-0.646 1.227-1.29 2.514-1.93 3.883-5.904 12.636-11.372 28.397-30.187 28.397-1.924 0-3.771-0.163-5.543-0.466-0.56-0.096-1.11-0.205-1.654-0.33-1.677-0.384-3.277-0.905-4.792-1.548-0.322-0.137-0.639-0.28-0.953-0.428-0.304-0.143-0.601-0.294-0.897-0.447-3.984-2.056-7.311-5.02-9.845-8.675-3.177-4.583-5.105-10.245-5.531-16.546-0.166-2.461-0.1-5.018 0.209-7.648 0.041-0.355 0.077-0.706 0.127-1.064 2.01-14.163 12.299-30.11 30.686-34.16 0.875-0.193 1.761-0.368 2.672-0.506 3.039-0.457 6.023-0.735 8.936-0.873 21.435-1.011 38.924 5.808 44.364 8.133 1.765 0.755 3.855 1.846 3.852 3.309-3e-3 1.141-1.462 2.201-4.173 3.813" fill="#a42036"/>
  <path transform="matrix(1.3333,0,0,-1.3333,242.37,234.22)" d="m0 0c-3.362 17.453-15.316 30.878-36.723 38.853-5.546 2.065-11.727 3.764-18.554 5.074-5.569 1.069-11.565 1.881-18.004 2.417-23.68 1.972-42.175 0.269-55.164-4.475-9.783-3.574-14.476-9.887-15.34-15.613-1.165-7.732 3.23-14.517 11.604-20.675 17.184-12.636 41.261-16.679 49.348-33.634 3.132-6.566 3.492-13.646 1.963-21.63-1.558-8.134-3.709-14.669 0.978-18.757 4.824-4.21 13.722-4.048 28.579 1.102 1.99 0.69 7.195 2.421 13.589 5.476 6.162 2.945 13.425 7.122 19.991 12.792 0.323 0.299 0.655 0.593 1.004 0.882 4.119 3.697 7.915 8.001 10.931 12.978 3.982 6.569 6.595 14.313 6.783 23.38 7e-3 0.347 0.019 0.691 0.019 1.042 0 3.748-0.34 7.344-1.004 10.788" fill="#eb6952"/>
  <path transform="matrix(1.3333,0,0,-1.3333,228.03,249.78)" d="m0 0c0.023 0.462 0.036 0.923 0.041 1.384 0.046 4.575-0.812 9.05-2.522 13.083-0.813 1.919-1.818 3.738-3.006 5.421-4.274 6.051-10.067 10.523-16.474 13.832-5.783 2.986-12.067 5.022-18.19 6.422-11.189 2.557-21.841 2.98-27.911 3.135-17.504 0.449-29.848-2.46-32.417-9.708-1.903-5.837-0.029-11.286 9.194-16.84 24.073-14.496 27.657-21.48 33.353-36.257 5.592-14.507 25.089-20.051 42.09-8.288 6.195 4.286 10.477 9.795 13.025 15.717 0.577-3.275 0.872-6.481 0.872-9.471v-1.42h5.62v1.42c0 8.704-1.565 15.626-3.675 21.57" fill="#ed1d24"/>
  <path transform="matrix(1.3333,0,0,-1.3333,228.09,247.94)" d="m0 0c0.046 4.575-0.811 9.05-2.521 13.083 4.093-1.709 8.519-2.666 13.231-2.79-3.362 17.453-15.316 30.878-36.723 38.853-5.546 2.065-11.727 3.764-18.554 5.074 0.692-4.884 2.246-10.219 4.376-15.462 2.006-4.941 4.521-9.796 7.308-14.108 6.429-9.947 14.693-17.573 24.878-21.972-4e-3 1e-3 -7e-3 -4e-3 -0.011-2e-3 2.469-5.125 4.202-10.736 5.158-16.158 0.578-3.276 0.872-6.482 0.872-9.472v-1.42h5.62v1.42c0 8.704-1.564 15.626-3.675 21.57 0.023 0.462 0.036 0.923 0.041 1.384" fill="#eb8350"/>
  <path transform="matrix(1.3333,0,0,-1.3333,193.4,182.41)" d="m0 0c-0.175-5.537 1.529-11.544 4.011-16.81 2.389-5.069 5.492-9.451 8.324-12.05 3.362-3.084 7.098-5.507 11.156-7.203 4.094-1.708 8.52-2.666 13.232-2.79-3.363 17.454-15.316 30.878-36.723 38.853" fill="#de6940"/>
  <path transform="matrix(1.3333,0,0,-1.3333,228.03,249.78)" d="m0 0c0.023 0.462 0.036 0.923 0.041 1.384 0.046 4.575-0.812 9.05-2.522 13.083-0.813 1.919-1.818 3.738-3.006 5.421-4.274 6.051-10.067 10.523-16.474 13.832-5.783 2.986-12.067 5.022-18.19 6.422 2.007-4.941 4.522-9.796 7.308-14.108 6.43-9.947 14.694-17.573 24.879-21.972-4e-3 0-7e-3 -4e-3 -0.012-2e-3 2.47-5.125 4.203-10.736 5.159-16.159 0.577-3.275 0.872-6.481 0.872-9.471v-1.42h5.62v1.42c0 8.704-1.565 15.626-3.675 21.57" fill="#d9292c"/>
  <path transform="matrix(1.3333,0,0,-1.3333,209.85,220.89)" d="m0 0c3.362-3.084 7.098-5.508 11.156-7.202-0.814 1.919-1.818 3.738-3.006 5.421-4.275 6.052-10.067 10.523-16.475 13.832 2.389-5.07 5.492-9.451 8.325-12.051" fill="#c1272a"/>
  <path transform="matrix(1.3333,0,0,-1.3333,308.84,204.52)" d="m0 0c-8.134-1.043-16.086-3.968-22.845-9.629-4.41-3.693-8.704-10.857-10.063-19.151-0.435-1.002-0.861-2.032-1.273-3.088-0.027-0.071-0.054-0.142-0.082-0.213-1.535-3.973-2.856-8.367-3.631-13.456-0.466-3.058-0.736-6.364-0.736-9.98v-1.417h5.622v1.417c0 3.768 0.461 7.685 1.282 11.568 0.32 1.511 0.691 3.012 1.123 4.502 2.39 1.141 5.013 1.747 7.733 1.666 13.831-0.413 18.846-10.722 20.86-18.609 0.784-3.069 1.743-5.987 2.859-8.756 3.687 0.579 7.107 1.919 10.03 3.77 3.483 2.206 6.259 5.138 7.914 8.384 4.193 8.226 8.53 16.805 16.967 22.379 9.45 6.243 14.979 6.355 14.979 11.946 0 7.8-26.193 21.813-50.739 18.667" fill="#2f9e49"/>
  <path transform="matrix(1.3333,0,0,-1.3333,315.03,144.26)" d="m0 0c-1.331-0.417-2.733-1.104-4.171-2.087-3.529-2.411-8.155-6.125-13.074-10.844-3.107-2.981-6.329-6.359-9.47-10.074-8.968-10.608-20.025-27.905-22.716-44.215-0.147-0.889-0.275-1.777-0.37-2.659-0.357-3.308-0.474-6.435-0.387-9.404 3.279 0.143 6.824 0.723 10.464 1.774 0.296 0.154 0.594 0.305 0.897 0.447-0.027-0.071-0.055-0.141-0.082-0.212-1.535-3.973-2.857-8.368-3.632-13.456-0.465-3.058-0.736-6.365-0.736-9.98v-1.417h5.622v1.417c0 3.768 0.462 7.685 1.283 11.567 0.319 1.511 0.69 3.013 1.123 4.502 0.997 3.429 2.279 6.765 3.821 9.885 0.092 0.186 0.172 0.38 0.265 0.564 1e-3 4e-3 3e-3 8e-3 3e-3 0.012 10.363 5.14 20.446 14.41 26.514 28.987 1.977 4.75 3.534 10.056 4.528 15.976 1.597 9.524 1.254 19.784 0.118 29.217" fill="#9fc23f"/>
  <path transform="matrix(1.3333,0,0,-1.3333,279.41,174.93)" d="m0 0c-8.968-10.608-20.025-27.905-22.716-44.215 15.683 2.052 26.891 15.922 30.423 31.209 1.816 7.86 2.215 15.668 1.763 23.079-3.107-2.98-6.329-6.358-9.47-10.073" fill="#ad9d42"/>
  <path transform="matrix(1.3333,0,0,-1.3333,278.38,217.36)" d="m0 0c-4.41-3.693-8.704-10.857-10.063-19.151-0.436-1.002-0.861-2.032-1.273-3.088-0.027-0.072-0.055-0.143-0.082-0.213-1.535-3.973-2.856-8.367-3.631-13.456-0.466-3.059-0.737-6.364-0.737-9.98v-1.417h5.622v1.417c0 3.768 0.462 7.684 1.283 11.568 0.319 1.51 0.691 3.012 1.123 4.502 0.997 3.428 2.279 6.764 3.821 9.884 0.092 0.186 0.172 0.38 0.265 0.564 1e-3 4e-3 3e-3 9e-3 3e-3 0.013 10.363 5.139 20.446 14.409 26.514 28.985-8.134-1.042-16.086-3.967-22.845-9.628" fill="#008d51"/>
  <path transform="matrix(1.3333,0,0,-1.3333,277.26,314.41)" d="m0 0c3.019-5.526 4.611-11.704 4.306-17.207-0.015-0.267-0.036-0.521-0.054-0.781 0.875-0.194 1.762-0.368 2.673-0.506 3.038-0.457 6.022-0.735 8.935-0.873-0.553 4.858-1.916 10.877-4.764 16.959-3.662 0.319-7.452 1.041-11.096 2.408" fill="#923938"/>
  <path transform="matrix(1.3333,0,0,-1.3333,277.26,314.41)" d="m0 0c-4.921 1.846-9.568 4.858-13.246 9.626-1.356 1.757-2.405 3.554-3.21 5.358-1.228 2.757-1.855 5.534-1.963 8.225-2.747 0.856-5.545 1.433-8.351 1.675-0.166-2.461-0.1-5.019 0.209-7.649 0.041-0.354 0.077-0.706 0.127-1.063 2.01-14.163 12.3-30.11 30.686-34.16 0.018 0.26 0.039 0.514 0.054 0.781 0.305 5.503-1.287 11.681-4.306 17.207" fill="#803039"/>
  <path transform="matrix(1.3333,0,0,-1.3333,322.45,311.1)" d="m0 0c-0.34 0.34-0.649 0.712-0.976 1.066-3.511 3.813-6.268 8.463-8.388 13.726-1.115 2.77-2.074 5.687-2.859 8.757-2.014 7.887-7.029 18.195-20.86 18.608-2.72 0.081-5.343-0.525-7.732-1.666-0.708-0.339-1.393-0.731-2.057-1.16-1.995-1.289-3.775-2.963-5.235-4.93-1.598-2.153-2.811-4.651-3.522-7.351-0.529-2.014-0.775-4.139-0.687-6.322 0.108-2.692 0.736-5.468 1.964-8.225 0.804-1.805 1.854-3.602 3.209-5.358 3.679-4.768 8.326-7.781 13.247-9.626 3.643-1.368 7.433-2.089 11.095-2.409 9.133-0.798 17.449 0.915 20.572 1.49 4.274 0.786 4.434 1.195 2.229 3.4" fill="#79242f"/>
  <path transform="matrix(1.3333,0,0,-1.3333,309.97,291.38)" d="m0 0c2.12-5.263 4.877-9.913 8.389-13.726 3.894 0.78 7.596 2.168 11.066 4.096-3.309 3.434-6.411 7.683-9.425 13.401-2.923-1.852-6.342-3.193-10.03-3.771" fill="#9f4040"/>
  <path transform="matrix(1.3333,0,0,-1.3333,280.52,243.31)" d="m0 0c-1.924 0-3.771-0.162-5.543-0.466-1.542-3.12-2.824-6.456-3.821-9.885 2.389 1.141 5.012 1.747 7.732 1.666 13.831-0.413 18.846-10.721 20.861-18.608 0.784-3.069 1.743-5.987 2.858-8.757 3.687 0.578 7.107 1.919 10.03 3.771-0.646 1.226-1.29 2.513-1.93 3.883-5.904 12.635-11.372 28.396-30.187 28.396" fill="#505b3b"/>
  <path transform="matrix(1.3333,0,0,-1.3333,307.03,216.06)" d="m0 0c-20.983-0.028-33.067-27.197-33.067-46.857h-2.787c0 26.92 15.167 36.293 15.167 54.334 0 8.691-4.611 18.66-14.284 25.912-1.294 0.969-7.667 5.742-11.448 9.821-3.781-4.079-10.154-8.852-11.447-9.821-9.674-7.252-14.284-17.221-14.284-25.912 0-18.041 15.167-27.414 15.167-54.334h-2.788c0 19.66-12.083 46.829-33.067 46.857-14.941 0.02-25.253-14.242-22.173-28.393 2.067-9.466 10.703-17.782 20.966-16.359-1.739 6.568 1.283 13.95 8.48 14.993 8.319 1.205 13.377-7.324 14.932-17.098h-0.141c-1.691 0-3.061-1.371-3.061-3.061s1.37-3.061 3.061-3.061h48.711c1.69 0 3.061 1.371 3.061 3.061s-1.371 3.061-3.061 3.061h-0.142c1.556 9.774 6.613 18.303 14.933 17.098 7.197-1.043 10.218-8.425 8.48-14.993 10.262-1.423 18.898 6.893 20.965 16.359 3.08 14.151-7.232 28.413-22.173 28.393m-23.316-55.96c-6e-3 0.052-0.012 0.134-0.018 0.224h-9.708c0.322-7.099 5.756-21.261 14.583-21.261 6.47 0 11.503 5.673 12.017 11.862-7.892-1.779-15.804 0.061-16.874 9.175m-33.678 0.224c-0.689-6.732-3.103-14.962-7.9-21.601 3.314-7.23 10.592-14.489 18.475-19.042 7.883 4.553 15.161 11.812 18.476 19.042-4.798 6.639-7.211 14.869-7.901 21.601zm-2.801 0c-0.322-7.099-5.756-21.261-14.583-21.261-6.47 0-11.503 5.673-12.017 11.862 7.892-1.779 15.804 0.061 16.874 9.175 6e-3 0.052 0.012 0.134 0.018 0.224z" fill="#fff"/>
  <path transform="matrix(1.3333,0,0,-1.3333,367.33,467.96)" d="m0 0c-2.698 0.741-6.679 1.484-10.188 1.484-3.239 0-4.858-0.27-4.858-2.969 0-1.822 0.945-2.293 6.275-2.968 8.03-1.013 11.605-3.442 11.605-10.526 0-9.378-6.747-11.875-15.451-11.875-3.71 0-9.109 0.742-12.279 1.889l2.024 7.826c2.563-0.742 6.41-1.416 9.783-1.416 4.049 0 5.938 0.337 5.938 3.036 0 1.889-1.148 2.631-6.883 3.171-7.219 0.675-11.065 2.767-11.065 10.121 0 9.378 6.68 11.807 15.316 11.807 3.711 0 8.569-0.741 11.808-1.889zm-38.554-0.271v-12.886c0-3.509 1.013-4.926 4.657-4.926 2.159 0 3.913 0.405 5.532 0.944l1.687-7.961c-2.564-1.08-6.68-1.754-10.39-1.754-7.625 0-11.876 2.293-11.876 12.617v28.963l10.39 4.182v-10.272h10.796v-8.907zm-24.328 8.907h10.256v-32.453c-4.386-1.552-11.336-3.105-17.475-3.105-9.581 0-14.169 4.049-14.169 16.396v19.162h10.255v-18.353c0-6.207 1.079-7.961 6.14-7.961 1.687 0 3.172 0.27 4.993 0.675zm-47.567-17.273c0-8.704 1.417-10.121 6.275-10.121 4.925 0 6.342 1.417 6.342 10.121 0 9.041-1.417 10.121-6.342 10.121-4.858 0-6.275-1.08-6.275-10.121m-10.458 0.202c0 14.102 5.735 18.015 16.733 18.015 11.2 0 16.867-3.913 16.867-18.015 0-14.169-5.599-18.419-16.867-18.419-11.133 0-16.733 4.25-16.733 18.419m-0.792-16.665c-2.766-1.147-7.422-1.754-10.863-1.754-10.323 0-17.205 4.25-17.205 18.419 0 14.035 6.95 18.015 17.205 18.015 3.576 0 8.164-0.539 10.863-1.484l-2.159-8.771c-1.957 0.742-4.993 1.416-7.827 1.416-5.06 0-7.625-0.876-7.625-9.378 0-8.096 2.565-9.311 7.625-9.311 2.969 0 5.87 0.742 7.827 1.552zm-33.108 33.317c-2.648 0.756-7.186 1.449-12.039 1.449-6.555 0-8.446-1.261-8.446-4.286 0-2.774 1.261-3.781 8.887-4.601 10.022-1.134 14.497-4.979 14.497-13.362 0-10.841-5.799-14.308-19.476-14.308-5.295 0-10.715 0.82-14.245 2.08l2.08 8.698c2.836-0.756 7.249-1.449 12.039-1.449 6.555 0 8.635 0.945 8.635 4.286 0 2.773-1.198 4.096-9.455 4.979-9.391 1.008-13.803 4.097-13.803 12.228 0 10.904 6.303 15.063 19.35 15.063 5.294 0 10.589-0.819 14.055-2.079z"/>
  <path transform="matrix(1.3333,0,0,-1.3333,268.56,526.5)" d="m0 0v4.579h4.361c1.069 0 1.701-0.764 1.701-2.354 0-1.484-0.654-2.225-1.766-2.225zm5.277-1.57c3.031 0.109 3.991 1.984 3.991 4.165 0 2.442-1.026 4.426-4.231 4.426h-7.915v-15.198h2.878v5.8h2.028c0.981 0 2.399-1.635 4.776-5.8h3.553c-2.66 4.448-4.034 6.237-5.08 6.607m-17.493-4.318c-3.336 0-4.164 0.829-4.164 5.409 0 4.6 0.828 5.276 4.164 5.276 3.337 0 4.165-0.676 4.165-5.276 0-4.58-0.828-5.409-4.165-5.409m0 13.28c-4.819 0-7.24-1.658-7.24-7.829 0-6.279 2.399-8.045 7.24-8.045 4.819 0 7.217 1.766 7.217 8.045 0 6.171-2.398 7.829-7.217 7.829m24.3-15.569h2.878v15.198h-2.878zm9.226 6.258c0.784 2.29 1.59 4.535 2.354 6.498h0.589c0.589-1.963 1.33-4.252 2.115-6.498zm5.058 8.94h-4.514c-1.853-4.536-4.078-10.663-5.495-15.198h3.009c0.35 1.156 0.741 2.443 1.178 3.794h6.65c0.502-1.395 1.026-2.704 1.461-3.794h3.184c-1.701 4.056-3.925 10.314-5.473 15.198m-59.214-2.486h5.124v-12.712h2.9v12.712h5.124v2.486h-13.148zm-17.994-12.712h2.878v15.198h-2.878zm13.149 12.952c1.025 0 2.442-0.196 3.228-0.479l0.632 2.529c-1.178 0.327-2.966 0.567-4.361 0.567-4.819 0-7.13-1.614-7.13-7.829 0-6.192 2.311-8.045 7.13-8.045 1.395 0 3.183 0.218 4.361 0.545l-0.632 2.573c-0.786-0.283-2.203-0.48-3.228-0.48-3.314 0-4.557 0.72-4.557 5.386s1.243 5.233 4.557 5.233m-21.766-10.03c-1.112 3.794-2.965 8.962-4.339 12.276h-3.183c1.787-4.055 4.011-10.378 5.494-15.198h3.685c1.919 4.535 4.165 10.662 5.56 15.198h-3.031c-1.09-3.707-2.682-8.569-4.186-12.276"/>
 </g>
</svg>
