<?xml version="1.0" standalone="no"?>
<!DOCTYPE svg PUBLIC "-//W3C//DTD SVG 20010904//EN"
 "http://www.w3.org/TR/2001/REC-SVG-20010904/DTD/svg10.dtd">
<svg version="1.0" xmlns="http://www.w3.org/2000/svg"
 width="2048.000000pt" height="2048.000000pt" viewBox="0 0 2048.000000 2048.000000"
 preserveAspectRatio="xMidYMid meet">
<metadata>
Created by potrace 1.11, written by Peter Selinger 2001-2013
</metadata>
<g transform="translate(0.000000,2048.000000) scale(0.100000,-0.100000)"
fill="#000000" stroke="none">
<path d="M10163 19893 c32 -2 81 -2 110 0 29 2 3 3 -58 3 -60 0 -84 -1 -52 -3z"/>
<path d="M9613 19873 c15 -2 37 -2 50 0 12 2 0 4 -28 4 -27 0 -38 -2 -22 -4z"/>
<path d="M10778 19873 c12 -2 32 -2 45 0 12 2 2 4 -23 4 -25 0 -35 -2 -22 -4z"/>
<path d="M9348 19853 c12 -2 30 -2 40 0 9 3 -1 5 -23 4 -22 0 -30 -2 -17 -4z"/>
<path d="M11058 19853 c12 -2 30 -2 40 0 9 3 -1 5 -23 4 -22 0 -30 -2 -17 -4z"/>
<path d="M9143 19833 c9 -2 23 -2 30 0 6 3 -1 5 -18 5 -16 0 -22 -2 -12 -5z"/>
<path d="M11263 19833 c9 -2 25 -2 35 0 9 3 1 5 -18 5 -19 0 -27 -2 -17 -5z"/>
<path d="M8968 19813 c6 -2 18 -2 25 0 6 3 1 5 -13 5 -14 0 -19 -2 -12 -5z"/>
<path d="M11448 19813 c6 -2 18 -2 25 0 6 3 1 5 -13 5 -14 0 -19 -2 -12 -5z"/>
<path d="M8818 19793 c7 -3 16 -2 19 1 4 3 -2 6 -13 5 -11 0 -14 -3 -6 -6z"/>
<path d="M11588 19793 c7 -3 16 -2 19 1 4 3 -2 6 -13 5 -11 0 -14 -3 -6 -6z"/>
<path d="M8768 19783 c7 -3 16 -2 19 1 4 3 -2 6 -13 5 -11 0 -14 -3 -6 -6z"/>
<path d="M11778 19763 c7 -3 16 -2 19 1 4 3 -2 6 -13 5 -11 0 -14 -3 -6 -6z"/>
<path d="M8518 19743 c7 -3 16 -2 19 1 4 3 -2 6 -13 5 -11 0 -14 -3 -6 -6z"/>
<path d="M11898 19743 c7 -3 16 -2 19 1 4 3 -2 6 -13 5 -11 0 -14 -3 -6 -6z"/>
<path d="M8408 19723 c7 -3 16 -2 19 1 4 3 -2 6 -13 5 -11 0 -14 -3 -6 -6z"/>
<path d="M12008 19723 c7 -3 16 -2 19 1 4 3 -2 6 -13 5 -11 0 -14 -3 -6 -6z"/>
<path d="M8298 19703 c6 -2 18 -2 25 0 6 3 1 5 -13 5 -14 0 -19 -2 -12 -5z"/>
<path d="M12118 19703 c7 -3 16 -2 19 1 4 3 -2 6 -13 5 -11 0 -14 -3 -6 -6z"/>
<path d="M8198 19683 c6 -2 18 -2 25 0 6 3 1 5 -13 5 -14 0 -19 -2 -12 -5z"/>
<path d="M12218 19683 c7 -3 16 -2 19 1 4 3 -2 6 -13 5 -11 0 -14 -3 -6 -6z"/>
<path d="M12308 19663 c7 -3 16 -2 19 1 4 3 -2 6 -13 5 -11 0 -14 -3 -6 -6z"/>
<path d="M12678 19573 c7 -3 16 -2 19 1 4 3 -2 6 -13 5 -11 0 -14 -3 -6 -6z"/>
<path d="M7668 19553 c7 -3 16 -2 19 1 4 3 -2 6 -13 5 -11 0 -14 -3 -6 -6z"/>
<path d="M7598 19533 c7 -3 16 -2 19 1 4 3 -2 6 -13 5 -11 0 -14 -3 -6 -6z"/>
<path d="M14040 19106 c0 -2 7 -7 16 -10 8 -3 12 -2 9 4 -6 10 -25 14 -25 6z"/>
<path d="M14330 18976 c0 -2 7 -7 16 -10 8 -3 12 -2 9 4 -6 10 -25 14 -25 6z"/>
<path d="M14587 18849 c7 -7 15 -10 18 -7 3 3 -2 9 -12 12 -14 6 -15 5 -6 -5z"/>
<path d="M14640 18826 c0 -2 8 -10 18 -17 15 -13 16 -12 3 4 -13 16 -21 21
-21 13z"/>
<path d="M5700 18780 c-9 -6 -10 -10 -3 -10 6 0 15 5 18 10 8 12 4 12 -15 0z"/>
<path d="M14717 18779 c7 -7 15 -10 18 -7 3 3 -2 9 -12 12 -14 6 -15 5 -6 -5z"/>
<path d="M14800 18736 c0 -2 7 -7 16 -10 8 -3 12 -2 9 4 -6 10 -25 14 -25 6z"/>
<path d="M15100 18566 c0 -2 7 -7 16 -10 8 -3 12 -2 9 4 -6 10 -25 14 -25 6z"/>
<path d="M5275 18540 c-3 -6 1 -7 9 -4 18 7 21 14 7 14 -6 0 -13 -4 -16 -10z"/>
<path d="M5084 18424 c-18 -14 -18 -15 4 -4 12 6 22 13 22 15 0 8 -5 6 -26
-11z"/>
<path d="M4539 18053 c-13 -16 -12 -17 4 -4 16 13 21 21 13 21 -2 0 -10 -8
-17 -17z"/>
<path d="M15915 18030 c10 -11 20 -20 23 -20 3 0 -3 9 -13 20 -10 11 -20 20
-23 20 -3 0 3 -9 13 -20z"/>
<path d="M4365 17924 c-18 -16 -22 -22 -9 -15 18 9 53 42 43 41 -2 -1 -17 -12
-34 -26z"/>
<path d="M4259 17843 c-13 -16 -12 -17 4 -4 9 7 17 15 17 17 0 8 -8 3 -21 -13z"/>
<path d="M16171 17837 c2 -1 15 -11 29 -22 l25 -20 -19 23 c-11 12 -24 22 -29
22 -6 0 -8 -1 -6 -3z"/>
<path d="M4199 17793 c-13 -16 -12 -17 4 -4 9 7 17 15 17 17 0 8 -8 3 -21 -13z"/>
<path d="M4159 17763 c-13 -16 -12 -17 4 -4 16 13 21 21 13 21 -2 0 -10 -8
-17 -17z"/>
<path d="M16300 17735 c13 -14 26 -25 28 -25 3 0 -5 11 -18 25 -13 14 -26 25
-28 25 -3 0 5 -11 18 -25z"/>
<path d="M4099 17713 c-13 -16 -12 -17 4 -4 9 7 17 15 17 17 0 8 -8 3 -21 -13z"/>
<path d="M16340 17706 c0 -2 8 -10 18 -17 15 -13 16 -12 3 4 -13 16 -21 21
-21 13z"/>
<path d="M4049 17673 c-13 -16 -12 -17 4 -4 9 7 17 15 17 17 0 8 -8 3 -21 -13z"/>
<path d="M16410 17645 c13 -14 26 -25 28 -25 3 0 -5 11 -18 25 -13 14 -26 25
-28 25 -3 0 5 -11 18 -25z"/>
<path d="M3980 17619 c-22 -18 -22 -19 -3 -10 12 6 25 16 28 21 9 15 3 12 -25
-11z"/>
<path d="M3919 17563 c-13 -16 -12 -17 4 -4 9 7 17 15 17 17 0 8 -8 3 -21 -13z"/>
<path d="M3849 17503 l-24 -28 28 24 c25 23 32 31 24 31 -2 0 -14 -12 -28 -27z"/>
<path d="M16640 17445 c13 -14 26 -25 28 -25 3 0 -5 11 -18 25 -13 14 -26 25
-28 25 -3 0 5 -11 18 -25z"/>
<path d="M16710 17387 c0 -2 15 -16 33 -33 l32 -29 -29 33 c-28 30 -36 37 -36
29z"/>
<path d="M3679 17353 c-13 -16 -12 -17 4 -4 16 13 21 21 13 21 -2 0 -10 -8
-17 -17z"/>
<path d="M3639 17313 c-13 -16 -12 -17 4 -4 9 7 17 15 17 17 0 8 -8 3 -21 -13z"/>
<path d="M10842 17296 c-154 -39 -281 -133 -379 -281 -73 -109 -114 -214 -150
-385 -26 -123 -26 -446 1 -545 25 -95 84 -218 139 -290 25 -33 43 -64 40 -69
-4 -5 -1 -6 6 -2 6 4 29 -7 52 -27 189 -162 564 -182 769 -41 28 19 56 32 63
28 7 -4 9 -4 5 1 -10 11 11 37 23 29 5 -3 8 -2 7 3 -2 4 22 40 53 78 97 121
156 255 195 440 27 129 27 449 0 550 -66 246 -217 418 -433 491 -65 23 -99 27
-208 30 -86 2 -148 -1 -183 -10z m233 -297 c215 -40 318 -219 302 -524 -17
-313 -104 -497 -274 -577 -64 -30 -150 -39 -219 -22 -138 33 -248 170 -275
344 -25 163 11 433 77 567 51 106 156 193 256 212 61 12 67 12 133 0z"/>
<path d="M16910 17195 c47 -47 87 -85 90 -85 2 0 -33 38 -80 85 -47 47 -87 85
-90 85 -2 0 33 -38 80 -85z"/>
<path d="M9165 17255 c-11 -3 -119 -16 -240 -30 -236 -28 -299 -36 -302 -38
-1 -1 5 -49 12 -107 8 -58 32 -247 55 -420 22 -173 51 -398 64 -500 14 -102
36 -279 51 -395 33 -268 29 -255 63 -255 53 0 588 70 647 85 33 8 86 29 119
45 32 16 63 27 69 23 6 -3 7 -1 3 5 -7 12 50 59 66 54 5 -1 7 2 4 7 -3 5 8 26
25 47 99 125 159 360 144 569 -33 456 -175 750 -424 873 -73 36 -76 37 -205
38 -72 2 -140 1 -151 -1z m224 -321 c66 -26 134 -109 169 -206 49 -137 67
-258 67 -468 0 -170 -2 -189 -22 -233 -15 -32 -27 -46 -34 -41 -8 5 -9 3 -5
-5 17 -27 -57 -77 -144 -99 -51 -13 -310 -46 -315 -40 -4 4 -25 159 -100 743
-24 187 -43 341 -42 342 2 1 63 8 137 16 156 16 232 14 289 -9z"/>
<path d="M3509 17193 c-13 -16 -12 -17 4 -4 16 13 21 21 13 21 -2 0 -10 -8
-17 -17z"/>
<path d="M3394 17078 l-29 -33 33 29 c30 28 37 36 29 36 -2 0 -16 -15 -33 -32z"/>
<path d="M7835 16995 c-65 -23 -121 -47 -123 -53 -3 -9 85 -253 307 -851 34
-90 61 -166 61 -169 0 -3 -16 9 -35 28 -19 18 -32 36 -30 40 3 4 -3 14 -12 21
-12 10 -14 10 -9 2 4 -7 3 -13 -3 -13 -5 0 -11 3 -13 8 -1 4 -60 60 -130 126
-71 65 -126 121 -123 125 2 5 -10 21 -28 37 l-32 29 29 -32 c17 -18 26 -33 22
-33 -14 0 -266 242 -261 250 3 4 -3 14 -13 21 -16 13 -16 13 -2 -5 33 -42 -13
-6 -124 98 -63 59 -113 113 -109 119 4 6 1 7 -7 2 -7 -4 -16 -2 -21 6 -7 11
-33 5 -140 -31 -72 -25 -133 -51 -136 -57 -3 -7 57 -180 132 -385 76 -205 189
-512 252 -683 63 -170 130 -355 150 -410 20 -55 39 -103 43 -107 3 -4 28 0 55
11 28 10 85 30 128 45 42 16 77 32 77 37 0 6 -81 230 -180 499 -99 269 -180
492 -180 496 0 3 31 -24 70 -61 38 -38 67 -71 65 -75 -2 -4 10 -20 28 -36 l32
-29 -29 33 c-17 17 -25 32 -20 32 13 0 116 -105 109 -111 -3 -3 5 -14 17 -25
l23 -19 -19 23 c-11 12 -16 22 -12 22 7 0 97 -82 331 -299 33 -31 113 -105
178 -165 l119 -110 86 28 c143 47 192 67 192 79 0 10 -200 557 -516 1412 -34
93 -66 170 -71 171 -4 1 -62 -17 -128 -41z"/>
<path d="M3274 16958 l-19 -23 23 19 c21 18 27 26 19 26 -2 0 -12 -10 -23 -22z"/>
<path d="M17140 16966 c0 -2 8 -10 18 -17 15 -13 16 -12 3 4 -13 16 -21 21
-21 13z"/>
<path d="M12625 16927 c-96 -25 -248 -109 -299 -166 -10 -11 -23 -18 -28 -15
-4 3 -7 0 -6 -8 2 -7 -4 -12 -12 -10 -8 2 -12 0 -8 -4 4 -4 -7 -23 -24 -43
-44 -50 -118 -165 -152 -238 -16 -34 -34 -59 -39 -56 -6 3 -7 1 -3 -5 3 -6
-12 -65 -34 -131 -117 -352 -82 -646 102 -837 103 -107 244 -178 411 -204 172
-28 356 27 497 148 44 37 62 42 34 10 l-19 -23 22 19 c13 10 20 23 17 27 -3 5
11 26 31 47 52 54 140 188 179 273 119 258 162 517 121 714 -49 230 -220 410
-460 485 -88 27 -257 36 -330 17z m278 -324 c129 -50 202 -155 214 -309 17
-211 -128 -574 -276 -692 -74 -59 -146 -86 -231 -85 -43 0 -94 8 -119 17 -56
21 -114 64 -105 78 4 6 3 8 -3 5 -15 -10 -49 32 -80 98 -38 83 -44 222 -14
347 38 161 122 341 200 430 108 122 273 166 414 111z"/>
<path d="M12504 16488 l-19 -23 23 19 c21 18 27 26 19 26 -2 0 -12 -10 -23
-22z"/>
<path d="M17200 16905 c13 -14 26 -25 28 -25 3 0 -5 11 -18 25 -13 14 -26 25
-28 25 -3 0 5 -11 18 -25z"/>
<path d="M3155 16828 l-50 -53 53 50 c48 46 57 55 49 55 -1 0 -25 -24 -52 -52z"/>
<path d="M17325 16770 c21 -22 41 -40 44 -40 3 0 -13 18 -34 40 -21 22 -41 40
-44 40 -3 0 13 -18 34 -40z"/>
<path d="M13250 16755 c13 -14 26 -25 28 -25 3 0 -5 11 -18 25 -13 14 -26 25
-28 25 -3 0 5 -11 18 -25z"/>
<path d="M3019 16683 c-13 -16 -12 -17 4 -4 16 13 21 21 13 21 -2 0 -10 -8
-17 -17z"/>
<path d="M7270 16686 c0 -2 8 -10 18 -17 15 -13 16 -12 3 4 -13 16 -21 21 -21
13z"/>
<path d="M17420 16666 c0 -2 8 -10 18 -17 15 -13 16 -12 3 4 -13 16 -21 21
-21 13z"/>
<path d="M2951 16608 c-14 -23 -14 -23 8 -4 22 20 25 26 13 26 -4 0 -13 -10
-21 -22z"/>
<path d="M17510 16565 c13 -14 26 -25 28 -25 3 0 -5 11 -18 25 -13 14 -26 25
-28 25 -3 0 5 -11 18 -25z"/>
<path d="M2889 16533 c-13 -16 -12 -17 4 -4 9 7 17 15 17 17 0 8 -8 3 -21 -13z"/>
<path d="M17570 16495 c13 -14 26 -25 28 -25 3 0 -5 11 -18 25 -13 14 -26 25
-28 25 -3 0 5 -11 18 -25z"/>
<path d="M2831 16471 c-12 -16 -21 -33 -21 -37 0 -4 11 7 25 26 14 19 25 35
25 37 0 9 -11 0 -29 -26z"/>
<path d="M7550 16425 c13 -14 26 -25 28 -25 3 0 -5 11 -18 25 -13 14 -26 25
-28 25 -3 0 5 -11 18 -25z"/>
<path d="M2759 16383 c-13 -16 -12 -17 4 -4 16 13 21 21 13 21 -2 0 -10 -8
-17 -17z"/>
<path d="M6163 16304 c-65 -40 -124 -71 -132 -68 -11 3 -11 0 1 -18 537 -824
637 -984 663 -1059 41 -116 -8 -222 -132 -285 -73 -37 -174 -41 -238 -9 -88
43 -118 84 -605 840 -78 121 -145 223 -149 228 -6 5 -219 -113 -250 -139 -9
-8 24 -61 289 -469 387 -595 463 -690 617 -762 68 -33 89 -38 169 -41 106 -5
171 10 279 65 262 133 391 324 355 525 -28 154 -90 260 -652 1125 -44 67 -77
126 -74 131 14 24 -33 2 -141 -64z"/>
<path d="M14149 16328 c-535 -826 -642 -987 -651 -981 -7 3 -8 1 -4 -6 10 -16
-93 -173 -107 -164 -6 4 -7 1 -3 -6 5 -8 -18 -51 -58 -112 -36 -54 -66 -102
-66 -107 0 -9 233 -152 247 -152 4 0 93 133 198 294 l189 294 56 -35 c115 -73
129 -102 130 -258 0 -112 -27 -611 -34 -631 -3 -6 1 -11 7 -10 7 0 72 -35 146
-79 102 -61 163 -106 255 -191 l121 -111 178 94 177 95 38 -32 c84 -73 221
-213 216 -221 -3 -5 3 -6 12 -2 13 5 16 2 11 -9 -3 -10 6 -26 26 -44 l32 -29
-29 33 c-47 51 -17 37 41 -20 l52 -52 -92 -179 -92 -179 115 -109 c63 -60 117
-106 121 -101 3 4 75 142 159 307 84 165 260 510 392 767 284 556 273 532 250
550 -16 12 -16 11 -2 -6 33 -43 -14 -6 -110 87 l-102 97 -276 -141 c-153 -78
-362 -186 -467 -239 -830 -425 -865 -442 -865 -420 0 11 9 121 21 243 25 273
23 454 -8 540 -11 31 -19 57 -19 57 1 0 23 -7 50 -15 108 -33 257 -10 350 55
91 62 188 186 227 290 64 169 37 320 -75 429 -25 24 -42 49 -39 54 3 6 1 7 -5
3 -6 -4 -33 9 -59 27 -47 34 -609 377 -616 377 -2 0 -19 -24 -38 -52z m253
-429 c160 -96 248 -160 264 -191 25 -48 20 -119 -12 -178 -62 -113 -158 -151
-263 -103 -27 13 -324 186 -339 198 -1 1 48 80 109 174 71 109 117 170 125
167 7 -3 59 -33 116 -67z m1335 -1251 c-19 -35 -84 -156 -146 -270 -62 -115
-116 -208 -120 -208 -14 0 -141 136 -134 144 4 4 3 6 -3 4 -6 -1 -36 19 -67
46 l-57 49 73 38 c39 20 164 87 277 148 113 61 206 111 208 111 2 0 -12 -28
-31 -62z"/>
<path d="M2719 16333 c-13 -16 -12 -17 4 -4 9 7 17 15 17 17 0 8 -8 3 -21 -13z"/>
<path d="M2689 16293 c-13 -16 -12 -17 4 -4 16 13 21 21 13 21 -2 0 -10 -8
-17 -17z"/>
<path d="M17795 16220 c10 -11 20 -20 23 -20 3 0 -3 9 -13 20 -10 11 -20 20
-23 20 -3 0 3 -9 13 -20z"/>
<path d="M2609 16193 c-13 -16 -12 -17 4 -4 16 13 21 21 13 21 -2 0 -10 -8
-17 -17z"/>
<path d="M17860 16136 c0 -2 8 -10 18 -17 15 -13 16 -12 3 4 -13 16 -21 21
-21 13z"/>
<path d="M17890 16096 c0 -2 7 -9 15 -16 13 -11 14 -10 9 4 -5 14 -24 23 -24
12z"/>
<path d="M2499 16053 c-13 -16 -12 -17 4 -4 16 13 21 21 13 21 -2 0 -10 -8
-17 -17z"/>
<path d="M17920 16056 c0 -2 8 -10 18 -17 15 -13 16 -12 3 4 -13 16 -21 21
-21 13z"/>
<path d="M17980 15984 c0 -5 12 -22 26 -39 l26 -30 -23 35 c-29 45 -29 45 -29
34z"/>
<path d="M14935 15910 c10 -11 20 -20 23 -20 3 0 -3 9 -13 20 -10 11 -20 20
-23 20 -3 0 3 -9 13 -20z"/>
<path d="M2356 15863 c-6 -14 -5 -15 5 -6 7 7 10 15 7 18 -3 3 -9 -2 -12 -12z"/>
<path d="M7800 15755 c19 -19 36 -35 39 -35 3 0 -10 16 -29 35 -19 19 -36 35
-39 35 -3 0 10 -16 29 -35z"/>
<path d="M18129 15772 c6 -12 16 -24 22 -28 8 -4 8 -1 0 14 -6 12 -16 24 -22
28 -8 4 -8 1 0 -14z"/>
<path d="M2265 15730 c-10 -11 -16 -22 -14 -24 2 -2 12 7 22 20 22 29 17 32
-8 4z"/>
<path d="M18170 15711 c5 -11 15 -23 21 -27 6 -3 3 5 -6 20 -20 30 -30 35 -15
7z"/>
<path d="M7915 15650 c10 -11 20 -20 23 -20 3 0 -3 9 -13 20 -10 11 -20 20
-23 20 -3 0 3 -9 13 -20z"/>
<path d="M18236 15617 c3 -10 9 -15 12 -12 3 3 0 11 -7 18 -10 9 -11 8 -5 -6z"/>
<path d="M2183 15608 c-15 -20 -25 -38 -20 -38 3 0 12 11 21 25 17 26 16 35
-1 13z"/>
<path d="M18275 15556 c10 -14 19 -26 22 -26 7 0 -17 39 -28 46 -6 3 -3 -5 6
-20z"/>
<path d="M13129 15433 c-13 -16 -12 -17 4 -4 9 7 17 15 17 17 0 8 -8 3 -21
-13z"/>
<path d="M2060 15425 c-7 -9 -11 -17 -9 -20 3 -2 10 5 17 15 14 24 10 26 -8 5z"/>
<path d="M8150 15436 c0 -2 8 -10 18 -17 15 -13 16 -12 3 4 -13 16 -21 21 -21
13z"/>
<path d="M12080 15426 c0 -2 8 -10 18 -17 15 -13 16 -12 3 4 -13 16 -21 21
-21 13z"/>
<path d="M2030 15370 c-6 -11 -8 -20 -6 -20 3 0 10 9 16 20 6 11 8 20 6 20 -3
0 -10 -9 -16 -20z"/>
<path d="M1975 15289 c-4 -6 -5 -12 -2 -15 2 -3 7 2 10 11 7 17 1 20 -8 4z"/>
<path d="M1950 15249 c0 -5 5 -7 10 -4 6 3 10 8 10 11 0 2 -4 4 -10 4 -5 0
-10 -5 -10 -11z"/>
<path d="M4703 15210 c-97 -20 -188 -87 -409 -299 -60 -58 -157 -150 -213
-205 l-103 -98 146 -147 c81 -81 143 -150 139 -155 -4 -4 1 -4 12 0 15 6 17 4
12 -10 -4 -10 -3 -15 4 -11 5 4 160 -143 344 -326 184 -183 340 -336 346 -340
6 -4 9 -12 5 -18 -5 -7 -1 -8 10 -4 13 5 16 3 11 -10 -4 -10 -2 -14 6 -12 7 3
52 -35 101 -85 l90 -89 160 152 c277 262 439 429 469 484 86 160 40 359 -120
521 -89 91 -166 135 -267 153 -64 12 -144 5 -199 -16 -16 -7 -17 -3 -11 42 13
104 -42 238 -138 335 -106 106 -270 164 -395 138z m166 -330 c49 -24 98 -84
112 -132 20 -77 2 -108 -156 -267 l-144 -143 -48 40 c-67 56 -86 79 -77 93 4
8 3 10 -5 5 -7 -5 -38 18 -80 59 l-69 66 102 97 c118 112 205 187 226 195 33
12 103 6 139 -13z m497 -445 c133 -39 217 -195 158 -293 -15 -26 -192 -206
-292 -297 l-33 -29 -154 154 -155 155 82 82 c46 46 88 81 95 79 7 -3 15 0 19
6 4 7 3 8 -4 4 -46 -28 41 58 103 102 31 22 97 51 121 52 6 0 33 -7 60 -15z"/>
<path d="M4554 14728 l-29 -33 33 29 c17 17 32 31 32 33 0 8 -8 1 -36 -29z"/>
<path d="M4450 14575 c13 -14 26 -25 28 -25 3 0 -5 11 -18 25 -13 14 -26 25
-28 25 -3 0 5 -11 18 -25z"/>
<path d="M5455 14360 c10 -11 20 -20 23 -20 3 0 -3 9 -13 20 -10 11 -20 20
-23 20 -3 0 3 -9 13 -20z"/>
<path d="M5149 14353 c-13 -16 -12 -17 4 -4 16 13 21 21 13 21 -2 0 -10 -8
-17 -17z"/>
<path d="M4940 14097 c0 -2 15 -16 33 -33 l32 -29 -29 33 c-28 30 -36 37 -36
29z"/>
<path d="M18510 15181 c0 -6 4 -13 10 -16 6 -3 7 1 4 9 -7 18 -14 21 -14 7z"/>
<path d="M1885 15139 c-4 -6 -5 -12 -2 -15 2 -3 7 2 10 11 7 17 1 20 -8 4z"/>
<path d="M18535 15140 c3 -5 8 -10 11 -10 2 0 4 5 4 10 0 6 -5 10 -11 10 -5 0
-7 -4 -4 -10z"/>
<path d="M18560 15101 c0 -6 4 -13 10 -16 6 -3 7 1 4 9 -7 18 -14 21 -14 7z"/>
<path d="M1780 14955 c-7 -9 -8 -15 -2 -15 5 0 12 7 16 15 3 8 4 15 2 15 -2 0
-9 -7 -16 -15z"/>
<path d="M6245 14940 c10 -11 20 -20 23 -20 3 0 -3 9 -13 20 -10 11 -20 20
-23 20 -3 0 3 -9 13 -20z"/>
<path d="M18706 14835 c4 -8 11 -15 16 -15 6 0 5 6 -2 15 -7 8 -14 15 -16 15
-2 0 -1 -7 2 -15z"/>
<path d="M18730 14791 c0 -6 4 -13 10 -16 6 -3 7 1 4 9 -7 18 -14 21 -14 7z"/>
<path d="M5970 14756 c0 -2 8 -10 18 -17 15 -13 16 -12 3 4 -13 16 -21 21 -21
13z"/>
<path d="M6904 14728 l-29 -33 33 29 c30 28 37 36 29 36 -2 0 -16 -15 -33 -32z"/>
<path d="M18801 14664 c0 -11 3 -14 6 -6 3 7 2 16 -1 19 -3 4 -6 -2 -5 -13z"/>
<path d="M10058 14663 c79 -2 205 -2 280 0 75 1 11 3 -143 3 -154 0 -216 -2
-137 -3z"/>
<path d="M5700 14597 c0 -2 15 -16 33 -33 l32 -29 -29 33 c-28 30 -36 37 -36
29z"/>
<path d="M10769 14577 c4 -5 32 -7 62 -5 l54 3 -62 5 c-34 3 -58 1 -54 -3z"/>
<path d="M18840 14581 c0 -5 5 -13 10 -16 6 -3 10 -2 10 4 0 5 -4 13 -10 16
-5 3 -10 2 -10 -4z"/>
<path d="M9503 14573 c15 -2 39 -2 55 0 15 2 2 4 -28 4 -30 0 -43 -2 -27 -4z"/>
<path d="M9440 14550 c-23 -7 -23 -8 -3 -9 12 -1 25 4 28 9 3 6 5 10 3 9 -2
-1 -14 -5 -28 -9z"/>
<path d="M10908 14543 c6 -2 18 -2 25 0 6 3 1 5 -13 5 -14 0 -19 -2 -12 -5z"/>
<path d="M18860 14541 c0 -5 5 -13 10 -16 6 -3 10 -2 10 4 0 5 -4 13 -10 16
-5 3 -10 2 -10 -4z"/>
<path d="M9323 14513 c15 -2 39 -2 55 0 15 2 2 4 -28 4 -30 0 -43 -2 -27 -4z"/>
<path d="M10978 14513 c12 -2 30 -2 40 0 9 3 -1 5 -23 4 -22 0 -30 -2 -17 -4z"/>
<path d="M18880 14500 c0 -5 5 -10 11 -10 5 0 7 5 4 10 -3 6 -8 10 -11 10 -2
0 -4 -4 -4 -10z"/>
<path d="M1505 14429 c-4 -6 -5 -12 -2 -15 2 -3 7 2 10 11 7 17 1 20 -8 4z"/>
<path d="M18920 14420 c0 -5 5 -10 11 -10 5 0 7 5 4 10 -3 6 -8 10 -11 10 -2
0 -4 -4 -4 -10z"/>
<path d="M11248 14388 c6 -6 18 -8 28 -6 14 3 12 5 -9 10 -19 3 -25 2 -19 -4z"/>
<path d="M9048 14383 c6 -2 18 -2 25 0 6 3 1 5 -13 5 -14 0 -19 -2 -12 -5z"/>
<path d="M1476 14363 c-6 -14 -5 -15 5 -6 7 7 10 15 7 18 -3 3 -9 -2 -12 -12z"/>
<path d="M8958 14323 c7 -3 16 -2 19 1 4 3 -2 6 -13 5 -11 0 -14 -3 -6 -6z"/>
<path d="M11348 14323 c6 -2 18 -2 25 0 6 3 1 5 -13 5 -14 0 -19 -2 -12 -5z"/>
<path d="M1435 14279 c-4 -6 -5 -12 -2 -15 2 -3 7 2 10 11 7 17 1 20 -8 4z"/>
<path d="M18990 14270 c0 -5 5 -10 11 -10 5 0 7 5 4 10 -3 6 -8 10 -11 10 -2
0 -4 -4 -4 -10z"/>
<path d="M8755 14200 c-3 -5 -1 -10 4 -10 6 0 11 5 11 10 0 6 -2 10 -4 10 -3
0 -8 -4 -11 -10z"/>
<path d="M11543 14193 c9 -2 23 -2 30 0 6 3 -1 5 -18 5 -16 0 -22 -2 -12 -5z"/>
<path d="M15015 14160 c21 -22 41 -40 44 -40 3 0 -13 18 -34 40 -21 22 -41 40
-44 40 -3 0 13 -18 34 -40z"/>
<path d="M4415 14150 c21 -22 41 -40 44 -40 3 0 -13 18 -34 40 -21 22 -41 40
-44 40 -3 0 13 -18 34 -40z"/>
<path d="M19030 14181 c0 -6 4 -13 10 -16 6 -3 7 1 4 9 -7 18 -14 21 -14 7z"/>
<path d="M1373 14145 c-3 -9 -3 -18 -1 -21 3 -3 8 4 11 16 6 23 -1 27 -10 5z"/>
<path d="M8685 14140 c-16 -7 -17 -9 -3 -9 9 -1 20 4 23 9 7 11 7 11 -20 0z"/>
<path d="M14505 14110 c10 -11 20 -20 23 -20 3 0 -3 9 -13 20 -10 11 -20 20
-23 20 -3 0 3 -9 13 -20z"/>
<path d="M4525 14040 c33 -33 62 -60 64 -60 3 0 -21 27 -54 60 -33 33 -62 60
-64 60 -3 0 21 -27 54 -60z"/>
<path d="M19100 14021 c0 -6 4 -13 10 -16 6 -3 7 1 4 9 -7 18 -14 21 -14 7z"/>
<path d="M11780 14010 c0 -5 5 -10 11 -10 5 0 7 5 4 10 -3 6 -8 10 -11 10 -2
0 -4 -4 -4 -10z"/>
<path d="M1315 13999 c-4 -6 -5 -12 -2 -15 2 -3 7 2 10 11 7 17 1 20 -8 4z"/>
<path d="M5779 13943 c-13 -16 -12 -17 4 -4 16 13 21 21 13 21 -2 0 -10 -8
-17 -17z"/>
<path d="M8405 13880 c-3 -5 -1 -10 4 -10 6 0 11 5 11 10 0 6 -2 10 -4 10 -3
0 -8 -4 -11 -10z"/>
<path d="M11910 13887 c0 -10 41 -49 46 -45 2 3 -7 15 -21 28 -14 13 -25 20
-25 17z"/>
<path d="M1236 13813 c-6 -14 -5 -15 5 -6 7 7 10 15 7 18 -3 3 -9 -2 -12 -12z"/>
<path d="M1220 13779 c0 -5 5 -7 10 -4 6 3 10 8 10 11 0 2 -4 4 -10 4 -5 0
-10 -5 -10 -11z"/>
<path d="M12040 13750 c0 -5 5 -10 11 -10 5 0 7 5 4 10 -3 6 -8 10 -11 10 -2
0 -4 -4 -4 -10z"/>
<path d="M5535 13698 l-40 -43 43 40 c39 36 47 45 39 45 -2 0 -21 -19 -42 -42z"/>
<path d="M12070 13720 c0 -5 5 -10 11 -10 5 0 7 5 4 10 -3 6 -8 10 -11 10 -2
0 -4 -4 -4 -10z"/>
<path d="M12100 13690 c0 -5 5 -10 11 -10 5 0 7 5 4 10 -3 6 -8 10 -11 10 -2
0 -4 -4 -4 -10z"/>
<path d="M1155 13610 c-3 -5 -1 -10 4 -10 6 0 11 5 11 10 0 6 -2 10 -4 10 -3
0 -8 -4 -11 -10z"/>
<path d="M12230 13563 c0 -5 13 -17 28 -27 l27 -19 -24 26 c-26 28 -31 32 -31
20z"/>
<path d="M5339 13513 c-13 -16 -12 -17 4 -4 16 13 21 21 13 21 -2 0 -10 -8
-17 -17z"/>
<path d="M5115 13460 c33 -33 62 -60 64 -60 3 0 -21 27 -54 60 -33 33 -62 60
-64 60 -3 0 21 -27 54 -60z"/>
<path d="M1115 13489 c-4 -6 -5 -12 -2 -15 2 -3 7 2 10 11 7 17 1 20 -8 4z"/>
<path d="M5284 13458 l-29 -33 33 29 c17 17 32 31 32 33 0 8 -8 1 -36 -29z"/>
<path d="M8022 13450 c0 -14 2 -19 5 -12 2 6 2 18 0 25 -3 6 -5 1 -5 -13z"/>
<path d="M1091 13424 c0 -11 3 -14 6 -6 3 7 2 16 -1 19 -3 4 -6 -2 -5 -13z"/>
<path d="M7930 13345 c-7 -9 -8 -15 -2 -15 5 0 12 7 16 15 3 8 4 15 2 15 -2 0
-9 -7 -16 -15z"/>
<path d="M15330 13325 c13 -14 26 -25 28 -25 3 0 -5 11 -18 25 -13 14 -26 25
-28 25 -3 0 5 -11 18 -25z"/>
<path d="M19376 13297 c3 -10 9 -15 12 -12 3 3 0 11 -7 18 -10 9 -11 8 -5 -6z"/>
<path d="M13830 13280 c-23 -7 -23 -8 -3 -9 12 -1 25 4 28 9 3 6 5 10 3 9 -2
-1 -14 -5 -28 -9z"/>
<path d="M14163 13273 c9 -2 25 -2 35 0 9 3 1 5 -18 5 -19 0 -27 -2 -17 -5z"/>
<path d="M1006 13173 c-6 -14 -5 -15 5 -6 7 7 10 15 7 18 -3 3 -9 -2 -12 -12z"/>
<path d="M14420 13150 c0 -5 5 -10 11 -10 5 0 7 5 4 10 -3 6 -8 10 -11 10 -2
0 -4 -4 -4 -10z"/>
<path d="M7745 13130 c-10 -11 -15 -20 -12 -20 4 0 16 9 27 20 11 11 16 20 12
20 -5 0 -17 -9 -27 -20z"/>
<path d="M19440 13101 c0 -6 4 -13 10 -16 6 -3 7 1 4 9 -7 18 -14 21 -14 7z"/>
<path d="M14528 13083 c7 -3 16 -2 19 1 4 3 -2 6 -13 5 -11 0 -14 -3 -6 -6z"/>
<path d="M13862 12953 c-1 -16 8 -33 28 -50 20 -16 30 -34 30 -53 0 -20 6 -29
21 -33 12 -3 18 -10 14 -16 -3 -6 1 -11 9 -11 10 0 16 -9 16 -24 0 -26 18 -49
51 -66 10 -6 19 -17 19 -25 0 -8 7 -15 15 -15 8 0 15 -7 15 -15 0 -8 7 -15 15
-15 8 0 15 -7 15 -15 0 -8 7 -15 15 -15 8 0 15 -6 15 -14 0 -8 9 -18 20 -21
11 -4 18 -10 15 -15 -3 -4 5 -10 16 -13 14 -4 20 -11 16 -21 -4 -9 -3 -15 1
-15 20 3 32 -3 32 -16 0 -10 10 -15 30 -15 20 0 30 -5 30 -15 0 -10 10 -15 29
-15 16 0 31 -6 35 -15 3 -9 18 -15 36 -15 22 0 30 -5 30 -18 0 -15 7 -18 44
-16 31 2 46 -1 50 -11 10 -28 73 21 92 71 31 82 0 118 -143 169 -167 59 -254
115 -462 301 -54 49 -87 67 -121 69 -21 1 -26 -3 -28 -22z"/>
<path d="M923 12895 c-3 -9 -3 -18 -1 -21 3 -3 8 4 11 16 6 23 -1 27 -10 5z"/>
<path d="M19500 12890 c0 -5 5 -10 11 -10 5 0 7 5 4 10 -3 6 -8 10 -11 10 -2
0 -4 -4 -4 -10z"/>
<path d="M896 12803 c-6 -14 -5 -15 5 -6 7 7 10 15 7 18 -3 3 -9 -2 -12 -12z"/>
<path d="M19551 12714 c0 -11 3 -14 6 -6 3 7 2 16 -1 19 -3 4 -6 -2 -5 -13z"/>
<path d="M19571 12634 c0 -11 3 -14 6 -6 3 7 2 16 -1 19 -3 4 -6 -2 -5 -13z"/>
<path d="M14870 12608 c0 -5 82 -7 183 -6 184 2 163 6 -61 10 -67 2 -122 0
-122 -4z"/>
<path d="M15258 12573 c6 -2 18 -2 25 0 6 3 1 5 -13 5 -14 0 -19 -2 -12 -5z"/>
<path d="M791 12374 c0 -11 3 -14 6 -6 3 7 2 16 -1 19 -3 4 -6 -2 -5 -13z"/>
<path d="M15566 12357 c3 -10 9 -15 12 -12 3 3 0 11 -7 18 -10 9 -11 8 -5 -6z"/>
<path d="M14605 12330 c3 -5 8 -10 11 -10 2 0 4 5 4 10 0 6 -5 10 -11 10 -5 0
-7 -4 -4 -10z"/>
<path d="M767 12281 c-4 -17 -3 -21 5 -13 5 5 8 16 6 23 -3 8 -7 3 -11 -10z"/>
<path d="M15660 12290 c0 -5 5 -10 11 -10 5 0 7 5 4 10 -3 6 -8 10 -11 10 -2
0 -4 -4 -4 -10z"/>
<path d="M13310 12260 c0 -5 5 -10 11 -10 5 0 7 5 4 10 -3 6 -8 10 -11 10 -2
0 -4 -4 -4 -10z"/>
<path d="M19661 12254 c0 -11 3 -14 6 -6 3 7 2 16 -1 19 -3 4 -6 -2 -5 -13z"/>
<path d="M13340 12230 c0 -4 13 -10 29 -12 17 -2 28 -1 26 3 -7 10 -55 18 -55
9z"/>
<path d="M14488 12223 c7 -3 16 -2 19 1 4 3 -2 6 -13 5 -11 0 -14 -3 -6 -6z"/>
<path d="M15768 12223 c6 -2 18 -2 25 0 6 3 1 5 -13 5 -14 0 -19 -2 -12 -5z"/>
<path d="M751 12184 c0 -11 3 -14 6 -6 3 7 2 16 -1 19 -3 4 -6 -2 -5 -13z"/>
<path d="M6805 12160 c-16 -7 -17 -9 -3 -9 9 -1 20 4 23 9 7 11 7 11 -20 0z"/>
<path d="M13488 12153 c12 -2 30 -2 40 0 9 3 -1 5 -23 4 -22 0 -30 -2 -17 -4z"/>
<path d="M14343 12153 c9 -2 25 -2 35 0 9 3 1 5 -18 5 -19 0 -27 -2 -17 -5z"/>
<path d="M15858 12153 c6 -2 18 -2 25 0 6 3 1 5 -13 5 -14 0 -19 -2 -12 -5z"/>
<path d="M727 12081 c-4 -17 -3 -21 5 -13 5 5 8 16 6 23 -3 8 -7 3 -11 -10z"/>
<path d="M19701 12054 c0 -11 3 -14 6 -6 3 7 2 16 -1 19 -3 4 -6 -2 -5 -13z"/>
<path d="M16066 12017 c3 -10 9 -15 12 -12 3 3 0 11 -7 18 -10 9 -11 8 -5 -6z"/>
<path d="M6625 12010 c-3 -5 -1 -10 4 -10 6 0 11 5 11 10 0 6 -2 10 -4 10 -3
0 -8 -4 -11 -10z"/>
<path d="M711 11974 c0 -11 3 -14 6 -6 3 7 2 16 -1 19 -3 4 -6 -2 -5 -13z"/>
<path d="M6535 11949 c-4 -6 -5 -12 -2 -15 2 -3 7 2 10 11 7 17 1 20 -8 4z"/>
<path d="M19721 11944 c0 -11 3 -14 6 -6 3 7 2 16 -1 19 -3 4 -6 -2 -5 -13z"/>
<path d="M16170 11940 c0 -5 5 -10 11 -10 5 0 7 5 4 10 -3 6 -8 10 -11 10 -2
0 -4 -4 -4 -10z"/>
<path d="M6469 11883 c-13 -16 -12 -17 4 -4 9 7 17 15 17 17 0 8 -8 3 -21 -13z"/>
<path d="M16243 11873 c9 -2 23 -2 30 0 6 3 -1 5 -18 5 -16 0 -22 -2 -12 -5z"/>
<path d="M6418 11843 c6 -2 18 -2 25 0 6 3 1 5 -13 5 -14 0 -19 -2 -12 -5z"/>
<path d="M19740 11826 c0 -8 4 -17 9 -20 5 -4 7 3 4 14 -6 23 -13 26 -13 6z"/>
<path d="M681 11814 c0 -11 3 -14 6 -6 3 7 2 16 -1 19 -3 4 -6 -2 -5 -13z"/>
<path d="M2473 11695 c0 -44 2 -61 4 -37 2 23 2 59 0 80 -2 20 -4 1 -4 -43z"/>
<path d="M2530 11750 c0 -5 5 -10 11 -10 5 0 7 5 4 10 -3 6 -8 10 -11 10 -2 0
-4 -4 -4 -10z"/>
<path d="M16408 11743 c6 -2 18 -2 25 0 6 3 1 5 -13 5 -14 0 -19 -2 -12 -5z"/>
<path d="M19761 11694 c0 -11 3 -14 6 -6 3 7 2 16 -1 19 -3 4 -6 -2 -5 -13z"/>
<path d="M661 11684 c0 -11 3 -14 6 -6 3 7 2 16 -1 19 -3 4 -6 -2 -5 -13z"/>
<path d="M7724 11672 c-28 -10 -82 -40 -120 -67 -140 -100 -460 -298 -704
-435 -215 -121 -848 -428 -1055 -512 -317 -129 -351 -141 -639 -224 -312 -90
-504 -130 -686 -145 -163 -14 -681 -6 -763 10 -75 16 -331 111 -432 161 -44
22 -109 65 -145 95 -36 30 -96 80 -135 112 -89 73 -100 82 -158 132 -51 44
-97 71 -119 71 -7 0 -19 -9 -26 -20 -10 -17 -10 -21 2 -26 9 -3 18 -14 21 -25
4 -11 11 -17 16 -14 5 4 9 -10 9 -29 0 -25 5 -36 15 -36 7 0 19 -8 24 -17 6
-10 11 -13 12 -8 1 6 5 -8 8 -30 3 -22 11 -40 16 -40 12 0 55 -41 55 -52 0 -5
14 -17 30 -28 16 -11 30 -26 30 -32 0 -7 5 -13 10 -13 13 0 56 -43 53 -52 -2
-5 2 -8 8 -8 14 0 59 -47 59 -61 0 -6 4 -8 9 -5 11 7 33 -18 24 -27 -3 -4 1
-7 10 -7 10 0 17 -7 17 -15 0 -10 10 -15 28 -15 26 0 66 -33 67 -55 0 -5 15
-9 33 -7 26 2 32 -2 32 -18 0 -16 7 -20 30 -20 18 0 33 -6 36 -15 4 -10 20
-15 50 -15 36 0 44 -3 44 -18 0 -15 6 -18 29 -14 22 3 30 0 33 -14 3 -15 11
-18 51 -15 37 2 47 -1 47 -13 0 -12 11 -16 46 -16 37 0 47 -4 51 -20 5 -20 14
-20 474 -20 462 0 469 0 469 20 0 18 7 20 80 20 64 0 80 3 80 15 0 12 16 15
80 15 63 0 80 3 80 14 0 11 14 16 48 18 31 2 46 7 44 16 -1 8 16 12 63 12 51
0 65 3 65 15 0 11 12 15 46 15 35 0 47 4 50 18 4 14 14 16 63 14 53 -3 59 -2
64 18 5 19 11 22 51 18 39 -3 46 0 46 14 0 15 9 18 50 18 38 0 50 4 50 15 0
10 10 15 30 15 20 0 30 5 30 15 0 11 12 15 45 15 33 0 45 4 45 15 0 10 11 15
35 15 28 0 35 4 35 20 0 17 7 20 50 20 35 0 49 4 48 13 -2 7 10 13 30 15 20 2
32 9 32 18 0 10 13 14 45 14 32 0 45 4 45 14 0 9 12 16 33 18 20 2 32 8 32 18
0 11 9 14 33 12 24 -3 32 0 32 12 0 11 9 16 29 16 20 0 30 6 34 20 4 15 14 20
36 20 19 0 30 5 29 13 -2 7 9 12 30 12 24 0 32 4 32 17 0 13 8 18 30 18 20 0
30 5 30 15 0 10 10 15 28 15 16 0 32 8 39 19 8 12 19 17 36 14 18 -4 26 0 29
15 4 14 13 19 31 17 18 -2 27 3 30 17 4 16 13 19 39 16 27 -2 32 0 30 15 -2
13 4 17 28 17 20 0 30 5 30 15 0 10 10 15 30 15 20 0 30 5 30 15 0 10 10 15
30 15 19 0 33 7 40 20 6 11 15 18 21 15 5 -4 9 3 9 15 0 19 5 21 40 19 29 -2
43 2 53 15 8 11 19 16 25 12 8 -5 12 0 12 13 0 17 6 21 30 21 20 0 30 5 30 15
0 8 7 15 15 15 8 0 15 7 15 15 0 10 10 15 31 15 22 0 32 6 36 18 3 14 11 18
29 14 19 -3 26 0 31 17 4 15 13 21 33 21 16 0 30 7 34 15 3 8 12 15 21 15 8 0
14 6 13 13 -2 7 10 13 30 15 20 2 32 9 32 18 0 8 6 14 14 14 7 0 16 9 19 20 4
17 10 20 32 14 21 -5 27 -2 31 13 4 15 13 19 35 18 23 -1 29 2 29 18 0 13 5
17 15 13 10 -4 15 1 15 14 0 11 7 20 15 20 8 0 15 7 15 15 0 10 10 15 30 15
18 0 33 6 36 15 4 8 12 15 20 15 8 0 14 9 14 20 0 13 5 18 15 14 10 -4 15 0
15 15 0 14 6 21 20 21 14 0 20 -7 20 -21 0 -12 4 -17 11 -14 6 4 13 -2 16 -14
3 -12 9 -21 15 -21 5 0 22 -13 38 -30 16 -16 34 -30 40 -30 5 0 9 -3 8 -7 -2
-5 7 -18 20 -30 12 -13 27 -23 32 -23 6 0 10 -8 10 -18 0 -14 7 -18 30 -16 24
2 30 -2 30 -17 0 -10 6 -19 14 -19 7 0 16 -9 19 -20 4 -14 10 -18 23 -13 13 5
16 3 11 -10 -4 -11 -1 -17 9 -17 8 0 17 -7 20 -15 4 -8 12 -15 20 -15 8 0 14
-9 14 -20 0 -11 5 -17 13 -15 10 5 41 -45 42 -68 0 -10 27 -27 36 -22 3 3 4
-8 2 -23 -4 -27 -4 -27 9 -4 8 12 16 20 19 18 5 -6 7 8 11 84 5 112 -83 240
-260 378 -29 22 -76 67 -105 98 -28 32 -70 65 -92 75 -51 24 -144 24 -211 1z"/>
<path d="M2601 11634 c0 -11 3 -14 6 -6 3 7 2 16 -1 19 -3 4 -6 -2 -5 -13z"/>
<path d="M6140 11620 c-13 -8 -12 -10 3 -10 9 0 17 5 17 10 0 12 -1 12 -20 0z"/>
<path d="M2494 11525 c0 -49 1 -71 3 -48 2 23 2 64 0 90 -2 26 -3 8 -3 -42z"/>
<path d="M16515 11543 c-88 -26 -147 -30 -215 -14 -89 21 -173 13 -450 -40
-99 -18 -165 -22 -480 -28 -343 -7 -368 -9 -421 -29 -81 -32 -137 -76 -219
-172 -110 -129 -426 -445 -505 -504 -38 -29 -106 -74 -149 -102 -108 -67 -170
-134 -251 -270 -72 -120 -135 -188 -206 -225 -21 -10 -96 -35 -167 -54 -274
-74 -421 -155 -605 -334 -125 -121 -141 -142 -428 -559 -24 -35 -77 -109 -118
-165 -77 -107 -94 -139 -157 -302 -44 -113 -79 -158 -155 -199 -46 -26 -66
-29 -175 -35 -71 -4 -129 -12 -135 -18 -9 -9 -6 -19 13 -42 14 -16 29 -27 33
-23 5 4 5 -1 2 -10 -5 -13 -1 -18 13 -18 12 0 20 -7 20 -17 0 -16 15 -18 170
-18 155 0 170 2 170 18 0 9 7 17 15 17 8 0 15 6 15 14 0 7 9 16 20 19 11 3 19
9 18 14 -2 4 1 8 6 8 5 0 12 10 17 23 5 12 15 22 24 22 8 0 15 7 15 15 0 8 7
15 15 15 10 0 15 10 15 29 0 21 6 30 21 34 20 5 21 11 16 51 -5 37 -4 46 8 46
8 0 15 7 15 15 0 8 9 15 20 15 11 0 19 6 17 13 -1 6 6 11 16 11 13 -1 17 6 17
38 0 25 4 37 11 33 6 -4 13 2 16 14 3 12 12 21 19 21 8 0 14 7 14 15 0 9 9 15
21 15 19 0 21 4 16 30 -5 22 -3 30 8 30 8 0 15 7 15 15 0 8 9 15 20 15 12 0
17 5 14 14 -3 8 3 16 15 19 16 4 21 13 21 37 0 17 4 29 9 25 14 -8 32 30 25
49 -4 11 -1 16 10 16 9 0 16 6 16 14 0 8 5 18 12 22 7 4 8 3 4 -4 -4 -7 -5
-12 -1 -12 3 0 10 11 15 25 6 16 14 23 25 19 12 -5 15 2 15 30 0 25 4 36 15
36 8 0 14 6 12 13 -1 6 6 11 16 11 13 -1 17 6 17 38 0 32 3 39 15 34 10 -4 15
1 15 15 0 14 5 19 14 16 17 -7 30 22 20 47 -4 11 -1 16 10 16 9 0 16 6 16 14
0 7 9 16 21 19 12 3 18 10 14 16 -3 7 2 11 14 11 14 0 21 6 21 20 0 13 5 18
15 14 10 -4 15 0 15 15 0 12 6 21 15 21 8 0 15 7 15 15 0 8 7 15 15 15 8 0 15
7 15 15 0 8 7 15 15 15 8 0 15 7 15 15 0 8 6 15 14 15 8 0 17 9 21 19 4 12 12
18 21 14 9 -3 14 2 14 17 0 19 4 21 30 15 26 -6 30 -4 30 14 0 17 6 21 35 21
24 0 35 5 35 15 0 10 10 15 30 15 21 0 30 5 30 16 0 12 7 15 30 12 24 -4 30
-1 30 14 0 16 9 18 65 18 59 0 65 2 65 21 0 19 5 20 80 17 71 -3 80 -1 80 15
0 12 8 17 30 17 20 0 30 5 30 15 0 10 10 15 29 15 16 0 31 6 35 15 3 8 13 15
21 15 9 0 13 5 10 11 -4 6 2 13 14 16 12 3 21 13 21 24 0 12 5 16 15 13 11 -4
15 0 15 16 0 16 4 20 15 16 10 -4 15 1 15 15 0 14 5 19 14 16 9 -4 16 2 19 15
4 13 11 19 21 15 11 -5 16 3 18 31 2 23 8 36 16 34 8 -1 12 10 12 32 0 24 5
35 18 38 13 4 17 14 16 42 -2 44 23 76 60 76 16 0 26 7 29 21 5 18 11 21 36
16 26 -6 31 -3 31 13 0 11 7 20 15 20 8 0 15 7 15 15 0 10 10 15 30 15 19 0
30 5 30 14 0 7 9 16 21 19 12 3 18 10 14 16 -4 7 7 11 29 11 25 0 36 4 36 15
0 8 7 15 15 15 8 0 15 9 15 20 0 11 7 20 15 20 8 0 15 7 15 15 0 8 9 15 20 15
11 0 19 3 18 8 -4 9 39 52 52 52 6 0 10 9 10 20 0 13 5 18 15 14 11 -4 15 0
15 16 0 16 4 20 15 16 8 -3 15 -1 15 5 0 16 43 59 58 59 7 0 10 5 7 11 -4 6 2
13 14 16 12 3 21 9 21 14 0 12 43 55 53 51 4 -1 7 7 7 18 0 14 6 20 18 18 11
-2 16 3 14 15 -2 12 4 17 18 17 12 0 18 5 15 10 -3 6 5 14 18 19 19 8 23 15
20 35 -4 19 -1 26 10 26 8 0 17 9 20 21 3 12 10 18 16 14 7 -3 11 2 11 14 0
12 7 21 15 21 8 0 15 7 15 15 0 8 7 15 15 15 8 0 15 7 15 16 0 10 6 14 15 10
10 -4 15 1 15 14 0 11 5 20 10 20 6 0 10 -7 10 -15 0 -13 50 -15 390 -15 340
0 390 2 390 15 0 12 15 15 76 15 69 0 76 2 81 21 5 20 11 21 99 17 78 -2 94
-1 94 12 0 12 15 15 82 13 51 -1 82 -6 81 -13 -3 -12 -12 -11 128 -12 84 0
114 3 120 13 4 8 14 14 21 14 7 1 12 6 10 13 -1 7 5 15 13 18 21 8 22 164 1
164 -9 0 -12 7 -9 19 7 29 -16 30 -102 4z"/>
<path d="M19781 11554 c0 -11 3 -14 6 -6 3 7 2 16 -1 19 -3 4 -6 -2 -5 -13z"/>
<path d="M642 11540 c0 -14 2 -19 5 -12 2 6 2 18 0 25 -3 6 -5 1 -5 -13z"/>
<path d="M19791 11504 c0 -11 3 -14 6 -6 3 7 2 16 -1 19 -3 4 -6 -2 -5 -13z"/>
<path d="M5938 11493 c7 -3 16 -2 19 1 4 3 -2 6 -13 5 -11 0 -14 -3 -6 -6z"/>
<path d="M2523 11365 c0 -33 2 -45 4 -27 2 18 2 45 0 60 -2 15 -4 0 -4 -33z"/>
<path d="M618 11377 c-3 -19 -2 -25 4 -19 6 6 8 18 6 28 -3 14 -5 12 -10 -9z"/>
<path d="M19812 11335 c0 -16 2 -22 5 -12 2 9 2 23 0 30 -3 6 -5 -1 -5 -18z"/>
<path d="M5720 11340 l-25 -8 28 -1 c15 -1 27 4 27 9 0 6 -1 10 -2 9 -2 -1
-14 -5 -28 -9z"/>
<path d="M602 11190 c0 -19 2 -27 5 -17 2 9 2 25 0 35 -3 9 -5 1 -5 -18z"/>
<path d="M2940 11210 c0 -5 5 -10 11 -10 5 0 7 5 4 10 -3 6 -8 10 -11 10 -2 0
-4 -4 -4 -10z"/>
<path d="M5405 11150 c-19 -8 -19 -9 3 -9 12 -1 22 4 22 9 0 6 -1 10 -2 9 -2
0 -12 -4 -23 -9z"/>
<path d="M19832 11130 c0 -19 2 -27 5 -17 2 9 2 25 0 35 -3 9 -5 1 -5 -18z"/>
<path d="M2622 11080 c0 -14 2 -19 5 -12 2 6 2 18 0 25 -3 6 -5 1 -5 -13z"/>
<path d="M5168 11013 c6 -2 18 -2 25 0 6 3 1 5 -13 5 -14 0 -19 -2 -12 -5z"/>
<path d="M583 10955 c0 -22 2 -30 4 -17 2 12 2 30 0 40 -3 9 -5 -1 -4 -23z"/>
<path d="M5082 10978 c-7 -7 -12 -16 -12 -22 0 -5 6 -3 13 6 6 9 23 19 37 21
l25 4 -25 2 c-15 0 -31 -4 -38 -11z"/>
<path d="M19853 10875 c0 -27 2 -38 4 -22 2 15 2 37 0 50 -2 12 -4 0 -4 -28z"/>
<path d="M2720 10871 c0 -6 4 -13 10 -16 6 -3 7 1 4 9 -7 18 -14 21 -14 7z"/>
<path d="M4860 10860 l-25 -8 28 -1 c15 -1 27 4 27 9 0 6 -1 10 -2 9 -2 -1
-14 -5 -28 -9z"/>
<path d="M3378 10853 c6 -2 18 -2 25 0 6 3 1 5 -13 5 -14 0 -19 -2 -12 -5z"/>
<path d="M3433 10823 c9 -2 23 -2 30 0 6 3 -1 5 -18 5 -16 0 -22 -2 -12 -5z"/>
<path d="M4788 10823 c6 -2 18 -2 25 0 6 3 1 5 -13 5 -14 0 -19 -2 -12 -5z"/>
<path d="M3480 10799 c0 -5 11 -9 25 -9 14 0 25 2 25 4 0 2 -11 6 -25 8 -14 3
-25 1 -25 -3z"/>
<path d="M4708 10793 c12 -2 30 -2 40 0 9 3 -1 5 -23 4 -22 0 -30 -2 -17 -4z"/>
<path d="M3546 10767 c3 -10 9 -15 12 -12 3 3 0 11 -7 18 -10 9 -11 8 -5 -6z"/>
<path d="M8511 10708 c-1 -15 7 -32 17 -40 10 -7 18 -21 19 -30 2 -45 3 -51
10 -45 13 13 53 -36 53 -65 0 -15 4 -28 10 -28 17 0 92 -79 85 -90 -3 -6 -3
-10 2 -9 21 4 33 -2 33 -16 0 -8 7 -15 15 -15 8 0 15 -7 15 -15 0 -8 7 -15 15
-15 8 0 15 -7 15 -15 0 -8 7 -15 15 -15 8 0 15 -6 15 -14 0 -7 9 -16 20 -19
11 -3 20 -12 20 -21 0 -9 7 -16 15 -16 8 0 14 -6 13 -12 -2 -7 3 -12 10 -10 8
1 16 -7 19 -18 3 -11 11 -20 18 -20 7 0 15 -7 19 -15 3 -8 16 -15 30 -15 16 0
25 -7 29 -21 3 -12 10 -18 17 -14 7 4 13 -1 16 -12 4 -15 12 -19 30 -15 19 3
26 0 31 -17 3 -11 12 -21 19 -21 8 0 14 -7 14 -15 0 -10 10 -15 30 -15 18 0
33 -6 36 -15 4 -9 19 -15 35 -15 18 0 28 -5 26 -12 -1 -8 11 -14 31 -16 23 -2
32 -8 32 -21 0 -14 6 -17 29 -13 22 3 29 -1 33 -16 4 -15 12 -19 32 -15 22 5
28 1 33 -16 4 -17 13 -21 48 -21 29 0 45 -5 49 -15 4 -10 20 -15 52 -15 37 0
45 -3 40 -15 -4 -12 6 -15 59 -15 62 0 65 -1 65 -24 0 -26 22 -50 34 -38 5 4
7 -4 6 -18 -4 -43 -1 -52 15 -47 17 7 30 -9 15 -18 -16 -10 -12 -21 9 -21 21
0 26 16 37 120 6 58 4 70 -21 118 -33 64 -78 114 -125 137 -19 10 -89 35 -155
56 -224 72 -558 257 -690 384 -93 89 -204 172 -337 255 -16 9 -28 12 -28 6 0
-17 -18 -11 -23 8 -3 11 -5 7 -6 -10z"/>
<path d="M3973 10663 c81 -2 213 -2 295 0 81 1 14 3 -148 3 -162 0 -229 -2
-147 -3z"/>
<path d="M563 10585 c0 -33 2 -45 4 -27 2 18 2 45 0 60 -2 15 -4 0 -4 -33z"/>
<path d="M19874 10235 c0 -143 2 -200 3 -127 2 73 2 190 0 260 -1 70 -3 10 -3
-133z"/>
<path d="M553 10270 c0 -41 2 -58 4 -37 2 20 2 54 0 75 -2 20 -4 3 -4 -38z"/>
<path d="M11745 10304 c-214 -51 -307 -105 -493 -288 -261 -257 -338 -457
-287 -746 11 -62 15 -166 16 -390 0 -168 5 -327 10 -355 6 -27 14 -207 18
-400 6 -291 10 -357 25 -394 23 -63 59 -106 123 -148 48 -33 58 -36 83 -26 21
8 30 8 34 -1 3 -6 3 0 0 14 -4 13 -12 30 -19 36 -7 7 -10 25 -7 39 2 14 1 25
-4 24 -5 -1 -13 -1 -19 0 -6 1 -10 133 -9 377 0 357 0 377 -18 382 -17 4 -18
25 -18 403 0 348 -2 399 -15 399 -13 0 -15 22 -15 140 0 118 2 140 15 140 10
0 15 11 15 35 0 28 4 35 20 35 16 0 19 5 14 30 -6 26 -4 30 16 30 18 0 21 5
19 28 -2 15 1 28 6 29 5 1 13 11 17 23 4 12 12 18 18 15 6 -3 13 2 17 11 8 22
40 54 53 54 6 0 10 7 10 15 0 8 7 15 15 15 8 0 15 7 15 15 0 8 7 15 15 15 8 0
15 6 15 13 0 15 44 57 59 57 6 0 11 7 11 16 0 10 6 14 15 10 10 -4 15 1 15 14
0 16 7 20 35 20 28 0 33 3 28 16 -5 14 -1 16 25 12 26 -4 32 -1 32 14 0 14 8
18 35 18 28 0 35 4 35 20 0 20 5 20 178 18 162 -3 177 -4 174 -20 -2 -15 5
-18 46 -18 41 0 51 -3 55 -20 3 -11 11 -19 19 -18 7 2 12 -3 11 -9 -2 -7 3
-13 11 -13 8 0 22 -10 30 -21 14 -21 16 -21 41 -5 77 51 53 164 -55 251 -84
69 -147 87 -320 91 -80 1 -154 1 -165 -2z"/>
<path d="M552 10165 c0 -16 2 -22 5 -12 2 9 2 23 0 30 -3 6 -5 -1 -5 -18z"/>
<path d="M563 9885 c0 -33 2 -45 4 -27 2 18 2 45 0 60 -2 15 -4 0 -4 -33z"/>
<path d="M12283 9850 c0 -30 2 -43 4 -27 2 15 2 39 0 55 -2 15 -4 2 -4 -28z"/>
<path d="M12155 9650 c-3 -5 -1 -10 4 -10 6 0 11 5 11 10 0 6 -2 10 -4 10 -3
0 -8 -4 -11 -10z"/>
<path d="M19853 9595 c0 -27 2 -38 4 -22 2 15 2 37 0 50 -2 12 -4 0 -4 -28z"/>
<path d="M12126 9595 c-3 -8 -1 -15 4 -15 6 0 10 7 10 15 0 8 -2 15 -4 15 -2
0 -6 -7 -10 -15z"/>
<path d="M583 9515 c0 -22 2 -30 4 -17 2 12 2 30 0 40 -3 9 -5 -1 -4 -23z"/>
<path d="M12062 9470 c-1 -20 -8 -43 -14 -50 -7 -9 -5 -8 5 1 13 11 17 26 14
50 l-4 34 -1 -35z"/>
<path d="M12032 9380 c0 -14 2 -19 5 -12 2 6 2 18 0 25 -3 6 -5 1 -5 -13z"/>
<path d="M19832 9340 c0 -19 2 -27 5 -17 2 9 2 25 0 35 -3 9 -5 1 -5 -18z"/>
<path d="M602 9280 c0 -14 2 -19 5 -12 2 6 2 18 0 25 -3 6 -5 1 -5 -13z"/>
<path d="M19812 9140 c0 -14 2 -19 5 -12 2 6 2 18 0 25 -3 6 -5 1 -5 -13z"/>
<path d="M622 9090 c0 -14 2 -19 5 -12 2 6 2 18 0 25 -3 6 -5 1 -5 -13z"/>
<path d="M19791 8964 c0 -11 3 -14 6 -6 3 7 2 16 -1 19 -3 4 -6 -2 -5 -13z"/>
<path d="M642 8930 c0 -14 2 -19 5 -12 2 6 2 18 0 25 -3 6 -5 1 -5 -13z"/>
<path d="M11703 8853 c15 -2 37 -2 50 0 12 2 0 4 -28 4 -27 0 -38 -2 -22 -4z"/>
<path d="M661 8784 c0 -11 3 -14 6 -6 3 7 2 16 -1 19 -3 4 -6 -2 -5 -13z"/>
<path d="M11823 8725 c0 -27 2 -38 4 -22 2 15 2 37 0 50 -2 12 -4 0 -4 -28z"/>
<path d="M19744 8655 c-3 -8 -4 -20 -2 -27 3 -7 7 -1 10 15 6 29 1 36 -8 12z"/>
<path d="M11863 8623 c9 -2 25 -2 35 0 9 3 1 5 -18 5 -19 0 -27 -2 -17 -5z"/>
<path d="M10283 8585 c0 -22 2 -30 4 -17 2 12 2 30 0 40 -3 9 -5 -1 -4 -23z"/>
<path d="M19721 8524 c0 -11 3 -14 6 -6 3 7 2 16 -1 19 -3 4 -6 -2 -5 -13z"/>
<path d="M19701 8414 c0 -11 3 -14 6 -6 3 7 2 16 -1 19 -3 4 -6 -2 -5 -13z"/>
<path d="M727 8389 c4 -13 8 -18 11 -10 2 7 -1 18 -6 23 -8 8 -9 4 -5 -13z"/>
<path d="M10375 8360 c3 -5 8 -10 11 -10 2 0 4 5 4 10 0 6 -5 10 -11 10 -5 0
-7 -4 -4 -10z"/>
<path d="M19681 8314 c0 -11 3 -14 6 -6 3 7 2 16 -1 19 -3 4 -6 -2 -5 -13z"/>
<path d="M751 8284 c0 -11 3 -14 6 -6 3 7 2 16 -1 19 -3 4 -6 -2 -5 -13z"/>
<path d="M10406 8225 c4 -8 8 -15 10 -15 2 0 4 7 4 15 0 8 -4 15 -10 15 -5 0
-7 -7 -4 -15z"/>
<path d="M19661 8214 c0 -11 3 -14 6 -6 3 7 2 16 -1 19 -3 4 -6 -2 -5 -13z"/>
<path d="M771 8184 c0 -11 3 -14 6 -6 3 7 2 16 -1 19 -3 4 -6 -2 -5 -13z"/>
<path d="M791 8094 c0 -11 3 -14 6 -6 3 7 2 16 -1 19 -3 4 -6 -2 -5 -13z"/>
<path d="M10472 8005 c0 -16 2 -22 5 -12 2 9 2 23 0 30 -3 6 -5 -1 -5 -18z"/>
<path d="M19611 7994 c0 -11 3 -14 6 -6 3 7 2 16 -1 19 -3 4 -6 -2 -5 -13z"/>
<path d="M10502 7905 c0 -16 2 -22 5 -12 2 9 2 23 0 30 -3 6 -5 -1 -5 -18z"/>
<path d="M835 7890 c3 -5 8 -10 11 -10 2 0 4 5 4 10 0 6 -5 10 -11 10 -5 0 -7
-4 -4 -10z"/>
<path d="M10535 7850 c3 -5 8 -10 11 -10 2 0 4 5 4 10 0 6 -5 10 -11 10 -5 0
-7 -4 -4 -10z"/>
<path d="M19550 7755 c0 -8 2 -15 4 -15 2 0 6 7 10 15 3 8 1 15 -4 15 -6 0
-10 -7 -10 -15z"/>
<path d="M876 7737 c3 -10 9 -15 12 -12 3 3 0 11 -7 18 -10 9 -11 8 -5 -6z"/>
<path d="M10601 7624 c0 -11 3 -14 6 -6 3 7 2 16 -1 19 -3 4 -6 -2 -5 -13z"/>
<path d="M921 7584 c0 -11 3 -14 6 -6 3 7 2 16 -1 19 -3 4 -6 -2 -5 -13z"/>
<path d="M940 7511 c0 -11 4 -22 9 -25 4 -3 6 6 3 19 -5 30 -12 33 -12 6z"/>
<path d="M10612 7514 c11 -13 18 -42 21 -84 l3 -65 2 70 c2 63 0 72 -20 84
-22 13 -22 13 -6 -5z"/>
<path d="M19480 7509 c0 -5 5 -7 10 -4 6 3 10 8 10 11 0 2 -4 4 -10 4 -5 0
-10 -5 -10 -11z"/>
<path d="M10660 7296 c0 -39 5 -57 18 -67 15 -13 16 -12 4 3 -9 11 -13 36 -10
68 1 27 0 50 -4 50 -5 0 -8 -24 -8 -54z"/>
<path d="M11558 7293 c13 -3 26 -11 29 -19 3 -8 10 -14 16 -14 5 0 2 9 -8 20
-10 11 -28 19 -39 19 -19 -2 -19 -2 2 -6z"/>
<path d="M19401 7234 c0 -11 3 -14 6 -6 3 7 2 16 -1 19 -3 4 -6 -2 -5 -13z"/>
<path d="M10696 7205 c-3 -9 -5 -60 -4 -113 l2 -97 5 110 c7 120 6 124 -3 100z"/>
<path d="M19365 7139 c-4 -6 -5 -12 -2 -15 2 -3 7 2 10 11 7 17 1 20 -8 4z"/>
<path d="M19350 7099 c0 -5 5 -7 10 -4 6 3 10 8 10 11 0 2 -4 4 -10 4 -5 0
-10 -5 -10 -11z"/>
<path d="M11918 7073 c6 -2 18 -2 25 0 6 3 1 5 -13 5 -14 0 -19 -2 -12 -5z"/>
<path d="M1110 6980 c0 -5 5 -10 11 -10 5 0 7 5 4 10 -3 6 -8 10 -11 10 -2 0
-4 -4 -4 -10z"/>
<path d="M12218 6943 c12 -2 32 -2 45 0 12 2 2 4 -23 4 -25 0 -35 -2 -22 -4z"/>
<path d="M10805 6879 c-4 -6 -13 -8 -19 -6 -7 3 -13 0 -13 -6 0 -7 -2 -16 -3
-22 -5 -21 1 -35 15 -35 8 0 15 -7 15 -15 0 -8 9 -15 20 -15 14 0 20 -6 18
-17 -2 -11 2 -17 10 -15 8 1 16 -7 19 -18 3 -12 11 -19 18 -16 7 2 15 -5 18
-16 3 -11 10 -17 16 -13 7 3 11 -2 11 -14 0 -17 6 -21 35 -21 23 0 34 -4 33
-12 -2 -10 23 -14 95 -16 82 -2 98 -5 93 -17 -4 -12 5 -15 44 -15 38 0 50 -4
50 -15 0 -12 16 -15 80 -15 72 0 80 -2 80 -19 0 -16 6 -19 32 -18 23 1 33 -2
33 -13 0 -12 17 -16 78 -18 59 -2 77 -6 77 -17 0 -12 15 -15 65 -15 55 0 65
-3 65 -17 0 -16 8 -18 65 -15 53 3 65 1 65 -12 0 -12 14 -16 63 -18 43 -2 61
-7 60 -15 -2 -9 15 -13 62 -13 58 0 65 -2 65 -20 0 -17 7 -20 50 -20 35 0 49
-4 47 -12 -1 -9 20 -14 76 -16 57 -2 79 -7 84 -17 4 -11 24 -15 79 -15 57 0
76 -4 80 -15 4 -8 18 -15 34 -15 19 0 30 -6 32 -17 2 -14 15 -16 76 -14 58 2
73 -1 78 -13 4 -11 19 -16 49 -16 34 0 44 -4 48 -20 5 -18 14 -20 96 -20 74 0
91 -3 91 -15 0 -10 11 -15 35 -15 24 0 35 -5 35 -15 0 -12 16 -15 80 -15 64 0
80 -3 80 -15 0 -11 12 -15 45 -15 38 0 45 -3 45 -19 0 -17 8 -19 63 -19 50 1
63 -3 65 -16 3 -13 16 -16 68 -16 50 0 64 -3 64 -15 0 -12 13 -15 60 -15 47 0
60 -3 60 -15 0 -11 12 -15 50 -15 38 0 50 -4 50 -15 0 -13 32 -15 231 -15 226
0 232 -1 255 -22 13 -13 24 -29 24 -36 0 -7 5 -10 10 -7 6 3 10 -1 10 -9 0
-13 13 -16 65 -16 53 0 65 3 65 16 0 10 6 14 15 10 10 -4 15 1 15 14 0 11 7
20 15 20 8 0 15 7 15 15 0 8 6 15 13 15 6 1 23 14 37 30 13 17 30 30 37 30 7
0 13 8 13 19 0 12 7 18 18 17 14 -1 17 8 19 46 3 72 -10 74 -147 22 -63 -24
-130 -43 -147 -44 -48 0 -433 67 -548 96 -55 14 -262 72 -460 129 -198 57
-423 120 -500 140 -77 20 -203 55 -280 77 -77 22 -205 54 -285 73 -135 31
-758 188 -1070 270 -137 36 -434 95 -476 95 -12 0 -26 -5 -29 -11z"/>
<path d="M12398 6883 c7 -3 16 -2 19 1 4 3 -2 6 -13 5 -11 0 -14 -3 -6 -6z"/>
<path d="M1150 6871 c0 -6 4 -13 10 -16 6 -3 7 1 4 9 -7 18 -14 21 -14 7z"/>
<path d="M12540 6831 c0 -6 4 -13 10 -16 6 -3 7 1 4 9 -7 18 -14 21 -14 7z"/>
<path d="M12718 6753 c6 -2 18 -2 25 0 6 3 1 5 -13 5 -14 0 -19 -2 -12 -5z"/>
<path d="M12798 6723 c18 -2 45 -2 60 0 15 2 0 4 -33 4 -33 0 -45 -2 -27 -4z"/>
<path d="M1216 6707 c3 -10 9 -15 12 -12 3 3 0 11 -7 18 -10 9 -11 8 -5 -6z"/>
<path d="M12969 6657 c5 -5 19 -7 32 -5 20 3 19 5 -9 9 -20 3 -29 2 -23 -4z"/>
<path d="M13153 6593 c15 -2 39 -2 55 0 15 2 2 4 -28 4 -30 0 -43 -2 -27 -4z"/>
<path d="M19156 6583 c-6 -14 -5 -15 5 -6 7 7 10 15 7 18 -3 3 -9 -2 -12 -12z"/>
<path d="M13258 6563 c7 -3 16 -2 19 1 4 3 -2 6 -13 5 -11 0 -14 -3 -6 -6z"/>
<path d="M13448 6493 c7 -3 16 -2 19 1 4 3 -2 6 -13 5 -11 0 -14 -3 -6 -6z"/>
<path d="M13681 6423 c12 -20 21 -23 69 -21 l55 2 -50 3 c-28 3 -58 12 -69 21
-18 16 -18 16 -5 -5z"/>
<path d="M4769 6410 c-137 -21 -255 -91 -355 -210 -20 -25 -41 -44 -46 -42 -5
1 -7 -1 -4 -6 3 -5 -8 -42 -24 -83 -56 -141 -38 -272 66 -496 74 -158 104
-241 104 -284 0 -146 -180 -230 -330 -154 -55 28 -135 111 -157 162 -21 53
-18 154 7 211 11 25 39 70 61 100 23 29 39 55 37 56 -1 1 -51 43 -109 94 -59
51 -110 92 -116 92 -5 0 -26 -20 -47 -45 -21 -25 -42 -42 -48 -39 -7 4 -8 2
-4 -4 4 -6 -11 -37 -33 -69 -68 -101 -94 -175 -99 -285 -5 -109 15 -187 68
-272 34 -54 37 -64 13 -45 -16 11 -16 11 -5 -1 7 -8 16 -15 20 -16 4 0 48 -40
97 -90 95 -93 172 -146 259 -176 67 -23 222 -24 297 -2 193 58 375 228 429
402 42 134 21 242 -91 490 -39 86 -78 184 -87 218 -16 60 -15 65 3 111 17 40
28 52 68 72 45 22 52 23 103 12 64 -15 124 -57 176 -126 71 -94 70 -177 -4
-275 l-40 -53 101 -100 c55 -55 98 -103 96 -107 -3 -5 4 -6 15 -3 32 9 133
127 167 196 79 160 67 305 -38 468 -137 212 -352 328 -550 299z"/>
<path d="M13838 6373 c12 -2 30 -2 40 0 9 3 -1 5 -23 4 -22 0 -30 -2 -17 -4z"/>
<path d="M14017 6309 c7 -7 15 -10 18 -7 3 3 -2 9 -12 12 -14 6 -15 5 -6 -5z"/>
<path d="M14420 6219 c0 -5 11 -9 25 -9 14 0 25 2 25 4 0 2 -11 6 -25 8 -14 3
-25 1 -25 -3z"/>
<path d="M5270 6196 c0 -2 8 -10 18 -17 15 -13 16 -12 3 4 -13 16 -21 21 -21
13z"/>
<path d="M15345 6171 c-111 -29 -169 -75 -483 -386 -180 -178 -260 -248 -348
-309 l-114 -79 27 -36 c15 -20 158 -207 318 -416 393 -512 437 -577 451 -662
14 -90 -44 -181 -155 -245 -49 -29 -65 -33 -126 -33 -105 0 -167 34 -258 142
-74 86 -96 120 -61 93 18 -14 18 -14 5 2 -7 10 -17 16 -21 13 -5 -3 -59 61
-121 142 -107 140 -509 664 -515 672 -2 2 -30 -16 -63 -40 -165 -120 -181
-130 -193 -123 -10 6 -10 4 -2 -7 6 -8 79 -103 163 -212 87 -113 149 -202 145
-209 -4 -6 -3 -8 3 -5 6 4 82 -87 169 -201 172 -224 309 -388 368 -440 21 -18
34 -37 30 -44 -4 -6 -3 -8 3 -5 6 4 34 -8 62 -27 92 -62 152 -80 276 -80 100
-1 117 2 180 28 163 68 322 194 390 310 50 86 72 191 56 281 -23 139 -109 274
-485 765 -137 179 -279 363 -314 410 -62 80 -63 83 -21 44 128 -118 178 -168
173 -175 -3 -5 3 -6 12 -2 14 5 16 3 11 -11 -4 -10 -3 -15 3 -11 14 8 279
-236 275 -252 -2 -6 4 -17 13 -25 16 -12 16 -11 2 6 -32 41 12 7 128 -99 66
-60 119 -115 117 -122 -2 -6 4 -17 13 -25 15 -12 16 -11 3 5 -7 9 -10 17 -6
17 6 0 86 -73 335 -306 36 -33 88 -81 116 -107 l50 -46 99 99 c55 55 104 100
109 100 4 0 2 -8 -5 -17 -11 -15 -11 -16 1 -6 14 13 21 65 8 57 -12 -8 -257
219 -253 233 2 6 -4 17 -13 25 -15 12 -16 11 -3 -4 34 -44 -13 -9 -109 82
l-105 98 126 129 c190 195 249 293 249 416 0 123 -45 230 -147 352 -35 41 -63
78 -64 82 0 5 -3 10 -6 13 -4 3 -3 -1 1 -7 13 -23 -5 -14 -53 25 -61 51 -124
87 -197 112 -64 23 -201 34 -249 21z m181 -346 c61 -18 136 -81 163 -138 28
-57 28 -140 1 -185 -11 -18 -25 -30 -30 -27 -5 3 -7 0 -4 -8 5 -14 -193 -220
-208 -215 -18 7 -218 200 -213 207 2 4 -10 21 -28 37 l-32 29 29 -32 c52 -57
13 -35 -49 27 -48 48 -57 63 -45 70 8 5 18 6 22 4 5 -3 7 0 6 8 -2 7 3 12 10
11 6 -2 11 3 10 10 -2 6 3 11 10 9 8 -1 11 2 8 7 -9 14 150 160 197 182 51 23
88 24 153 4z"/>
<path d="M15625 5740 c10 -11 20 -20 23 -20 3 0 -3 9 -13 20 -10 11 -20 20
-23 20 -3 0 3 -9 13 -20z"/>
<path d="M1456 6147 c3 -10 9 -15 12 -12 3 3 0 11 -7 18 -10 9 -11 8 -5 -6z"/>
<path d="M18926 6053 c-6 -14 -5 -15 5 -6 7 7 10 15 7 18 -3 3 -9 -2 -12 -12z"/>
<path d="M4980 6006 c0 -2 8 -10 18 -17 15 -13 16 -12 3 4 -13 16 -21 21 -21
13z"/>
<path d="M18796 5793 c-6 -14 -5 -15 5 -6 7 7 10 15 7 18 -3 3 -9 -2 -12 -12z"/>
<path d="M4020 5776 c0 -2 8 -10 18 -17 15 -13 16 -12 3 4 -13 16 -21 21 -21
13z"/>
<path d="M1651 5754 c0 -11 3 -14 6 -6 3 7 2 16 -1 19 -3 4 -6 -2 -5 -13z"/>
<path d="M18775 5759 c-4 -6 -5 -12 -2 -15 2 -3 7 2 10 11 7 17 1 20 -8 4z"/>
<path d="M1670 5710 c0 -5 5 -10 11 -10 5 0 7 5 4 10 -3 6 -8 10 -11 10 -2 0
-4 -4 -4 -10z"/>
<path d="M4105 5700 c10 -11 20 -20 23 -20 3 0 -3 9 -13 20 -10 11 -20 20 -23
20 -3 0 3 -9 13 -20z"/>
<path d="M4119 5623 c-13 -16 -12 -17 4 -4 9 7 17 15 17 17 0 8 -8 3 -21 -13z"/>
<path d="M5608 5560 c-201 -36 -383 -141 -563 -324 -262 -265 -392 -544 -371
-797 11 -132 53 -228 145 -330 28 -31 48 -59 45 -61 -2 -3 4 -11 13 -19 16
-13 17 -12 4 4 -20 26 -4 21 38 -12 96 -76 215 -115 346 -115 145 0 264 41
415 144 61 41 76 48 64 28 -4 -7 -3 -8 4 -4 7 4 8 15 3 29 -8 21 -145 255
-155 265 -3 2 -26 -12 -52 -32 -85 -65 -170 -100 -249 -104 -39 -2 -89 1 -111
7 -60 16 -125 71 -159 132 -27 49 -30 63 -30 145 0 88 1 93 47 185 113 226
343 465 512 532 71 29 194 29 257 1 152 -69 209 -225 143 -390 -14 -36 -24
-66 -22 -68 6 -4 287 -116 292 -116 10 0 69 157 82 219 61 290 -108 553 -426
663 -63 21 -203 31 -272 18z"/>
<path d="M18666 5553 c-6 -14 -5 -15 5 -6 7 7 10 15 7 18 -3 3 -9 -2 -12 -12z"/>
<path d="M5239 5463 c-13 -16 -12 -17 4 -4 9 7 17 15 17 17 0 8 -8 3 -21 -13z"/>
<path d="M18606 5443 c-6 -14 -5 -15 5 -6 7 7 10 15 7 18 -3 3 -9 -2 -12 -12z"/>
<path d="M14801 5404 c13 -17 26 -30 28 -27 3 2 -8 16 -24 31 l-28 27 24 -31z"/>
<path d="M14840 5346 c0 -2 8 -10 18 -17 15 -13 16 -12 3 4 -13 16 -21 21 -21
13z"/>
<path d="M14920 5296 c0 -2 8 -10 18 -17 15 -13 16 -12 3 4 -13 16 -21 21 -21
13z"/>
<path d="M18456 5193 c-6 -14 -5 -15 5 -6 7 7 10 15 7 18 -3 3 -9 -2 -12 -12z"/>
<path d="M15060 5165 c13 -14 26 -25 28 -25 3 0 -5 11 -18 25 -13 14 -26 25
-28 25 -3 0 5 -11 18 -25z"/>
<path d="M18395 5099 c-4 -6 -5 -12 -2 -15 2 -3 7 2 10 11 7 17 1 20 -8 4z"/>
<path d="M5315 5048 l-40 -43 43 40 c23 21 42 40 42 42 0 8 -9 0 -45 -39z"/>
<path d="M2071 5033 c7 -12 15 -20 18 -17 3 2 -3 12 -13 22 -17 16 -18 16 -5
-5z"/>
<path d="M18325 4990 c-3 -5 -1 -10 4 -10 6 0 11 5 11 10 0 6 -2 10 -4 10 -3
0 -8 -4 -11 -10z"/>
<path d="M15330 4915 c13 -14 26 -25 28 -25 3 0 -5 11 -18 25 -13 14 -26 25
-28 25 -3 0 5 -11 18 -25z"/>
<path d="M18273 4908 c-15 -20 -25 -38 -20 -38 3 0 12 11 21 25 17 26 16 35
-1 13z"/>
<path d="M2156 4897 c3 -10 9 -15 12 -12 3 3 0 11 -7 18 -10 9 -11 8 -5 -6z"/>
<path d="M6665 4884 c-138 -22 -307 -106 -412 -206 -26 -26 -46 -37 -54 -33
-8 6 -10 4 -4 -4 4 -8 -6 -27 -28 -49 -19 -21 -61 -73 -92 -117 -32 -44 -62
-79 -67 -77 -5 1 -7 -2 -3 -8 9 -14 -14 -52 -27 -44 -6 4 -8 3 -5 -3 4 -6 -16
-58 -43 -116 -76 -162 -102 -259 -107 -407 -6 -147 7 -213 63 -329 26 -51 58
-95 107 -145 39 -39 70 -75 69 -79 -1 -5 2 -6 8 -2 5 3 24 -3 40 -15 46 -33
168 -86 236 -104 78 -20 231 -21 309 -1 77 19 205 83 273 135 56 43 73 50 51
23 -13 -16 -12 -17 4 -4 9 8 15 16 13 19 -3 2 26 39 65 81 137 148 276 391
335 586 24 78 27 107 28 225 0 121 -3 144 -27 216 -26 78 -78 169 -131 228
-14 16 -23 32 -21 36 3 4 -3 14 -13 21 -15 13 -16 12 -3 -3 22 -29 2 -21 -41
17 -53 45 -175 108 -262 134 -68 21 -203 34 -261 25z m251 -361 c170 -87 228
-266 157 -488 -24 -76 -73 -176 -83 -170 -6 3 -7 0 -5 -7 9 -24 -95 -178 -174
-257 -149 -151 -316 -190 -474 -113 -116 57 -176 153 -184 295 -7 107 14 192
76 323 83 174 186 310 285 379 86 59 145 76 251 72 77 -3 99 -8 151 -34z"/>
<path d="M6434 4398 l-19 -23 23 19 c12 11 22 21 22 23 0 8 -8 2 -26 -19z"/>
<path d="M14840 4786 c0 -2 8 -10 18 -17 15 -13 16 -12 3 4 -13 16 -21 21 -21
13z"/>
<path d="M18180 4770 c-6 -11 -8 -20 -6 -20 3 0 10 9 16 20 6 11 8 20 6 20 -3
0 -10 -9 -16 -20z"/>
<path d="M2271 4733 c7 -12 15 -20 18 -17 3 2 -3 12 -13 22 -17 16 -18 16 -5
-5z"/>
<path d="M13320 4724 c-217 -42 -417 -178 -504 -344 -53 -100 -69 -176 -69
-320 0 -178 34 -302 139 -513 71 -144 141 -244 239 -343 213 -217 473 -292
721 -208 134 45 243 112 327 204 203 219 210 564 20 945 -149 298 -340 482
-577 557 -60 19 -241 32 -296 22z m273 -352 c118 -58 221 -184 317 -384 71
-150 93 -239 88 -357 -4 -99 -36 -200 -58 -186 -5 3 -7 0 -4 -8 7 -19 -77 -94
-134 -120 -115 -50 -275 -27 -390 57 -115 85 -233 265 -301 460 -32 92 -35
111 -36 211 0 92 4 118 22 157 43 95 106 152 207 190 81 30 205 21 289 -20z"/>
<path d="M13330 3466 c0 -2 8 -10 18 -17 15 -13 16 -12 3 4 -13 16 -21 21 -21
13z"/>
<path d="M2301 4683 c7 -12 15 -20 18 -17 3 2 -3 12 -13 22 -17 16 -18 16 -5
-5z"/>
<path d="M18099 4653 c-13 -16 -12 -17 4 -4 16 13 21 21 13 21 -2 0 -10 -8
-17 -17z"/>
<path d="M15610 4656 c0 -2 8 -10 18 -17 15 -13 16 -12 3 4 -13 16 -21 21 -21
13z"/>
<path d="M18019 4543 c-13 -16 -12 -17 4 -4 16 13 21 21 13 21 -2 0 -10 -8
-17 -17z"/>
<path d="M13939 4532 c5 -10 18 -25 27 -33 11 -9 9 -2 -6 19 -26 35 -36 42
-21 14z"/>
<path d="M2421 4523 c7 -12 15 -20 18 -17 3 2 -3 12 -13 22 -17 16 -18 16 -5
-5z"/>
<path d="M16104 4488 l-29 -33 33 29 c30 28 37 36 29 36 -2 0 -16 -15 -33 -32z"/>
<path d="M17971 4477 c-13 -21 -12 -21 5 -5 10 10 16 20 13 22 -3 3 -11 -5
-18 -17z"/>
<path d="M7583 4478 c-1 -7 -33 -105 -71 -218 -313 -916 -326 -961 -339 -1125
-9 -122 37 -254 123 -345 24 -26 40 -51 36 -55 -4 -5 -1 -5 6 -1 6 4 24 -1 40
-12 80 -57 243 -116 368 -134 110 -16 203 -1 298 46 181 90 244 207 464 856
61 179 113 332 117 341 5 14 14 15 83 3 42 -7 130 -20 194 -29 111 -17 117
-19 113 -39 -6 -23 -53 -315 -85 -526 -12 -74 -36 -229 -55 -345 -77 -471 -86
-528 -83 -529 8 -5 304 -43 307 -40 2 2 25 138 51 301 26 164 64 402 85 528
20 127 49 307 64 402 15 95 30 175 33 178 6 6 413 -51 426 -59 4 -2 8 8 9 24
3 40 43 283 49 291 2 4 -4 5 -14 2 -10 -2 -189 21 -398 52 -208 30 -458 67
-554 81 -122 18 -211 37 -295 64 -66 22 -122 36 -126 32 -3 -4 -38 -101 -77
-217 -189 -556 -284 -827 -317 -907 -58 -138 -124 -190 -239 -189 -69 0 -145
22 -191 54 -107 76 -129 180 -76 363 34 119 345 1034 361 1065 7 12 8 19 3 16
-5 -4 -74 14 -152 38 -160 50 -157 50 -158 33z"/>
<path d="M2490 4426 c0 -2 8 -10 18 -17 15 -13 16 -12 3 4 -13 16 -21 21 -21
13z"/>
<path d="M15860 4427 c0 -2 15 -16 33 -33 l32 -29 -29 33 c-28 30 -36 37 -36
29z"/>
<path d="M17899 4383 c-13 -16 -12 -17 4 -4 16 13 21 21 13 21 -2 0 -10 -8
-17 -17z"/>
<path d="M2565 4330 c10 -11 20 -20 23 -20 3 0 -3 9 -13 20 -10 11 -20 20 -23
20 -3 0 3 -9 13 -20z"/>
<path d="M17837 4304 c-10 -13 -14 -24 -10 -24 9 0 36 40 31 45 -2 2 -11 -8
-21 -21z"/>
<path d="M12219 4270 c-75 -12 -472 -111 -717 -179 -39 -11 -73 -17 -76 -13
-15 14 2 -51 123 -473 70 -247 177 -622 236 -832 81 -285 113 -383 124 -383 8
0 75 16 148 35 74 20 138 33 143 30 6 -4 6 3 0 17 -14 32 -199 682 -195 686
10 10 118 32 162 33 91 2 126 -23 383 -276 129 -126 234 -235 234 -242 -1 -6
5 -9 14 -5 11 4 14 1 9 -12 -4 -11 -3 -15 4 -10 6 4 14 1 18 -5 7 -11 55 0
319 70 23 7 41 15 40 20 -2 4 -67 75 -145 158 -134 140 -185 202 -110 135 l32
-29 -34 38 c-34 36 -48 47 -36 27 14 -22 -6 -7 -67 51 -111 107 -175 156 -247
191 -38 18 -70 36 -70 39 -1 8 72 44 87 42 7 0 11 2 8 5 -3 3 15 27 40 54 25
27 60 79 77 116 30 63 32 74 32 177 0 123 -20 201 -80 310 -42 76 -138 168
-207 200 -62 28 -164 38 -249 25z m117 -338 c79 -42 131 -211 90 -290 -35 -66
-92 -92 -356 -161 l-150 -39 -10 36 c-5 20 -31 112 -58 205 l-49 167 41 11
c23 6 84 22 136 36 218 59 298 67 356 35z"/>
<path d="M17799 4253 c-13 -16 -12 -17 4 -4 16 13 21 21 13 21 -2 0 -10 -8
-17 -17z"/>
<path d="M2620 4256 c0 -2 8 -10 18 -17 15 -13 16 -12 3 4 -13 16 -21 21 -21
13z"/>
<path d="M2660 4213 c0 -5 10 -18 23 -29 l22 -19 -20 25 c-11 14 -21 27 -22
29 -2 2 -3 0 -3 -6z"/>
<path d="M17759 4203 c-29 -35 -41 -53 -36 -53 2 0 17 16 31 35 28 36 31 49 5
18z"/>
<path d="M12600 4165 c13 -14 26 -25 28 -25 3 0 -5 11 -18 25 -13 14 -26 25
-28 25 -3 0 5 -11 18 -25z"/>
<path d="M2716 4135 c4 -8 11 -15 16 -15 6 0 5 6 -2 15 -7 8 -14 15 -16 15 -2
0 -1 -7 2 -15z"/>
<path d="M17669 4093 c-13 -16 -12 -17 4 -4 16 13 21 21 13 21 -2 0 -10 -8
-17 -17z"/>
<path d="M2765 4080 c10 -11 20 -20 23 -20 3 0 -3 9 -13 20 -10 11 -20 20 -23
20 -3 0 3 -9 13 -20z"/>
<path d="M10747 4044 c-171 -31 -320 -122 -416 -255 -29 -41 -58 -73 -63 -71
-5 1 -7 -2 -4 -7 7 -11 -14 -62 -23 -57 -3 2 -7 -6 -8 -17 0 -12 -13 -60 -27
-105 -35 -112 -45 -203 -41 -348 10 -307 101 -556 265 -724 255 -260 659 -278
1006 -45 73 49 83 54 63 28 -13 -16 -12 -17 4 -4 9 8 15 16 12 19 -3 3 20 31
51 63 49 52 54 62 49 91 -3 18 -9 87 -15 153 -24 289 -43 510 -44 512 -1 1
-49 -2 -106 -7 -168 -15 -206 -18 -380 -31 -91 -6 -167 -13 -168 -14 -2 -2 2
-62 8 -134 7 -72 10 -142 8 -156 -4 -21 -2 -24 16 -20 32 7 235 25 287 25 l46
0 9 -101 9 -101 -46 -43 c-50 -47 -114 -82 -198 -110 -78 -26 -209 -18 -276
17 -27 14 -49 30 -48 36 2 6 -3 9 -11 6 -31 -12 -133 138 -170 251 -46 142
-62 417 -30 538 53 204 202 317 403 305 128 -8 223 -74 277 -193 l25 -53 47
15 c175 54 244 73 252 68 14 -8 -35 129 -67 187 -35 66 -129 167 -191 207 -26
16 -83 42 -127 56 -98 33 -257 41 -378 19z"/>
<path d="M17579 3983 c-13 -16 -12 -17 4 -4 9 7 17 15 17 17 0 8 -8 3 -21 -13z"/>
<path d="M2870 3956 c0 -2 8 -10 18 -17 15 -13 16 -12 3 4 -13 16 -21 21 -21
13z"/>
<path d="M11330 3927 c0 -2 15 -16 33 -33 l32 -29 -29 33 c-28 30 -36 37 -36
29z"/>
<path d="M17451 3837 c-13 -21 -12 -21 5 -5 10 10 16 20 13 22 -3 3 -11 -5
-18 -17z"/>
<path d="M3020 3785 c13 -14 26 -25 28 -25 3 0 -5 11 -18 25 -13 14 -26 25
-28 25 -3 0 5 -11 18 -25z"/>
<path d="M17345 3718 l-40 -43 43 40 c23 21 42 40 42 42 0 8 -9 0 -45 -39z"/>
<path d="M17194 3558 l-19 -23 23 19 c21 18 27 26 19 26 -2 0 -12 -10 -23 -22z"/>
<path d="M3380 3405 c91 -91 167 -165 170 -165 3 0 -69 74 -160 165 -91 91
-167 165 -170 165 -3 0 69 -74 160 -165z"/>
<path d="M17139 3503 l-24 -28 28 24 c15 14 27 26 27 28 0 8 -8 1 -31 -24z"/>
<path d="M12654 3428 l-19 -23 23 19 c21 18 27 26 19 26 -2 0 -12 -10 -23 -22z"/>
<path d="M16899 3263 l-24 -28 28 24 c15 14 27 26 27 28 0 8 -8 1 -31 -24z"/>
<path d="M16849 3213 c-13 -16 -12 -17 4 -4 16 13 21 21 13 21 -2 0 -10 -8
-17 -17z"/>
<path d="M14189 3193 c-13 -16 -12 -17 4 -4 16 13 21 21 13 21 -2 0 -10 -8
-17 -17z"/>
<path d="M12770 3186 c0 -2 8 -10 18 -17 15 -13 16 -12 3 4 -13 16 -21 21 -21
13z"/>
<path d="M14144 3148 l-19 -23 23 19 c21 18 27 26 19 26 -2 0 -12 -10 -23 -22z"/>
<path d="M3685 3110 c10 -11 20 -20 23 -20 3 0 -3 9 -13 20 -10 11 -20 20 -23
20 -3 0 3 -9 13 -20z"/>
<path d="M16704 3078 l-29 -33 33 29 c30 28 37 36 29 36 -2 0 -16 -15 -33 -32z"/>
<path d="M3770 3035 c13 -14 26 -25 28 -25 3 0 -5 11 -18 25 -13 14 -26 25
-28 25 -3 0 5 -11 18 -25z"/>
<path d="M16624 3008 l-29 -33 33 29 c30 28 37 36 29 36 -2 0 -16 -15 -33 -32z"/>
<path d="M3855 2960 c21 -22 41 -40 44 -40 3 0 -13 18 -34 40 -21 22 -41 40
-44 40 -3 0 13 -18 34 -40z"/>
<path d="M16545 2940 c-10 -11 -14 -20 -9 -20 5 0 15 9 22 20 7 11 11 20 9 20
-2 0 -12 -9 -22 -20z"/>
<path d="M13090 2857 c0 -2 15 -16 33 -33 l32 -29 -29 33 c-28 30 -36 37 -36
29z"/>
<path d="M16399 2813 c-13 -16 -12 -17 4 -4 16 13 21 21 13 21 -2 0 -10 -8
-17 -17z"/>
<path d="M4055 2790 c10 -11 20 -20 23 -20 3 0 -3 9 -13 20 -10 11 -20 20 -23
20 -3 0 3 -9 13 -20z"/>
<path d="M16339 2763 c-13 -16 -12 -17 4 -4 16 13 21 21 13 21 -2 0 -10 -8
-17 -17z"/>
<path d="M16289 2723 c-13 -16 -12 -17 4 -4 16 13 21 21 13 21 -2 0 -10 -8
-17 -17z"/>
<path d="M4165 2700 c10 -11 20 -20 23 -20 3 0 -3 9 -13 20 -10 11 -20 20 -23
20 -3 0 3 -9 13 -20z"/>
<path d="M10650 2706 c0 -2 8 -10 18 -17 15 -13 16 -12 3 4 -13 16 -21 21 -21
13z"/>
<path d="M16234 2678 l-19 -23 23 19 c21 18 27 26 19 26 -2 0 -12 -10 -23 -22z"/>
<path d="M4215 2660 c10 -11 20 -20 23 -20 3 0 -3 9 -13 20 -10 11 -20 20 -23
20 -3 0 3 -9 13 -20z"/>
<path d="M4340 2566 c0 -2 8 -10 18 -17 15 -13 16 -12 3 4 -13 16 -21 21 -21
13z"/>
<path d="M4392 2524 c10 -10 20 -16 22 -13 3 3 -5 11 -17 18 -21 13 -21 12 -5
-5z"/>
<path d="M11559 2493 c-13 -16 -12 -17 4 -4 16 13 21 21 13 21 -2 0 -10 -8
-17 -17z"/>
<path d="M4472 2464 c10 -10 20 -16 22 -13 3 3 -5 11 -17 18 -21 13 -21 12 -5
-5z"/>
<path d="M4557 2401 c23 -22 39 -28 28 -11 -3 5 -16 15 -28 21 l-22 11 22 -21z"/>
<path d="M15809 2359 l-24 -20 28 17 c15 9 27 18 27 20 0 8 -8 4 -31 -17z"/>
<path d="M4640 2346 c0 -2 8 -10 18 -17 15 -13 16 -12 3 4 -13 16 -21 21 -21
13z"/>
<path d="M4817 2219 c7 -7 15 -10 18 -7 3 3 -2 9 -12 12 -14 6 -15 5 -6 -5z"/>
<path d="M4851 2197 c2 -1 13 -9 24 -17 19 -14 19 -14 6 3 -7 9 -18 17 -24 17
-6 0 -8 -1 -6 -3z"/>
<path d="M4930 2146 c0 -3 9 -10 20 -16 11 -6 20 -8 20 -6 0 3 -9 10 -20 16
-11 6 -20 8 -20 6z"/>
<path d="M5050 2066 c0 -2 7 -7 16 -10 8 -3 12 -2 9 4 -6 10 -25 14 -25 6z"/>
<path d="M5257 1939 c7 -7 15 -10 18 -7 3 3 -2 9 -12 12 -14 6 -15 5 -6 -5z"/>
<path d="M14955 1820 c-3 -6 1 -7 9 -4 18 7 21 14 7 14 -6 0 -13 -4 -16 -10z"/>
<path d="M14775 1720 c-3 -6 1 -7 9 -4 18 7 21 14 7 14 -6 0 -13 -4 -16 -10z"/>
<path d="M5797 1639 c7 -7 15 -10 18 -7 3 3 -2 9 -12 12 -14 6 -15 5 -6 -5z"/>
<path d="M6310 1396 c0 -2 7 -7 16 -10 8 -3 12 -2 9 4 -6 10 -25 14 -25 6z"/>
<path d="M13980 1340 c-8 -5 -10 -10 -5 -10 6 0 17 5 25 10 8 5 11 10 5 10 -5
0 -17 -5 -25 -10z"/>
<path d="M12798 923 c7 -3 16 -2 19 1 4 3 -2 6 -13 5 -11 0 -14 -3 -6 -6z"/>
<path d="M12648 883 c7 -3 16 -2 19 1 4 3 -2 6 -13 5 -11 0 -14 -3 -6 -6z"/>
<path d="M12448 833 c7 -3 16 -2 19 1 4 3 -2 6 -13 5 -11 0 -14 -3 -6 -6z"/>
<path d="M8058 813 c7 -3 16 -2 19 1 4 3 -2 6 -13 5 -11 0 -14 -3 -6 -6z"/>
<path d="M12268 793 c7 -3 16 -2 19 1 4 3 -2 6 -13 5 -11 0 -14 -3 -6 -6z"/>
<path d="M8248 773 c7 -3 16 -2 19 1 4 3 -2 6 -13 5 -11 0 -14 -3 -6 -6z"/>
<path d="M8340 756 c0 -2 9 -6 20 -9 11 -3 18 -1 14 4 -5 9 -34 13 -34 5z"/>
<path d="M12078 753 c7 -3 16 -2 19 1 4 3 -2 6 -13 5 -11 0 -14 -3 -6 -6z"/>
<path d="M8448 733 c7 -3 16 -2 19 1 4 3 -2 6 -13 5 -11 0 -14 -3 -6 -6z"/>
<path d="M11968 733 c7 -3 16 -2 19 1 4 3 -2 6 -13 5 -11 0 -14 -3 -6 -6z"/>
<path d="M8568 713 c7 -3 16 -2 19 1 4 3 -2 6 -13 5 -11 0 -14 -3 -6 -6z"/>
<path d="M8738 683 c6 -2 18 -2 25 0 6 3 1 5 -13 5 -14 0 -19 -2 -12 -5z"/>
<path d="M11678 683 c7 -3 16 -2 19 1 4 3 -2 6 -13 5 -11 0 -14 -3 -6 -6z"/>
<path d="M8878 663 c6 -2 18 -2 25 0 6 3 1 5 -13 5 -14 0 -19 -2 -12 -5z"/>
<path d="M11538 663 c6 -2 18 -2 25 0 6 3 1 5 -13 5 -14 0 -19 -2 -12 -5z"/>
<path d="M9033 643 c9 -2 23 -2 30 0 6 3 -1 5 -18 5 -16 0 -22 -2 -12 -5z"/>
<path d="M11373 643 c9 -2 23 -2 30 0 6 3 -1 5 -18 5 -16 0 -22 -2 -12 -5z"/>
<path d="M9223 623 c9 -2 23 -2 30 0 6 3 -1 5 -18 5 -16 0 -22 -2 -12 -5z"/>
<path d="M11183 623 c9 -2 25 -2 35 0 9 3 1 5 -18 5 -19 0 -27 -2 -17 -5z"/>
<path d="M9438 603 c12 -2 30 -2 40 0 9 3 -1 5 -23 4 -22 0 -30 -2 -17 -4z"/>
<path d="M10963 603 c9 -2 25 -2 35 0 9 3 1 5 -18 5 -19 0 -27 -2 -17 -5z"/>
<path d="M9767 583 c18 -2 50 -2 70 0 21 2 7 4 -32 4 -38 0 -55 -2 -38 -4z"/>
<path d="M10587 583 c18 -2 50 -2 70 0 21 2 7 4 -32 4 -38 0 -55 -2 -38 -4z"/>
</g>
</svg>
