<svg xmlns="http://www.w3.org/2000/svg" width="33.33" height="33.33" viewBox="0 0 8.82 8.82"><path fill="#664a9e" d="M8.82 4.4A4.4 4.4 0 1 1 0 4.4a4.4 4.4 0 0 1 8.82 0"/><path fill="#fff" d="M4.39 1.34s.23.23.4.35c0 0 .53.31.52.99 0 0 .04.25-.33 1 0 .01-.19.4-.21.75 0 0-.04-.05-.32-.03L4.4 2.14 4.32 4.4s-.21 0-.3.03c0 0-.09-.5-.2-.74-.05-.08-.38-.8-.36-1.04.01 0-.03-.58.53-.96 0 0 .28-.21.4-.35M3.92 4.98l-.37-.05s-.08.56-.6.33c0 0 0 .38.43.44 0 0 .4.06.54-.72M4.86 4.95l.37-.05s.08.57.6.34c0 0 0 .38-.44.43 0 0-.4.07-.53-.72"/><path fill="#fff" d="M4 4.98h.32s.03.73.07.77c0 0 .07-.59.06-.77h.31s.04.35.3.7c-.02 0-.07.31-.67.63 0 0-.32-.03-.67-.63 0-.01.23-.26.28-.7M3.5 4.7c0 .09.88.09.88.09s.89-.02.89-.1c0-.06-.89-.09-.89-.09s-.88 0-.88.1m-.14 0c0-.2 1.03-.18 1.03-.18s1.02 0 1.02.18-1.03.18-1.03.18-1.02.01-1.02-.18M6.25 3.47l-.18-.09.09.18-.14.14.2-.02.09.17.03-.2.2-.02-.17-.1.02-.2zm-1.4.94c.16-1.51 1.2-1.53 1.2-1.52.84.1.82.85.82.85 0 .64-.49.75-.58.77s-.2 0-.2 0c.1-.52-.35-.55-.35-.55-.42.03-.46.56-.5.53-.02-.03-.38-.06-.38-.06M2.4 3.53l-.16.09.2.03.03.2.1-.18.2.03-.16-.14.09-.18-.17.09-.14-.14zm1.52.9s-.36.03-.4.06c-.03.02-.07-.5-.49-.53 0 0-.45.03-.34.55 0 0-.12.02-.2 0-.1-.02-.59-.13-.59-.77 0 0-.02-.75.83-.86 0 0 1.04.02 1.19 1.53M3.76.92l.32-.06s.05 0 .05-.1c0-.12.05-.13.05-.13l-.33.04S3.8.68 3.8.8s-.04.13-.04.13M4.15.85h.32s.05.01.07-.1c.01-.11.07-.11.07-.11L4.27.63s-.05 0-.06.11c-.02.11-.06.11-.06.11M4.56.85l.32.03s.05.02.08-.1c.03-.1.08-.1.08-.1L4.71.65s-.05 0-.08.1-.07.1-.07.1M4.95.9l.32.07s.04.02.09-.08.1-.09.1-.09L5.12.71S5.08.7 5.03.8c-.03.1-.08.1-.08.1M5.34.98l.3.12s.05.03.1-.07.11-.07.11-.07l-.3-.14S5.5.8 5.45.9s-.1.08-.1.08M5.72 1.14l.29.15s.03.04.1-.05c.07-.1.12-.06.12-.06L5.94 1s-.04-.03-.1.06c-.08.09-.12.07-.12.07M6.07 1.33l.27.19s.03.04.11-.04.12-.05.12-.05l-.26-.2s-.04-.03-.12.05-.12.05-.12.05M6.4 1.57l.23.22s.03.04.12-.02c.08-.07.12-.03.12-.03l-.23-.24s-.04-.04-.12.03c-.1.07-.13.04-.13.04M6.68 1.86l.21.24s.02.05.12 0c.1-.07.13-.02.13-.02l-.2-.27s-.03-.04-.13.02-.13.03-.13.03M6.94 2.17l.17.27s.02.05.12.01.13 0 .13 0l-.16-.29s-.03-.04-.13 0c-.1.05-.13.01-.13.01M7.14 2.51l.13.3s.01.05.12.02.13.02.13.02l-.12-.31s-.02-.05-.13-.02-.13 0-.13 0M7.3 2.88l.1.3s0 .06.11.04.13.04.13.04l-.09-.32s0-.05-.12-.03c-.11.01-.13-.03-.13-.03M7.42 3.27l.05.32s0 .05.11.05.12.05.12.05l-.04-.33s0-.05-.12-.05-.12-.04-.12-.04M7.48 3.66V4s0 .05.1.06c.12.02.12.08.12.08v-.34s0-.05-.1-.06c-.11-.02-.12-.07-.12-.07M7.48 4.07l-.03.32s-.01.05.1.08.1.08.1.08l.04-.33s0-.05-.1-.08-.1-.07-.1-.07M7.44 4.47l-.07.31s-.03.05.08.1c.1.03.09.09.09.09l.08-.33s.02-.04-.09-.08c-.1-.05-.1-.1-.1-.1M7.36 4.85l-.14.3s-.03.04.07.1c.09.06.06.11.06.11l.16-.3s.02-.04-.07-.1c-.1-.07-.08-.1-.08-.1M7.2 5.24l-.15.28s-.03.04.06.11.06.12.06.12l.17-.3s.02-.03-.07-.1-.07-.11-.07-.11M7 5.59l-.18.26s-.04.04.04.12.05.12.05.12l.2-.27s.03-.04-.05-.12S7 5.6 7 5.6M6.76 5.92l-.22.23s-.05.03.02.12.03.13.03.13l.24-.24s.04-.03-.03-.12-.04-.12-.04-.12M6.48 6.2l-.25.2s-.04.03.01.12c.06.1.01.13.01.13l.27-.2s.04-.02-.01-.12-.03-.13-.03-.13M6.17 6.46l-.28.17s-.04.01 0 .12 0 .13 0 .13l.28-.17s.05-.02 0-.12c-.04-.1 0-.13 0-.13M5.82 6.67l-.3.12s-.05.01-.02.12c.02.11-.03.13-.03.13l.32-.11s.04-.02.02-.13.01-.13.01-.13M3.47 6.87l-.3-.12s-.04-.03-.1.06c-.06.1-.1.07-.1.07l.3.14s.04.02.1-.07.1-.08.1-.08M3.1 6.71l-.28-.15s-.04-.03-.11.06-.12.06-.12.06l.3.17s.03.02.1-.07.11-.07.11-.07M2.75 6.51l-.26-.18s-.04-.04-.12.04-.12.05-.12.05l.26.2s.04.03.12-.05.12-.06.12-.06M2.42 6.28l-.24-.22s-.02-.04-.11.03c-.1.06-.13.02-.13.02l.23.24s.04.04.13-.03.12-.04.12-.04M2.13 6l-.2-.25s-.02-.04-.12.01-.13.01-.13.01l.2.27s.03.04.13-.01.12-.03.12-.03M1.88 5.68l-.17-.27s-.02-.05-.12-.01-.13 0-.13 0l.16.29s.02.04.13 0 .13 0 .13 0M1.68 5.34l-.14-.3s0-.05-.12-.02C1.32 5.05 1.3 5 1.3 5l.13.31s.02.05.13.02.13 0 .13 0M1.51 4.97l-.1-.31s0-.05-.11-.04-.12-.04-.12-.04l.08.33s.01.04.12.03.13.03.13.03M1.4 4.58l-.05-.31s0-.06-.11-.06-.12-.05-.12-.05l.04.33s0 .05.12.05.12.04.12.04M1.34 4.18l-.01-.32s0-.05-.1-.07c-.11-.01-.11-.07-.11-.07l-.01.34s0 .05.11.06c.11.02.12.06.12.06M1.33 3.78l.03-.32s.02-.05-.09-.08-.1-.09-.1-.09l-.05.33s0 .05.1.08.11.08.11.08M1.38 3.38l.07-.31s.02-.05-.08-.1c-.1-.03-.1-.09-.1-.09l-.08.33s-.01.04.1.09.09.08.09.08M1.48 3l.1-.3s.04-.05-.06-.1-.08-.12-.08-.12l-.13.31s-.02.05.08.1.09.1.09.1M1.62 2.62l.15-.28s.04-.04-.05-.11c-.1-.07-.06-.12-.06-.12l-.18.29s-.02.04.07.1c.09.08.07.12.07.12M1.81 2.26l.2-.26s.03-.03-.05-.11-.04-.13-.04-.13l-.21.27s-.03.03.05.11.05.12.05.12M2.06 1.94l.21-.24s.05-.03-.02-.12-.03-.12-.03-.12l-.24.23s-.03.04.04.13.04.12.04.12M2.33 1.65l.25-.2s.05-.03 0-.13-.01-.13-.01-.13l-.27.2s-.04.03.01.13.02.13.02.13M2.65 1.4l.27-.18s.05-.01 0-.12c-.04-.1 0-.13 0-.13l-.28.18s-.04.02 0 .12c.05.1.01.13.01.13M3 1.19l.29-.13s.05-.01.02-.12C3.3.83 3.34.8 3.34.8l-.31.12s-.05.02-.02.13c.02.1-.02.13-.02.13M3.36 1.03l.31-.1s.05 0 .04-.1C3.7.7 3.75.7 3.75.7l-.32.08s-.05 0-.04.12-.03.13-.03.13M4.64 6.81s0 .08.14.19c0 0 .14-.13.24-.1l.25-.09s-.05-.13-.29-.11c0 0-.17-.01-.34.11M5.43 6.82s-.05.06-.04.13q.01.11 0 .1c-.01.01-.31.18-.41.18 0 0 .04-.08.04-.13L5.03 7c.01-.03.4-.17.4-.17M4.96 7.02s-.01.21-.09.23a1 1 0 0 1-.3-.02c.08-.04.1-.07.18-.14s.07 0 .2-.07M4.6 6.83s-.02.08.12.2l-.17.15a1 1 0 0 1-.25.07s-.09-.02-.1-.01c-.02 0 0-.17.03-.2 0 0 .13.03.37-.2M4.43 6.88s-.1.1-.17.1c0 0-.1-.04-.16-.04h-.16s-.08-.03.08-.2h.16s.18 0 .25.14M3.88 6.73s-.06.06-.05.24c0 0-.2.16-.2.22 0 0-.1.04-.17-.2 0 .01.1-.2.42-.26M3.42 7.1s.06.17.18.18c0 0 0 .14.14.28 0 0-.04.08-.27.03 0 0-.16-.2-.05-.5M3.81 7.6s.01.09-.26.08c0 0 .14.15.32.16 0 0 .13-.05.13-.22q-.01.01-.19-.01M4.06 7.6s.08.1-.07.25c0 0 .16.08.4-.15 0 0-.14-.08-.33-.1M4.6 7.78s.18-.14.18-.18c0 0 .17.03.2 0 0 0 .04.13.13.16 0 0-.19.2-.5.02M5.54 7.78s-.12-.1-.27.06c0 0-.1-.15-.26-.25 0 0 .04-.09.2-.08 0 0 .14-.04.33.27M5.17 7.39s.21.07.23.1c0 0 .14-.16.04-.38l-.24.11s.04.1-.03.17M5.2 7.45s-.12-.03-.26.1c0 0-.11-.02-.14 0a.5.5 0 0 0-.25-.14s.3-.24.65.04M4.2 7.04s-.08.1-.06.21c0 0-.26-.01-.42-.1 0 0 .08-.12.16-.15 0 0 .3.06.32.04M4.2 7.37s-.25-.1-.51-.04c0 0 .09.17.11.18 0 0 .18-.03.22.02 0 0 .16-.17.18-.16M4.3 7.4l-.2.14s.34.08.43.2c0 0 .18-.1.17-.15-.01-.06-.2-.16-.4-.2M3.1 7.73s.11-.1.26.07c0 0 .1-.1.13-.1 0 0-.11-.1-.13-.2 0 0-.08-.05-.25.23"/><path fill="#fff" d="m3.18 7.96-.16-.15c.2-.13.27.04.27.04zM3.14 8.02l-.15-.15-.03.03.14.14zM2.93 7.94l.15.15-.06.12L2.83 8zM5.61 7.88s-.12-.15-.29.03l.11.12zM5.63 7.91l.03.04-.16.13-.03-.03zM5.7 7.96l-.17.16.05.09s.03 0 .04 0l.16-.17z"/></svg>