<svg xmlns="http://www.w3.org/2000/svg" id="svg7" viewBox="0 0 171 42"><style id="style1">.st0{fill-rule:evenodd;clip-rule:evenodd;fill:#fff}</style><g id="g7"><path id="path1" fill="#fc0" d="M20.1 12.6c-2.3 0-4.2.8-5.8 2.4s-2.4 3.6-2.4 5.8c0 2.3.8 4.2 2.4 5.8s3.6 2.4 5.8 2.4c2.3 0 4.2-.8 5.8-2.4s2.4-3.6 2.4-5.8c0-2.3-.8-4.2-2.4-5.8s-3.5-2.4-5.8-2.4m11.5 8.3c0 3.2-1.1 5.9-3.4 8.2s-5 3.4-8.2 3.4-5.9-1.1-8.2-3.4-3.4-5-3.4-8.2 1.1-5.9 3.4-8.2 5-3.4 8.2-3.4 5.9 1.1 8.2 3.4 3.4 5 3.4 8.2" class="st0"/><path id="path2" d="M33.3 27.9c-.1-.2-.2-.4-.2-.6 0-.3.1-.5.3-.7s.4-.3.7-.3c.4 0 .7.2.9.5.1.2.2.3.4.5.7.9 1.6 1.3 2.8 1.4 1.1.1 2.1-.2 3-1 .9-.7 1.3-1.6 1.4-2.8q.15-1.65-.9-3c-1.05-1.35-1.7-1.3-2.8-1.4-1.4-.1-2.6-.7-3.5-1.8s-1.3-2.3-1.2-3.7.7-2.6 1.8-3.5q1.5-1.2 3.3-1.2 2.25 0 3.9 1.8c.2.2.4.4.5.7.1.2.2.3.2.5 0 .3-.1.5-.3.7s-.4.3-.7.3-.6-.1-.7-.3c-.2-.2-.3-.4-.5-.6-.6-.6-1.2-1-2.1-1.1a3.1 3.1 0 0 0-3.3 2.8 3.1 3.1 0 0 0 2.8 3.3c1.7.1 3.1.9 4.2 2.1 1 1.1 1.4 2.4 1.4 3.9v.6q-.15 2.55-2.1 4.2a6 6 0 0 1-8.6-.7c-.4-.2-.6-.4-.7-.6m15.3-4.3q0 2.1 1.5 3.6c1.5 1.5 2.2 1.5 3.6 1.5s2.6-.5 3.6-1.5 1.5-2.2 1.5-3.6-.5-2.6-1.5-3.6-2.2-1.5-3.6-1.5-2.6.5-3.6 1.5-1.5 2.2-1.5 3.6m0 12.2c0 .3-.1.5-.3.7s-.4.3-.7.3-.5-.1-.7-.3-.3-.4-.3-.7V23.6c0-2 .7-3.6 2.1-5s3.1-2.1 5-2.1c2 0 3.6.7 5 2.1s2.1 3.1 2.1 5c0 2-.7 3.6-2.1 5s-3.1 2.1-5 2.1c-2 0-3.6-.7-5-2.1l-.1-.1zm21.3-17.3q-2.1 0-3.6 1.5c-1.5 1.5-1.5 2.2-1.5 3.6s.5 2.6 1.5 3.6 2.2 1.5 3.6 1.5 2.6-.5 3.6-1.5S75 25 75 23.6s-.5-2.6-1.5-3.6-2.2-1.5-3.6-1.5M75 28.6q-2.1 2.1-5.1 2.1c-3 0-3.6-.7-5-2.1s-2.1-3.1-2.1-5c0-2 .7-3.6 2.1-5s3.1-2.1 5-2.1c2 0 3.6.7 5 2.1s2.1 3.1 2.1 5v6.1c0 .3-.1.5-.3.7s-.4.3-.7.3-.5-.1-.7-.3-.3-.4-.3-.7zm15.1-1.4c.3 0 .5.1.7.3s.3.4.3.7-.1.5-.3.8a7.07 7.07 0 0 1-9.6-.4 7 7 0 0 1-2.1-5c0-2 .7-3.6 2.1-5s3.1-2.1 5-2.1c1.8 0 3.3.6 4.6 1.7.2.2.4.5.4.8s-.1.5-.3.7-.4.3-.7.3c-.2 0-.5-.1-.6-.2-1-.8-2.1-1.3-3.3-1.3q-2.1 0-3.6 1.5c-1.5 1.5-1.5 2.2-1.5 3.6s.5 2.6 1.5 3.6 2.2 1.5 3.6 1.5q1.95 0 3.3-1.2c0-.2.2-.3.5-.3m15.3-4.6c-.2-1-.7-1.8-1.4-2.6q-1.5-1.5-3.6-1.5c-2.1 0-2.6.5-3.6 1.5-.7.7-1.2 1.6-1.4 2.6zm-1.1 4.6c.3 0 .5.1.7.3s.3.4.3.7-.1.5-.3.7a7.07 7.07 0 0 1-9.6-.4 7 7 0 0 1-2.1-5c0-2 .7-3.6 2.1-5s3.1-2.1 5-2.1c2 0 3.6.7 5 2.1s2.1 3.1 2.1 5c0 .3-.1.5-.3.7s-.4.3-.7.3H95.4c.2 1 .7 1.8 1.4 2.6q1.5 1.5 3.6 1.5 1.95 0 3.3-1.2c.1-.1.4-.2.6-.2m12.3 1.5c.3 0 .5.1.7.3s.3.4.3.7-.1.5-.3.7-.4.3-.7.3q-5.1 0-5.1-5.1v-7.1h-1c-.3 0-.5-.1-.7-.3s-.3-.4-.3-.7.1-.5.3-.7.4-.3.7-.3h1v-5.1c0-.3.1-.5.3-.7s.4-.3.7-.3.5.1.7.3.3.4.3.7v5.1h2c.3 0 .5.1.7.3s.3.4.3.7-.1.5-.3.7-.4.3-.7.3h-2v7.1c0 2.1 1 3.1 3.1 3.1m10.1-10.2q-2.1 0-3.6 1.5c-1.5 1.5-1.5 2.2-1.5 3.6s.5 2.6 1.5 3.6 2.2 1.5 3.6 1.5 2.6-.5 3.6-1.5 1.5-2.2 1.5-3.6-.5-2.6-1.5-3.6-2.2-1.5-3.6-1.5m7.2 5.1c0 2-.7 3.6-2.1 5s-3.1 2.1-5 2.1c-2 0-3.6-.7-5-2.1s-2.1-3.1-2.1-5c0-2 .7-3.6 2.1-5s3.1-2.1 5-2.1c2 0 3.6.7 5 2.1 1.4 1.3 2.1 3 2.1 5M146 13.2c1.7 0 3.3.5 4.6 1.6.3.2.6.4.9.4.4 0 .7-.1.9-.4.3-.3.4-.6.4-.9 0-.4-.1-.7-.4-.9-1.9-1.5-4-2.3-6.4-2.3-2.8 0-5.2 1-7.1 2.9-2 2-3 4.3-3 7.1s1 5.1 3 7.1 4.4 2.9 7.1 2.9c2.3 0 4.5-.8 6.3-2.2.3-.3.4-.6.4-.9 0-.4-.1-.7-.4-.9-.3-.3-.6-.4-.9-.4s-.5.1-.8.2a7 7 0 0 1-4.7 1.6c-2.1 0-3.8-.7-5.3-2.2-1.5-1.4-2.2-3.2-2.2-5.2s.7-3.8 2.2-5.2c1.6-1.6 3.4-2.3 5.4-2.3m20.3 10.4c0 1.3-.4 2.3-1.3 3.2s-1.9 1.3-3.2 1.3-2.3-.4-3.2-1.3-1.3-1.9-1.3-3.2.4-2.3 1.3-3.2 1.9-1.3 3.2-1.3 2.3.4 3.2 1.3c.8.9 1.3 1.9 1.3 3.2m.5-5c-1.4-1.4-3.1-2.1-5-2.1s-3.6.7-5 2.1-2.1 3.1-2.1 5 .7 3.6 2.1 5 3.1 2.1 5 2.1 3.6-.7 5-2.1 2.1-3.1 2.1-5c0-2-.7-3.7-2.1-5" class="st0" style="fill:#000;fill-opacity:1"/><path id="path3" fill="#fc0" d="M31.9 33.1c.6 0 1 .2 1.4.6s.6.9.6 1.5-.2 1-.6 1.4c-3.8 3.1-8.1 4.6-12.8 4.6q-8.4 0-14.4-6c-6-6-6-8.9-6-14.6s2-10.5 6-14.6q6-6 14.4-6c4.9 0 9.2 1.6 13 4.7q.6.6.6 1.5c0 .9-.2 1.1-.6 1.5s-.9.6-1.4.6c-.6 0-1-.2-1.5-.6a15.7 15.7 0 0 0-10.1-3.5C16 4.1 12.1 5.7 8.9 9s-4.8 7.1-4.8 11.6S5.7 29 8.9 32.2s7 4.8 11.6 4.8q5.85 0 10.2-3.6.45-.3 1.2-.3" class="st0"/><path id="path4" d="M168.3 11.5v1.2h-.4v-1.2h-.4v-.4h1.1v.4zm2.2-.4v1.6h-.4v-1.1l-.3 1.1h-.3l-.4-1.1v1.1h-.3v-1.6h.6l.3.8.2-.8z" class="st0" style="fill:#000;fill-opacity:1"/><path id="path5" fill="#e3dbdb" stroke-width=".16" d="M17.85 32.22c-2.48-.46-3.92-1.25-5.93-3.27-1.31-1.3-1.68-1.78-2.22-2.88a10.6 10.6 0 0 1-1.17-5.23c-.01-2.8.81-5.1 2.6-7.25a11 11 0 0 1 8.19-4.16c2.2-.11 3.8.2 5.77 1.16 1.28.61 1.69.92 2.98 2.2a9 9 0 0 1 2.23 2.99 10.5 10.5 0 0 1 1.18 5.11c.01 3.32-1.26 6.2-3.73 8.5a11.3 11.3 0 0 1-9.9 2.83m4.34-3.43a7.6 7.6 0 0 0 3.69-2.1 8.3 8.3 0 0 0 1.67-9.5c-.6-1.3-2.47-3.2-3.7-3.8a8.6 8.6 0 0 0-8.18.42 8.1 8.1 0 0 0-3.78 6.57 7.6 7.6 0 0 0 2.37 6.23 7.7 7.7 0 0 0 5.78 2.4c.69.01 1.66-.09 2.15-.22"/><path id="path6" fill="#fcc02b" stroke-width=".16" d="M17.78 32.13c-2.32-.45-3.94-1.38-5.96-3.42a8 8 0 0 1-2.05-2.83 10 10 0 0 1-1.15-4.17 11.5 11.5 0 0 1 6.58-11.18 11 11 0 0 1 4.84-.98 10.7 10.7 0 0 1 7.97 3.35 8.4 8.4 0 0 1 2.15 2.9 9.7 9.7 0 0 1 1.17 5.05c0 2.13-.35 3.63-1.25 5.37a12 12 0 0 1-7.62 5.86c-1.13.24-3.6.27-4.68.05m4.68-3.35a8.5 8.5 0 0 0 5.68-5.85c.47-1.75.23-4.2-.56-5.86-.47-.99-2.85-3.38-3.76-3.78a9 9 0 0 0-7.6.12 10 10 0 0 0-3.48 3.46 9 9 0 0 0-.9 4.05c.01 2.4.68 3.98 2.4 5.7a7.3 7.3 0 0 0 3.37 2.11c1.13.37 3.68.4 4.85.05"/><path id="path7" fill="#fcc02b" stroke-width=".16" d="M18.47 41.02A20.4 20.4 0 0 1 .48 24.21c-.51-3.02-.25-7.05.64-9.91A21.3 21.3 0 0 1 11.85 1.99 19 19 0 0 1 20.5.14c2.64 0 4.58.31 6.74 1.08 2.67.96 6.04 3.1 6.56 4.16.7 1.43-.64 3.16-2.13 2.74-.25-.07-1.07-.55-1.84-1.08a15 15 0 0 0-7.5-2.8 16.6 16.6 0 0 0-9.16 1.48 17.7 17.7 0 0 0-8.19 9.26A16.6 16.6 0 0 0 7.24 30.4a16.3 16.3 0 0 0 14.9 6.59c2.92-.3 5.12-1.1 7.57-2.74 1.25-.84 1.6-1 2.15-1 1.15 0 1.89.78 1.89 2 0 .8-.4 1.28-1.95 2.35a20.3 20.3 0 0 1-13.33 3.43"/></g></svg>