<svg xmlns="http://www.w3.org/2000/svg" width="33.77" height="40.98" viewBox="0 0 33.77 40.98"><path d="M17.78 32.13c-2.32-.45-3.94-1.38-5.96-3.42a8 8 0 0 1-2.05-2.83 10 10 0 0 1-1.15-4.17 11.5 11.5 0 0 1 6.58-11.18c1.43-.68 2.9-.98 4.84-.98a10.7 10.7 0 0 1 7.97 3.35 8.4 8.4 0 0 1 2.15 2.9 9.7 9.7 0 0 1 1.17 5.05c0 2.13-.35 3.63-1.25 5.37a12 12 0 0 1-7.62 5.86c-1.13.24-3.6.26-4.68.05m4.68-3.35a8.5 8.5 0 0 0 5.68-5.85c.47-1.75.23-4.2-.56-5.87-.47-.98-2.85-3.37-3.76-3.77a9 9 0 0 0-7.6.12 10 10 0 0 0-3.48 3.46 9 9 0 0 0-.9 4.05c.01 2.4.68 3.98 2.4 5.7a7.3 7.3 0 0 0 3.37 2.11c1.13.37 3.68.4 4.85.05" style="fill:#fcc02b;fill-opacity:1;stroke-width:.15588" transform="translate(-.22 -.14)"/><path d="M18.47 41.02A20.4 20.4 0 0 1 .48 24.21c-.51-3.02-.25-7.05.64-9.91A21.3 21.3 0 0 1 11.85 1.99 19 19 0 0 1 20.5.14c2.64 0 4.58.31 6.74 1.08 2.67.96 6.04 3.1 6.56 4.16.7 1.43-.64 3.16-2.13 2.74-.25-.07-1.07-.55-1.84-1.08a15 15 0 0 0-7.5-2.8 16.6 16.6 0 0 0-9.16 1.48 17.7 17.7 0 0 0-8.19 9.26A16.6 16.6 0 0 0 7.24 30.4a16.3 16.3 0 0 0 14.9 6.59c2.92-.3 5.12-1.1 7.57-2.74 1.25-.84 1.6-1 2.15-1 1.15 0 1.89.78 1.89 2 0 .8-.4 1.28-1.95 2.35a20.3 20.3 0 0 1-13.33 3.43" style="fill:#fcc02b;fill-opacity:1;stroke-width:.15588" transform="translate(-.22 -.14)"/></svg>