<svg xmlns="http://www.w3.org/2000/svg" viewBox="0 0 33.77 40.98"><g fill="#fff" stroke-width=".16"><path d="M17.56 32c-2.33-.46-3.94-1.4-5.96-3.43a8 8 0 0 1-2.05-2.83 10 10 0 0 1-1.15-4.17 11.5 11.5 0 0 1 6.58-11.17c1.43-.69 2.9-.99 4.84-1a10.7 10.7 0 0 1 7.97 3.36 8.4 8.4 0 0 1 2.15 2.9 9.7 9.7 0 0 1 1.17 5.05c0 2.13-.35 3.63-1.26 5.37a12 12 0 0 1-7.61 5.86c-1.13.24-3.6.27-4.68.05m4.68-3.36a8.5 8.5 0 0 0 5.68-5.85c.47-1.75.23-4.2-.56-5.86-.47-.98-2.85-3.37-3.76-3.78a9 9 0 0 0-7.61.12 10 10 0 0 0-3.47 3.46 9 9 0 0 0-.9 4.05c.01 2.4.68 3.98 2.4 5.71a7.3 7.3 0 0 0 3.37 2.1c1.13.37 3.67.4 4.85.05"/><path d="M18.25 40.89A20.4 20.4 0 0 1 .26 24.07c-.51-3.02-.25-7.04.64-9.91A21.3 21.3 0 0 1 11.63 1.85 19 19 0 0 1 20.28 0c2.64 0 4.58.32 6.74 1.09 2.67.95 6.04 3.08 6.56 4.15.7 1.44-.64 3.16-2.13 2.74-.25-.07-1.08-.55-1.84-1.08a15 15 0 0 0-7.5-2.8 16.6 16.6 0 0 0-9.16 1.49 17.7 17.7 0 0 0-8.19 9.25 16.6 16.6 0 0 0 2.26 15.41 16.3 16.3 0 0 0 14.9 6.59c2.92-.3 5.12-1.1 7.56-2.74 1.25-.84 1.6-1 2.15-1 1.16 0 1.9.78 1.9 2 0 .8-.41 1.29-1.95 2.35a20.3 20.3 0 0 1-13.33 3.44"/></g></svg>