<?xml version="1.0" encoding="UTF-8"?>
<svg width="94.766mm" height="61.172mm" fill="currentColor" version="1.1" viewBox="0 0 9.4766 6.1172" xmlns="http://www.w3.org/2000/svg">
 <path d="m8.9206 5.565h-8.3418v-5.0057h8.3418zm-8.9207 0.55218h9.4766v-6.1172h-9.4766z" stroke-width=".26458"/>
 <path d="m8.9206 5.565h-8.3418v-5.0057h8.3418z" stroke-width=".26458"/>
 <g fill="#fff" stroke-width=".26458">
  <path d="m8.9206 0.5561h-2.2408c0.52096 1.9704-0.36565 2.772-1.0401 4.0135-0.18838 0.3466-0.26961 0.67813-0.26458 0.99166h3.5454z"/>
  <path d="m3.3548 4.9858c-1.0599 0-1.9225-0.86228-1.9225-1.9225 0-1.0597 0.86254-1.9219 1.9225-1.9219 1.0602 0 1.9227 0.86228 1.9227 1.9219 0 1.0602-0.86254 1.9225-1.9227 1.9225m0-3.9918c-1.1411 0-2.0696 0.92842-2.0696 2.0693 0 1.1414 0.92842 2.0701 2.0696 2.0701s2.0698-0.92869 2.0698-2.0701c0-1.1409-0.92869-2.0693-2.0698-2.0693"/>
  <path d="m4.2295 3.0637-0.31406 0.23839-0.41328-0.23839 0.41328-0.23865zm-0.43709 0.7575-0.3638-0.15266v-0.47731l0.41328 0.23865zm-0.87498 0-0.04948-0.39132 0.41328-0.23865v0.47731zm-0.43709-0.7575 0.31406-0.23865 0.41328 0.23865-0.41354 0.23839zm0.43709-0.75777 0.3638 0.15293v0.47731l-0.41328-0.23892zm0.87471 0 0.04974 0.39132-0.41328 0.23892v-0.47731zm0.81756 0.03334c-0.02037-0.03519-0.06535-0.04762-0.10028-0.02725l-0.05636 0.03254-0.0066-0.05133c-5e-3 -0.04048-0.04207-0.06906-0.08228-0.06376-0.04048 5e-3 -0.06906 0.0418-0.0635 0.08202l0.01402 0.11271-0.08652 0.05001-0.04022-0.31803c-0.0053-0.04022-0.0418-0.06853-0.08255-0.0635-0.04022 5e-3 -0.06879 0.0418-0.0635 0.08228l0.04789 0.37915-0.10927 0.06324-0.05424-0.42624c-0.0029-0.02249-0.0164-0.04286-0.03625-0.0545-0.02011-0.01138-0.04392-0.01297-0.06535-4e-3l-0.39608 0.16616v-0.12647l0.3519-0.1479c0.03731-0.01561 0.05503-0.05874 0.03889-0.09657-0.01535-0.03731-0.05847-0.05503-0.09604-0.03916l-0.29475 0.12356v-0.09975l0.10398-0.04366c0.03731-0.01561 0.05503-0.059 0.03942-0.09657-0.01561-0.03731-0.059-0.05503-0.09657-0.03916l-0.04683 0.01958v-0.06429c0-0.04101-0.03307-0.07382-0.07382-0.07382s-0.07355 0.03281-0.07355 0.07382v0.06482l-0.04789-0.02011c-0.03731-0.01587-0.0807 0.0019-0.09657 0.03916-0.01535 0.03757 0.0024 0.08096 0.03969 0.09657l0.10478 0.04392v0.09975l-0.29554-0.12382c-0.03757-0.01587-0.0807 0.0019-0.09631 0.03916-0.01588 0.03784 0.0016 0.08096 0.03916 0.09657l0.35269 0.14817v0.12621l-0.39608-0.16616c-0.02117-9e-3 -0.04551-0.0074-0.06535 4e-3 -0.01984 0.01164-0.0336 0.03201-0.03625 0.0545l-0.05424 0.42624-0.1098-0.0635 0.04815-0.37809c5e-3 -0.04048-0.02355-0.07726-0.06403-0.08229-0.04022-0.0053-0.07726 0.02328-0.08202 0.06376l-0.04022 0.31671-0.08652-0.04974 0.01402-0.11192c0.0053-0.04022-0.02355-0.07699-0.06377-0.08202-0.04048-0.0053-0.07726 0.02302-0.08255 0.0635l-0.0061 0.05054-0.05609-0.03228c-0.03519-0.02037-0.08017-0.0079-0.10054 0.02725-0.02037 0.03519-0.0079 0.0799 0.02699 0.10081l0.05636 0.03228-0.04154 0.03122c-0.03228 0.02461-0.03863 0.07064-0.01402 0.10292 0.01455 0.01931 0.03651 0.02937 0.05874 0.02937 0.01561 0 0.03122-0.0048 0.04445-0.01508l0.09075-0.06879 0.08652 0.05001-0.25559 0.19368c-0.03228 0.02487-0.03837 0.07091-0.01376 0.10345 0.01429 0.01878 0.03625 0.0291 0.05821 0.0291 0.01588 0 0.03175-5e-3 0.04471-0.01508l0.3048-0.23125 0.10954 0.06323-0.34211 0.25982c-0.01879 0.01402-0.02937 0.03572-0.02937 0.05874 0 0.02275 0.01058 0.04471 0.02937 0.05874l0.34211 0.25982-0.1098 0.06324-0.30427-0.23072c-0.03228-0.02434-0.07832-0.01826-0.10266 0.01429-0.02487 0.03202-0.01852 0.07832 0.01376 0.10319l0.25453 0.19341-0.08625 0.04974-0.08996-0.06826c-0.03228-0.02461-0.07884-0.01826-0.10319 0.01402-0.02461 0.03281-0.01852 0.07858 0.01402 0.10319l0.04075 0.03069-0.05609 0.03228c-0.03493 0.02064-0.04736 0.06535-0.02699 0.10054 0.01402 0.02381 0.03863 0.03704 0.06376 0.03704 0.0127 0 0.02513-0.0032 0.03678-0.0098l0.05636-0.03228 0.0063 0.05106c0.0048 0.03731 0.03651 0.06456 0.07329 0.06456 0.0029 0 0.0058 0 9e-3 -5.29e-4 0.04048-5e-3 0.06906-0.04207 0.06376-0.08228l-0.01402-0.11271 0.08678-0.05001 0.03995 0.31803c0.0045 0.03704 0.03651 0.06429 0.07303 0.06429 0.0029 0 0.0063-2.65e-4 0.0093-7.94e-4 0.04048-5e-3 0.06879-0.0418 0.06377-0.08202l-0.04763-0.37941 0.10901-0.06324 0.05424 0.42624c0.0026 0.02275 0.0164 0.04286 0.03625 0.0545 0.01138 0.0063 0.02408 0.0098 0.03678 0.0098 0.0098 0 0.01958-0.0019 0.02858-0.0056l0.39608-0.16642v0.12674l-0.3519 0.1479c-0.03731 0.01561-0.05477 0.05874-0.03916 0.09631 0.01164 0.02805 0.03916 0.04524 0.068 0.04524 0.0093 0 0.01931-0.0019 0.02831-0.0058l0.29475-0.12382v0.09975l-0.10425 0.04392c-0.03704 0.01561-0.05503 0.05874-0.03916 0.09631 0.01191 0.02805 0.03916 0.04524 0.068 0.04524 0.0095 0 0.01931-0.0019 0.02857-0.0058l0.04683-0.01958v0.06429c0 0.04075 0.03281 0.07382 0.07355 0.07382 0.04075 0 0.07382-0.03307 0.07382-0.07382v-0.06482l0.04763 0.02011c0.0093 4e-3 0.01931 0.0058 0.02857 0.0058 0.02858 0 0.05609-0.0172 0.068-0.04524 0.01561-0.03757-0.0021-0.0807-0.03942-0.09631l-0.10477-0.044152v-0.09975l0.29554 0.12409c0.0093 4e-3 0.01905 0.0058 0.02858 0.0058 0.02884 0 0.05583-0.0172 0.06773-0.04551 0.01588-0.03731-0.0019-0.08043-0.03916-0.09604l-0.35269-0.14817v-0.12647l0.39608 0.16642c0.0093 0.0037 0.01879 0.0056 0.02858 0.0056 0.0127 0 0.02566-0.0034 0.03678-0.0098 0.01984-0.01164 0.03334-0.03175 0.03625-0.0545l0.05424-0.42624 0.10954 0.06324-0.04789 0.37862c-0.0053 0.04048 0.02355 0.07726 0.06376 0.08255 0.0032 2.65e-4 0.0063 2.65e-4 0.0093 2.65e-4 0.03651 0 0.06826-0.02725 0.07329-0.06429l0.04022-0.31697 0.08625 0.04974-0.01402 0.11192c-0.0053 0.04022 0.02328 0.07726 0.06376 0.08228 0.0029 5.29e-4 0.0064 5.29e-4 0.0093 5.29e-4 0.03651 0 0.06826-0.02699 0.07276-0.06456l0.0066-0.05027 0.05609 0.03228c0.01138 0.0066 0.02381 0.0098 0.03651 0.0098 0.0254 0 0.05027-0.01323 0.06376-0.03704 0.02064-0.03519 0.0085-0.0799-0.02672-0.10054l-0.05636-0.03228 0.04127-0.03122c0.03228-0.02487 0.03889-0.07091 0.01429-0.10319-0.02487-0.03254-0.07117-0.03863-0.10345-0.01429l-0.09049 0.06906-0.08652-0.05001 0.25532-0.19394c0.03228-0.02461 0.03863-0.07091 0.01402-0.10319s-0.07091-0.03863-0.10319-0.01429l-0.30454 0.23151-0.10954-0.06324 0.34237-0.25982c0.01826-0.01402 0.02884-0.03598 0.02884-0.05874 0-0.02302-0.01058-0.04471-0.02884-0.05874l-0.34237-0.25982 0.11007-0.06323 0.30348 0.23072c0.01349 0.01005 0.02937 0.01482 0.04445 0.01482 0.02222 0 0.04445-0.01005 0.059-0.0291 0.02461-0.03254 0.01799-0.07858-0.01429-0.10345l-0.25453-0.19288 0.08678-0.05027 0.08943 0.06826c0.01349 0.01005 0.0291 0.01508 0.04472 0.01508 0.02222 0 0.04418-0.0098 0.05847-0.0291 0.02487-0.03254 0.01852-0.07858-0.01402-0.10319l-0.04022-0.03069 0.05583-0.03201c0.03519-0.0209 0.04736-0.06562 0.02672-0.10081"/>
 </g>
 <text id="a" x="7.0277939" y="3.8216612" font-family="sans-serif" font-size="2.121px" stroke-width=".070004" xml:space="preserve"><tspan x="7.0277939" y="3.8216612" font-family="sans-serif" font-size="2.121px" stroke-width=".070004">{{ include.stage | default: "1" | escape }}</tspan></text>
</svg>
