<?xml version="1.0" encoding="UTF-8"?>
<svg width="94.816mm" height="61.206mm" fill="currentColor" version="1.1" viewBox="0 0 9.4816 6.1206" xmlns="http://www.w3.org/2000/svg">
 <path d="m8.925 5.5676h-8.346v-5.0086h8.346zm-8.9252 0.55298h9.4816v-6.1206h-9.4816z" stroke-width=".26458"/>
 <path d="m8.925 5.5676h-8.346v-5.0086h8.346z" stroke-width=".26458"/>
 <g fill="#fff" stroke-width=".26458">
  <path d="m8.925 0.5566h-2.2421c0.52202 1.9714-0.36512 2.7736-1.0398 4.0153-0.18865 0.3474-0.27014 0.67839-0.26485 0.99272h3.5467z"/>
  <path d="m3.351 4.9886c-1.0607 0-1.9238-0.86307-1.9238-1.924 0-1.0604 0.86307-1.9227 1.9238-1.9227 1.0602 0 1.923 0.86228 1.923 1.9227 0 1.061-0.86281 1.924-1.923 1.924m0-3.9942c-1.1419 0-2.0709 0.92895-2.0709 2.0701 0 1.1417 0.92895 2.0704 2.0709 2.0704 1.1414 0 2.0706-0.92869 2.0706-2.0704 0-1.1411-0.92922-2.0701-2.0706-2.0701"/>
  <path d="m4.17 3.8016c-0.24024 0-0.43577-0.195-0.43577-0.4355 0-0.1442 0.07091-0.27093 0.17886-0.35031l0.19103 0.38126c0.01349 0.0254 0.03863 0.04048 0.06588 0.04048 0.01085 0 0.02249-0.0024 0.03334-0.0071 0.03678-0.01852 0.05106-0.06297 0.03281-0.09895l-0.19129-0.38074c0.04048-0.0127 0.08149-0.02064 0.12515-0.02064 0.24024 0 0.43577 0.19526 0.43577 0.43603 0 0.24051-0.19553 0.4355-0.43577 0.4355m-1.629-0.0021c-0.24024 0-0.43577-0.195-0.43577-0.4355s0.19553-0.43603 0.43577-0.43603c0.04471 0 0.08652 0.0087 0.12621 0.02143l-0.19182 0.38126c-0.01138 0.02355-0.01032 0.05001 0.0029 0.07223 0.01296 0.02196 0.03757 0.03466 0.06271 0.03466h0.42889c-0.03519 0.20505-0.21352 0.36195-0.42889 0.36195m0.42889-0.50932h-0.30956l0.13917-0.2757c0.08837 0.06562 0.15081 0.16351 0.17039 0.2757m-0.0037-0.60748 0.27146 0.60748h-0.118c-0.02222-0.17039-0.11668-0.3175-0.25268-0.40931zm0.69453-0.09842-0.30586 0.60828-0.27093-0.60775zm0.50932 0.1987c-0.06694 0-0.13203 0.01191-0.19235 0.03334l-0.24395-0.48736h0.16431c0.02196 0 0.0418 0.01164 0.05318 0.0299l0.04313 0.07038c0.0209 0.03387 0.06615 0.04551 0.10081 0.02408 0.03519-0.02117 0.04604-0.06641 0.02487-0.10107l-0.04286-0.06906c-0.03757-0.06251-0.10637-0.1014-0.17913-0.1014h-0.20346c-0.04286 0-0.08255 0.02196-0.10478 0.06006-0.02275 0.03678-0.02434 0.08281-0.0042 0.11959l0.03784 0.07567h-0.60537l-0.04816-0.10822h0.08096c0.04048 0 0.07303-0.03307 0.07303-0.07382s-0.03254-0.07329-0.07303-0.07329h-0.27305c-0.04048 0-0.07355 0.03254-0.07355 0.07329s0.03307 0.07382 0.07355 0.07382h0.03043l0.08043 0.18018-0.15346 0.30586c-0.06032-0.02223-0.12594-0.03387-0.1942-0.03387-0.32147 0-0.58314 0.26167-0.58314 0.58288 0 0.322 0.26167 0.58288 0.58314 0.58288 0.29686 0 0.5424-0.22225 0.57864-0.50932h0.23098c0.01111 0 0.02064-0.0024 0.0299-0.0063h7.93e-4c0.0016-7.94e-4 0.0021-0.0021 0.0048-0.0037 0.0019-0.0013 4e-3 -0.0026 0.0066-5e-3 0.0034-0.0019 0.0082-4e-3 0.01085-0.0077 0.0037-0.0029 5e-3 -0.0069 0.0077-0.01138 0.0011-5.29e-4 0.0013-0.0016 0.0021-0.0029 7.94e-4 -0.0013 0.0026-0.0019 0.0034-0.0034l0.34449-0.68474 0.08467 0.16907c-0.1561 0.10478-0.25876 0.2831-0.25876 0.48472 0 0.32094 0.26114 0.58367 0.58288 0.58367 0.322 0 0.58341-0.26273 0.58341-0.58367 0-0.3212-0.26141-0.58314-0.58341-0.58314"/>
 </g>
 <text id="a" x="7.0277939" y="3.8216612" font-family="sans-serif" font-size="2.121px" stroke-width=".070004" xml:space="preserve"><tspan x="7.0277939" y="3.8216612" font-family="sans-serif" font-size="2.121px" stroke-width=".070004">{{ include.stage | default: "1" | escape }}</tspan></text>
</svg>
