<?xml version="1.0" encoding="UTF-8"?>
<svg width="94.766mm" height="61.169mm" fill="currentColor" version="1.1" viewBox="0 0 9.4766 6.1169" xmlns="http://www.w3.org/2000/svg">
 <path d="m8.9204 5.5647h-8.3418v-5.0057h8.3418zm-8.9207 0.55218h9.4766v-6.1169h-9.4766z" stroke-width=".26458"/>
 <path d="m8.9204 5.5647h-8.3418v-5.0057h8.3418z" stroke-width=".26458"/>
 <g fill="#fff" stroke-width=".26458">
  <path d="m8.9204 0.556h-2.2405c0.52096 1.9704-0.36592 2.772-1.0403 4.0132-0.18838 0.34687-0.26961 0.67813-0.26458 0.99166h3.5454z"/>
  <path d="m3.3497 4.9852c-1.0602 0-1.9225-0.86281-1.9225-1.9227 0-1.0599 0.86228-1.9222 1.9225-1.9222 1.0599 0 1.9225 0.86228 1.9225 1.9222 0 1.0599-0.86254 1.9227-1.9225 1.9227m0-3.9923c-1.1411 0-2.0696 0.92842-2.0696 2.0696 0 1.1414 0.92842 2.0701 2.0696 2.0701 1.1409 0 2.0696-0.92869 2.0696-2.0701 0-1.1411-0.92869-2.0696-2.0696-2.0696"/>
  <path d="m4.2264 3.4657c-9e-3 -0.03969-0.04868-0.06456-0.08811-0.05556l-0.80142 0.18203-0.80169-0.18203c-0.03969-9e-3 -0.07885 0.01588-0.08811 0.05556-9e-3 0.03969 0.01588 0.07911 0.05556 0.08784l0.50139 0.1143-0.50139 0.11351c-0.03969 0.0093-0.06456 0.04868-0.05556 0.08837 0.0079 0.03413 0.0381 0.05741 0.07197 0.05741 0.0053 0 0.01085-5.29e-4 0.01614-0.0019l0.80169-0.18203 0.80142 0.18203c0.0056 0.0013 0.01085 0.0019 0.0164 0.0019 0.0336 0 0.06403-0.02328 0.0717-0.05741 9e-3 -0.03969-0.01588-0.07911-0.05556-0.08837l-0.50112-0.11351 0.50112-0.1143c0.03969-0.0087 0.06456-0.04815 0.05556-0.08784"/>
  <path d="m3.0626 2.4184c0.15187-0.1143 0.30824-0.23125 0.3466-0.40561 0.19658 0.17542 0.57203 0.5498 0.58949 0.8636 0.01588 0.28099-0.12171 0.37492-0.28628 0.43048 0.04551-0.08572 0.08149-0.1942 0.06297-0.30586-0.02143-0.12912-0.09366-0.19368-0.14658-0.24104-0.05398-0.04815-0.07064-0.06588-0.06377-0.1188 0.0029-0.02328-0.0053-0.04657-0.02222-0.06271-0.01693-0.01614-0.04075-0.02328-0.06376-0.01931-0.15928 0.02831-0.20161 0.20532-0.21061 0.33893-0.01958-0.02752-0.03836-0.06615-0.05159-0.1188-0.0066-0.02805-0.02963-0.04948-0.05847-0.05477-0.02831-5e-3 -0.05715 0.0071-0.07355 0.03096-0.10478 0.15372-0.14129 0.3011-0.10927 0.43762 0.01217 0.05133 0.03307 0.09551 0.05689 0.13308-0.04498-0.01005-0.09366-0.0254-0.13891-0.04948-0.12965-0.06906-0.19262-0.18442-0.19262-0.35322 0-0.23363 0.17568-0.36565 0.36168-0.50509m-0.23786 0.98848c0.13626 0.0725 0.28681 0.08308 0.36433 0.08308 0.02514 0 0.04101-0.0013 0.04286-0.0013 0.03201-0.0024 0.05847-0.02593 0.06562-0.05741 0.0069-0.03149-0.0074-0.06377-0.03519-0.07991-0.0011-7.93e-4 -0.11483-0.06747-0.14367-0.19367-0.01323-0.05874-0.0071-0.12224 0.01879-0.1905 0.08017 0.12515 0.18812 0.14526 0.1942 0.14658 0.02302 4e-3 0.04577-0.0032 0.06297-0.01879 0.01667-0.01588 0.0254-0.03863 0.02302-0.06138-0.0079-0.07223-0.0037-0.18971 0.0254-0.26326 0.02302 0.04207 0.05741 0.07276 0.08784 0.09975 0.04604 0.04127 0.08625 0.07699 0.09922 0.15452 0.02831 0.17198-0.14896 0.35666-0.15266 0.36036-0.02355 0.02381-0.02805 0.06112-0.01058 0.08969 0.01349 0.02249 0.03757 0.03545 0.06323 0.03545 0.0069 0 0.01429-7.93e-4 0.02143-0.0029 0.02276-0.0071 0.04763-0.01402 0.07408-0.0209 0.21749-0.059 0.54636-0.1479 0.52044-0.61807-0.02752-0.48974-0.73395-1.048-0.76412-1.0718-0.02408-0.01879-0.05768-0.02064-0.08361-0.0045-0.02646 0.01614-0.03995 0.0471-0.0336 0.07726 0.03493 0.17674-0.08784 0.27914-0.29078 0.43154-0.19685 0.14764-0.42069 0.31565-0.42069 0.62283 0 0.28072 0.14764 0.41751 0.27146 0.48339"/>
 </g>
 <text id="a" x="7.0277939" y="3.8216612" font-family="sans-serif" font-size="2.121px" stroke-width=".070004" xml:space="preserve"><tspan x="7.0277939" y="3.8216612" font-family="sans-serif" font-size="2.121px" stroke-width=".070004">{{ include.stage | default: "1" | escape }}</tspan></text>
</svg>
