<svg xmlns="http://www.w3.org/2000/svg" width="358.171" height="231.19" fill="currentColor" viewBox="0 0 9.477 6.117"><g stroke-width=".265"><path d="M8.921 5.564H.58V.56h8.342zm-8.92.553h9.476V0H0z"/><path d="M8.921 5.564H.58V.56h8.342z"/><g fill="#fff"><path d="M8.921.556h-2.24c.52 1.97-.366 2.772-1.04 4.013-.19.347-.27.678-.265.992H8.92zM3.704 3.821l-.28-.834v-.004l-.005-.01-.007-.01-.001-.001-.008-.008-.002-.001-.009-.007H3.39l-.01-.006h-.002l-.011-.003-.012-.001h-.001l-.023.004H3.33l-.01.005h-.002l-.01.006v.002L3.3 2.96l-.492.552a.07.07 0 0 0-.008.086l.13.223h-.54l.965-1.781.964 1.781zm-.35-.579.195.58H3.16zm-.4.329.217-.244-.131.39zm1.489-.11a.074.074 0 0 0-.074.074v.07L3.42 1.85a.074.074 0 0 0-.129 0l-.95 1.754v-.07a.074.074 0 0 0-.147 0v.37l.001.003.001.007v.002l.008.016v.002l.005.006.001.001.007.007.005.005.002.002.007.004.009.004.008.003h.002l.006.002h2.199l.006-.001.003-.001.007-.003q.005-.001.009-.004h.001l.006-.004.002-.002.005-.005h.001L4.5 3.94l.001-.001.004-.006.001-.001v-.001l.008-.016v-.002l.001-.007v-.003l.001-.006v-.363a.074.074 0 0 0-.073-.074"/><path d="M3.355 4.984a1.925 1.925 0 0 1-1.922-1.922c0-1.06.862-1.922 1.922-1.922s1.923.862 1.923 1.922-.863 1.922-1.923 1.922m0-3.992c-1.141 0-2.07.929-2.07 2.07s.929 2.07 2.07 2.07 2.07-.929 2.07-2.07-.929-2.07-2.07-2.07"/></g></g><text xml:space="preserve" x="7.028" y="3.822" stroke-width=".07" font-family="sans-serif" font-size="2.121"><tspan x="7.028" y="3.822">{{ include.stage | default: &quot;1&quot; | escape }}</tspan></text></svg>