<svg xmlns="http://www.w3.org/2000/svg" width="358.36" height="231.33" fill="currentColor" viewBox="0 0 9.482 6.121"><path d="M8.925 5.568H.579V.559h8.346zM0 6.12H9.48V0H0z"/><path d="M8.925 5.568H.579V.559h8.346z"/><g fill="#fff" stroke-width=".265"><path d="M8.925.557H6.683c.522 1.971-.365 2.773-1.04 4.015-.189.347-.27.678-.265.993h3.547zM3.351 4.989a1.926 1.926 0 0 1-1.924-1.924c0-1.06.863-1.923 1.924-1.923s1.923.862 1.923 1.923a1.926 1.926 0 0 1-1.923 1.924m0-3.995c-1.142 0-2.07.93-2.07 2.07 0 1.142.928 2.07 2.07 2.07s2.07-.928 2.07-2.07c0-1.14-.929-2.07-2.07-2.07"/><path d="M4.17 3.802a.436.436 0 0 1-.257-.786l.191.381c.014.025.039.04.066.04q.016 0 .033-.007a.074.074 0 0 0 .033-.099l-.191-.38a.4.4 0 0 1 .125-.02.436.436 0 0 1 0 .87M2.541 3.8a.436.436 0 0 1 0-.872.4.4 0 0 1 .126.021l-.192.382a.08.08 0 0 0 .003.072.07.07 0 0 0 .063.035h.429a.436.436 0 0 1-.429.362m.429-.51h-.31l.14-.275c.088.065.15.163.17.275m-.004-.607.272.607H3.12a.58.58 0 0 0-.253-.41zm.695-.099-.306.609-.271-.608zm.509.199a.6.6 0 0 0-.192.033l-.244-.487h.164q.035.002.053.03l.043.07c.021.034.067.046.101.024a.073.073 0 0 0 .025-.1l-.043-.07a.21.21 0 0 0-.179-.101h-.203a.12.12 0 0 0-.105.06.12.12 0 0 0-.004.12l.037.075h-.605L2.97 2.33h.08c.041 0 .074-.033.074-.074s-.033-.073-.073-.073h-.273c-.04 0-.074.032-.074.073s.033.074.074.074h.03l.08.18-.153.306a.584.584 0 1 0 .384.623h.232q.015 0 .03-.007.002 0 .005-.003l.007-.005q.006-.002.01-.008.005-.005.008-.012l.002-.002.004-.004.344-.685.085.17a.583.583 0 1 0 .324-.099"/></g><text xml:space="preserve" x="7.028" y="3.822" stroke-width=".07" font-family="sans-serif" font-size="2.121"><tspan x="7.028" y="3.822">{{ include.stage | default: &quot;1&quot; | escape }}</tspan></text></svg>