<?xml version="1.0" encoding="UTF-8"?>
<svg width="94.766mm" height="61.169mm" fill="currentColor" version="1.1" viewBox="0 0 9.4766 6.1169" xmlns="http://www.w3.org/2000/svg">
 <path d="m8.9206 5.5642h-8.3418v-5.0059h8.3418zm-8.9207 0.55218h9.4766v-6.1169h-9.4766z" stroke-width=".26458"/>
 <path d="m8.9206 5.5642h-8.3418v-5.0059h8.3418z" stroke-width=".26458"/>
 <g fill="#fff" stroke-width=".26458">
  <path d="m8.9206 0.5552h-2.2405c0.52096 1.9706-0.36592 2.7723-1.0403 4.0135-0.18838 0.3466-0.26961 0.67813-0.26458 0.99166h3.5454z"/>
  <path d="m3.3446 4.9842c-1.0599 0-1.9225-0.86254-1.9225-1.9225 0-1.0597 0.86254-1.9219 1.9225-1.9219 1.0602 0 1.9227 0.86228 1.9227 1.9219 0 1.0599-0.86254 1.9225-1.9227 1.9225m0-3.9918c-1.1409 0-2.0693 0.92842-2.0693 2.0693 0 1.1414 0.92842 2.0698 2.0693 2.0698 1.1411 0 2.0698-0.92842 2.0698-2.0698 0-1.1409-0.92869-2.0693-2.0698-2.0693"/>
  <path d="m4.0576 3.4432c-0.0034 0.02593-0.0164 0.04948-0.03784 0.06509-0.0172 0.01376-0.03784 0.0209-0.0598 0.0209h-2.65e-4c-0.03069 0-0.05953-0.01429-0.07832-0.03863l-0.29289-0.38074c-0.01005-0.0172-5.29e-4 -0.0799 0.01905-0.1397 0.01323-0.0013 0.02858-0.0026 0.04471-0.0026 0.05609 0 0.08467 0.01217 0.09261 0.02249l0.29316 0.38047c0.01588 0.02064 0.02302 0.0463 0.01958 0.07276m-0.9562-0.3339-0.29395 0.38126c-0.01879 0.02434-0.04736 0.03863-0.07832 0.03863-0.02196 0-0.04286-0.0071-0.06006-0.0209-0.0209-0.01561-0.03413-0.03916-0.03784-0.06509-0.0032-0.02646 4e-3 -0.05212 0.02011-0.07276l0.29289-0.38047c0.0077-0.01032 0.03704-0.02249 0.09287-0.02249 0.01588 0 0.03149 0.0013 0.04472 0.0026 0.01958 0.0598 0.0291 0.1225 0.01958 0.13917m0.76041-0.20955c-0.04101-0.05239-0.11112-0.07937-0.20955-0.07937-0.02461 0-0.04762 0.0016-0.06667 0.0037l-0.14817-0.19209 0.32888-0.42677 0.02963 0.02249c0.01349 0.01032 0.0291 0.01561 0.04524 0.01561 0.02196 0 0.04366-0.0098 0.05794-0.02884 0.02513-0.03228 0.01905-0.07805-0.01323-0.10319l-0.08784-0.06773v-5.3e-4l-0.08758-0.06747c-0.03254-0.02434-0.07858-0.01826-0.10372 0.01376-0.02461 0.03228-0.01852 0.07832 0.01349 0.10319l0.02963 0.02249-0.30533 0.39661-0.30533-0.39661 0.02963-0.02249c0.03228-0.02487 0.0381-0.07091 0.01323-0.10319-0.02461-0.03202-0.07091-0.0381-0.10319-0.01376l-0.08784 0.06747v5.3e-4h-2.64e-4l-0.08758 0.06773c-0.03228 0.02513-0.03836 0.07091-0.01323 0.10319 0.01455 0.01905 0.03625 0.02884 0.05821 0.02884 0.01587 0 0.03148-0.0053 0.04498-0.01561l0.02963-0.02249 0.32861 0.42677-0.1479 0.19209c-0.01905-0.0021-0.04207-0.0037-0.06641-0.0037-0.09842 0-0.16907 0.02699-0.20955 0.07937l-0.29316 0.38047c-0.03995 0.05212-0.05768 0.11615-0.04895 0.1815 0.0085 0.06535 0.04154 0.12356 0.09366 0.16325 0.04339 0.03387 0.09525 0.05159 0.15002 0.05159 0.07726 0 0.14817-0.03519 0.19526-0.09604l0.29342-0.38126c0.05953-0.07699 0.02699-0.20902 0.0011-0.28337l0.12568-0.16298 0.12541 0.16298c-0.02566 0.07435-0.05794 0.20638 0.0011 0.28337l0.29369 0.38126c0.04683 0.06085 0.11827 0.09604 0.195 0.09604h2.65e-4c0.05477 0 0.10636-0.01773 0.15002-0.05159 0.05212-0.03969 0.08546-0.0979 0.09366-0.16325 0.0087-0.06535-9e-3 -0.12938-0.04921-0.1815z"/>
  <path d="m3.8396 3.8322c-0.09578 0-0.17383-0.07805-0.17383-0.17357 0-0.04101-0.03281-0.07382-0.07382-0.07382-0.04074 0-0.07355 0.03281-0.07355 0.07382 0 0.09552-0.07805 0.17357-0.17383 0.17357-0.09551 0-0.17357-0.07805-0.17357-0.17357 0-0.04101-0.03307-0.07382-0.07408-0.07382-0.04048 0-0.07329 0.03281-0.07329 0.07382 0 0.09552-0.07832 0.17357-0.17383 0.17357-0.04101 0-0.07382 0.03307-0.07382 0.07382 0 0.04101 0.03281 0.07355 0.07382 0.07355 0.09948 0 0.18865-0.04524 0.24712-0.11668 0.05927 0.07144 0.14843 0.11668 0.24765 0.11668 0.09948 0 0.18865-0.04524 0.24738-0.11668 0.059 0.07144 0.14817 0.11668 0.24765 0.11668 0.04048 0 0.07329-0.03254 0.07329-0.07355 0-0.04075-0.03281-0.07382-0.07329-0.07382"/>
 </g>
 <text id="a" x="7.0277939" y="3.8216612" font-family="sans-serif" font-size="2.121px" stroke-width=".070004" xml:space="preserve"><tspan x="7.0277939" y="3.8216612" font-family="sans-serif" font-size="2.121px" stroke-width=".070004">{{ include.stage | default: "1" | escape }}</tspan></text>
</svg>
