<svg xmlns="http://www.w3.org/2000/svg" width="358.171" height="231.19" fill="currentColor" viewBox="0 0 9.477 6.117"><path d="M8.92 5.565H.58V.559H8.92zM0 6.117h9.476V0H0z"/><path d="M8.92 5.565H.58V.559H8.92z"/><g fill="#fff" stroke-width=".265"><path d="M8.92.556H6.68c.52 1.97-.366 2.772-1.04 4.013-.189.347-.27.678-.265.992H8.92zM3.35 4.985a1.925 1.925 0 0 1-1.923-1.923c0-1.06.862-1.922 1.923-1.922s1.922.863 1.922 1.923S4.41 4.985 3.35 4.985m0-3.992c-1.141 0-2.07.928-2.07 2.07 0 1.14.929 2.07 2.07 2.07s2.07-.93 2.07-2.07c0-1.142-.93-2.07-2.07-2.07"/><path d="M4.226 3.466a.074.074 0 0 0-.088-.056l-.801.182-.802-.182a.074.074 0 0 0-.088.056c-.009.04.016.079.056.088l.501.114-.501.113a.074.074 0 0 0 .033.144l.8-.182.802.182.017.002a.074.074 0 0 0 .016-.146l-.501-.113.5-.114a.073.073 0 0 0 .056-.088"/><path d="M3.063 2.418c.151-.114.308-.23.346-.405.197.175.572.55.59.863.016.281-.122.375-.287.43a.5.5 0 0 0 .063-.305c-.021-.13-.093-.194-.146-.241-.054-.048-.07-.066-.064-.119a.074.074 0 0 0-.086-.082c-.16.028-.202.205-.21.34a.4.4 0 0 1-.052-.12.073.073 0 0 0-.132-.024q-.157.232-.11.438a.4.4 0 0 0 .057.133.6.6 0 0 1-.138-.05q-.194-.1-.193-.353c0-.233.176-.365.362-.505m-.238.989a.8.8 0 0 0 .364.083l.043-.001a.07.07 0 0 0 .066-.058.074.074 0 0 0-.036-.08s-.114-.067-.143-.193a.33.33 0 0 1 .018-.19c.08.124.189.144.195.146a.07.07 0 0 0 .063-.02.08.08 0 0 0 .023-.06.6.6 0 0 1 .025-.264.4.4 0 0 0 .088.1c.046.041.086.077.1.155.027.172-.15.356-.154.36a.074.074 0 0 0 .075.122q.033-.01.074-.02c.217-.06.546-.149.52-.619-.027-.49-.734-1.048-.764-1.072a.073.073 0 0 0-.117.073c.035.177-.088.28-.291.432-.197.147-.42.315-.42.623 0 .28.147.417.27.483"/></g><text xml:space="preserve" x="7.028" y="3.822" stroke-width=".07" font-family="sans-serif" font-size="2.121"><tspan x="7.028" y="3.822">{{ include.stage | default: &quot;1&quot; | escape }}</tspan></text></svg>