<svg xmlns="http://www.w3.org/2000/svg" width="358.178" height="231.19" fill="currentColor" viewBox="0 0 9.477 6.117"><path d="M8.92 5.565H.58V.559H8.92zM0 6.117h9.477V0H0z"/><path d="M8.92 5.565H.58V.559H8.92z"/><g fill="#fff" stroke-width=".265"><path d="M8.92.556H6.68c.521 1.97-.366 2.772-1.04 4.013-.189.347-.27.678-.265.992h3.546zM3.28 3.059a.074.074 0 1 1 .15 0 .074.074 0 0 1-.15 0m.297 0a.222.222 0 1 0-.445 0 .222.222 0 0 0 .445 0"/><path d="m3.355 3.763-.1-.297a.4.4 0 0 0 .2 0zm0-1.41.1.297a.4.4 0 0 0-.2 0zm-.273.705a.273.273 0 1 1 .546.001.273.273 0 0 1-.546 0m.565-.302-.222-.656a.075.075 0 0 0-.07-.05c-.032 0-.06.02-.07.05l-.223.656a.42.42 0 0 0 0 .603l.223.657a.074.074 0 0 0 .14 0l.222-.657a.42.42 0 0 0 0-.603"/><path d="M3.355 4.149a1.092 1.092 0 0 1 0-2.18c.601 0 1.09.488 1.09 1.09 0 .6-.489 1.09-1.09 1.09m0-2.328a1.24 1.24 0 0 0-1.238 1.238 1.24 1.24 0 0 0 1.238 1.238 1.24 1.24 0 0 0 1.238-1.238A1.24 1.24 0 0 0 3.355 1.82"/><path d="M3.355 4.36a1.303 1.303 0 0 1-1.302-1.302 1.303 1.303 0 0 1 2.604 0c0 .718-.584 1.302-1.302 1.302m0-2.75c-.8 0-1.45.65-1.45 1.449s.65 1.449 1.45 1.449 1.45-.65 1.45-1.45a1.45 1.45 0 0 0-1.45-1.448"/><path d="M3.355 4.98a1.924 1.924 0 0 1-1.922-1.922c0-1.06.862-1.922 1.922-1.922S5.278 2 5.278 3.058c0 1.06-.863 1.923-1.923 1.923m0-3.992c-1.141 0-2.07.928-2.07 2.07 0 1.14.929 2.07 2.07 2.07s2.07-.93 2.07-2.07c0-1.142-.929-2.07-2.07-2.07"/></g><text xml:space="preserve" x="7.028" y="3.822" stroke-width=".07" font-family="sans-serif" font-size="2.121"><tspan x="7.028" y="3.822">{{ include.stage | default: &quot;1&quot; | escape }}</tspan></text></svg>