<svg xmlns="http://www.w3.org/2000/svg" width="358.178" height="231.19" fill="currentColor" viewBox="0 0 9.477 6.117"><path d="M8.921 5.565H.579V.559h8.342zm-8.92.552h9.476V0H0z"/><path d="M8.921 5.565H.579V.559h8.342z"/><g fill="#fff" stroke-width=".265"><path d="M8.92.556H6.68c.52 1.97-.366 2.772-1.04 4.013-.19.347-.27.678-.265.992H8.92zM3.355 4.983c-1.06 0-1.922-.863-1.922-1.923s.862-1.922 1.922-1.922S5.277 2 5.277 3.06s-.862 1.923-1.922 1.923m0-3.992c-1.14 0-2.07.928-2.07 2.07 0 1.14.93 2.069 2.07 2.069 1.141 0 2.07-.928 2.07-2.07S4.496.99 3.355.99"/><path d="M4.288 3.535a.074.074 0 0 0-.074.073.238.238 0 0 1-.475 0 .074.074 0 1 0-.147 0 .238.238 0 0 1-.475 0 .074.074 0 1 0-.147 0 .238.238 0 0 1-.475 0 .074.074 0 1 0-.148 0 .385.385 0 0 0 .696.227.384.384 0 0 0 .622 0 .386.386 0 0 0 .697-.227.074.074 0 0 0-.074-.073M2.986 2.88l.123-.668.24.55zm-.308.512.893-.286.384-.122c.004.132-.006.331-.078.422a.073.073 0 0 0 .012.104q.022.015.046.016.035 0 .057-.028c.146-.184.108-.576.103-.62a.073.073 0 0 0-.096-.062l-.41.13-.073-.169-.368-.845a.073.073 0 0 0-.14.016l-.19 1.027a.074.074 0 0 0 .096.083l.494-.161.04.094-.815.26a.074.074 0 0 0 .045.14"/><path d="M3.912 2.506a1 1 0 0 0-.16.076 3 3 0 0 0-.087-.228l-.065-.15c.111.043.225.169.312.302m-.287.183a.074.074 0 0 0 .115.075c.069-.048.192-.12.25-.126a.074.074 0 0 0 .133-.062.1.1 0 0 0-.019-.037c-.085-.155-.304-.497-.582-.497a.3.3 0 0 0-.055.004.074.074 0 0 0-.054.105c.102.214.211.48.212.538"/></g><text xml:space="preserve" x="7.028" y="3.822" stroke-width=".07" font-family="sans-serif" font-size="2.121"><tspan x="7.028" y="3.822">{{ include.stage | default: &quot;1&quot; | escape }}</tspan></text></svg>