<?xml version="1.0" encoding="UTF-8"?>
<svg width="94.816mm" height="61.206mm" fill="currentColor" version="1.1" viewBox="0 0 9.4816 6.1206" xmlns="http://www.w3.org/2000/svg">
 <path d="m8.9264 5.5678h-8.3465v-5.0086h8.3465zm-8.9255 0.55298h9.4816v-6.1206h-9.4816z" stroke-width=".26458"/>
 <path d="m8.9254 5.5678h-8.3463v-5.0086h8.3463z" stroke-width=".26458"/>
 <g fill="#fff" stroke-width=".26458">
  <path d="m8.9254 0.5568h-2.2423c0.52149 1.9714-0.36539 2.7736-1.0406 4.0153-0.18785 0.3474-0.26988 0.67839-0.26458 0.99272h3.5475z"/>
  <path d="m3.3514 4.9868c-1.0604 0-1.9235-0.86228-1.9235-1.9235 0-1.0594 0.86307-1.9225 1.9235-1.9225 1.061 0 1.9233 0.86307 1.9233 1.9225 0 1.0612-0.86228 1.9235-1.9233 1.9235m0-3.9941c-1.1411 0-2.0701 0.92895-2.0701 2.0706 0 1.1427 0.92895 2.0714 2.0701 2.0714 1.1419 0 2.0709-0.92869 2.0709-2.0714 0-1.1417-0.92895-2.0706-2.0709-2.0706"/>
  <path d="m3.8884 4.1058c-0.0807 0.0799-0.23707 0.13441-0.38047 0.13229-0.1868-0.0029-0.37015-0.21087-0.4617-0.40243-0.09446-0.19764-0.44476-1.0075-0.54372-1.2684-0.03598-0.09472-0.02117-0.21299 0.03969-0.32411 0.06218-0.11324 0.16563-0.20161 0.25718-0.22066 0.19844-0.04022 0.80089 0.15266 0.94668 0.23627 0.12885 0.07408 0.19685 0.19156 0.20267 0.35031h-0.06773c-0.01032-0.09234-0.04233-0.14896-0.12594-0.245-0.0852-0.09763-0.32412-0.16695-0.42307-0.19235-0.1524-0.03889-0.35507-0.07276-0.46752-0.05027-0.10081 0.02143-0.18256 0.08229-0.23019 0.1733-0.05371 0.10266-0.05583 0.22781-0.0074 0.34396 0.02355 0.05583 0.06853 0.16245 0.11906 0.28707 0.11959 0.28654 0.28231 0.67839 0.33496 0.78925 0.09578 0.20029 0.20188 0.39846 0.3593 0.42624 0.02328 0.0034 0.05027 0.0063 0.07805 0.0063 0.09551 0 0.20611-0.02619 0.28178-0.09022 0.0508-0.04286 0.0799-0.09816 0.0852-0.16034h0.06403v0.07858c0 0.04683-0.02011 0.08969-0.06085 0.13018m-0.19103-1.4227v0.16192c-0.02408 0.01191-0.04127 0.03704-0.04127 0.06641v0.68262c0 0.02937 0.0172 0.0545 0.04127 0.06641v0.16245c0 0.02884 0.01693 0.05371 0.04048 0.06588-0.0029 0.0217-0.01349 0.03995-0.03228 0.05662-0.05609 0.0463-0.16854 0.06218-0.24051 0.04974-0.09525-0.01614-0.20002-0.23654-0.25109-0.34369-0.05106-0.10742-0.21299-0.49715-0.33126-0.78211-0.05159-0.12462-0.09604-0.2323-0.12012-0.28892-0.03149-0.07488-0.03096-0.15425 0.0024-0.21696 0.02646-0.05106 0.0725-0.08546 0.12832-0.0971 0.16166-0.03307 0.66622 0.09763 0.75115 0.19526 0.06271 0.07064 0.08281 0.10478 0.08969 0.15716-0.0217 0.0127-0.03678 0.03678-0.03678 0.06429m0.28469 0.15425h-0.13705v-0.0807h0.13705zm0.04127 0.68315h-0.2204v-0.53525h0.2204zm-0.04127 0.2286h-0.13705v-0.08149h0.13705zm0.14684-0.90408v-0.16192c0-0.02646-0.0127-0.04895-0.03254-0.06218-0.0029-0.21802-0.09789-0.38762-0.27702-0.48974-0.16431-0.09446-0.80433-0.30321-1.0496-0.25294-0.13547 0.02752-0.27226 0.13996-0.35692 0.29342-0.08176 0.14843-0.09975 0.31194-0.04842 0.44715 0.10213 0.27014 0.45111 1.0758 0.54822 1.2798 0.11483 0.23971 0.34237 0.48313 0.5932 0.48657h0.01005c0.18177 0 0.36751-0.068 0.47651-0.17462 0.06853-0.0672 0.10425-0.1487 0.10425-0.23495v-0.09128c0.01958-0.01349 0.03228-0.03545 0.03228-0.06138v-0.16245c0.02487-0.01191 0.04154-0.03704 0.04154-0.06641v-0.68262c0-0.02937-0.01667-0.0545-0.04154-0.06641"/>
 </g>
 <text id="a" x="7.0277939" y="3.8216612" font-family="sans-serif" font-size="2.121px" stroke-width=".070004" xml:space="preserve"><tspan x="7.0277939" y="3.8216612" font-family="sans-serif" font-size="2.121px" stroke-width=".070004">{{ include.stage | default: "1" | escape }}</tspan></text>
</svg>
