<svg xmlns="http://www.w3.org/2000/svg" width="358.371" height="231.341" fill="currentColor" viewBox="0 0 9.482 6.121"><path d="M8.926 5.568H.58V.559h8.346zM0 6.12h9.482V0H0z"/><path d="M8.926 5.568H.58V.559h8.346z"/><g fill="#fff" stroke-width=".265"><path d="M8.926.557H6.684c.521 1.97-.366 2.773-1.041 4.015a2 2 0 0 0-.264.992h3.547zM3.357 4.987a1.926 1.926 0 0 1-1.923-1.924c0-1.06.862-1.923 1.923-1.923s1.923.863 1.923 1.923-.863 1.924-1.923 1.924m0-3.994c-1.142 0-2.07.928-2.07 2.07s.928 2.07 2.07 2.07 2.07-.928 2.07-2.07S4.5.993 3.358.993"/><path d="M4.1 3.778a.173.173 0 0 1-.174-.173.073.073 0 1 0-.147 0 .174.174 0 0 1-.348 0 .07.07 0 0 0-.026-.055.07.07 0 0 0-.048-.02.07.07 0 0 0-.046.018.07.07 0 0 0-.028.057.17.17 0 0 1-.086.149.173.173 0 0 1-.26-.15.074.074 0 1 0-.147 0 .174.174 0 0 1-.175.174.074.074 0 0 0-.075.074c0 .041.033.074.075.074a.32.32 0 0 0 .247-.117.32.32 0 0 0 .495 0q.027.032.06.055a.32.32 0 0 0 .434-.055.32.32 0 0 0 .249.117c.04 0 .074-.033.074-.074a.074.074 0 0 0-.074-.074M2.615 2.579a.32.32 0 0 0 .247-.117.32.32 0 0 0 .495 0 .3.3 0 0 0 .061.055.32.32 0 0 0 .435-.054.32.32 0 0 0 .247.116.074.074 0 1 0 0-.148.173.173 0 0 1-.174-.173.074.074 0 0 0-.073-.074.073.073 0 0 0-.074.074.174.174 0 0 1-.348 0 .07.07 0 0 0-.025-.055.07.07 0 0 0-.049-.02.07.07 0 0 0-.045.019.07.07 0 0 0-.029.056.17.17 0 0 1-.086.149.174.174 0 0 1-.26-.15.074.074 0 1 0-.148 0 .174.174 0 0 1-.174.174.074.074 0 1 0 0 .148M4.602 2.835a.074.074 0 0 0-.073.073.238.238 0 1 1-.475 0 .074.074 0 0 0-.074-.073.073.073 0 0 0-.073.073.239.239 0 0 1-.477 0 .074.074 0 0 0-.147 0c0 .131-.107.238-.237.238s-.238-.107-.238-.238a.074.074 0 0 0-.148 0 .237.237 0 1 1-.474 0 .075.075 0 0 0-.075-.073.073.073 0 0 0-.073.073.385.385 0 0 0 .696.226.4.4 0 0 0 .162.129l.03.01a.1.1 0 0 0 .028.008.293.293 0 0 0 .092.012.38.38 0 0 0 .31-.16.39.39 0 0 0 .404.148q.015-.002.03-.009l.024-.009.032-.013a.3.3 0 0 0 .067-.046q.006-.003.011-.01l.025-.023.03-.037a.384.384 0 0 0 .696-.226.073.073 0 0 0-.073-.073"/></g><text xml:space="preserve" x="7.028" y="3.822" stroke-width=".07" font-family="sans-serif" font-size="2.121"><tspan x="7.028" y="3.822">{{ include.stage | default: &quot;1&quot; | escape }}</tspan></text></svg>