<svg xmlns="http://www.w3.org/2000/svg" width="358.171" height="231.19" fill="currentColor" viewBox="0 0 9.477 6.117"><path d="M8.92 5.564H.58V.558H8.92zM0 6.116h9.477V0H0z"/><path d="M8.92 5.564H.58V.558H8.92z"/><g fill="#fff" stroke-width=".265"><path d="M8.92.555H6.68c.521 1.97-.366 2.773-1.04 4.014-.189.346-.27.678-.265.991h3.546zM3.345 4.984a1.925 1.925 0 0 1-1.923-1.922c0-1.06.863-1.922 1.923-1.922s1.922.862 1.922 1.922-.862 1.922-1.922 1.922m0-3.992c-1.141 0-2.07.929-2.07 2.07s.929 2.07 2.07 2.07 2.07-.929 2.07-2.07-.93-2.07-2.07-2.07"/><path d="M4.058 3.443a.1.1 0 0 1-.038.065.1.1 0 0 1-.06.021.1.1 0 0 1-.079-.038l-.293-.381c-.01-.017 0-.08.02-.14l.044-.002c.056 0 .085.012.093.022l.293.38q.024.033.02.073M3.1 3.11l-.294.382a.099.099 0 1 1-.156-.12l.293-.381c.008-.01.037-.022.093-.022l.045.002c.02.06.029.123.02.14m.76-.21q-.062-.08-.21-.08l-.066.004-.149-.192.33-.427.029.023q.02.015.045.015.035 0 .058-.029a.073.073 0 0 0-.013-.103l-.088-.067v-.001l-.088-.067a.075.075 0 0 0-.103.013.074.074 0 0 0 .013.104l.03.022-.305.397-.306-.397.03-.023a.073.073 0 0 0 .013-.103.074.074 0 0 0-.103-.013l-.088.067-.088.068a.073.073 0 0 0-.013.103.073.073 0 0 0 .103.014l.03-.023.328.427-.148.192-.066-.004q-.148 0-.21.08l-.293.38a.24.24 0 0 0-.049.182.24.24 0 0 0 .094.163.245.245 0 0 0 .345-.044l.294-.382c.06-.077.027-.209 0-.283l.127-.163.125.163c-.026.074-.058.206.001.283l.294.382c.047.06.118.096.195.096a.24.24 0 0 0 .15-.052.24.24 0 0 0 .094-.163.24.24 0 0 0-.05-.182z"/><path d="M3.84 3.832a.174.174 0 0 1-.174-.173.074.074 0 1 0-.148 0 .174.174 0 0 1-.347 0 .074.074 0 1 0-.147 0 .174.174 0 0 1-.174.173.074.074 0 1 0 0 .148c.1 0 .188-.046.247-.117a.32.32 0 0 0 .495 0 .32.32 0 0 0 .248.117c.04 0 .073-.033.073-.074a.074.074 0 0 0-.073-.074"/></g><text xml:space="preserve" x="7.028" y="3.822" stroke-width=".07" font-family="sans-serif" font-size="2.121"><tspan x="7.028" y="3.822">{{ include.stage | default: &quot;1&quot; | escape }}</tspan></text></svg>