<svg xmlns="http://www.w3.org/2000/svg" width="358.171" height="231.201" fill="currentColor" viewBox="0 0 9.477 6.117"><path d="M8.92 5.565H.58V.559H8.92zM0 6.117h9.477V0H0z"/><path d="M8.92 5.565H.58V.559H8.92z"/><g fill="#fff" stroke-width=".265"><path d="M8.92.556H6.68c.52 1.97-.366 2.772-1.04 4.014-.189.346-.27.678-.265.991h3.546zM3.355 4.986a1.925 1.925 0 0 1-1.923-1.923c0-1.06.863-1.922 1.923-1.922s1.923.863 1.923 1.922c0 1.06-.863 1.923-1.923 1.923m0-3.992c-1.141 0-2.07.928-2.07 2.07 0 1.14.929 2.07 2.07 2.07s2.07-.93 2.07-2.07c0-1.142-.93-2.07-2.07-2.07"/><path d="m4.23 3.064-.315.238-.413-.238.413-.239zm-.438.757L3.43 3.67V3.19l.413.239zm-.875 0-.049-.391.413-.239v.478zm-.437-.757.314-.239.414.239-.414.238zm.437-.758.364.153v.477l-.413-.239zm.875 0 .05.391-.413.24v-.478zm.818.033a.073.073 0 0 0-.1-.027l-.057.033-.007-.052a.073.073 0 0 0-.082-.064.073.073 0 0 0-.063.082l.014.113-.087.05-.04-.318a.074.074 0 0 0-.146.019l.048.38-.11.062-.054-.426a.074.074 0 0 0-.102-.058l-.395.166v-.127l.352-.148a.073.073 0 0 0 .038-.096.073.073 0 0 0-.096-.04l-.294.124v-.1l.104-.043a.074.074 0 1 0-.057-.136l-.047.02v-.065a.074.074 0 1 0-.148 0v.065l-.048-.02a.074.074 0 0 0-.096.04.074.074 0 0 0 .04.096l.104.044v.1l-.295-.124a.073.073 0 0 0-.097.039.073.073 0 0 0 .04.096l.352.149v.126l-.396-.166a.074.074 0 0 0-.101.058l-.055.426-.11-.063.049-.378a.074.074 0 0 0-.146-.019l-.04.317-.087-.05.014-.112a.073.073 0 0 0-.064-.082.073.073 0 0 0-.082.064l-.007.05-.056-.032a.074.074 0 0 0-.073.128l.056.032-.041.032a.073.073 0 0 0-.014.103.073.073 0 0 0 .103.014l.09-.069.087.05-.255.194a.074.074 0 0 0 .044.132.07.07 0 0 0 .045-.015l.304-.231.11.063-.342.26a.073.073 0 0 0 0 .117l.342.26-.11.064-.304-.231a.074.074 0 0 0-.089.117l.255.194-.087.05-.09-.069a.074.074 0 0 0-.089.117l.04.031-.055.032a.074.074 0 0 0 .073.128l.057-.032.006.05a.074.074 0 0 0 .073.065h.01a.073.073 0 0 0 .063-.082l-.014-.113.087-.05.04.318a.074.074 0 0 0 .146-.019l-.048-.379.11-.063.054.426a.073.073 0 0 0 .101.059l.396-.167v.127l-.352.148a.074.074 0 0 0 .057.136l.295-.124v.1l-.104.044a.074.074 0 0 0 .057.135l.047-.02v.065a.074.074 0 1 0 .148 0v-.065l.047.02q.015.006.029.006a.074.074 0 0 0 .029-.142l-.105-.044v-.1l.295.125q.015.006.029.006a.07.07 0 0 0 .067-.046.073.073 0 0 0-.039-.096l-.352-.148v-.127l.396.167Q3.838 4 3.853 4a.074.074 0 0 0 .073-.064l.055-.426.11.063-.049.379a.074.074 0 0 0 .073.082.074.074 0 0 0 .074-.064l.04-.317.086.05-.014.112a.073.073 0 0 0 .064.082h.009a.073.073 0 0 0 .073-.064l.006-.05.056.032q.018.01.037.01c.025 0 .05-.013.064-.037a.073.073 0 0 0-.027-.1l-.056-.033.041-.031a.074.074 0 0 0-.09-.118l-.09.07-.086-.05.255-.194a.074.074 0 0 0-.09-.118l-.304.232-.11-.064.343-.26a.074.074 0 0 0 0-.117l-.342-.26.11-.063.303.23a.075.075 0 0 0 .104-.014.074.074 0 0 0-.014-.103l-.255-.193.087-.05.09.068q.02.015.044.015.035 0 .058-.029a.073.073 0 0 0-.014-.103l-.04-.03.056-.033a.074.074 0 0 0 .027-.1"/></g><text xml:space="preserve" x="7.028" y="3.822" stroke-width=".07" font-family="sans-serif" font-size="2.121"><tspan x="7.028" y="3.822">{{ include.stage | default: &quot;1&quot; | escape }}</tspan></text></svg>