<?xml version="1.0" encoding="UTF-8"?>
<svg width="94.819mm" height="61.209mm" fill="currentColor" version="1.1" viewBox="0 0 9.4819 6.1209" xmlns="http://www.w3.org/2000/svg">
 <path d="m8.9259 5.5678h-8.3463v-5.0086h8.3463zm-8.9252 0.55245h9.4819v-6.1209h-9.4819z" stroke-width=".26458"/>
 <path d="m8.9259 5.5678h-8.3463v-5.0086h8.3463z" stroke-width=".26458"/>
 <g fill="#fff" stroke-width=".26458">
  <path d="m8.9259 0.5568h-2.2423c0.52176 1.9706-0.36512 2.7728-1.0406 4.0153-0.18785 0.34634-0.26935 0.67813-0.26432 0.99166h3.5473z"/>
  <path d="m3.3569 4.9868c-1.061 0-1.9233-0.86334-1.9233-1.9238 0-1.0602 0.86228-1.9233 1.9233-1.9233 1.0604 0 1.9235 0.86307 1.9235 1.9233 0 1.0604-0.86307 1.9238-1.9235 1.9238m0-3.9942c-1.1417 0-2.0701 0.92869-2.0701 2.0704 0 1.1419 0.92842 2.0709 2.0701 2.0709 1.1425 0 2.0709-0.92895 2.0709-2.0709 0-1.1417-0.92842-2.0704-2.0709-2.0704"/>
  <path d="m4.0999 3.7778c-0.09631 0-0.17383-0.07699-0.17383-0.1733 0-0.04048-0.03334-0.07382-0.07382-0.07382-0.04101 0-0.07329 0.03334-0.07329 0.07382 0 0.09631-0.07885 0.1733-0.1741 0.1733-0.09604 0-0.1741-0.07699-0.1741-0.1733 0-0.02196-0.01032-0.04127-0.0254-0.0545-0.0127-0.01138-0.0291-0.01931-0.04842-0.01931h-2.65e-4c-0.01746 0-0.03307 0.0071-0.04551 0.01773-0.01667 0.01376-0.02805 0.03334-0.02805 0.05609 0 0.06429-0.03493 0.1188-0.08652 0.14922-0.0254 0.01561-0.0553 0.02408-0.08731 0.02408-0.09578 0-0.1733-0.07699-0.1733-0.1733 0-0.04048-0.0336-0.07382-0.07408-0.07382-0.04075 0-0.07329 0.03334-0.07329 0.07382 0 0.09631-0.07858 0.1733-0.1741 0.1733-0.04127 0-0.07408 0.03387-0.07408 0.07408 0 0.04127 0.03281 0.07382 0.07408 0.07382 0.09948 0 0.18812-0.04551 0.24739-0.11694 0.059 0.07144 0.1479 0.11694 0.24738 0.11694 0.09975 0 0.18838-0.04551 0.24738-0.11694 0.01826 0.02143 0.03836 0.03995 0.06112 0.0553 0.05212 0.03836 0.11615 0.06165 0.18706 0.06165 0.09948 0 0.18865-0.04551 0.24738-0.11694 0.059 0.07144 0.14843 0.11694 0.24765 0.11694 0.04075 0 0.07382-0.03254 0.07382-0.07382 0-0.04022-0.03307-0.07408-0.07382-0.07408"/>
  <path d="m2.6149 2.5788c0.09948 0 0.18812-0.04524 0.24739-0.11668 0.059 0.07144 0.14843 0.11668 0.24738 0.11668 0.09975 0 0.18838-0.04524 0.24765-0.11668 0.01799 0.02117 0.0381 0.03889 0.06085 0.0545 0.05212 0.03889 0.11642 0.06218 0.18706 0.06218 0.09948 0 0.18865-0.04524 0.24765-0.11668 0.05874 0.07144 0.14817 0.11668 0.24738 0.11668 0.04101 0 0.07408-0.03334 0.07408-0.07355 0-0.04127-0.03307-0.07435-0.07408-0.07435-0.09631 0-0.17383-0.07779-0.17383-0.1733 0-0.04101-0.03334-0.07408-0.07355-0.07408-0.04128 0-0.07355 0.03307-0.07355 0.07408 0 0.09551-0.07885 0.1733-0.1741 0.1733-0.09604 0-0.1741-0.07779-0.1741-0.1733 0-0.02249-0.01032-0.04101-0.0254-0.0545-0.0127-0.01191-0.0291-0.01958-0.04842-0.01958-0.01773 0-0.03307 0.0077-0.04577 0.01799-0.01667 0.01296-0.02805 0.0336-0.02805 0.05609 0 0.0635-0.03466 0.1188-0.08652 0.14922-0.0254 0.01508-0.0553 0.02408-0.08731 0.02408-0.09578 0-0.17357-0.07779-0.17357-0.1733 0-0.04101-0.03334-0.07408-0.07382-0.07408-0.04101 0-0.07382 0.03307-0.07382 0.07408 0 0.09551-0.07805 0.1733-0.17357 0.1733-0.04101 0-0.07382 0.03307-0.07382 0.07435 0 0.04022 0.03281 0.07355 0.07382 0.07355"/>
  <path d="m4.6019 2.8348c-0.04022 0-0.07329 0.03307-0.07329 0.07329 0 0.13097-0.10716 0.23786-0.23812 0.23786-0.13123 0-0.23733-0.10689-0.23733-0.23786 0-0.04022-0.03334-0.07329-0.07329-0.07329-0.04154 0-0.07329 0.03307-0.07329 0.07329 0 0.13097-0.10742 0.23786-0.23786 0.23786-0.13123 0-0.23839-0.10689-0.23839-0.23786 0-0.04022-0.03281-0.07329-0.07382-0.07329-0.03995 0-0.07355 0.03307-0.07355 0.07329 0 0.13097-0.10663 0.23786-0.23733 0.23786s-0.2376-0.10689-0.2376-0.23786c0-0.04022-0.03307-0.07329-0.07382-0.07329-0.04101 0-0.07382 0.03307-0.07382 0.07329 0 0.13097-0.10663 0.23786-0.23733 0.23786-0.13123 0-0.2368-0.10689-0.2368-0.23786 0-0.04022-0.03413-0.07329-0.07541-0.07329-0.03995 0-0.07276 0.03307-0.07276 0.07329 0 0.2122 0.17198 0.38497 0.38497 0.38497 0.12806 0 0.24077-0.06297 0.31115-0.15928 0.01508 0.02011 0.03069 0.03836 0.04842 0.0545 0.0058 0.0056 0.01191 0.01138 0.01852 0.01614 0.02858 0.02355 0.0598 0.04339 0.09499 0.05821 0.01058 0.0034 0.01984 0.0077 0.03043 0.01058 9e-3 0.0042 0.01773 0.0063 0.02752 0.0079 0.01191 0.0042 0.02593 0.0063 0.03863 0.0079 0.01746 0.0032 0.03519 4e-3 0.05292 4e-3 0.12753 0 0.24156-0.06297 0.31089-0.15928 0.07038 0.09631 0.18388 0.15928 0.31221 0.15928 0.01746 0 0.03519-7.94e-4 0.05292-4e-3 0.0127-0.0016 0.02593-0.0037 0.03836-0.0079 0.01085-0.0016 0.02064-0.0053 0.03043-0.0087 0.0079-0.0021 0.01614-0.0048 0.02381-0.0093 0.01032-4e-3 0.02117-0.0082 0.03149-0.01323 0.02434-0.0127 0.04657-0.02752 0.0672-0.04551 4e-3 -0.0026 0.0071-0.0063 0.01138-0.0098 0.0085-0.0064 0.0172-0.01535 0.02487-0.02381 0.01058-0.01191 0.0209-0.02434 0.03069-0.03704 0.06958 0.09631 0.18336 0.15928 0.31062 0.15928 0.21193 0 0.38497-0.17277 0.38497-0.38497 0-0.04022-0.03201-0.07329-0.07355-0.07329"/>
 </g>
 <text id="a" x="7.0277939" y="3.8216612" font-family="sans-serif" font-size="2.121px" stroke-width=".070004" xml:space="preserve"><tspan x="7.0277939" y="3.8216612" font-family="sans-serif" font-size="2.121px" stroke-width=".070004">{{ include.stage | default: "1" | escape }}</tspan></text>
</svg>
