<?xml version="1.0" encoding="UTF-8"?>
<svg width="94.768mm" height="61.169mm" fill="currentColor" version="1.1" viewBox="0 0 9.4768 6.1169" xmlns="http://www.w3.org/2000/svg">
 <path d="m8.921 5.5646h-8.3418v-5.0059h8.3418zm-8.9207 0.55218h9.4768v-6.1169h-9.4768z" stroke-width=".26458"/>
 <path d="m8.921 5.5646h-8.3418v-5.0059h8.3418z" stroke-width=".26458"/>
 <g fill="#fff" stroke-width=".26458">
  <path d="m8.92 0.55561h-2.2408c0.52123 1.9706-0.36539 2.7723-1.0398 4.0135-0.18865 0.3466-0.26961 0.67813-0.26458 0.99166h3.5452z"/>
  <path d="m3.355 4.9826c-1.0602 0-1.9225-0.86228-1.9225-1.9222s0.86228-1.9225 1.9225-1.9225c1.0599 0 1.9222 0.86254 1.9222 1.9225s-0.86228 1.9222-1.9222 1.9222m0-3.992c-1.1409 0-2.0696 0.92842-2.0696 2.0698 0 1.1411 0.92869 2.0696 2.0696 2.0696 1.1411 0 2.0696-0.92842 2.0696-2.0696 0-1.1414-0.92842-2.0698-2.0696-2.0698"/>
  <path d="m4.288 3.5346c-0.04075 0-0.07355 0.03307-0.07355 0.07382 0 0.1307-0.10663 0.2376-0.23786 0.2376-0.13097 0-0.23733-0.10689-0.23733-0.2376 0-0.04075-0.03281-0.07382-0.07382-0.07382-0.04075 0-0.07355 0.03307-0.07355 0.07382 0 0.1307-0.10663 0.2376-0.23733 0.2376-0.13097 0-0.2376-0.10689-0.2376-0.2376 0-0.04075-0.03281-0.07382-0.07355-0.07382-0.04075 0-0.07355 0.03307-0.07355 0.07382 0 0.1307-0.10663 0.2376-0.2376 0.2376-0.13123 0-0.2376-0.10689-0.2376-0.2376 0-0.04075-0.03281-0.07382-0.07382-0.07382-0.04075 0-0.07355 0.03307-0.07355 0.07382 0 0.2122 0.17251 0.3847 0.38497 0.3847 0.12779 0 0.24104-0.06244 0.31115-0.15822 0.06985 0.09578 0.18309 0.15822 0.31115 0.15822 0.12779 0 0.2413-0.06244 0.31088-0.15822 0.07038 0.09578 0.18362 0.15822 0.31115 0.15822 0.21246 0 0.38497-0.17251 0.38497-0.3847 0-0.04075-0.03307-0.07382-0.07355-0.07382"/>
  <path d="m2.986 2.8796 0.1233-0.66754 0.23918 0.54954zm-0.3085 0.51197 0.8935-0.28522 0.38365-0.12224c0.0045 0.13229-0.0058 0.33099-0.07779 0.42228-0.0254 0.03175-0.02011 0.07832 0.01217 0.10345 0.01349 0.01085 0.02937 0.01587 0.04577 0.01587 0.0217 0 0.04313-0.0098 0.05768-0.02805 0.14552-0.18388 0.10742-0.576 0.10239-0.62018-0.0021-0.0217-0.01429-0.04154-0.03281-0.05371s-0.04154-0.01535-0.06271-0.0082l-0.40958 0.13044-0.07329-0.1688c-2.65e-4 -5.29e-4 -5.29e-4 -7.94e-4 -5.29e-4 -0.0011l-0.36802-0.84371c-0.01296-0.02963-0.04366-0.04762-0.07594-0.04366-0.03202 0.0037-0.05794 0.02778-0.06377 0.05953l-0.18971 1.0263c-0.0045 0.0254 0.0045 0.05186 0.02408 0.06879 0.01958 0.0172 0.04683 0.02249 0.07144 0.01455l0.49371-0.16087 0.04075 0.09393-0.81598 0.25982c-0.03863 0.0127-0.06006 0.05424-0.04762 0.09287 0.01217 0.03863 0.05371 0.06006 0.0926 0.04789"/>
  <path d="m3.912 2.5056c-0.05503 0.01799-0.11324 0.04868-0.16087 0.07646-0.01614-0.05239-0.04313-0.12541-0.08625-0.22781-0.02249-0.05345-0.04524-0.10583-0.06535-0.15002 0.11192 0.04286 0.22542 0.1688 0.31247 0.30136m-0.28707 0.18388c-0.0058 0.02858 0.0053 0.05821 0.0291 0.07541 0.01296 0.0093 0.02805 0.01376 0.04313 0.01376s0.0299-0.0045 0.04286-0.01376c0.06879-0.04921 0.19209-0.12091 0.2495-0.127 0.01402 0.02567 0.04075 0.03969 0.06906 0.03836 0.03889-0.0021 0.06958-0.03413 0.06958-0.07355 0-0.0095-0.0016-0.01852-0.0048-0.02699-5e-3 -0.01376-0.01111-0.02619-0.01931-0.03678-0.08519-0.15478-0.30427-0.49715-0.58155-0.49715-0.01878 0-0.03757 0.0013-0.05583 0.0045-0.02302 4e-3 -0.04233 0.01852-0.05292 0.03889-0.01058 0.02037-0.01111 0.04471-0.0011 0.06535 0.10213 0.21458 0.2114 0.47969 0.2122 0.53896"/>
 </g>
 <text id="a" x="7.0277939" y="3.8216612" font-family="sans-serif" font-size="2.121px" stroke-width=".070004" xml:space="preserve"><tspan x="7.0277939" y="3.8216612" font-family="sans-serif" font-size="2.121px" stroke-width=".070004">{{ include.stage | default: "1" | escape }}</tspan></text>
</svg>
