<?xml version="1.0" encoding="UTF-8"?>
<svg width="94.768mm" height="61.169mm" fill="currentColor" version="1.1" viewBox="0 0 9.4768 6.1169" xmlns="http://www.w3.org/2000/svg">
 <path d="m8.9207 5.5647h-8.3418v-5.0057h8.3418zm-8.9207 0.55218h9.4768v-6.1169h-9.4768z" stroke-width=".26458"/>
 <path d="m8.9207 5.5647h-8.3418v-5.0057h8.3418z" stroke-width=".26458"/>
 <g fill="#fff" stroke-width=".26458">
  <path d="m8.9206 0.556h-2.2408c0.52123 1.9704-0.36539 2.772-1.0398 4.0132-0.18865 0.34687-0.26961 0.67813-0.26458 0.99166h3.5452z"/>
  <path d="m3.2803 3.0587c0-0.04127 0.03334-0.07461 0.07435-0.07461 0.04127 0 0.07435 0.03334 0.07435 0.07461 0 0.04075-0.03307 0.07408-0.07435 0.07408-0.04101 0-0.07435-0.03334-0.07435-0.07408m0.29633 0c0-0.1225-0.09948-0.22199-0.22199-0.22199-0.12197 0-0.22172 0.09948-0.22172 0.22199 0 0.12197 0.09975 0.22172 0.22172 0.22172 0.1225 0 0.22199-0.09975 0.22199-0.22172"/>
  <path d="m3.3548 3.7633-0.10054-0.29686c0.03228 0.0079 0.06615 0.01243 0.10054 0.01243 0.03493 0 0.06853-0.0045 0.10107-0.01243zm0-1.4097 0.10107 0.29686c-0.03254-0.0079-0.06615-0.01217-0.10107-0.01217-0.0344 0-0.06826 0.0042-0.10054 0.01217zm-0.27252 0.70485c0-0.15028 0.12224-0.27278 0.27252-0.27278 0.15055 0 0.27278 0.1225 0.27278 0.27278 0 0.15055-0.12224 0.27305-0.27278 0.27305-0.15028 0-0.27252-0.1225-0.27252-0.27305m0.56488-0.30136-0.22225-0.65643c-0.01032-0.0299-0.03863-0.05027-0.07011-0.05027-0.03149 0-0.05953 0.02037-0.06985 0.05027l-0.22252 0.65643c-0.07858 0.07646-0.12753 0.18336-0.12753 0.30136 0 0.11827 0.04895 0.2249 0.12753 0.30136l0.22252 0.6567c0.01032 0.02963 0.03836 0.05001 0.06985 0.05001s0.0598-0.02037 0.07011-0.05001l0.22225-0.6567c0.07885-0.07646 0.12779-0.18309 0.12779-0.30136 0-0.118-0.04895-0.2249-0.12779-0.30136"/>
  <path d="m3.3548 4.1489c-0.60087 0-1.0901-0.48921-1.0901-1.0901 0-0.60166 0.48922-1.0906 1.0901-1.0906 0.6014 0 1.0906 0.48895 1.0906 1.0906 0 0.60087-0.48922 1.0901-1.0906 1.0901m0-2.3281c-0.68236 0-1.2375 0.55536-1.2375 1.238 0 0.6821 0.5551 1.2377 1.2375 1.2377 0.68236 0 1.2377-0.55562 1.2377-1.2377 0-0.68262-0.55536-1.238-1.2377-1.238"/>
  <path d="m3.3548 4.3602c-0.71755 0-1.3015-0.58394-1.3015-1.3018 0-0.71782 0.58394-1.3015 1.3015-1.3015 0.71781 0 1.302 0.58367 1.302 1.3015 0 0.71781-0.5842 1.3018-1.302 1.3018m0-2.7506c-0.79904 0-1.4491 0.65008-1.4491 1.4489 0 0.79931 0.65008 1.4494 1.4491 1.4494 0.79931 0 1.4494-0.65008 1.4494-1.4494 0-0.79878-0.65008-1.4489-1.4494-1.4489"/>
  <path d="m3.3548 4.9808c-1.0599 0-1.9222-0.86228-1.9222-1.9225 0-1.0597 0.86228-1.9222 1.9222-1.9222 1.0602 0 1.9227 0.86254 1.9227 1.9222 0 1.0602-0.86254 1.9225-1.9227 1.9225m0-3.992c-1.1409 0-2.0696 0.92869-2.0696 2.0696 0 1.1414 0.92869 2.0698 2.0696 2.0698 1.1414 0 2.0696-0.92842 2.0696-2.0698 0-1.1409-0.92816-2.0696-2.0696-2.0696"/>
 </g>
 <text id="a" x="7.0277939" y="3.8216612" font-family="sans-serif" font-size="2.121px" stroke-width=".070004" xml:space="preserve"><tspan x="7.0277939" y="3.8216612" font-family="sans-serif" font-size="2.121px" stroke-width=".070004">{{ include.stage | default: "1" | escape }}</tspan></text>
</svg>
