<svg width="947.66" height="611.69" version="1.1" viewBox="0 0 9.4766 6.1169" class="{{ include.class }}" xmlns="http://www.w3.org/2000/svg">
 <g fill="currentColor">
  <path transform="translate(-118.27 -112.45)" d="m127.19 118.01h-8.3418v-5.0057h8.3418zm-8.9207 0.55218h9.4766v-6.1169h-9.4766z" stroke-width=".265"/>
  <path transform="translate(-118.27 -112.45)" d="m127.19 118.01h-8.3418v-5.0057h8.3418z" stroke-width=".26458"/>
 </g>
 <g fill="#fff" stroke-width=".26458">
  <path transform="translate(-118.27 -112.45)" d="m121.62 117.43c-1.0599 0-1.9225-0.86254-1.9225-1.9225 0-1.0597 0.86254-1.9219 1.9225-1.9219s1.9227 0.86228 1.9227 1.9219c0 1.0599-0.86281 1.9225-1.9227 1.9225m0-3.992c-1.1412 0-2.0696 0.92842-2.0696 2.0696 0 1.1414 0.92842 2.0698 2.0696 2.0698s2.0696-0.92842 2.0696-2.0698c0-1.1412-0.92842-2.0696-2.0696-2.0696"/>
  <path transform="translate(-118.27 -112.45)" d="m121.97 116.27-0.27967-0.83476c-2.6e-4 -8e-4 -2.6e-4 -1e-3 -5.2e-4 -2e-3 -2.7e-4 -5.3e-4 -5.3e-4 -1e-3 -8e-4 -2e-3 -1e-3 -4e-3 -3e-3 -7e-3 -5e-3 -0.0101-2e-3 -4e-3 -4e-3 -6e-3 -7e-3 -0.01l-1e-3 -1e-3c-3e-3 -3e-3 -5e-3 -6e-3 -8e-3 -8e-3 -2.6e-4 -2.6e-4 -7.9e-4 -5.3e-4 -1e-3 -1e-3 -3e-3 -2e-3 -6e-3 -5e-3 -9e-3 -7e-3 -2.6e-4 0-5.3e-4 -2.7e-4 -5.3e-4 -2.7e-4 -2.6e-4 0-5.3e-4 -2.6e-4 -7.9e-4 -5.3e-4 -3e-3 -1e-3 -7e-3 -3e-3 -0.0106-5e-3h-1e-3c-3e-3 -2e-3 -7e-3 -3e-3 -0.0111-3e-3v-2.6e-4c-4e-3 -7.9e-4 -8e-3 -7.9e-4 -0.0116-1e-3h-1e-3c-4e-3 0-7e-3 2.7e-4 -0.0111 8e-4 -2.7e-4 0-1e-3 2.6e-4 -2e-3 5.2e-4 -4e-3 5.2e-4 -7e-3 1e-3 -0.0106 3e-3h-5.3e-4s-2.6e-4 0-5.3e-4 2.7e-4c-3e-3 1e-3 -7e-3 3e-3 -0.01 4e-3 -2.6e-4 0-1e-3 0-2e-3 5.3e-4l-9e-3 6e-3c-2.6e-4 5.3e-4 -7.9e-4 7.8e-4 -1e-3 1e-3 -3e-3 2e-3 -6e-3 5e-3 -9e-3 8e-3 0 2.7e-4 0 2.7e-4 -2.6e-4 5.3e-4l-0.49134 0.55139c-0.0214 0.0241-0.0249 0.0587-9e-3 0.0863l0.13018 0.22278h-0.53949l0.96441-1.7812 0.96441 1.7812zm-0.34925-0.57918 0.19394 0.57918h-0.38788zm-0.40058 0.32835 0.21643-0.24341-0.1307 0.39052zm1.4886-0.10953c-0.0408 0-0.0735 0.0331-0.0735 0.0735v0.0699l-0.94959-1.7542c-0.013-0.0241-0.0378-0.0389-0.0648-0.0389-0.0272 0-0.0521 0.0148-0.0646 0.0389l-0.94986 1.7542v-0.0699c0-0.0405-0.0328-0.0735-0.0738-0.0735-0.0408 0-0.0735 0.0331-0.0735 0.0735v0.36141c0 7.9e-4 2.7e-4 1e-3 2.7e-4 2e-3 0 2e-3 0 4e-3 5.3e-4 6e-3 0 1e-3 0 2e-3 2.6e-4 3e-3 2.7e-4 2e-3 7.9e-4 5e-3 1e-3 7e-3 2.7e-4 5.3e-4 2.7e-4 1e-3 5.3e-4 2e-3 2e-3 6e-3 4e-3 0.0114 7e-3 0.0161 0 5.3e-4 5.3e-4 7.9e-4 5.3e-4 1e-3l5.3e-4 1e-3c1e-3 2e-3 3e-3 4e-3 4e-3 6e-3 5.3e-4 5.3e-4 7.9e-4 1e-3 1e-3 2e-3 1e-3 2e-3 3e-3 4e-3 6e-3 6e-3 5.3e-4 5.3e-4 5.3e-4 5.3e-4 1e-3 8e-4 2e-3 2e-3 4e-3 3e-3 5e-3 5e-3 7.9e-4 2.7e-4 1e-3 8e-4 2e-3 1e-3 2e-3 1e-3 4e-3 3e-3 6e-3 4e-3 2.6e-4 0 7.9e-4 5.3e-4 1e-3 5.3e-4 3e-3 1e-3 5e-3 3e-3 8e-3 4e-3 2.6e-4 2.5e-4 5.3e-4 2.5e-4 7.9e-4 2.5e-4 3e-3 1e-3 5e-3 2e-3 7e-3 3e-3 5.3e-4 2.6e-4 1e-3 5.3e-4 2e-3 7.9e-4 2e-3 5.3e-4 4e-3 1e-3 7e-3 1e-3 8e-4 0 1e-3 2.6e-4 2e-3 2.6e-4 3e-3 2.7e-4 6e-3 5.3e-4 9e-3 5.3e-4h2.1762c3e-3 0 6e-3 -2.6e-4 9e-3 -5.3e-4 7.9e-4 0 2e-3 -2.6e-4 2e-3 -2.6e-4 2e-3 -2.7e-4 4e-3 -8e-4 7e-3 -1e-3 7.9e-4 -2.6e-4 1e-3 -5.3e-4 2e-3 -7.9e-4 3e-3 -5.2e-4 5e-3 -1e-3 8e-3 -3e-3 0 0 2.6e-4 0 5.3e-4 -2.5e-4 3e-3 -7.9e-4 5e-3 -2e-3 8e-3 -4e-3 2.6e-4 0 7.9e-4 -5.3e-4 1e-3 -5.3e-4 2e-3 -1e-3 4e-3 -3e-3 6e-3 -4e-3 5.3e-4 -5.3e-4 1e-3 -1e-3 2e-3 -1e-3 2e-3 -2e-3 4e-3 -3e-3 5e-3 -5e-3 5.3e-4 -2.7e-4 7.9e-4 -2.7e-4 1e-3 -8e-4l6e-3 -6e-3c5.3e-4 -5.3e-4 1e-3 -1e-3 1e-3 -2e-3 2e-3 -2e-3 3e-3 -4e-3 4e-3 -6e-3 0-5.2e-4 2.6e-4 -5.2e-4 5.3e-4 -1e-3 2.6e-4 -2.7e-4 2.6e-4 -5.3e-4 5.3e-4 -1e-3 3e-3 -5e-3 5e-3 -0.0103 7e-3 -0.0161 2.6e-4 -5.3e-4 2.6e-4 -1e-3 2.6e-4 -2e-3 5.3e-4 -2e-3 1e-3 -5e-3 1e-3 -7e-3 2.7e-4 -1e-3 2.7e-4 -2e-3 2.7e-4 -3e-3 5.2e-4 -2e-3 5.2e-4 -4e-3 7.9e-4 -6e-3v-0.36341c0-0.0405-0.0328-0.0735-0.0735-0.0735"/>
 </g>
 <path transform="translate(-118.27 -112.45)" d="m127.19 113h-2.2408c0.52097 1.9704-0.36565 2.772-1.0401 4.0132-0.18839 0.34687-0.26961 0.67813-0.26459 0.99166h3.5454z" fill="#fff" stroke-width=".26458"/>
 <text id="a" transform="translate(-118.27 -112.45)" x="125.38675" y="116.26118" fill="currentColor" font-family="'Bebas Neue'" font-size="2.1167px" stroke-width=".26458" xml:space="preserve"><tspan x="125.38675" y="116.26118" fill="currentColor" font-family="sans-serif" font-size="2.1167px" stroke-width=".26458">{{ include.number | default: '3' }}</tspan></text>
</svg>
