<svg xmlns="http://www.w3.org/2000/svg" width="358.36" height="231.33" fill="currentColor" viewBox="0 0 9.482 6.121"><path d="M8.926 5.568H.58V.559h8.346zM.001 6.12h9.482V0H0z"/><path d="M8.925 5.568H.58V.559h8.346z"/><g fill="#fff" stroke-width=".265"><path d="M8.925.557H6.683c.522 1.971-.365 2.773-1.04 4.015-.188.347-.27.678-.265.993h3.547zM3.351 4.987a1.925 1.925 0 0 1-1.923-1.924c0-1.06.863-1.922 1.923-1.922s1.924.863 1.924 1.922A1.925 1.925 0 0 1 3.35 4.987m0-3.994c-1.14 0-2.07.929-2.07 2.07 0 1.143.93 2.072 2.07 2.072 1.142 0 2.071-.929 2.071-2.072 0-1.141-.929-2.07-2.07-2.07"/><path d="M3.888 4.106a.57.57 0 0 1-.38.132c-.187-.003-.37-.21-.462-.402a31 31 0 0 1-.543-1.269.4.4 0 0 1 .04-.324c.061-.113.165-.201.256-.22.199-.04.801.152.947.236a.4.4 0 0 1 .203.35H3.88c-.01-.092-.042-.149-.126-.245-.085-.098-.324-.167-.423-.192-.152-.04-.355-.073-.468-.05a.33.33 0 0 0-.23.173.4.4 0 0 0-.007.344l.119.287c.12.286.282.678.335.789.096.2.202.398.36.426q.035.006.077.007a.45.45 0 0 0 .282-.09.23.23 0 0 0 .085-.161h.064v.079a.18.18 0 0 1-.06.13m-.192-1.423v.162a.07.07 0 0 0-.04.066v.683c0 .03.016.055.04.066v.163c0 .029.017.054.04.066a.1.1 0 0 1-.031.056c-.057.047-.169.063-.24.05-.096-.016-.2-.236-.252-.344a32 32 0 0 1-.331-.782l-.12-.289a.25.25 0 0 1 .002-.217.19.19 0 0 1 .128-.097c.162-.033.667.098.751.196.063.07.083.104.09.157a.08.08 0 0 0-.037.064m.285.154h-.137v-.08h.137zm.041.683h-.22v-.535h.22zm-.04.23h-.138v-.082h.137zm.146-.905v-.162a.07.07 0 0 0-.033-.062.54.54 0 0 0-.277-.49c-.164-.094-.804-.303-1.05-.253-.135.028-.272.14-.356.294a.54.54 0 0 0-.049.447c.103.27.452 1.076.549 1.28.114.24.342.483.593.486h.01a.7.7 0 0 0 .476-.174.33.33 0 0 0 .105-.235v-.092a.07.07 0 0 0 .032-.061V3.66a.07.07 0 0 0 .041-.066v-.683a.07.07 0 0 0-.041-.066"/></g><text xml:space="preserve" x="7.028" y="3.822" stroke-width=".07" font-family="sans-serif" font-size="2.121"><tspan x="7.028" y="3.822">{{ include.stage | default: &quot;1&quot; | escape }}</tspan></text></svg>