<?xml version="1.0" encoding="UTF-8"?>
<svg width="94.766mm" height="61.169mm" fill="currentColor" version="1.1" viewBox="0 0 9.4766 6.1169" xmlns="http://www.w3.org/2000/svg">
 <g stroke-width=".26458">
  <path d="m8.9211 5.5644h-8.3418v-5.0057h8.3418zm-8.9207 0.55218h9.4766v-6.1169h-9.4766z"/>
  <path d="m8.9211 5.5644h-8.3418v-5.0057h8.3418z"/>
  <g fill="#fff">
   <path d="m8.9211 0.556h-2.2408c0.52096 1.9704-0.36565 2.772-1.0401 4.0132-0.18838 0.34687-0.26961 0.67813-0.26458 0.99166h3.5454z"/>
   <path d="m3.7041 3.8214-0.27966-0.83476c-2.65e-4 -7.94e-4 -2.65e-4 -0.0013-5.29e-4 -0.0021-2.65e-4 -5.29e-4 -5.3e-4 -0.0013-7.94e-4 -0.0019-0.0013-0.0037-0.0029-0.0069-0.0045-0.01005-0.0021-0.0037-0.0045-0.0063-0.0066-0.0095l-0.0011-0.0011c-0.0026-0.0026-0.0053-0.0056-0.0082-0.0079-2.65e-4 -2.64e-4 -7.94e-4 -5.29e-4 -0.0013-0.0011-0.0026-0.0024-0.0061-0.0048-0.0093-0.0069-2.65e-4 0-5.3e-4 -2.65e-4 -5.3e-4 -2.65e-4 -2.64e-4 0-5.29e-4 -2.64e-4 -7.93e-4 -5.29e-4 -0.0034-0.0013-0.0069-0.0032-0.01058-0.0048h-0.0013c-0.0034-0.0016-0.0071-0.0026-0.01111-0.0032v-2.65e-4c-0.0037-7.94e-4 -0.0077-7.94e-4 -0.01164-0.0011h-0.0013c-0.0037 0-0.0074 2.64e-4 -0.01111 7.93e-4 -2.65e-4 0-0.0011 2.65e-4 -0.0016 5.3e-4 -0.0037 5.29e-4 -0.0074 0.0013-0.01058 0.0026h-5.29e-4s-2.65e-4 0-5.29e-4 2.65e-4c-0.0034 0.0011-0.0066 0.0026-0.0098 0.0045-2.64e-4 0-0.0011 0-0.0016 5.29e-4 -0.0034 0.0019-0.0064 0.0037-0.0093 0.0061-2.64e-4 5.29e-4 -7.94e-4 7.93e-4 -0.0011 0.0013-0.0032 0.0024-0.0061 0.0048-0.0087 0.0077 0 2.65e-4 0 2.65e-4 -2.65e-4 5.3e-4l-0.49133 0.55139c-0.02143 0.02408-0.02487 0.05874-0.0087 0.08625l0.13018 0.22278h-0.53949l0.96441-1.7812 0.96441 1.7812zm-0.34925-0.57917 0.19394 0.57917h-0.38788zm-0.40058 0.32835 0.21643-0.24342-0.1307 0.39052zm1.4885-0.10954c-0.04075 0-0.07355 0.03307-0.07355 0.07355v0.06985l-0.94959-1.7542c-0.01296-0.02408-0.03784-0.03889-0.06482-0.03889-0.02725 0-0.05212 0.01482-0.06456 0.03889l-0.94985 1.7542v-0.06985c0-0.04048-0.03281-0.07355-0.07382-0.07355-0.04075 0-0.07355 0.03307-0.07355 0.07355v0.36142c0 7.94e-4 2.65e-4 0.0013 2.65e-4 0.0021 0 0.0024 0 0.0045 5.29e-4 0.0063 0 0.0011 0 0.0019 2.64e-4 0.0029 2.65e-4 0.0021 7.94e-4 0.0045 0.0013 0.0066 2.65e-4 5.29e-4 2.65e-4 0.0011 5.29e-4 0.0016 0.0019 0.0058 4e-3 0.01138 0.0069 0.01614 0 5.29e-4 5.29e-4 7.94e-4 5.29e-4 0.0011l5.29e-4 0.0011c0.0013 0.0019 0.0029 0.0037 0.0042 0.0058 5.29e-4 5.29e-4 7.94e-4 0.0011 0.0013 0.0016 0.0013 0.0021 0.0034 0.0042 0.0056 0.0063 5.3e-4 5.29e-4 5.3e-4 5.29e-4 0.0011 7.94e-4 0.0019 0.0016 0.0037 0.0032 0.0053 5e-3 7.94e-4 2.64e-4 0.0013 7.93e-4 0.0021 0.0013 0.0019 0.0013 0.0037 0.0026 0.0061 4e-3 2.65e-4 0 7.94e-4 5.29e-4 0.0011 5.29e-4 0.0026 0.0013 5e-3 0.0029 0.0079 0.0037 2.65e-4 2.64e-4 5.29e-4 2.64e-4 7.94e-4 2.64e-4 0.0026 0.0013 0.0048 0.0021 0.0074 0.0026 5.3e-4 2.65e-4 0.0013 5.29e-4 0.0021 7.94e-4 0.0024 5.29e-4 0.0045 0.0011 0.0066 0.0013 7.93e-4 0 0.0013 2.64e-4 0.0021 2.64e-4 0.0032 2.65e-4 0.0061 5.29e-4 9e-3 5.29e-4h2.1762c0.0032 0 0.0058-2.64e-4 0.0087-5.29e-4 7.94e-4 0 0.0019-2.64e-4 0.0024-2.64e-4 0.0021-2.65e-4 0.0045-7.94e-4 0.0066-0.0013 7.94e-4 -2.65e-4 0.0013-5.29e-4 0.0021-7.94e-4 0.0026-5.29e-4 5e-3 -0.0013 0.0077-0.0026 0 0 2.64e-4 0 5.29e-4 -2.64e-4 0.0029-7.94e-4 0.0053-0.0024 0.0082-0.0037 2.65e-4 0 7.94e-4 -5.29e-4 0.0013-5.29e-4 0.0016-0.0013 0.0037-0.0026 0.0058-4e-3 5.29e-4 -5.3e-4 0.0011-0.0011 0.0019-0.0013 0.0021-0.0019 0.0037-0.0034 0.0053-5e-3 5.3e-4 -2.65e-4 7.94e-4 -2.65e-4 0.0011-7.94e-4 0.0024-0.0021 0.0042-0.0042 0.0058-0.0063 5.29e-4 -5.29e-4 0.0011-0.0011 0.0011-0.0016 0.0016-0.0021 0.0029-4e-3 0.0042-0.0058 0-5.29e-4 2.65e-4 -5.29e-4 5.29e-4 -0.0011 2.65e-4 -2.64e-4 2.65e-4 -5.29e-4 5.3e-4 -0.0011 0.0029-0.0048 0.0053-0.01032 0.0071-0.01614 2.65e-4 -5.29e-4 2.65e-4 -0.0011 2.65e-4 -0.0016 5.29e-4 -0.0021 0.0011-0.0045 0.0013-0.0066 2.64e-4 -0.0011 2.64e-4 -0.0019 2.64e-4 -0.0029 5.3e-4 -0.0019 5.3e-4 -4e-3 7.94e-4 -0.0063v-0.36352c0-0.04048-0.03281-0.07355-0.07355-0.07355"/>
   <path d="m3.3551 4.9844c-1.0599 0-1.9225-0.86254-1.9225-1.9225 0-1.0597 0.86254-1.9219 1.9225-1.9219s1.9227 0.86228 1.9227 1.9219c0 1.0599-0.86281 1.9225-1.9227 1.9225m0-3.992c-1.1411 0-2.0696 0.92842-2.0696 2.0696 0 1.1414 0.92842 2.0698 2.0696 2.0698s2.0696-0.92842 2.0696-2.0698c0-1.1411-0.92842-2.0696-2.0696-2.0696"/>
  </g>
 </g>
 <text id="a" x="7.0277939" y="3.8216612" font-family="sans-serif" font-size="2.121px" stroke-width=".070004" xml:space="preserve"><tspan x="7.0277939" y="3.8216612" font-family="sans-serif" font-size="2.121px" stroke-width=".070004">{{ include.stage | default: "1" | escape }}</tspan></text>
</svg>
