<svg xmlns="http://www.w3.org/2000/svg" width="577.928" height="500.485" viewBox="0 0 152.91 132.42"><g stroke-width=".265"><path fill="currentColor" d="M76.45 122.05 8.984 5.19h134.93zM-.004 0 76.45 132.42 152.907 0z"/><path fill="#212d65" d="M143.918 5.19H8.978l67.47 116.86z"/><path fill="#fff" d="M73.767 73.72a1.446 1.446 0 0 1-1.4-1.82c4.284-16.155 3.66-27.92-1.854-34.973-3.89-4.977-9.255-6.162-11.673-6.445-.096 1.854.079 5.418 2.29 8.329 2.096 2.765 5.594 4.376 10.399 4.8.802.068 1.392.77 1.318 1.568a1.435 1.435 0 0 1-1.564 1.32c-5.673-.502-9.87-2.505-12.48-5.96-3.903-5.16-2.73-11.594-2.683-11.864a1.46 1.46 0 0 1 1.402-1.183c.352.019 9.247-.058 15.272 7.649 6.104 7.805 6.903 20.426 2.374 37.502a1.45 1.45 0 0 1-1.4 1.077M79.261 20.15a4.61 4.61 0 0 0-4.194 6.48 4.6 4.6 0 0 0 2.564 2.42 4.57 4.57 0 0 0 3.516-.097 4.62 4.62 0 0 0 2.326-6.083 4.62 4.62 0 0 0-4.212-2.72m.016 12.102a7.5 7.5 0 0 1-2.683-.495 7.43 7.43 0 0 1-4.167-3.945 7.46 7.46 0 0 1-.164-5.733 7.46 7.46 0 0 1 3.947-4.17c3.776-1.693 8.22.008 9.904 3.78 1.69 3.771-.006 8.219-3.781 9.904a7.5 7.5 0 0 1-3.056.659M84.955 74.23a1.45 1.45 0 0 1-1.423-1.183c-3.392-18.238-2.104-31.17 3.847-38.44 4.312-5.269 9.482-5.406 9.7-5.406.518.003.93.222 1.208.614.072.105 1.805 2.614.98 6.236-.86 3.786-4.089 7.273-9.6 10.356a1.449 1.449 0 1 1-1.415-2.527c4.656-2.606 7.48-5.514 8.17-8.4.344-1.432.095-2.575-.159-3.273-1.378.277-4.188 1.196-6.707 4.32-3.66 4.538-7.18 14.467-3.172 35.994a1.448 1.448 0 0 1-1.43 1.71"/></g></svg>