<svg xmlns="http://www.w3.org/2000/svg" width="577.89" height="500.48" viewBox="0 0 152.9 132.42"><g stroke-width=".265"><path fill="currentColor" d="M76.456 122.03 8.974 5.18h134.94zm0 10.382L152.899-.008H-.001z"/><path fill="#212d65" d="M76.446 122.03 143.915 5.17H8.975z"/><path fill="#fff" d="M69.823 26.928c-5.604 0-10.165 4.564-10.165 10.168 0 .802.648 1.445 1.447 1.445.802 0 1.45-.643 1.45-1.445 0-4.011 3.262-7.27 7.268-7.27a1.449 1.449 0 1 0 0-2.898"/><path fill="#fff" d="m92.818 64.278-8.985-9.126 2.828-2.833 9.1 9.239zM56.877 37.1c0-7.144 5.808-12.954 12.949-12.954S82.78 29.956 82.78 37.1c0 7.138-5.813 12.951-12.954 12.951S56.877 44.238 56.877 37.1m41.997 23.492L87.698 49.247c-.27-.273-.611-.466-1.032-.429-.384 0-.754.151-1.027.421l-1.51 1.51-2.778-2.806c2.674-2.834 4.325-6.644 4.325-10.843 0-8.74-7.112-15.854-15.85-15.854-8.74 0-15.852 7.114-15.852 15.854 0 8.736 7.112 15.849 15.851 15.849 3.498 0 6.726-1.16 9.348-3.08l2.908 2.929-1.318 1.323a1.454 1.454 0 0 0-.01 2.045L91.738 67.31c.28.29.66.434 1.03.434.352 0 .706-.133.987-.387l5.074-4.68a1.46 1.46 0 0 0 .045-2.085"/></g></svg>