<svg xmlns="http://www.w3.org/2000/svg" width="305.8" height="264.86" viewBox="0 0 30.58 26.486"><g stroke-width=".2646"><path fill="currentColor" d="M7.6471 25.4497.9005 13.7637h13.493zM.0017 13.2447l7.6454 13.242 7.6457-13.242z"/><path fill="#212d65" d="M14.394 13.7637H.9l6.7468 11.686z"/><path fill="#fff" d="M7.3788 20.6167a.1446.1446 0 0 1-.14-.182c.4284-1.6155.366-2.792-.1854-3.4973-.389-.4977-.9255-.6162-1.1673-.6445-.0096.1854.0079.5418.229.8329.2096.2765.5594.4376 1.0399.48a.144.144 0 0 1 .1318.1568.1435.1435 0 0 1-.1564.132c-.5673-.0502-.987-.2505-1.248-.596-.3903-.516-.273-1.1594-.2683-1.1864a.146.146 0 0 1 .1402-.1183c.0352.0019.9247-.0058 1.5272.7649.6104.7805.6903 2.0426.2374 3.7502a.145.145 0 0 1-.14.1077M7.9282 15.2597a.461.461 0 0 0-.4194.648.46.46 0 0 0 .2564.242.457.457 0 0 0 .3516-.0097.462.462 0 0 0 .2326-.6083.462.462 0 0 0-.4212-.272m.0016 1.2102a.75.75 0 0 1-.2683-.0495.743.743 0 0 1-.4167-.3945.746.746 0 0 1-.0164-.5733.746.746 0 0 1 .3947-.417c.3776-.1693.822.0008.9904.378.169.3771-.0006.8219-.3781.9904a.75.75 0 0 1-.3056.0659M8.4976 20.6677a.145.145 0 0 1-.1424-.1183c-.3392-1.8238-.2103-3.117.3847-3.844.4313-.5269.9483-.5406.97-.5406.0519.0003.0931.0222.121.0614.007.0105.1804.2614.0978.6236-.086.3786-.4088.7273-.9599 1.0356a.1449.1449 0 1 1-.1415-.2527c.4656-.2606.748-.5514.817-.84.0344-.1432.0095-.2575-.0159-.3273-.1378.0277-.4188.1196-.6707.432-.366.4538-.718 1.4467-.3172 3.5994a.1448.1448 0 0 1-.143.171"/><path fill="currentColor" d="m22.9349 1.0379 6.7477 11.686h-13.495zm0-1.038L15.29 13.2419h15.29z"/><path fill="#212d65" d="M16.1889 12.7234h13.493L22.935 1.0374z"/><path fill="#fff" d="M21.5809 7.7556a.148.148 0 0 0 .2027-.054l.772-1.3364a.03.03 0 0 1 .0037-.0066.4541.4541 0 0 1 .799-.0005.01.01 0 0 0 .0025.0029l.5177.898-.3632-.2098a.148.148 0 0 0-.2027.0542.1486.1486 0 0 0 .0548.2027l.8421.486h.0003c.0077.0043.0156.0072.024.0103a.16.16 0 0 0 .0496.0098h.0002a.16.16 0 0 0 .0376-.005.142.142 0 0 0 .0757-.049c.0024-.004.0056-.0076.0079-.011a.16.16 0 0 0 .0217-.0445q.0003-.0006.0002-.0021a.14.14 0 0 0 .0048-.0373v-.9718a.1483.1483 0 0 0-.2966 0v.419l-.5172-.896a.7504.7504 0 0 0-1.3208.0052l-.77 1.3335a.148.148 0 0 0 .054.2024M22.6479 10.2764h-1.5502a.454.454 0 0 1-.4072-.2273.453.453 0 0 1 .0061-.4651c.0005-.0011.0016-.0021.002-.0032l.5182-.8975v.4191a.1482.1482 0 1 0 .2964 0v-.9723a.14.14 0 0 0-.005-.037v-.0014a.14.14 0 0 0-.022-.045.04.04 0 0 0-.0085-.0103.14.14 0 0 0-.0389-.0347.14.14 0 0 0-.0495-.0166.06.06 0 0 0-.0127-.0019.14.14 0 0 0-.05.0037q-.0003.0002-.0002.0003a.14.14 0 0 0-.0358.0145l-.8416.486a.149.149 0 0 0-.0548.203.1496.1496 0 0 0 .2032.054l.3625-.2093-.5172.8959a.749.749 0 0 0-.0087.766.749.749 0 0 0 .6503.376q.0113.0002.0233-.0006h1.5404a.1483.1483 0 0 0 0-.2963M24.7019 8.0925a.1487.1487 0 0 0-.2027-.0542.149.149 0 0 0-.0542.2029l.7712 1.3361a.1.1 0 0 1 .004.0056.453.453 0 0 1 .0072.4665.455.455 0 0 1-.406.2272h-1.0403l.3633-.2095a.149.149 0 0 0 .0542-.203.149.149 0 0 0-.2027-.0545l-.8421.4866a.14.14 0 0 0-.03.0233c-.0005.0005-.0007.0005-.0007.0008a.14.14 0 0 0-.0286.0415c-.0013.004-.0034.0077-.0045.0117a.14.14 0 0 0-.0106.051c0 .0186.0042.035.0106.051.001.0043.0032.0083.0045.0128a.154.154 0 0 0 .0592.0648l.8422.486a.147.147 0 0 0 .0738.0196.149.149 0 0 0 .1289-.0735.1487.1487 0 0 0-.0543-.2027l-.3632-.2095h1.0348q.0086.0003.0172.0002a.749.749 0 0 0 .6506-.3757.748.748 0 0 0-.012-.7707z"/><path fill="#fff" d="M23.1069 9.1974a.148.148 0 0 0-.0733-.1275.148.148 0 0 0-.1474-.002c-.0537.03-.231.1072-.3381.0736-.0217-.0074-.0497-.0211-.072-.0677-.0873-.1815.096-.2974.1329-.3183a.15.15 0 0 0 .0743-.104.146.146 0 0 0-.0339-.1227c-.0203-.0247-.1981-.2406-.0108-.4049.0796-.0693.159-.082.2572-.0391.0883.038.1524.1069.1524.1069.0455.05.1195.063.179.0312.0297-.0154.2914-.145.408.0497.0263.044.0331.0836.0223.1254-.0294.1109-.1762.214-.2252.2419a.15.15 0 0 0-.0767.1352.15.15 0 0 0 .0876.1296c.041.0188.1783.104.1569.1683-.019.0558-.1643.0344-.2112.0204a.148.148 0 0 0-.1841.0997.148.148 0 0 0 .0987.1847c.222.0662.4966.0294.5776-.2095.0566-.1675-.019-.3064-.1223-.4046.0752-.0712.1524-.168.1847-.2873.0325-.1202.014-.243-.0537-.3559-.1789-.2979-.496-.277-.7022-.2029-.1707-.138-.468-.2585-.7443-.0164-.2431.2125-.2106.4919-.1066.6895-.1368.1283-.2561.3442-.1283.6115.0529.11.1397.187.2505.2217.1188.0373.2466.0214.3517-.0074v.3598c0 .0818.0661.148.1481.148a.148.148 0 0 0 .1482-.148z"/><path fill="currentColor" d="M8.5425.5231h13.494l-6.7477 11.685zm-.898-.5183 7.6446 13.24L22.9345.0028z"/><path fill="#212d65" d="m8.5427.5226 6.7466 11.686L22.0362.5226z"/><path fill="#fff" d="M14.3189 2.99a.148.148 0 0 0-.1194-.1723.148.148 0 0 0-.1725.1191c-.0002.0045-.0793.4114-.5196.5993a.148.148 0 0 0-.0783.194.149.149 0 0 0 .1365.0907.15.15 0 0 0 .0585-.0125c.5852-.2497.6905-.795.6948-.8183"/><path fill="#fff" d="M17.1359 5.4448c-.3577.5593-.9118 1.226-1.5195 1.226a.88.88 0 0 1-.2972-.0536c-.6707-.2426-.7336-1.1494-.668-1.8666.0614-.6705.244-1.3065.3098-1.52.065-.0138.1783-.0307.3366-.0307.2405 0 .6397.0402 1.1726.2333.823.2972 1.18.6718 1.2904.8097-.0773.1862-.302.6974-.6247 1.202M13.2907 4.097c-.2313-.534-.3691-1.0522-.4157-1.2427.1304-.1207.541-.4355 1.3991-.603.8578-.168 1.357-.0307 1.5224.031.0175.12.0497.369.069.678-.1978-.037-.3878-.0568-.568-.0568-.1834 0-.3159.0193-.3993.0375-.0907-.0759-.1373-.1457-.1386-.1476a.148.148 0 0 0-.2043-.0452.1476.1476 0 0 0-.0457.2045c.0071.0116.0621.0942.1677.1894-.0593.1897-.2003.6766-.282 1.2441-.2932.1109-.4337.2601-.4504.2784a.1493.1493 0 0 0 .1112.2476.149.149 0 0 0 .1103-.0497c.001-.001.0624-.0654.1884-.1331-.0225.253-.0291.5125-.0077.7614-.4741-.2415-.8308-.872-1.0565-1.3938m4.7662.0522c-.0135-.0238-.3476-.5837-1.4854-.9946a4.8 4.8 0 0 0-.4045-.1257c-.0257-.4966-.0876-.859-.0908-.8752a.149.149 0 0 0-.0735-.1045c-.0241-.013-.5985-.3212-1.7862-.0887-1.1872.232-1.6036.7337-1.62.7552a.146.146 0 0 0-.0297.1246c.0233.108.5795 2.5829 1.8296 2.9898.1016.486.3421.8924.8226 1.0657.13.047.2638.0711.3974.0711 1.3938 0 2.408-2.5807 2.4506-2.6903a.148.148 0 0 0-.01-.1275"/><path fill="#fff" d="M16.2579 5.8005c-.0026.001-.2471.0712-.6207-.064-.368-.1329-.5147-.343-.5186-.3485a.148.148 0 0 0-.2043-.0434.1475.1475 0 0 0-.0444.2043c.0076.0121.1937.2955.6665.4664.217.0786.403.1.5416.1.1632 0 .2616-.0296.2693-.0322a.147.147 0 0 0 .096-.1858.1477.1477 0 0 0-.1854-.0968M16.4429 4.2835a.1473.1473 0 0 0-.1178.173.148.148 0 0 0 .1733.118c.3305-.0632.4966.222.5043.2358a.149.149 0 0 0 .2011.0584.1493.1493 0 0 0 .0593-.2016c-.0929-.169-.3834-.4675-.8202-.3836M15.18 4.1512c.0133-.005.3247-.1196.5388.141a.147.147 0 0 0 .2085.0204.148.148 0 0 0 .0206-.2088c-.2823-.3431-.697-.2997-.8763-.2286a.1483.1483 0 1 0 .1085.276"/><path fill="currentColor" d="m15.2901 14.2795 6.7482 11.685H8.5443zm0-1.0382-7.6443 13.242h15.29z"/><path fill="#212d65" d="m15.2911 14.2795-6.7469 11.686h13.494z"/><path fill="#fff" d="M14.5916 20.2765c-.5604 0-1.0165.4564-1.0165 1.0168 0 .0802.0648.1445.1447.1445a.1444.1444 0 0 0 .145-.1445c0-.4011.3263-.727.7268-.727a.1449.1449 0 1 0 0-.2898"/><path fill="#fff" d="m16.8911 24.0115-.8985-.9125.2828-.2834.91.9239zm-3.594-2.7178c0-.7144.5807-1.2954 1.2948-1.2954s1.2954.581 1.2954 1.2954c0 .7138-.5813 1.2951-1.2954 1.2951s-1.2949-.5813-1.2949-1.2951m4.1997 2.3492-1.1176-1.1345c-.027-.0272-.0611-.0466-.1032-.0429a.146.146 0 0 0-.1026.0421l-.1511.151-.2778-.2806c.2675-.2834.4326-.6644.4326-1.0843 0-.874-.7112-1.5854-1.5851-1.5854-.874 0-1.5851.7114-1.5851 1.5854 0 .8736.7112 1.5849 1.585 1.5849.3498 0 .6726-.116.9348-.308l.2908.2929-.1318.1323a.1454.1454 0 0 0-.001.2045l1.0985 1.1144a.143.143 0 0 0 .103.0434.148.148 0 0 0 .0987-.0386l.5074-.4681a.146.146 0 0 0 .0045-.2085"/><path fill="currentColor" d="m7.6454 1.039 6.7461 11.686H.8985zM7.756.1926 7.6454.001l-.055.0953L0 13.2433h15.289z"/><path fill="#212d65" d="M14.3915 12.7248 7.645 1.0388.8986 12.7248z"/><path fill="#fff" d="M7.8937 11.3098c-.0476.031-.1286.0482-.228.0482-.4925 0-1.4487-.4065-2.035-1.3085-.4162-.6402-.4765-1.3086-.4765-1.6499.001-.5326.1437-.8646.2445-.93.0175-.0108.0706-.0373.1955-.0373.494 0 1.4925.4125 2.068 1.2978.7075 1.0888.526 2.3887.2315 2.5797M5.5942 7.136c-.1502 0-.2704.0289-.3566.085-.2294.149-.3789.6114-.38 1.1787-.0008.3735.0664 1.1073.5244 1.8116.3593.5532.8192.8932 1.1414 1.0798.3982.231.8136.3632 1.1422.3632.161 0 .2916-.032.3895-.0963.4876-.3164.6197-1.8137-.1445-2.9895-.6418-.9877-1.741-1.4325-2.3163-1.4325"/><path fill="#fff" d="m7.1075 9.5828-.112.0725-.1444-.2225.1114-.0725a.1482.1482 0 0 0-.1611-.2487L6.69 9.184l-.1027-.158.1114-.0722a.149.149 0 0 0 .0437-.2053.149.149 0 0 0-.2053-.0434l-.1114.072-.0844-.1302a.1484.1484 0 0 0-.2054-.0432.1473.1473 0 0 0-.0436.2046l.085.1301-.1117.0728a.1487.1487 0 0 0 .0812.2728.15.15 0 0 0 .0804-.0244l.1117-.0717.1021.1577-.1111.072a.149.149 0 0 0-.0437.2053.149.149 0 0 0 .2053.0437l.1114-.0725.1445.2222-.1114.0725a.1482.1482 0 0 0 .081.2726.146.146 0 0 0 .0807-.0236l.1114-.0728.0426.066a.148.148 0 0 0 .124.068.1485.1485 0 0 0 .1244-.2294l-.0429-.0662.1114-.072a.148.148 0 0 0 .0437-.205.148.148 0 0 0-.2048-.0437M7.9129 6.1597c.4037 0 .7316.328.7316.7318a.733.733 0 0 1-.3236.6073c-.0172.0053-.0434.0095-.057.0069-.003-.0077-.009-.0305-.0052-.0768.021-.3064-.0212-.6768-.5416-.8228-.2093-.0585-.3815.0145-.5088.0992.0828-.313.366-.5456.7046-.5456m-.704.9197.047-.0378c.1252-.1056.2406-.1892.381-.1498.2652.0741.3472.205.3255.5165-.0061.0878.006.1548.027.2074-.0254.0024-.05.0074-.0765.0074-.3379 0-.6207-.2315-.704-.5437m-.3213-.0857c.0006.0042.003.007.004.0114.0566.5135.4927.9146 1.0213.9146.567 0 1.0282-.4614 1.0282-1.0282 0-.567-.4612-1.0284-1.0282-1.0284s-1.0282.4614-1.0282 1.0284c0 .0199.0019.0394.0032.0596-.0013.0142-.0032.028-.0003.0426M8.7686 8.8298l-.1744-.4223c.2678-.1855.6414-.3746.7787-.3148.0122.0053.0495.0222.0593.1307.0203.2209-.0902.3852-.3374.5021-.1188.0564-.242.0879-.3262.1043m.9589-.6334c-.0217-.2336-.14-.3329-.2355-.3752-.3768-.1654-1.0401.3191-1.1692.4178a.147.147 0 0 0-.0466.174l.2614.634c.0003.0024.0013.0045.0024.0071l.7535 1.8285a.1485.1485 0 0 0 .2744-.1132l-.6847-1.6611c.095-.0215.2137-.0561.3312-.1111.363-.1691.5445-.4535.513-.801"/><path fill="currentColor" d="M16.1882 13.7604h13.493l-6.7466 11.685zm-.899-.5183 7.6456 13.241 7.6443-13.241z"/><path fill="#212d65" d="m22.9342 25.4454 6.7471-11.686h-13.493z"/><path fill="#fff" d="M23.4982 18.6574a1.96 1.96 0 0 0 .1984-.337 3.9 3.9 0 0 0 .4313-.0974 1.91 1.91 0 0 1-.6297.4344m-2.1074-.4432c.1336.0379.2818.0701.435.0969.0593.1301.1278.245.2024.3463a1.91 1.91 0 0 1-.6374-.4432m.6374-3.0533c-.1453.1971-.2646.452-.3477.7483-.2185-.0458-.363-.1006-.4252-.1456.2-.2624.4652-.4728.7729-.6027m2.2426.6027c-.0614.045-.2059.0998-.425.1456-.083-.2964-.202-.5512-.3476-.7483.308.13.5728.3403.7726.6027m-1.3623 2.3527v-.673c.2291-.004.489-.0183.745-.0472-.0333.2474-.0904.476-.1669.6745a5.4 5.4 0 0 1-.5781.0457m0 .6623v-.384a5.7 5.7 0 0 0 .4384-.028c-.124.2117-.2752.3567-.4384.412m-.29-.3842v.3842c-.1646-.0558-.3167-.203-.4416-.417a6 6 0 0 0 .4416.0328m-.7459-.9983c.2564.0289.517.0432.746.0471v.6726a5.2 5.2 0 0 1-.5809-.0505c-.075-.1974-.1317-.4239-.165-.6692m.7458-1.1123v.8803a7.4 7.4 0 0 1-.7731-.0508 3.5458 3.5458 0 0 1 .059-.8834c.2767.037.5485.0495.7141.054m0-1.2446v.966a5.8 5.8 0 0 1-.6488-.0474c.1384-.4768.3758-.825.6488-.9186m.29.966v-.966c.273.0936.5096.4418.6487.9186a5.8 5.8 0 0 1-.6487.0473m.7787.9041q0 .1029-.0061.2035c-.2234.0278-.4824.0466-.7726.0513v-.8803c.1653-.0045.437-.0169.714-.054a3.6 3.6 0 0 1 .0646.6795m.9684-.0786c-.0518.0704-.2884.1667-.6831.2382a3.5 3.5 0 0 0 .0045-.1596c0-.2569-.0244-.5009-.0678-.7276.2043-.0431.3898-.1032.5139-.1878.1386.25.2204.5347.2325.8368m-3.5523-.8368c.1241.0846.3101.1447.5146.1878a3.85 3.85 0 0 0-.068.7276c0 .054.0021.1072.004.16-.3963-.0716-.6328-.1677-.6834-.2351a1.886 1.886 0 0 1 .2329-.8404m-.217 1.1718c.18.085.423.1466.688.19.0258.2339.0727.452.1356.6511-.3198-.068-.5527-.1531-.6241-.2158a1.88 1.88 0 0 1-.1995-.6253m2.9276.849c.0646-.201.1124-.422.1386-.659.2649-.0434.5083-.105.688-.19a1.89 1.89 0 0 1-.1924.6107c-.0818.0786-.31.1699-.6342.2384m1.1356-1.1054c0-1.2054-.9806-2.1863-2.1863-2.1863-1.2054 0-2.186.9808-2.186 2.1863 0 1.2052.9805 2.186 2.186 2.186 1.2057 0 2.1863-.9808 2.1863-2.186"/><path fill="#fff" d="M24.6212 19.1194c-.2942.3072-.591.5196-.9088.6493a.146.146 0 0 0-.0897.1344v.3236h-.3628v-.6596c0-.0146.0201-.031.0426-.0352a2.675 2.675 0 0 0 1.315-.6946c.0178.0087.0445.0273.0717.0622.0424.0553-.0378.1876-.068.2199m.2974-.3963c-.0825-.1075-.1947-.1755-.301-.1826-.0678-.0032-.13.0172-.174.0611a2.38 2.38 0 0 1-1.1998.6459c-.1577.0325-.2725.1661-.2736.3204v.8032a.145.145 0 0 0 .1453.1453h.6519a.1447.1447 0 0 0 .1447-.1453v-.3727c.3218-.1474.6237-.3702.9187-.6784.0987-.1038.2505-.3855.0878-.597M22.2652 20.2264h-.3622v-.3239a.144.144 0 0 0-.0902-.1336c-.3173-.1304-.6147-.3426-.9089-.65-.0299-.0323-.11-.1646-.0672-.22.0267-.0346.0537-.0534.0712-.062a2.674 2.674 0 0 0 1.3152.6944c.0227.0045.042.0207.042.0363zm.0164-.9792a2.385 2.385 0 0 1-1.2002-.6459c-.0437-.0442-.1058-.0648-.1736-.061-.106.0068-.2185.0748-.301.1822-.163.2114-.0112.4935.0878.597.2955.3081.5969.531.918.6786v.3728c0 .0807.0649.1452.1453.1452h.652a.145.145 0 0 0 .1452-.1452v-.8062c-.0008-.1513-.1156-.285-.2736-.3175"/></g></svg>