<svg xmlns="http://www.w3.org/2000/svg" width="577.89" height="500.485" viewBox="0 0 152.9 132.42"><g stroke-width=".265"><path fill="currentColor" d="M8.98 5.2h134.94L76.443 122.05zM0 .015l76.446 132.4L152.9-.004z"/><path fill="#212d65" d="m8.982 5.194 67.466 116.86 67.469-116.86z"/><path fill="#fff" d="M66.744 29.868a1.48 1.48 0 0 0-1.193-1.722 1.48 1.48 0 0 0-1.725 1.19c-.003.045-.794 4.115-5.197 5.993a1.48 1.48 0 0 0-.783 1.94c.24.566.794.907 1.365.907q.293 0 .585-.124c5.853-2.498 6.906-7.951 6.948-8.184"/><path fill="#fff" d="M94.914 54.416c-3.577 5.593-9.117 12.261-15.195 12.261a8.8 8.8 0 0 1-2.971-.537c-6.707-2.426-7.337-11.494-6.681-18.666.614-6.705 2.44-13.065 3.098-15.2.651-.138 1.784-.307 3.366-.307 2.405 0 6.397.402 11.726 2.334 8.231 2.97 11.8 6.717 12.904 8.096-.773 1.862-3.02 6.974-6.247 12.02M56.462 40.939c-2.312-5.34-3.69-10.522-4.157-12.427 1.305-1.207 5.411-4.355 13.991-6.03 8.578-1.68 13.57-.307 15.224.31.175 1.2.498 3.69.691 6.78-1.98-.37-3.879-.568-5.68-.568-1.834 0-3.16.193-3.993.376-.908-.76-1.373-1.458-1.387-1.477a1.48 1.48 0 0 0-2.042-.452 1.476 1.476 0 0 0-.458 2.045c.071.116.622.942 1.677 1.894-.592 1.897-2.002 6.766-2.82 12.441-2.932 1.109-4.337 2.601-4.503 2.784a1.493 1.493 0 0 0 1.111 2.476c.407 0 .81-.172 1.103-.497.01-.01.625-.654 1.884-1.331-.225 2.53-.29 5.125-.077 7.615-4.741-2.416-8.307-8.721-10.565-13.938m47.662.52c-.134-.237-3.476-5.836-14.854-9.945a48 48 0 0 0-4.045-1.257c-.257-4.966-.876-8.59-.908-8.752a1.49 1.49 0 0 0-.735-1.045c-.241-.13-5.985-3.212-17.862-.887-11.872 2.32-16.036 7.337-16.2 7.552a1.46 1.46 0 0 0-.297 1.246c.233 1.08 5.795 25.829 18.296 29.898 1.016 4.86 3.422 8.924 8.226 10.657 1.3.47 2.638.712 3.974.712 13.938 0 24.08-25.807 24.506-26.903a1.48 1.48 0 0 0-.1-1.276"/><path fill="#fff" d="M86.134 57.973c-.026.01-2.471.712-6.207-.64-3.68-1.328-5.146-3.43-5.186-3.485a1.48 1.48 0 0 0-2.042-.434 1.475 1.475 0 0 0-.445 2.043c.077.121 1.937 2.955 6.665 4.664 2.17.786 4.03 1 5.416 1 1.632 0 2.617-.296 2.693-.322a1.47 1.47 0 0 0 .96-1.858 1.477 1.477 0 0 0-1.854-.968M87.984 42.803a1.473 1.473 0 0 0-1.177 1.73 1.48 1.48 0 0 0 1.733 1.18c3.304-.632 4.966 2.22 5.043 2.358a1.49 1.49 0 0 0 2.01.585 1.493 1.493 0 0 0 .593-2.017c-.929-1.69-3.834-4.675-8.202-3.836M75.356 41.48c.132-.05 3.246-1.196 5.387 1.41a1.47 1.47 0 0 0 2.085.204 1.48 1.48 0 0 0 .206-2.088c-2.823-3.431-6.969-2.997-8.763-2.286a1.483 1.483 0 1 0 1.085 2.76"/></g></svg>