<svg xmlns="http://www.w3.org/2000/svg" width="577.85" height="500.48" viewBox="0 0 152.89 132.42"><g stroke-width="2.646"><path fill="currentColor" d="M76.431 122.04 8.97 5.18H143.9zm-1.106 8.464 1.106 1.916.55-.953L152.885-.003H-.005z"/><path fill="#212d65" d="m8.971 5.188 67.466 116.86L143.9 5.188z"/><path fill="#fff" d="M85.929 70.359c-.476.31-1.286.482-2.28.482-4.925 0-14.487-4.064-20.35-13.084-4.162-6.403-4.765-13.087-4.765-16.5.01-5.326 1.437-8.646 2.445-9.3.175-.108.706-.373 1.955-.373 4.94 0 14.925 4.125 20.68 12.978 7.075 10.888 5.26 23.887 2.315 25.797M62.934 28.621c-1.502 0-2.704.289-3.566.85-2.294 1.49-3.789 6.114-3.8 11.787-.008 3.736.664 11.073 5.244 18.116 3.593 5.532 8.192 8.932 11.414 10.798 3.982 2.31 8.136 3.632 11.422 3.632 1.61 0 2.916-.32 3.895-.963 4.876-3.164 6.197-18.137-1.445-29.895-6.418-9.877-17.41-14.325-23.164-14.325"/><path fill="#fff" d="m78.059 53.099-1.12.725-1.444-2.225 1.114-.725a1.482 1.482 0 0 0-1.611-2.487l-1.114.725-1.027-1.58 1.114-.722a1.49 1.49 0 0 0 .437-2.053 1.49 1.49 0 0 0-2.053-.434l-1.114.72-.844-1.302a1.484 1.484 0 0 0-2.054-.432 1.473 1.473 0 0 0-.436 2.046l.85 1.301-1.117.728a1.487 1.487 0 0 0 .812 2.728c.278 0 .553-.082.804-.244l1.117-.717 1.021 1.577-1.111.72a1.49 1.49 0 0 0-.437 2.053 1.49 1.49 0 0 0 2.053.437l1.114-.725 1.445 2.222-1.114.725a1.482 1.482 0 0 0 .81 2.726c.275 0 .555-.071.807-.236l1.114-.728.426.66c.283.436.756.68 1.24.68a1.485 1.485 0 0 0 1.244-2.294l-.429-.662 1.114-.72a1.48 1.48 0 0 0 .437-2.05 1.48 1.48 0 0 0-2.048-.437m8.06-34.24a7.32 7.32 0 0 1 7.316 7.318 7.33 7.33 0 0 1-3.236 6.073c-.172.053-.434.095-.57.069-.03-.077-.09-.305-.052-.768.21-3.064-.212-6.768-5.416-8.228-2.093-.585-3.815.145-5.088.992.828-3.13 3.66-5.456 7.046-5.456m-7.04 9.197.47-.378c1.252-1.056 2.405-1.892 3.81-1.498 2.651.741 3.472 2.05 3.255 5.165-.061.878.06 1.548.27 2.074-.254.024-.5.074-.765.074-3.379 0-6.207-2.315-7.04-5.437m-3.213-.857c.005.042.03.07.04.114.566 5.135 4.927 9.146 10.213 9.146 5.67 0 10.282-4.614 10.282-10.282 0-5.67-4.612-10.284-10.282-10.284s-10.282 4.614-10.282 10.284c0 .199.019.394.032.596-.013.142-.032.28-.003.426m18.813 18.37-1.744-4.223c2.678-1.855 6.414-3.746 7.787-3.148.122.053.495.222.593 1.307.203 2.209-.902 3.852-3.374 5.021-1.188.564-2.42.879-3.262 1.043m9.589-6.334c-.217-2.336-1.4-3.329-2.355-3.752-3.768-1.654-10.401 3.191-11.692 4.178a1.47 1.47 0 0 0-.466 1.74l2.614 6.34c.003.024.013.045.024.071l7.535 18.285a1.485 1.485 0 0 0 2.744-1.132l-6.847-16.611c.95-.215 2.137-.561 3.312-1.111 3.63-1.691 5.445-4.535 5.13-8.01"/></g></svg>