<svg xmlns="http://www.w3.org/2000/svg" width="1529" height="1324.1" viewBox="0 0 152.9 132.41"><g stroke-width=".265"><path d="M8.988 5.19h134.93L76.452 122.04zM-.002.007l76.456 132.41L152.897.007z" fill="currentColor"/><path fill="#212d65" d="M76.448 122.04 143.919 5.18H8.989z"/><path fill="#fff" d="M82.088 54.16a19.6 19.6 0 0 0 1.984-3.37 39 39 0 0 0 4.313-.975 19.1 19.1 0 0 1-6.297 4.345m-21.074-4.432c1.336.379 2.818.701 4.35.969a19.3 19.3 0 0 0 2.024 3.463 19.1 19.1 0 0 1-6.374-4.432m6.374-30.533c-1.453 1.971-2.646 4.52-3.477 7.483-2.185-.458-3.63-1.006-4.252-1.456 2-2.624 4.652-4.728 7.729-6.027m22.426 6.027c-.614.45-2.059.998-4.25 1.456-.83-2.964-2.02-5.512-3.476-7.483 3.08 1.3 5.728 3.403 7.726 6.027M76.19 48.75v-6.73c2.291-.04 4.89-.183 7.45-.472-.333 2.474-.904 4.76-1.669 6.745a54 54 0 0 1-5.781.457m0 6.623v-3.84a57 57 0 0 0 4.384-.28c-1.24 2.117-2.752 3.567-4.384 4.12m-2.9-3.842v3.842c-1.646-.558-3.167-2.03-4.416-4.17a60 60 0 0 0 4.416.328m-7.458-9.983c2.563.289 5.17.432 7.458.471v6.726a52 52 0 0 1-5.807-.505c-.752-1.974-1.318-4.239-1.652-6.692m7.46-11.123v8.803a74 74 0 0 1-7.732-.508 35.458 35.458 0 0 1 .59-8.834c2.767.37 5.485.494 7.141.54m0-12.447v9.66a58 58 0 0 1-6.488-.473c1.384-4.768 3.757-8.25 6.488-9.187m2.9 9.66v-9.66c2.73.937 5.096 4.419 6.487 9.187a58 58 0 0 1-6.487.473m7.786 9.041q0 1.029-.06 2.035c-2.234.278-4.824.465-7.726.513v-8.803c1.653-.045 4.37-.169 7.14-.54a36 36 0 0 1 .646 6.795m9.684-.786c-.518.704-2.884 1.667-6.831 2.381.024-.529.045-1.055.045-1.595 0-2.569-.244-5.009-.678-7.276 2.043-.431 3.898-1.032 5.139-1.878a18.8 18.8 0 0 1 2.325 8.368m-35.523-8.368c1.241.846 3.101 1.447 5.146 1.878a38.5 38.5 0 0 0-.68 7.276c0 .54.021 1.072.04 1.6-3.963-.716-6.328-1.677-6.834-2.351.12-3.035.942-5.895 2.329-8.404m-2.17 11.718c1.8.85 4.23 1.466 6.88 1.9.258 2.339.727 4.52 1.356 6.511-3.198-.68-5.527-1.531-6.241-2.159a18.8 18.8 0 0 1-1.995-6.252m29.276 8.49a33.7 33.7 0 0 0 1.386-6.59c2.649-.434 5.083-1.05 6.88-1.9a18.9 18.9 0 0 1-1.924 6.107c-.818.786-3.1 1.699-6.342 2.384m11.356-11.054c0-12.054-9.806-21.863-21.863-21.863-12.054 0-21.86 9.808-21.86 21.863 0 12.052 9.805 21.86 21.86 21.86 12.057 0 21.863-9.808 21.863-21.86"/><path fill="#fff" d="M93.318 58.78c-2.942 3.072-5.91 5.196-9.088 6.493a1.46 1.46 0 0 0-.897 1.344v3.236h-3.628v-6.596c0-.146.201-.31.426-.352a26.75 26.75 0 0 0 13.15-6.945c.178.087.445.272.717.621.424.553-.378 1.876-.68 2.199m2.974-3.963c-.825-1.075-1.947-1.755-3.01-1.826-.678-.032-1.3.172-1.74.611a23.8 23.8 0 0 1-11.998 6.459c-1.577.325-2.725 1.661-2.736 3.204v8.032c0 .808.651 1.453 1.453 1.453h6.519c.799 0 1.447-.645 1.447-1.452v-3.729c3.218-1.473 6.237-3.701 9.187-6.783.987-1.038 2.505-3.855.878-5.97M69.758 69.85h-3.622v-3.238c0-.588-.357-1.117-.902-1.337-3.173-1.304-6.147-3.426-9.089-6.5-.299-.323-1.1-1.646-.672-2.2.267-.346.537-.534.712-.62a26.74 26.74 0 0 0 13.152 6.944c.227.045.42.207.42.363zm.164-9.792a23.85 23.85 0 0 1-12.002-6.459c-.437-.442-1.058-.648-1.736-.61-1.06.068-2.185.748-3.01 1.822-1.63 2.114-.112 4.935.878 5.97 2.955 3.081 5.969 5.31 9.18 6.786v3.728c0 .807.649 1.452 1.453 1.452h6.52c.804 0 1.452-.645 1.452-1.452v-8.062c-.008-1.514-1.156-2.85-2.736-3.175"/></g></svg>