<svg xmlns="http://www.w3.org/2000/svg" width="577.89" height="500.48" viewBox="0 0 152.9 132.42"><g stroke-width=".265"><path fill="currentColor" d="M76.448 122.04 8.971 5.18h134.95zm0 10.38L152.897 0H-.003z"/><path fill="#212d65" d="M143.91 5.185H8.98l67.469 116.86z"/><path fill="#fff" d="M62.429 41.156a1.48 1.48 0 0 0 2.027-.54l7.72-13.364a.3.3 0 0 1 .037-.066 4.541 4.541 0 0 1 7.99-.005q.011.016.025.029l5.178 8.98-3.633-2.098a1.48 1.48 0 0 0-2.027.542 1.486 1.486 0 0 0 .548 2.027l8.422 4.86h.002c.077.043.156.072.24.103.165.056.329.098.496.098h.002c.133 0 .257-.02.376-.05a1.42 1.42 0 0 0 .757-.49c.024-.04.056-.076.079-.11.095-.14.172-.286.217-.445q.002-.006.002-.021c.032-.122.048-.241.048-.373v-9.718a1.483 1.483 0 0 0-2.966 0v4.19l-5.172-8.96a7.504 7.504 0 0 0-13.208.052l-7.7 13.335a1.48 1.48 0 0 0 .54 2.024m10.67 25.208H57.597a4.54 4.54 0 0 1-4.072-2.273 4.53 4.53 0 0 1 .061-4.651c.005-.011.016-.021.02-.032l5.182-8.975v4.191a1.482 1.482 0 1 0 2.964 0v-9.723c0-.125-.016-.254-.05-.37v-.014a1.4 1.4 0 0 0-.22-.45.4.4 0 0 0-.085-.103 1.4 1.4 0 0 0-.389-.346 1.4 1.4 0 0 0-.495-.167.6.6 0 0 0-.127-.019 1.4 1.4 0 0 0-.5.037q-.003.002-.002.003a1.5 1.5 0 0 0-.358.145l-8.416 4.86a1.49 1.49 0 0 0-.548 2.03 1.496 1.496 0 0 0 2.032.54l3.625-2.093-5.172 8.959a7.49 7.49 0 0 0-.087 7.66 7.49 7.49 0 0 0 6.503 3.76q.113.001.233-.006H73.1a1.483 1.483 0 0 0 0-2.963m20.539-21.839a1.487 1.487 0 0 0-2.027-.542 1.49 1.49 0 0 0-.542 2.029l7.712 13.361.04.056a4.53 4.53 0 0 1 .071 4.665 4.55 4.55 0 0 1-4.058 2.272H84.431l3.632-2.095a1.49 1.49 0 0 0 .543-2.03 1.49 1.49 0 0 0-2.027-.544l-8.422 4.865a1.5 1.5 0 0 0-.299.233q-.007.005-.007.008a1.5 1.5 0 0 0-.286.415c-.013.04-.034.077-.045.117a1.4 1.4 0 0 0-.106.51c0 .186.042.35.106.51.01.043.032.083.045.128.132.26.328.497.592.648l8.422 4.86a1.49 1.49 0 0 0 2.027-.54 1.487 1.487 0 0 0-.543-2.026l-3.632-2.095h10.348l.172.002a7.49 7.49 0 0 0 6.506-3.757 7.48 7.48 0 0 0-.12-7.707z"/><path fill="#fff" d="M77.689 55.574c0-.526-.278-1.008-.733-1.275a1.48 1.48 0 0 0-1.474-.02c-.537.3-2.31 1.072-3.381.736-.217-.074-.497-.211-.72-.677-.873-1.815.96-2.974 1.328-3.183.392-.217.662-.598.744-1.04a1.46 1.46 0 0 0-.339-1.227c-.203-.247-1.981-2.406-.108-4.049.796-.693 1.59-.82 2.572-.391.883.38 1.524 1.069 1.524 1.069.455.5 1.195.63 1.79.312.297-.154 2.914-1.45 4.08.497.263.44.331.836.223 1.254-.294 1.109-1.762 2.14-2.252 2.419a1.5 1.5 0 0 0-.767 1.352c.026.563.362 1.063.876 1.296.41.188 1.783 1.04 1.569 1.683-.19.558-1.643.344-2.112.204a1.48 1.48 0 0 0-1.841.997 1.48 1.48 0 0 0 .987 1.847c2.22.662 4.966.294 5.776-2.095.566-1.675-.19-3.064-1.223-4.046.752-.712 1.524-1.68 1.847-2.873.325-1.202.14-2.43-.537-3.559-1.789-2.979-4.96-2.77-7.022-2.029-1.707-1.38-4.68-2.585-7.443-.164-2.431 2.125-2.106 4.919-1.066 6.895-1.368 1.283-2.561 3.442-1.283 6.115.529 1.1 1.397 1.87 2.505 2.217 1.188.373 2.466.214 3.517-.074v3.598c0 .818.661 1.48 1.481 1.48a1.48 1.48 0 0 0 1.482-1.48z"/></g></svg>